<svg width="26" height="27" viewBox="0 0 26 27" fill="none" xmlns="http://www.w3.org/2000/svg">
<path d="M24.471 12.6668L13.3745 23.7633C12.0151 25.1227 10.1713 25.8865 8.2488 25.8865C6.3263 25.8865 4.48254 25.1227 3.12312 23.7633C1.76371 22.4039 1 20.5602 1 18.6377C1 16.7152 1.76371 14.8714 3.12312 13.512L14.2197 2.41542C15.126 1.50914 16.3551 1 17.6368 1C18.9185 1 20.1477 1.50914 21.0539 2.41542C21.9602 3.32169 22.4693 4.55086 22.4693 5.83253C22.4693 7.1142 21.9602 8.34337 21.0539 9.24965L9.94528 20.3462C9.49214 20.7994 8.87756 21.0539 8.23672 21.0539C7.59589 21.0539 6.9813 20.7994 6.52816 20.3462C6.07503 19.8931 5.82046 19.2785 5.82046 18.6377C5.82046 17.9968 6.07503 17.3822 6.52816 16.9291L16.7795 6.68983" stroke="#CBCBCB" stroke-width="1.70465" stroke-linecap="round" stroke-linejoin="round"/>
</svg>
