<svg width="28" height="28" viewBox="0 0 28 28" fill="none" xmlns="http://www.w3.org/2000/svg">
<path d="M23.6297 4.80004C26.1449 7.31478 27.5302 10.6588 27.5302 14.215C27.5302 17.7712 26.1449 21.1152 23.6301 23.6295C21.1154 26.1447 17.7713 27.53 14.2152 27.53C10.659 27.53 7.31496 26.1447 4.80064 23.63C2.28549 21.1152 0.900175 17.7712 0.900175 14.215C0.900175 10.6588 2.28548 7.31479 4.80021 4.80046C7.31495 2.28531 10.659 0.9 14.2152 0.9C17.7713 0.9 21.1154 2.2853 23.6297 4.80004ZM23.6297 4.80004L23.559 4.87076L23.6297 4.80004ZM22.3204 6.10976L22.3204 6.10975C20.1554 3.94431 17.2772 2.75188 14.2152 2.75188C11.1531 2.75188 8.27496 3.94431 6.10994 6.10975L6.10992 6.10976C3.94449 8.27479 2.75205 11.1529 2.75205 14.215C2.75205 17.2771 3.94449 20.1552 6.10992 22.3202L6.10994 22.3203C8.27496 24.4857 11.1531 25.6781 14.2152 25.6781C17.2772 25.6781 20.1554 24.4857 22.3204 22.3203L22.3204 22.3202C24.4859 20.1552 25.6783 17.2771 25.6783 14.215C25.6783 11.1529 24.4859 8.27479 22.3204 6.10976Z" fill="white" stroke="white" stroke-width="0.2"/>
<path d="M10.5014 13.9977L10.5014 13.9977C10.3695 14.1313 10.2958 14.312 10.2958 14.4999C10.2958 14.6877 10.3694 14.8684 10.5013 15.002C10.5013 15.002 10.5014 15.002 10.5014 15.0021L15.4372 20.0022L15.579 19.8622L15.4372 20.0022C15.7128 20.2813 16.1607 20.2813 16.4363 20.0022C16.4363 20.0022 16.4363 20.0022 16.4363 20.0022L16.2858 19.8536L10.5014 13.9977ZM10.5014 13.9977L15.4373 8.99784L10.5014 13.9977ZM16.2982 9.86576L16.4364 10.0022C16.7105 9.7245 16.7104 9.27545 16.4364 8.99784C16.1608 8.71867 15.7129 8.71867 15.4373 8.99784L16.2982 9.86576ZM16.2982 9.86576L16.4364 10.0022L11.9962 14.4999L16.2982 9.86576Z" fill="white" stroke="white" stroke-width="0.423077"/>
</svg>
