<svg width="27" height="24" viewBox="0 0 27 24" fill="none" xmlns="http://www.w3.org/2000/svg">
<path d="M24.9502 10.2951H24.3215V6.51707C24.3215 4.97225 23.0639 3.72013 21.5245 3.72013H20.9445L20.9499 2.31624C20.9499 1.27552 20.1044 0.429932 19.0636 0.429932H2.29284C1.04072 0.429932 0.0162613 1.43813 0 2.69025C0 2.70109 0 2.71193 0 2.72277V21.2281C0 22.2688 0.845586 23.1144 1.88631 23.1144H21.5299C23.0748 23.1144 24.3269 21.8569 24.3269 20.3175V16.534H24.9556C25.7687 16.534 26.43 15.8727 26.43 15.0597V11.7695C26.4246 10.9564 25.7633 10.2951 24.9502 10.2951ZM2.29284 1.73083H19.0636C19.3834 1.73083 19.649 1.99101 19.649 2.31082L19.6436 3.72013H2.29284C1.74538 3.72013 1.3009 3.27566 1.3009 2.72819C1.3009 2.18073 1.74538 1.73083 2.29284 1.73083ZM23.0206 20.3121C23.0206 21.136 22.3484 21.8081 21.5245 21.8081H1.88089C1.56108 21.8081 1.29548 21.5479 1.29548 21.2227V4.79338C1.59903 4.93973 1.93509 5.02103 2.29284 5.02103H21.5245C22.3484 5.02103 23.0206 5.69317 23.0206 6.51707V10.2951H18.5812C17.7682 10.2951 17.1069 10.9564 17.1069 11.7695V15.0597C17.1069 15.8727 17.7682 16.534 18.5812 16.534H23.0206V20.3121ZM25.1237 15.0597C25.1237 15.1572 25.0478 15.2331 24.9502 15.2331H18.5866C18.4891 15.2331 18.4132 15.1572 18.4132 15.0597V11.7695C18.4132 11.6773 18.4891 11.596 18.5866 11.596H24.9502C25.0424 11.596 25.1237 11.6719 25.1237 11.7695V15.0597Z" fill="white"/>
</svg>
