<svg width="30" height="23" viewBox="0 0 30 23" fill="none" xmlns="http://www.w3.org/2000/svg">
<path d="M18.1591 6.29297C16.152 5.13503 12.9097 5.13503 10.9145 6.29297C8.91927 7.45091 8.93114 9.33331 10.9382 10.4913C12.9453 11.6492 16.1876 11.6492 18.1828 10.4913C20.178 9.32737 20.1662 7.45091 18.1591 6.29297ZM17.2386 8.11599C17.0664 8.16943 16.8942 8.22881 16.722 8.28226C16.6151 8.31195 16.5498 8.31789 16.5023 8.29413C16.4786 8.27632 16.4548 8.25257 16.431 8.21694C16.3182 8.03285 16.146 7.87252 15.9144 7.74188C15.8847 7.72407 15.8491 7.70625 15.8135 7.68844C15.7363 7.64687 15.665 7.61718 15.57 7.59343C15.2375 7.51623 14.9406 7.64094 14.9821 7.84877C14.9999 7.95566 15.0593 8.05067 15.1306 8.15162C15.2494 8.31789 15.38 8.48415 15.4631 8.6623C15.7422 9.22049 15.1365 9.77274 14.1627 9.82618C13.8123 9.84399 13.4798 9.80243 13.171 9.70148C13.0344 9.65991 12.9335 9.65991 12.8325 9.73117C12.7316 9.79649 12.6187 9.85587 12.5119 9.91525C12.4168 9.9687 12.3159 9.97463 12.2209 9.92119C12.1496 9.88556 12.0843 9.844 12.0131 9.80837C11.9655 9.77868 11.918 9.75492 11.8705 9.72523C11.7696 9.66585 11.7815 9.60647 11.8765 9.54709C11.9537 9.49958 12.0309 9.45801 12.1021 9.41051C12.2743 9.30956 12.2743 9.30362 12.1318 9.1908C11.9537 9.04828 11.7933 8.89983 11.6924 8.73356C11.6152 8.60292 11.633 8.57323 11.8408 8.50197C11.9952 8.45446 12.1437 8.40102 12.2981 8.35352C12.4109 8.31789 12.4762 8.31195 12.5237 8.3357C12.5534 8.35351 12.5712 8.37727 12.595 8.41883C12.6959 8.60886 12.8681 8.77512 13.076 8.93545C13.1116 8.96515 13.1532 8.9889 13.1888 9.01265C13.3016 9.07797 13.4323 9.12548 13.5807 9.16111C13.9667 9.25018 14.3111 9.09579 14.2755 8.85232C14.2636 8.76919 14.2221 8.69793 14.1686 8.62073C14.038 8.42477 13.8658 8.24069 13.7767 8.03285C13.6342 7.70032 13.6995 7.39747 14.1567 7.15994C14.6793 6.89273 15.2612 6.87491 15.8788 7.04118C16.1341 7.11244 16.1282 7.11244 16.3242 6.99961C16.3895 6.95805 16.4548 6.92242 16.5201 6.88679C16.6686 6.80365 16.722 6.80365 16.8705 6.88679C16.918 6.91054 16.9595 6.94023 17.007 6.96398C17.3218 7.14213 17.3218 7.14213 17.013 7.32621C16.7933 7.45091 16.7933 7.45091 16.9774 7.59937C17.1199 7.71219 17.2327 7.83096 17.3158 7.9616C17.3812 8.02692 17.3574 8.08036 17.2386 8.11599ZM20.8372 12.0233C20.2849 12.344 19.3883 12.344 18.8301 12.0233C18.2778 11.7026 18.2719 11.1801 18.8241 10.8594C19.3764 10.5388 20.273 10.5388 20.8312 10.8594C21.3894 11.1801 21.3954 11.7026 20.8372 12.0233ZM10.2672 5.91887C9.71498 6.23953 8.81832 6.23953 8.26013 5.91887C7.70194 5.59821 7.70194 5.07565 8.25419 4.75499C8.80644 4.43433 9.70311 4.43433 10.2613 4.75499C10.8135 5.07565 10.8195 5.59821 10.2672 5.91887ZM28.3489 9.53521L12.5237 0.396373C11.6093 -0.132124 10.1247 -0.132124 9.21618 0.396373L0.730538 5.32505C-0.178002 5.85355 -0.172064 6.71458 0.742414 7.24308L16.5676 16.3819C17.4821 16.9104 18.9666 16.9104 19.8752 16.3819L28.3549 11.4532C29.2694 10.9247 29.2634 10.0637 28.3489 9.53521ZM20.0474 14.642C19.9464 14.547 19.8277 14.4579 19.6852 14.3748C18.7588 13.8404 17.2565 13.8404 16.336 14.3748C16.2648 14.4164 16.2054 14.458 16.1401 14.5055L3.85401 7.40935C3.97278 7.36184 4.0856 7.3084 4.19249 7.24902C5.1129 6.71458 5.10697 5.84761 4.18061 5.31317C4.07966 5.25379 3.97278 5.20035 3.85995 5.15878L8.92521 2.21345C9.0024 2.27877 9.09147 2.33815 9.19242 2.39753C10.1188 2.93197 11.6211 2.93197 12.5415 2.39753C12.6484 2.33815 12.7375 2.27283 12.8206 2.20158L25.1483 9.3155C24.982 9.37488 24.8336 9.4402 24.691 9.52333C23.7706 10.0578 23.7706 10.9307 24.7029 11.4651C24.8454 11.5482 25.0058 11.6136 25.172 11.6729L20.0474 14.642ZM0.326742 9.07203C0.730538 8.8642 1.35405 8.89389 1.74003 9.11954L18.2838 18.6681L27.2266 13.4663C27.6126 13.2406 28.248 13.2406 28.6399 13.4663C29.0318 13.6919 29.0318 14.0601 28.6459 14.2857L19.1389 19.8082C18.6757 20.0814 17.9156 20.0814 17.4465 19.8082L17.1139 19.6182L16.8823 19.4816L0.297051 9.90931C-0.106744 9.67773 -0.100806 9.29175 0.326742 9.07203ZM28.6577 17.2726L19.1507 22.7951C18.6875 23.0683 17.9275 23.0683 17.4583 22.7951L17.1318 22.6051L16.8942 22.4685L0.308928 12.8962C-0.0948675 12.6646 -0.0829911 12.2786 0.344557 12.0589C0.742414 11.8511 1.37186 11.8808 1.75784 12.1064L18.2956 21.655L27.2385 16.4591C27.6304 16.2335 28.2599 16.2335 28.6518 16.4591C29.0437 16.6788 29.0496 17.047 28.6577 17.2726Z" fill="white"/>
</svg>
