<svg width="63" height="63" viewBox="0 0 63 63" fill="none" xmlns="http://www.w3.org/2000/svg">
<path d="M35.78 32.72C35.9207 32.5795 35.9998 32.3888 36 32.19V31.81C35.9977 31.6116 35.9189 31.4217 35.78 31.28L30.64 26.15C30.5461 26.0553 30.4183 26.0021 30.285 26.0021C30.1517 26.0021 30.0239 26.0553 29.93 26.15L29.22 26.86C29.1259 26.9521 29.0729 27.0783 29.0729 27.21C29.0729 27.3417 29.1259 27.4678 29.22 27.56L33.67 32L29.22 36.44C29.1253 36.5339 29.0721 36.6617 29.0721 36.795C29.0721 36.9283 29.1253 37.0561 29.22 37.15L29.93 37.85C30.0239 37.9446 30.1517 37.9979 30.285 37.9979C30.4183 37.9979 30.5461 37.9446 30.64 37.85L35.78 32.72Z" fill="#BCBCBC"/>
<rect x="1" y="1" width="61" height="61" rx="30.5" stroke="#5C585F" stroke-width="2"/>
</svg>
