<svg width="63" height="63" viewBox="0 0 63 63" fill="none" xmlns="http://www.w3.org/2000/svg">
<path d="M28.22 32.72C28.0793 32.5795 28.0002 32.3888 28 32.19V31.81C28.0023 31.6116 28.0811 31.4217 28.22 31.28L33.36 26.15C33.4539 26.0553 33.5817 26.0021 33.715 26.0021C33.8483 26.0021 33.9761 26.0553 34.07 26.15L34.78 26.86C34.8741 26.9521 34.9271 27.0783 34.9271 27.21C34.9271 27.3417 34.8741 27.4678 34.78 27.56L30.33 32L34.78 36.44C34.8747 36.5339 34.9279 36.6617 34.9279 36.795C34.9279 36.9283 34.8747 37.0561 34.78 37.15L34.07 37.85C33.9761 37.9446 33.8483 37.9979 33.715 37.9979C33.5817 37.9979 33.4539 37.9446 33.36 37.85L28.22 32.72Z" fill="#BCBCBC"/>
<rect x="1" y="1" width="61" height="61" rx="30.5" stroke="#5C585F" stroke-width="2"/>
</svg>
