<svg width="24" height="24" viewBox="0 0 24 24" fill="none" xmlns="http://www.w3.org/2000/svg">
<path fill-rule="evenodd" clip-rule="evenodd" d="M7.70019 15.2003L15.2003 7.70019C14.7956 7.01535 14.5634 6.21651 14.5634 5.36343C14.5634 2.82292 16.6229 0.763428 19.1634 0.763428C21.7039 0.763428 23.7634 2.82292 23.7634 5.36343C23.7634 7.90394 21.7039 9.96343 19.1634 9.96343C18.3103 9.96343 17.5115 9.73121 16.8267 9.32654L9.32654 16.8267C9.73121 17.5115 9.96343 18.3103 9.96343 19.1634C9.96343 21.7039 7.90394 23.7634 5.36343 23.7634C2.82292 23.7634 0.763428 21.7039 0.763428 19.1634C0.763428 16.6229 2.82292 14.5634 5.36343 14.5634C6.21651 14.5634 7.01535 14.7956 7.70019 15.2003ZM5.36343 21.4634C6.63368 21.4634 7.66343 20.4337 7.66343 19.1634C7.66343 17.8932 6.63368 16.8634 5.36343 16.8634C4.09317 16.8634 3.06343 17.8932 3.06343 19.1634C3.06343 20.4337 4.09317 21.4634 5.36343 21.4634ZM19.1634 7.66343C20.4337 7.66343 21.4634 6.63368 21.4634 5.36343C21.4634 4.09317 20.4337 3.06343 19.1634 3.06343C17.8932 3.06343 16.8634 4.09317 16.8634 5.36343C16.8634 6.63368 17.8932 7.66343 19.1634 7.66343Z" fill="#747176"/>
</svg>
