<svg width="7" height="28" viewBox="0 0 7 28" fill="none" xmlns="http://www.w3.org/2000/svg">
<path d="M0.423096 23.8345C0.423096 22.0658 1.86202 20.6269 3.63068 20.6269C5.39934 20.6269 6.83826 22.0658 6.83826 23.8345C6.83826 25.6031 5.39934 27.0421 3.63068 27.0421C1.86202 27.0421 0.423096 25.6031 0.423096 23.8345Z" fill="white"/>
<path d="M0.423096 3.67255C0.423096 1.90389 1.86202 0.464966 3.63068 0.464966C5.39934 0.464966 6.83826 1.90389 6.83826 3.67255C6.83826 5.44121 5.39934 6.88013 3.63068 6.88013C1.86202 6.88013 0.423096 5.44121 0.423096 3.67255Z" fill="white"/>
<path d="M0.423096 13.7535C0.423096 11.9849 1.86202 10.546 3.63068 10.546C5.39934 10.546 6.83826 11.9849 6.83826 13.7535C6.83826 15.5222 5.39934 16.9611 3.63068 16.9611C1.86202 16.9611 0.423096 15.5222 0.423096 13.7535Z" fill="white"/>
</svg>
