<svg width="20" height="21" viewBox="0 0 20 21" fill="none" xmlns="http://www.w3.org/2000/svg">
<path d="M8.00903 17.2525L8.00897 17.2526C6.284 19.095 3.96625 19.7035 1.57849 20.0916L1.56245 19.9929L1.57849 20.0916C1.40513 20.1197 1.25714 20.0754 1.14651 19.985C1.04154 19.8993 0.975603 19.7768 0.948819 19.6492L8.00903 17.2525ZM8.00903 17.2525C8.04379 17.2153 8.06924 17.1779 8.08964 17.1416C11.4717 13.8496 14.7882 10.4814 17.7984 6.83707C17.966 6.99566 18.1178 7.1622 18.2539 7.34831C16.709 9.30609 15.0891 11.1995 13.3811 13.0169C13.2581 13.1478 13.2156 13.2961 13.2418 13.4374C13.2673 13.5746 13.355 13.6914 13.4662 13.7716C13.687 13.9309 14.0392 13.9699 14.2866 13.7066L14.2866 13.7066M8.00903 17.2525L14.2866 13.7066M14.2866 13.7066C16.0878 11.7902 17.7934 9.79124 19.4139 7.72021L19.4139 7.72017M14.2866 13.7066L19.4139 7.72017M19.4139 7.72017C19.4744 7.64281 19.5119 7.54176 19.5237 7.44135M19.4139 7.72017L19.5237 7.44135M19.5237 7.44135C19.5355 7.34119 19.5228 7.23122 19.4702 7.13895M19.5237 7.44135L19.4702 7.13895M19.4702 7.13895C19.1432 6.56453 18.737 6.14053 18.255 5.72208C18.2451 5.70483 18.2342 5.6876 18.2221 5.67057C18.6388 5.0177 18.8382 4.31187 18.7819 3.62676C18.7236 2.91867 18.3928 2.24107 17.7624 1.67544L17.6956 1.74987L17.7624 1.67543C16.5186 0.559797 14.6654 0.743156 13.3924 1.6216C13.3181 1.58644 13.235 1.56828 13.1483 1.57565L19.4702 7.13895ZM2.94297 12.8929C1.72099 14.8749 1.18246 17.069 0.904655 19.3479L3.04787 12.7485C3.03335 12.7665 3.0213 12.7865 3.01367 12.7993C2.98851 12.8268 2.96482 12.8577 2.94311 12.8927L2.94297 12.8929ZM2.33224 17.9694L2.3319 17.9691C2.31524 17.9515 2.29794 17.9355 2.28037 17.9208C2.53882 16.5538 2.93607 15.235 3.60606 14.0102C4.43704 14.8409 5.33292 15.6012 6.22559 16.3589C6.41983 16.5237 6.61392 16.6885 6.80716 16.8538C5.77661 17.8071 4.48869 18.307 3.12884 18.6309C2.84365 18.4233 2.56652 18.2189 2.33224 17.9694ZM17.6021 3.59595C17.6768 3.97791 17.6177 4.41619 17.3641 4.88455C17.2407 4.77422 17.1174 4.6637 16.9941 4.55313C16.1515 3.79767 15.3068 3.04038 14.42 2.33221C15.3151 1.90184 16.3066 2.06292 16.9479 2.56573C17.2839 2.82918 17.5215 3.18455 17.6021 3.59595ZM4.26293 13.055C7.10046 9.51881 10.065 6.08474 13.2796 2.88869C14.3321 3.69261 15.317 4.5746 16.3058 5.46012C16.5271 5.65831 16.7486 5.85668 16.9711 6.0544C14.0667 9.58156 10.8684 12.8433 7.59732 16.0347C7.38002 15.8485 7.16203 15.6637 6.9443 15.4791C6.02167 14.6969 5.10369 13.9187 4.26293 13.055Z" fill="white" stroke="white" stroke-width="0.2"/>
</svg>
