<svg width="75" height="43" viewBox="0 0 75 43" fill="none" xmlns="http://www.w3.org/2000/svg">
<g filter="url(#filter0_f_339_2466)">
<path fill-rule="evenodd" clip-rule="evenodd" d="M10 10H36V32.4545H10V10Z" fill="#A85AC1"/>
</g>
<path d="M32.8929 29.73H12.3727C12.1666 29.73 12 29.5179 12 29.2556V12.4744C12 12.2121 12.1666 12 12.3727 12H32.8973C33.1034 12 33.27 12.2121 33.27 12.4744V29.2612C33.2656 29.5179 33.099 29.73 32.8929 29.73Z" fill="#195BDA"/>
<path d="M27.4404 18.7386H33.07V23.0026H27.436H26.8837L27.3079 23.3562L33.0656 28.1555V29.2669C33.0656 29.4606 32.9507 29.53 32.9015 29.53H31.3334L24.5944 23.9137L24.2664 23.6403V24.0673V29.5188H20.9993V24.0562V23.6291L20.6712 23.9025L13.9322 29.5188H12.3641C12.3149 29.5188 12.2 29.4494 12.2 29.2558V28.1444L17.9577 23.3451L18.3819 22.9914H17.8296H12.2V18.7274H17.8296H18.3819L17.9577 18.3738L12.2 13.5745V12.4631C12.2 12.2694 12.3149 12.2 12.3641 12.2H13.9322L20.6757 17.8163L21.0036 18.0895V17.6627V12.2H24.2707V17.6627V18.0897L24.5988 17.8163L31.3378 12.2H32.9059C32.9551 12.2 33.07 12.2694 33.07 12.4631V13.5801L27.3122 18.385L26.8886 18.7386H27.4404Z" fill="#D52B1E" stroke="white" stroke-width="0.4"/>
<path d="M57.5 25.4V28H46.66V14H57.24V16.6H49.88V19.64H56.38V22.16H49.88V25.4H57.5ZM72.918 14V28H70.258L63.278 19.5V28H60.078V14H62.758L69.718 22.5V14H72.918Z" fill="white"/>
<defs>
<filter id="filter0_f_339_2466" x="0" y="0" width="46" height="42.4546" filterUnits="userSpaceOnUse" color-interpolation-filters="sRGB">
<feFlood flood-opacity="0" result="BackgroundImageFix"/>
<feBlend mode="normal" in="SourceGraphic" in2="BackgroundImageFix" result="shape"/>
<feGaussianBlur stdDeviation="5" result="effect1_foregroundBlur_339_2466"/>
</filter>
</defs>
</svg>
