<svg width="12" height="23" viewBox="0 0 12 23" fill="none" xmlns="http://www.w3.org/2000/svg">
<path d="M0.370968 12.2498H2.89214V22.629C2.89214 22.834 3.05818 23 3.26311 23H7.53784C7.74276 23 7.90881 22.834 7.90881 22.629V12.2987H10.8071C10.9956 12.2987 11.1541 12.1573 11.1756 11.9701L11.6158 8.14897C11.6279 8.04384 11.5946 7.93856 11.5243 7.85969C11.4539 7.78075 11.3531 7.73557 11.2474 7.73557H7.90896V5.3403C7.90896 4.61825 8.29773 4.25211 9.0646 4.25211C9.17388 4.25211 11.2474 4.25211 11.2474 4.25211C11.4523 4.25211 11.6183 4.08599 11.6183 3.88114V0.373713C11.6183 0.16879 11.4523 0.00274516 11.2474 0.00274516H8.23919C8.21797 0.00170645 8.17086 0 8.10142 0C7.57946 0 5.76521 0.102461 4.33209 1.42088C2.7442 2.8819 2.96492 4.63124 3.01767 4.93454V7.73549H0.370968C0.166045 7.73549 0 7.90154 0 8.10646V11.8788C0 12.0837 0.166045 12.2498 0.370968 12.2498Z" fill="#747176"/>
</svg>
