<svg width="18" height="20" viewBox="0 0 18 20" fill="none" xmlns="http://www.w3.org/2000/svg">
<path fill-rule="evenodd" clip-rule="evenodd" d="M8.1707 16L1 16C0.44771 16 -1.55275e-07 16.4477 -1.31134e-07 17C-1.06993e-07 17.5523 0.44771 18 1 18L8.1707 18C8.5825 19.1652 9.6938 20 11 20C12.3062 20 13.4175 19.1652 13.8293 18L17 18C17.5523 18 18 17.5523 18 17C18 16.4477 17.5523 16 17 16L13.8293 16C13.4175 14.8348 12.3062 14 11 14C9.6938 14 8.5825 14.8348 8.1707 16ZM10 17C10 17.5523 10.4477 18 11 18C11.5523 18 12 17.5523 12 17C12 16.4477 11.5523 16 11 16C10.4477 16 10 16.4477 10 17Z" fill="white"/>
<path fill-rule="evenodd" clip-rule="evenodd" d="M18 3C18 3.5523 17.5523 4 17 4L15 4C14.9435 4 14.8881 3.9953 14.8341 3.9863C14.4262 5.1586 13.3113 6 12 6C10.6887 6 9.5738 5.1586 9.1659 3.9863C9.1119 3.9953 9.0565 4 9 4L1 4C0.44771 4 -1.06992e-07 3.5523 -1.31134e-07 3C-1.55276e-07 2.4477 0.44771 2 1 2L9 2C9.0565 2 9.1119 2.0047 9.1659 2.0137C9.5738 0.8414 10.6887 -4.67218e-07 12 -5.24537e-07C13.3113 -5.81855e-07 14.4262 0.8414 14.8341 2.0137C14.8881 2.0047 14.9435 2 15 2L17 2C17.5523 2 18 2.4477 18 3ZM12 4C11.4477 4 11 3.5523 11 3C11 2.4477 11.4477 2 12 2C12.5523 2 13 2.4477 13 3C13 3.5523 12.5523 4 12 4Z" fill="white"/>
<path fill-rule="evenodd" clip-rule="evenodd" d="M6 13C4.69378 13 3.58254 12.1652 3.17071 11L1 11C0.44772 11 -1.06992e-07 10.5523 -1.31134e-07 10C-1.55276e-07 9.4477 0.44772 9 1 9L3.17071 9C3.58254 7.8348 4.69378 7 6 7C7.3113 7 8.4262 7.8414 8.8341 9.0137C8.8881 9.0047 8.9435 9 9 9L17 9C17.5523 9 18 9.4477 18 10C18 10.5523 17.5523 11 17 11L9 11C8.9435 11 8.8881 10.9953 8.8341 10.9863C8.4262 12.1587 7.3113 13 6 13ZM6 11C5.44772 11 5 10.5523 5 10C5 9.4477 5.44772 9 6 9C6.55229 9 7 9.4477 7 10C7 10.5523 6.55229 11 6 11Z" fill="white"/>
</svg>
