<svg width="23" height="23" viewBox="0 0 23 23" fill="none" xmlns="http://www.w3.org/2000/svg">
<path d="M8.84341 5.65865C8.55022 5.36546 8.0747 5.36537 7.78146 5.65865L5.65746 7.7826C5.36418 8.07579 5.36418 8.55132 5.65746 8.84455C5.95065 9.13784 6.42618 9.13784 6.71942 8.84455L8.84341 6.7206C9.1367 6.42741 9.1367 5.95189 8.84341 5.65865Z" fill="white"/>
<path d="M22.1178 14.6855C22.6851 14.1181 22.9976 13.3638 22.9976 12.5615C22.9976 11.7592 22.6852 11.0049 22.1178 10.4375L12.56 0.879758C11.9927 0.312419 11.2384 0 10.4361 0C9.63377 0 8.87947 0.312419 8.31213 0.879758L7.73688 1.455C5.97867 0.203712 3.51616 0.365963 1.94032 1.94176C0.33434 3.54769 0.220153 6.01236 1.45312 7.73882L0.878366 8.31357C-0.292789 9.48472 -0.292789 11.3903 0.878366 12.5614L10.4362 22.1192C11.0035 22.6866 11.7578 22.999 12.5602 22.999C13.3625 22.999 14.1168 22.6866 14.6841 22.1192L15.2589 21.5445C16.9858 22.7777 19.4506 22.6626 21.0559 21.0573C22.6613 19.4519 22.7765 16.9871 21.5431 15.2602L22.1178 14.6855ZM21.0558 13.6235L19.9939 14.6854C19.7008 14.9784 19.7006 15.4541 19.9939 15.7474C21.1677 16.9212 21.168 18.8213 19.9939 19.9953C18.82 21.1691 16.92 21.1694 15.746 19.9953C15.4528 19.702 14.9773 19.7021 14.684 19.9953L13.622 21.0572C13.0351 21.6442 12.0851 21.6442 11.498 21.0572L3.00223 12.5615L4.59514 10.9686C4.88842 10.6753 4.88842 10.1999 4.59514 9.90666C4.30194 9.61337 3.82642 9.61337 3.53318 9.90666L1.94027 11.4996C1.35339 10.9126 1.35326 9.96267 1.94027 9.37561L3.00227 8.31366C3.29533 8.02065 3.29556 7.5449 3.00227 7.2517C2.43493 6.68437 2.12247 5.93007 2.12247 5.12771C2.12247 3.46769 3.46594 2.124 5.12618 2.124C5.9285 2.124 6.68279 2.43651 7.25018 3.0038C7.54337 3.29708 8.01889 3.29699 8.31213 3.0038L9.37413 1.94185C9.6578 1.65818 10.0349 1.50195 10.4361 1.50195C10.8373 1.50195 11.2144 1.65818 11.4981 1.94185L9.90513 3.5348C9.61185 3.82799 9.61185 4.30352 9.90513 4.59675C10.1983 4.89004 10.6738 4.89004 10.9671 4.59675L12.56 3.00371L21.0558 11.4995C21.6429 12.0866 21.6428 13.0365 21.0558 13.6235Z" fill="white"/>
<path d="M12.5605 6.5542C12.1458 6.5542 11.8096 6.89043 11.8096 7.30513V17.8182C11.8096 18.2329 12.1458 18.5691 12.5605 18.5691C12.9752 18.5691 13.3114 18.2329 13.3114 17.8182V7.30513C13.3114 6.89043 12.9752 6.5542 12.5605 6.5542Z" fill="white"/>
<path d="M8.05454 10.3088C6.81237 10.3088 5.80176 11.3194 5.80176 12.5616C5.80176 13.8038 6.81237 14.8144 8.05454 14.8144C9.29671 14.8144 10.3073 13.8038 10.3073 12.5616C10.3073 11.3194 9.29671 10.3088 8.05454 10.3088ZM8.05454 13.3125C7.64047 13.3125 7.30361 12.9757 7.30361 12.5616C7.30361 12.1475 7.64047 11.8107 8.05454 11.8107C8.46861 11.8107 8.80547 12.1475 8.80547 12.5616C8.80547 12.9757 8.46861 13.3125 8.05454 13.3125Z" fill="white"/>
<path d="M17.0653 10.3088C15.8231 10.3088 14.8125 11.3194 14.8125 12.5616C14.8125 13.8038 15.8231 14.8144 17.0653 14.8144C18.3075 14.8144 19.3181 13.8038 19.3181 12.5616C19.3181 11.3194 18.3075 10.3088 17.0653 10.3088ZM17.0653 13.3125C16.6512 13.3125 16.3144 12.9757 16.3144 12.5616C16.3144 12.1475 16.6512 11.8107 17.0653 11.8107C17.4794 11.8107 17.8162 12.1475 17.8162 12.5616C17.8162 12.9757 17.4794 13.3125 17.0653 13.3125Z" fill="white"/>
</svg>
