<svg width="27" height="23" viewBox="0 0 27 23" fill="none" xmlns="http://www.w3.org/2000/svg">
<path d="M25.021 20.4929L23.1022 18.7843C22.96 18.6577 22.7763 18.5878 22.5859 18.5878H7.86329V6.07412H25.021V20.4929ZM3.98777 14.0663C3.79746 14.0663 3.61373 14.1363 3.47156 14.2629L1.55269 15.9714V1.55269H18.7104V4.52143H7.08694C6.65819 4.52143 6.3106 4.86903 6.3106 5.29778V14.0663H3.98777ZM25.7974 4.52143H20.2631V0.776345C20.2631 0.347596 19.9155 0 19.4867 0H0.776345C0.347544 0 0 0.347596 0 0.776345V17.7022C0 18.008 0.179542 18.2854 0.458613 18.4106C0.560521 18.4563 0.668692 18.4786 0.77619 18.4786C0.963031 18.4786 1.14754 18.4111 1.29256 18.282L4.2833 15.619H6.3106V19.3641C6.3106 19.7929 6.65819 20.1405 7.08694 20.1405H22.2904L25.2811 22.8035C25.4261 22.9326 25.6107 23 25.7975 23C25.905 23 26.0133 22.9777 26.1151 22.932C26.3941 22.8068 26.5737 22.5295 26.5737 22.2237V5.29778C26.5737 4.86903 26.2261 4.52143 25.7974 4.52143Z" fill="white"/>
<path d="M25.021 20.4929L23.1022 18.7843C22.96 18.6577 22.7763 18.5878 22.5859 18.5878H7.86329V6.07412H25.021V20.4929ZM3.98777 14.0663C3.79746 14.0663 3.61373 14.1363 3.47156 14.2629L1.55269 15.9714V1.55269H18.7104V4.52143H7.08694C6.65819 4.52143 6.3106 4.86903 6.3106 5.29778V14.0663H3.98777ZM25.7974 4.52143H20.2631V0.776345C20.2631 0.347596 19.9155 0 19.4867 0H0.776345C0.347544 0 0 0.347596 0 0.776345V17.7022C0 18.008 0.179542 18.2854 0.458613 18.4106C0.560521 18.4563 0.668692 18.4786 0.77619 18.4786C0.963031 18.4786 1.14754 18.4111 1.29256 18.282L4.2833 15.619H6.3106V19.3641C6.3106 19.7929 6.65819 20.1405 7.08694 20.1405H22.2904L25.2811 22.8035C25.4261 22.9326 25.6107 23 25.7975 23C25.905 23 26.0133 22.9777 26.1151 22.932C26.3941 22.8068 26.5737 22.5295 26.5737 22.2237V5.29778C26.5737 4.86903 26.2261 4.52143 25.7974 4.52143Z" fill="white"/>
<path d="M12.8977 9.23924C12.8977 9.66799 13.2453 10.0156 13.6741 10.0156H21.6787C22.1074 10.0156 22.455 9.66799 22.455 9.23924C22.455 8.81049 22.1074 8.46289 21.6787 8.46289H13.6741C13.2453 8.46289 12.8977 8.81049 12.8977 9.23924Z" fill="white"/>
<path d="M19.8366 11.459H13.6741C13.2452 11.459 12.8977 11.8066 12.8977 12.2353C12.8977 12.6641 13.2452 13.0117 13.6741 13.0117H19.8366C20.2654 13.0117 20.613 12.6641 20.613 12.2353C20.613 11.8066 20.2654 11.459 19.8366 11.459Z" fill="white"/>
<path d="M17.6764 14.4561H13.6741C13.2453 14.4561 12.8977 14.8037 12.8977 15.2324C12.8977 15.6611 13.2453 16.0087 13.6741 16.0087H17.6764C18.1051 16.0087 18.4527 15.6611 18.4527 15.2324C18.4527 14.8037 18.1051 14.4561 17.6764 14.4561Z" fill="white"/>
<path d="M11.2061 8.46289C10.7775 8.46289 10.4297 8.81018 10.4297 9.23924C10.4297 9.66778 10.7775 10.0151 11.2061 10.0151C11.6351 10.0151 11.9824 9.66778 11.9824 9.23924C11.9824 8.81018 11.6351 8.46289 11.2061 8.46289Z" fill="white"/>
<path d="M11.2061 14.3628C10.7775 14.3628 10.4297 14.7106 10.4297 15.1397C10.4297 15.5682 10.7775 15.916 11.2061 15.916C11.6351 15.916 11.9824 15.5682 11.9824 15.1397C11.9824 14.7106 11.6351 14.3628 11.2061 14.3628Z" fill="white"/>
<path d="M11.2058 11.4126C10.7773 11.4126 10.4295 11.7604 10.4295 12.1889C10.4295 12.618 10.7773 12.9658 11.2058 12.9658C11.6349 12.9658 11.9822 12.618 11.9822 12.1889C11.9822 11.7604 11.6349 11.4126 11.2058 11.4126Z" fill="white"/>
</svg>
