<svg width="23" height="23" viewBox="0 0 23 23" fill="none" xmlns="http://www.w3.org/2000/svg">
<path d="M11.5 0C8.37376 0 7.98415 0.0150956 6.76069 0.0668521C5.53219 0.127235 4.70121 0.317727 3.968 0.602388C3.21178 0.89855 2.5677 1.29176 1.93152 1.93152C1.29104 2.5677 0.894237 3.21178 0.602388 3.968C0.317727 4.70121 0.127235 5.53219 0.0668521 6.76069C0.0115014 7.98487 0 8.37376 0 11.5C0 14.6262 0.0150956 15.0158 0.0668521 16.2393C0.127235 17.4642 0.317727 18.2988 0.602388 19.032C0.89855 19.7882 1.29176 20.4323 1.93152 21.0685C2.5677 21.709 3.21178 22.1058 3.968 22.3976C4.70121 22.6787 5.53579 22.8728 6.76069 22.9331C7.98487 22.9885 8.37376 23 11.5 23C14.6262 23 15.0158 22.9849 16.2393 22.9331C17.4642 22.8728 18.2988 22.678 19.032 22.3976C19.7882 22.1014 20.4323 21.7082 21.0685 21.0685C21.709 20.4323 22.1058 19.7918 22.3976 19.032C22.6787 18.2988 22.8728 17.4642 22.9331 16.2393C22.9885 15.0151 23 14.6262 23 11.5C23 8.37376 22.9849 7.98415 22.9331 6.76069C22.8728 5.53579 22.678 4.6969 22.3976 3.968C22.1014 3.21178 21.7082 2.5677 21.0685 1.93152C20.4323 1.29104 19.7918 0.894237 19.032 0.602388C18.2988 0.317727 17.4642 0.127235 16.2393 0.0668521C15.0151 0.0115014 14.6262 0 11.5 0V0ZM11.5 2.07026C14.5702 2.07026 14.9368 2.08535 16.1502 2.13711C17.2694 2.18959 17.879 2.37648 18.2837 2.53463C18.8235 2.74381 19.2009 2.99109 19.6092 3.39508C20.0096 3.79547 20.2569 4.17718 20.4661 4.71703C20.6242 5.12173 20.8111 5.73131 20.8636 6.85054C20.9154 8.06394 20.9305 8.43127 20.9305 11.5007C20.9305 14.5702 20.9154 14.9375 20.8593 16.1509C20.7989 17.2701 20.612 17.8797 20.4546 18.2844C20.2368 18.8243 19.9938 19.2017 19.5927 19.61C19.188 20.0103 18.8027 20.2576 18.2672 20.4668C17.8675 20.625 17.2493 20.8118 16.1257 20.8643C14.9059 20.9161 14.5464 20.9312 11.4684 20.9312C8.3903 20.9312 8.0316 20.9161 6.81029 20.86C5.69105 20.7996 5.07357 20.6127 4.66886 20.4553C4.12255 20.2375 3.74803 19.9945 3.34692 19.5934C2.94221 19.1887 2.68487 18.8034 2.48647 18.2679C2.32545 17.8682 2.14142 17.25 2.08176 16.1265C2.04079 14.921 2.02138 14.5472 2.02138 11.4835C2.02138 8.42121 2.04079 8.04669 2.08176 6.8261C2.14142 5.70256 2.32545 5.08579 2.48647 4.68468C2.68487 4.13764 2.94293 3.76385 3.34692 3.35914C3.74731 2.95874 4.12255 2.69996 4.66886 2.49725C5.07357 2.33982 5.67596 2.15293 6.79951 2.09686C8.01938 2.05301 8.3788 2.03719 11.4526 2.03719L11.5 2.07026ZM11.5 5.59761C8.23575 5.59761 5.59617 8.24078 5.59617 11.5014C5.59617 14.7657 8.23934 17.4053 11.5 17.4053C14.7643 17.4053 17.4038 14.7621 17.4038 11.5014C17.4038 8.23719 14.7607 5.59761 11.5 5.59761ZM11.5 15.335C9.38086 15.335 7.66643 13.6206 7.66643 11.5014C7.66643 9.3823 9.38086 7.66786 11.5 7.66786C13.6191 7.66786 15.3336 9.3823 15.3336 11.5014C15.3336 13.6206 13.6191 15.335 11.5 15.335ZM19.0219 5.36183C19.0219 6.12595 18.4001 6.74272 17.6396 6.74272C16.8755 6.74272 16.2587 6.12523 16.2587 5.36183C16.2587 4.60201 16.8798 3.98381 17.6396 3.98381C18.3994 3.98381 19.0219 4.60201 19.0219 5.36183Z" fill="white"/>
</svg>
