<svg width="23" height="23" viewBox="0 0 23 23" fill="none" xmlns="http://www.w3.org/2000/svg">
<path d="M21.4598 1.54039C19.4063 -0.513063 16.065 -0.513487 14.0113 1.53926L14.0117 1.53968L10.7624 4.78955L12.2622 6.28913L15.5121 3.03856L15.5118 3.03827C16.7389 1.8133 18.7337 1.81401 19.9599 3.04025C21.1863 4.2665 21.1862 6.26226 19.9599 7.48893L15.0835 12.3651C14.4895 12.9593 13.6996 13.2865 12.8594 13.2865C12.0192 13.2865 11.2291 12.9593 10.6351 12.3651L9.13525 13.8648C10.13 14.8596 11.4527 15.4075 12.8595 15.4075C14.2663 15.4075 15.589 14.8596 16.5834 13.8648L21.4599 8.98866C23.513 6.93478 23.513 3.59342 21.4598 1.54039Z" fill="#747176"/>
<path d="M7.48858 19.9606C6.26191 21.1866 4.26629 21.1863 3.0399 19.9599C1.81351 18.7333 1.81351 16.7372 3.03976 15.5107L7.91562 10.6348C9.14229 9.40829 11.1381 9.40829 12.3644 10.6348L13.8644 9.1351C11.8107 7.0815 8.46935 7.08136 6.4159 9.1351L1.53976 14.011C-0.513275 16.0646 -0.513275 19.4061 1.5399 21.4598C2.56691 22.4867 3.91561 23.0001 5.26459 23C6.61301 23 7.96172 22.4868 8.98816 21.4605L8.98844 21.4604L12.2385 18.2095L10.7384 16.7098L7.48858 19.9606Z" fill="#747176"/>
</svg>
