<svg width="152" height="58" viewBox="0 0 152 58" fill="none" xmlns="http://www.w3.org/2000/svg">
<path d="M8.3012 28.0736C6.86997 28.0736 5.48082 27.8968 4.13378 27.5432C2.78673 27.1896 1.69225 26.7181 0.850346 26.1288L2.49206 22.4413C3.28345 22.9632 4.20113 23.3842 5.24509 23.7041C6.28905 24.024 7.31617 24.184 8.32646 24.184C10.246 24.184 11.2058 23.7041 11.2058 22.7443C11.2058 22.2392 10.9279 21.8688 10.3723 21.633C9.83347 21.3805 8.95789 21.1195 7.74555 20.8501C6.41534 20.5638 5.30402 20.2607 4.4116 19.9408C3.51918 19.604 2.75305 19.0736 2.1132 18.3496C1.47336 17.6256 1.15343 16.649 1.15343 15.4198C1.15343 14.3421 1.4481 13.3739 2.03743 12.5152C2.62677 11.6396 3.50235 10.9493 4.66418 10.4441C5.84284 9.93897 7.2825 9.6864 8.98315 9.6864C10.145 9.6864 11.29 9.8211 12.4181 10.0905C13.5463 10.3431 14.5397 10.7219 15.3985 11.2271L13.8578 14.9399C12.174 14.0306 10.5407 13.576 8.95789 13.576C7.96444 13.576 7.2404 13.7275 6.78578 14.0306C6.33115 14.3169 6.10383 14.6957 6.10383 15.1672C6.10383 15.6387 6.37324 15.9923 6.91206 16.228C7.45088 16.4637 8.31804 16.7079 9.51355 16.9605C10.8606 17.2467 11.9719 17.5582 12.8475 17.895C13.7399 18.2149 14.506 18.7369 15.1459 19.4609C15.8026 20.1681 16.1309 21.1363 16.1309 22.3655C16.1309 23.4263 15.8363 24.3861 15.2469 25.2448C14.6576 26.1035 13.7736 26.7939 12.5949 27.3159C11.4163 27.821 9.98501 28.0736 8.3012 28.0736ZM21.9576 14.0054H16.5273V10.04H32.3636V14.0054H26.9585V27.72H21.9576V14.0054ZM45.1843 24.285H37.7082L36.3191 27.72H31.2171L39.0216 10.04H43.9467L51.7764 27.72H46.5735L45.1843 24.285ZM43.7194 20.5975L41.4463 14.9399L39.1731 20.5975H43.7194ZM60.9229 23.0222H58.1951V27.72H53.1942V10.04H61.2765C62.8761 10.04 64.2652 10.3094 65.4439 10.8482C66.6226 11.3702 67.5318 12.1279 68.1717 13.1214C68.8115 14.098 69.1315 15.2514 69.1315 16.5816C69.1315 17.8613 68.8284 18.981 68.2222 19.9408C67.6329 20.8837 66.7825 21.6246 65.6712 22.1634L69.4851 27.72H64.1305L60.9229 23.0222ZM64.08 16.5816C64.08 15.7565 63.819 15.1167 63.2971 14.6621C62.7751 14.2074 62.0005 13.9801 60.9734 13.9801H58.1951V19.1578H60.9734C62.0005 19.1578 62.7751 18.9389 63.2971 18.5011C63.819 18.0465 64.08 17.4067 64.08 16.5816ZM2.08795 36.04H7.08886V49.7546H15.5247V53.72H2.08795V36.04ZM17.5037 36.04H22.5046V53.72H17.5037V36.04ZM32.8819 47.3047L31.0129 49.3V53.72H26.0625V36.04H31.0129V43.3898L37.8576 36.04H43.3636L36.1401 43.8697L43.7425 53.72H37.9334L32.8819 47.3047ZM59.2492 49.8557V53.72H45.0547V36.04H58.9209V39.9043H50.0051V42.8847H57.8601V46.6227H50.0051V49.8557H59.2492ZM68.2376 54.0736C66.8064 54.0736 65.4172 53.8968 64.0702 53.5432C62.7231 53.1896 61.6286 52.7181 60.7867 52.1288L62.4284 48.4413C63.2198 48.9632 64.1375 49.3842 65.1815 49.7041C66.2254 50.024 67.2526 50.184 68.2628 50.184C70.1824 50.184 71.1422 49.7041 71.1422 48.7443C71.1422 48.2392 70.8643 47.8688 70.3087 47.633C69.7699 47.3805 68.8943 47.1195 67.6819 46.8501C66.3517 46.5638 65.2404 46.2607 64.348 45.9408C63.4556 45.604 62.6894 45.0736 62.0496 44.3496C61.4097 43.6256 61.0898 42.649 61.0898 41.4198C61.0898 40.3421 61.3845 39.3739 61.9738 38.5152C62.5632 37.6396 63.4387 36.9493 64.6006 36.4441C65.7792 35.939 67.2189 35.6864 68.9195 35.6864C70.0814 35.6864 71.2264 35.8211 72.3545 36.0905C73.4827 36.3431 74.4761 36.7219 75.3348 37.2271L73.7942 40.9399C72.1104 40.0306 70.4771 39.576 68.8943 39.576C67.9008 39.576 67.1768 39.7275 66.7222 40.0306C66.2675 40.3169 66.0402 40.6957 66.0402 41.1672C66.0402 41.6387 66.3096 41.9923 66.8484 42.228C67.3873 42.4637 68.2544 42.7079 69.4499 42.9605C70.797 43.2467 71.9083 43.5582 72.7839 43.895C73.6763 44.2149 74.4424 44.7369 75.0823 45.4609C75.739 46.1681 76.0673 47.1363 76.0673 48.3655C76.0673 49.4263 75.7726 50.3861 75.1833 51.2448C74.594 52.1035 73.71 52.7939 72.5313 53.3159C71.3526 53.821 69.9214 54.0736 68.2376 54.0736Z" fill="white"/>
<path fill-rule="evenodd" clip-rule="evenodd" d="M122.149 0.520004L131.275 19.1014L151.12 22.3686L136.915 37.119L140.054 57.72L122.149 48.2548L104.243 57.72L106.892 40.3343C109.278 40.5806 111.446 40.7959 113.831 40.7959C114.608 40.7959 115.238 40.1698 115.238 39.3966V31.5998C115.238 30.8266 115.001 30.456 114.174 30.2454C108.338 29.3555 105.27 28.8694 98.5479 27.9456L93.177 22.3686L113.022 19.1014L122.149 0.520004V0.520004ZM129.686 33.2273C129.686 32.7155 129.431 32.237 129.006 31.9499C129.336 31.5234 129.549 31.018 129.621 30.4846C129.621 29.0474 128.266 28.6179 126.179 28.6179C124.939 28.6313 123.704 28.7772 122.495 29.052C122.608 28.4358 123.433 26.649 123.433 26.0514C123.433 24.8102 123.137 23.2515 121.993 22.6587C121.684 22.4818 121.334 22.3885 120.976 22.3885C120.966 22.3885 120.954 22.3885 120.943 22.3885C120.486 22.3669 120.038 22.5244 119.696 22.8273C119.61 22.9849 119.563 23.1623 119.563 23.3426C119.563 23.3788 119.566 23.4161 119.569 23.4529L119.776 25.7859C119.776 27.6515 116.893 29.9851 116.893 32.6683V38.2954C116.893 39.2939 118.238 40.0035 120.174 40.0035H125.542C126.949 40.0035 127.262 39.7613 127.623 39.1077C127.742 38.9082 127.806 38.6812 127.806 38.4495C127.806 38.1991 127.732 37.9541 127.595 37.7451C128.266 37.496 128.764 36.9247 128.917 36.2285C129.001 35.8188 128.937 35.3934 128.739 35.0246C129.313 34.762 129.682 34.1908 129.682 33.5611C129.682 33.5185 129.68 33.4759 129.677 33.4333L129.686 33.2273V33.2273Z" fill="white"/>
</svg>
