<svg width="19" height="19" viewBox="0 0 19 19" fill="none" xmlns="http://www.w3.org/2000/svg">
<path d="M17.7287 1.97584H16.9337V1.81383C16.9337 1.30472 16.5197 0.890738 16.0106 0.890738C15.5016 0.890738 15.0875 1.30472 15.0875 1.81383V1.97584H12.5933V1.81383C12.5933 1.30472 12.1793 0.890738 11.6702 0.890738C11.1611 0.890738 10.7471 1.30472 10.7471 1.81383V1.97584H8.25288V1.81383C8.25288 1.30472 7.8389 0.890738 7.32979 0.890738C6.82068 0.890738 6.4067 1.30472 6.4067 1.81383V1.97584H3.91245V1.81383C3.91245 1.30472 3.49847 0.890738 2.98936 0.890738C2.48025 0.890738 2.06627 1.30472 2.06627 1.81383V1.97584H1.27128C1.06112 1.97584 0.890738 2.14622 0.890738 2.35638V15.5585C0.890738 15.7687 1.06112 15.9391 1.27128 15.9391H17.7287C17.9389 15.9391 18.1093 15.7687 18.1093 15.5585V2.35638C18.1093 2.14623 17.9389 1.97584 17.7287 1.97584ZM15.8486 1.81383C15.8486 1.72457 15.9214 1.65182 16.0106 1.65182C16.0999 1.65182 16.1727 1.72457 16.1727 1.81383V2.89894C16.1727 2.98819 16.0999 3.06095 16.0106 3.06095C15.9214 3.06095 15.8486 2.98819 15.8486 2.89894V1.81383ZM11.5082 1.81383C11.5082 1.72457 11.581 1.65182 11.6702 1.65182C11.7595 1.65182 11.8322 1.72457 11.8322 1.81383V2.89894C11.8322 2.98819 11.7595 3.06095 11.6702 3.06095C11.581 3.06095 11.5082 2.98819 11.5082 2.89894V1.81383ZM7.16777 1.81383C7.16777 1.72457 7.24053 1.65182 7.32979 1.65182C7.41904 1.65182 7.4918 1.72457 7.4918 1.81383V2.89894C7.4918 2.98819 7.41904 3.06095 7.32979 3.06095C7.24053 3.06095 7.16777 2.98819 7.16777 2.89894V1.81383ZM2.82735 1.81383C2.82735 1.72457 2.90011 1.65182 2.98936 1.65182C3.07862 1.65182 3.15138 1.72457 3.15138 1.81383V2.89894C3.15138 2.98819 3.07862 3.06095 2.98936 3.06095C2.90011 3.06095 2.82735 2.98819 2.82735 2.89894V1.81383ZM2.06627 2.73692V2.89894C2.06627 3.40804 2.48025 3.82203 2.98936 3.82203C3.49847 3.82203 3.91245 3.40804 3.91245 2.89894V2.73692H6.4067V2.89894C6.4067 3.40804 6.82068 3.82203 7.32979 3.82203C7.8389 3.82203 8.25288 3.40804 8.25288 2.89894V2.73692H10.7471V2.89894C10.7471 3.40805 11.1611 3.82203 11.6702 3.82203C12.1793 3.82203 12.5933 3.40805 12.5933 2.89894V2.73692H15.0875V2.89894C15.0875 3.40805 15.5016 3.82203 16.0106 3.82203C16.5197 3.82203 16.9337 3.40805 16.9337 2.89894V2.73692H17.3482V5.31435H1.65182V2.73692H2.06627ZM1.65182 15.178V6.07543H17.3482V15.178H1.65182Z" fill="white" stroke="#8390AE" stroke-width="0.218525"/>
<path fill-rule="evenodd" clip-rule="evenodd" d="M12.6275 7.20147C12.6275 8.914 11.2392 10.3023 9.52666 10.3023C7.81409 10.3023 6.42578 8.914 6.42578 7.20147C6.42578 5.4889 7.81409 4.10059 9.52666 4.10059C11.2392 4.10059 12.6275 5.4889 12.6275 7.20147ZM11.0771 7.20147C11.0771 8.05777 10.383 8.75191 9.52666 8.75191C8.67035 8.75191 7.97622 8.05777 7.97622 7.20147C7.97622 6.34518 8.67035 5.65103 9.52666 5.65103C10.383 5.65103 11.0771 6.34518 11.0771 7.20147Z" fill="white"/>
<path fill-rule="evenodd" clip-rule="evenodd" d="M9.52742 1C4.81786 1 1 4.81786 1 9.52742C1 14.237 4.81786 18.0548 9.52742 18.0548C14.237 18.0548 18.0548 14.237 18.0548 9.52742C18.0548 4.81786 14.237 1 9.52742 1ZM2.55044 9.52742C2.55044 11.1478 3.10282 12.6392 4.02954 13.8235C5.30437 12.1546 7.31515 11.0779 9.57742 11.0779C11.8103 11.0779 13.7983 12.1268 15.0753 13.7588C15.9718 12.5851 16.5044 11.1185 16.5044 9.52742C16.5044 5.67414 13.3807 2.55044 9.52742 2.55044C5.67414 2.55044 2.55044 5.67414 2.55044 9.52742ZM9.52742 16.5044C7.86052 16.5044 6.33014 15.9198 5.13012 14.9445C6.11143 13.544 7.73748 12.6283 9.57742 12.6283C11.3945 12.6283 13.003 13.5214 13.9879 14.8926C12.7786 15.899 11.2237 16.5044 9.52742 16.5044Z" fill="white"/>
</svg>
