<svg width="53" height="53" viewBox="0 0 53 53" fill="none" xmlns="http://www.w3.org/2000/svg">
<rect width="53" height="53" rx="26.5" fill="#1C96DB"/>
<path d="M26.5 12.3912L31.6847 19.9769L40.502 22.5643L34.8892 29.8395L35.153 39.0237L26.5 35.9345L17.847 39.0237L18.1108 29.8395L12.4979 22.5643L21.3153 19.9769L26.5 12.3912ZM26.5 16.7392L22.8464 22.0858L16.6324 23.9077L20.589 29.0335L20.4013 35.5051L26.5 33.3287L32.5974 35.5051L32.411 29.0335L36.3663 23.9077L30.1535 22.0858L26.5 16.7392ZM24.0463 26.5C24.0463 27.1508 24.3048 27.7749 24.765 28.2351C25.2251 28.6952 25.8492 28.9537 26.5 28.9537C27.1507 28.9537 27.7749 28.6952 28.235 28.2351C28.6952 27.7749 28.9537 27.1508 28.9537 26.5H31.4074C31.4074 27.8016 30.8904 29.0498 29.97 29.9701C29.0497 30.8904 27.8015 31.4074 26.5 31.4074C25.1985 31.4074 23.9502 30.8904 23.0299 29.9701C22.1096 29.0498 21.5926 27.8016 21.5926 26.5H24.0463Z" fill="white"/>
</svg>
