<svg width="28" height="28" viewBox="0 0 28 28" fill="none" xmlns="http://www.w3.org/2000/svg">
<path d="M4.80046 4.80004C2.28531 7.31478 0.9 10.6588 0.9 14.215C0.9 17.7712 2.28531 21.1152 4.80004 23.6295C7.31478 26.1447 10.6588 27.53 14.215 27.53C17.7712 27.53 21.1152 26.1447 23.6295 23.63C26.1447 21.1152 27.53 17.7712 27.53 14.215C27.53 10.6588 26.1447 7.31479 23.63 4.80046C21.1152 2.28531 17.7712 0.9 14.215 0.9C10.6588 0.9 7.31479 2.2853 4.80046 4.80004ZM4.80046 4.80004L4.87117 4.87076L4.80046 4.80004ZM6.10975 6.10976L6.10976 6.10975C8.27479 3.94431 11.1529 2.75188 14.215 2.75188C17.2771 2.75188 20.1552 3.94431 22.3202 6.10975L22.3203 6.10976C24.4857 8.27479 25.6781 11.1529 25.6781 14.215C25.6781 17.2771 24.4857 20.1552 22.3203 22.3202L22.3202 22.3203C20.1552 24.4857 17.2771 25.6781 14.215 25.6781C11.1529 25.6781 8.27479 24.4857 6.10976 22.3203L6.10975 22.3202C3.94431 20.1552 2.75188 17.2771 2.75188 14.215C2.75188 11.1529 3.94431 8.27479 6.10975 6.10976Z" fill="white" stroke="white" stroke-width="0.2"/>
<path d="M17.929 13.9977L17.929 13.9977C18.061 14.1313 18.1346 14.312 18.1346 14.4999C18.1346 14.6877 18.061 14.8684 17.9291 15.002C17.9291 15.002 17.9291 15.002 17.9291 15.0021L12.9932 20.0022L12.8514 19.8622L12.9932 20.0022C12.7176 20.2813 12.2697 20.2813 11.9941 20.0022C11.9941 20.0022 11.9941 20.0022 11.9941 20.0022L12.1446 19.8536L17.929 13.9977ZM17.929 13.9977L12.9932 8.99784L17.929 13.9977ZM12.1322 9.86576L11.994 10.0022C11.7199 9.7245 11.72 9.27545 11.994 8.99784C12.2696 8.71867 12.7176 8.71867 12.9932 8.99784L12.1322 9.86576ZM12.1322 9.86576L11.994 10.0022L16.4342 14.4999L12.1322 9.86576Z" fill="white" stroke="white" stroke-width="0.423077"/>
</svg>
