<svg width="23" height="23" viewBox="0 0 23 23" fill="none" xmlns="http://www.w3.org/2000/svg">
<path d="M0.68086 22.9914C3.56732 22.5222 6.33741 21.7903 8.39618 19.5914C8.4349 19.55 8.46224 19.508 8.48474 19.4658C12.613 15.4478 16.658 11.3391 20.3232 6.88998C20.5905 7.13271 20.8291 7.38943 21.0376 7.68838C19.1486 10.0862 17.1668 12.4048 15.0759 14.6297C14.5739 15.1636 15.4998 15.8263 15.9956 15.2988C18.1733 12.9817 20.2356 10.5647 22.1952 8.0604C22.3102 7.91321 22.3488 7.65834 22.2535 7.49126C21.8633 6.806 21.3773 6.30007 20.7921 5.79363C20.7677 5.74802 20.7375 5.70349 20.698 5.66201C21.7488 4.07683 21.6944 2.23906 20.2105 0.907738C18.739 -0.412109 16.5208 -0.183861 15.0096 0.894576C15.0091 0.894576 15.0085 0.894321 15.0078 0.894014C14.8322 0.782646 14.6057 0.775401 14.4068 0.971508C10.1699 5.14547 6.28185 9.65211 2.57331 14.2978C2.55775 14.317 2.54689 14.337 2.53485 14.3566C2.50648 14.3864 2.47965 14.4206 2.45506 14.4603C0.988642 16.8386 0.339968 19.4754 0.00473901 22.2253C-0.0101578 22.3471 0.0111161 22.4501 0.0538168 22.5369C0.105241 22.81 0.32701 23.0489 0.68086 22.9914ZM19.8401 4.89238C18.5847 3.77114 17.3443 2.63439 16.0235 1.59115C18.3593 0.295081 21.3662 2.344 19.8401 4.89238ZM14.8542 2.12616C16.4816 3.3603 17.9743 4.75121 19.501 6.10534C15.9378 10.4433 12.0076 14.4479 7.99146 18.3638C6.56367 17.1374 5.09623 15.9564 3.78863 14.6004C7.26749 10.2609 10.9045 6.04545 14.8542 2.12616ZM3.12705 15.5496C4.4094 16.8477 5.82566 17.9993 7.21076 19.1871C5.91158 20.4355 4.26925 21.0692 2.55077 21.4733C2.19156 21.2119 1.82955 20.9497 1.52447 20.6248C1.49156 20.5901 1.45519 20.5606 1.41723 20.5339C1.74098 18.7925 2.24793 17.1086 3.12705 15.5496Z" fill="white"/>
</svg>
