<svg width="23" height="23" viewBox="0 0 23 23" fill="none" xmlns="http://www.w3.org/2000/svg">
<path d="M11.5 0C17.8516 0 23 5.14841 23 11.5C23 17.8516 17.8516 23 11.5 23C5.14841 23 0 17.8516 0 11.5C0 5.14841 5.14841 0 11.5 0ZM13.9092 3.99625C13.7339 3.91 13.5585 3.99625 13.5154 4.17091C13.4715 4.21475 13.4715 4.25859 13.4715 4.34556V4.9565L13.4787 5.03125C13.5162 5.17912 13.6071 5.30789 13.7339 5.39278C17.1508 6.61466 18.9031 10.4097 17.6324 13.7684C16.9754 15.6012 15.53 16.9963 13.7339 17.6511C13.5585 17.738 13.4715 17.8688 13.4715 18.0873V18.6983L13.4751 18.7615C13.482 18.8306 13.5108 18.8955 13.5574 18.9469C13.604 18.9983 13.6659 19.0333 13.7339 19.0469C13.7777 19.0469 13.8654 19.0469 13.9092 19.0037C14.8951 18.6959 15.8102 18.1961 16.6021 17.5331C17.394 16.8701 18.0468 16.057 18.5232 15.1406C18.9995 14.2242 19.2898 13.2227 19.3775 12.1936C19.4652 11.1646 19.3484 10.1284 19.0339 9.14466C18.2462 6.65778 16.3185 4.78184 13.9092 3.99697V3.99625ZM9.26612 3.95312C9.22228 3.95312 9.13459 3.95312 9.09075 3.99625C8.10493 4.30411 7.18975 4.80393 6.3979 5.46694C5.60604 6.12994 4.95316 6.94304 4.47684 7.85941C4.00052 8.77577 3.71017 9.77731 3.62251 10.8064C3.53485 11.8354 3.65161 12.8716 3.96606 13.8553C4.75381 16.2991 6.63766 18.175 9.09075 18.9599C9.26612 19.0469 9.4415 18.9599 9.48462 18.7852C9.52847 18.7421 9.52847 18.6976 9.52847 18.6106V17.9997L9.52128 17.9422C9.49109 17.8207 9.37825 17.682 9.26612 17.6072C5.84919 16.3853 4.09687 12.5903 5.36762 9.23162C6.02456 7.39881 7.46997 6.00372 9.26612 5.34894C9.4415 5.26197 9.52847 5.13116 9.52847 4.91266V4.30172L9.52487 4.23847C9.51804 4.16945 9.4892 4.10446 9.44261 4.05308C9.39602 4.0017 9.33415 3.96666 9.26612 3.95312ZM11.8069 6.2215H11.1493L11.086 6.22725C10.9423 6.256 10.8373 6.37963 10.7985 6.57081V7.57419L10.6497 7.59719C9.42209 7.81569 8.65303 8.66309 8.65303 9.71175C8.65303 11.1507 9.52847 11.7178 11.3685 11.9363C12.5954 12.1541 12.9893 12.4164 12.9893 13.1143C12.9893 13.8115 12.3762 14.2916 11.5438 14.2916C10.4046 14.2916 10.0107 13.8122 9.87922 13.1574C9.83609 12.9835 9.70384 12.8958 9.57231 12.8958H8.82769L8.77091 12.9008C8.70003 12.9123 8.63571 12.949 8.58985 13.0043C8.54399 13.0595 8.51971 13.1295 8.5215 13.2013V13.2444L8.54522 13.3738C8.75366 14.3973 9.45516 15.1297 10.8431 15.3388V16.3861L10.8488 16.4493C10.8776 16.5916 11.0019 16.6966 11.1938 16.7347H11.8508L11.914 16.7289C12.0577 16.7002 12.1627 16.5765 12.2015 16.3861V15.3381L12.3503 15.3094C13.5815 15.0492 14.3915 14.1587 14.3915 13.0259C14.3915 11.4993 13.4715 10.976 11.6315 10.7575C10.3169 10.5829 10.0546 10.2343 10.0546 9.62334C10.0546 9.01241 10.493 8.61997 11.3685 8.61997C12.1569 8.61997 12.5954 8.88159 12.8139 9.53638C12.8366 9.59969 12.8783 9.65451 12.9331 9.69345C12.988 9.73238 13.0535 9.75357 13.1208 9.75416H13.8216L13.8783 9.74984C13.9495 9.73853 14.0141 9.70175 14.0601 9.64634C14.1061 9.59093 14.1304 9.52069 14.1285 9.44869V9.40556L14.1019 9.28122C13.994 8.83445 13.7479 8.43309 13.3987 8.13424C13.0495 7.83538 12.615 7.65424 12.1569 7.61659V6.57081L12.1512 6.50756C12.1224 6.36453 11.9981 6.25959 11.8062 6.2215H11.8069Z" fill="white"/>
</svg>
