<svg width="23" height="23" viewBox="0 0 23 23" fill="none" xmlns="http://www.w3.org/2000/svg">
<path d="M11.5 23C5.14841 23 0 17.8516 0 11.5C0 5.14841 5.14841 0 11.5 0C17.8516 0 23 5.14841 23 11.5C23 17.8516 17.8516 23 11.5 23ZM8.70837 10.3529L11.5 7.56125L14.2931 10.3543L15.9174 8.72994L11.5 4.3125L7.084 8.7285L8.70837 10.3529ZM4.3125 11.5L5.93688 13.1244L7.56125 11.5L5.93688 9.87562L4.3125 11.5ZM8.70837 12.6471L7.08184 14.2693L7.084 14.2715L11.5 18.6875L15.9174 14.2701V14.2693L14.2931 12.645L11.5 15.4387L8.70837 12.6471ZM15.4387 11.5L17.0631 13.1244L18.6875 11.5L17.0631 9.87562L15.4387 11.5ZM13.1474 11.4986H13.1481L11.5 9.85119L10.2817 11.0687L10.1416 11.2089L9.85334 11.4978L9.85047 11.5L9.85334 11.5022L11.4993 13.1488L13.1481 11.5007L13.1488 11.5L13.1474 11.4993V11.4986Z" fill="white"/>
</svg>
