<svg width="26" height="25" viewBox="0 0 26 25" fill="none" xmlns="http://www.w3.org/2000/svg">
<path fill-rule="evenodd" clip-rule="evenodd" d="M20.8957 1.61673L22.0125 2.63073L7.91109 10.6813L1.08491 6.75173L1.72309 5.48364L7.91109 9.00191L20.8957 1.61555V1.61673ZM18.057 0L19.5555 0.761091L7.91109 7.41709L2.48891 4.342L3.41309 3.23345L7.91109 5.80036L18.0582 0H18.057ZM23.0017 3.67664L23.8302 4.78636L7.91109 13.8828L0.223367 9.50891L0.574367 8.11436L7.91109 12.298L23.0017 3.67664ZM25.298 7.76573C25.766 9.07636 26 10.4485 26 11.8855C26 13.3226 25.766 14.7184 25.298 16.0692L24.9789 16.926C24.3237 18.4629 23.382 19.861 22.204 21.0458C21.0121 22.2162 19.6029 23.1423 18.0558 23.7723C16.419 24.4695 14.729 24.8182 12.9846 24.8182C11.219 24.8182 9.52782 24.4695 7.91109 23.7723C6.38242 23.1261 4.98707 22.2016 3.796 21.0458C2.60453 19.8722 1.6609 18.4712 1.02109 16.926C0.347457 15.3305 -0.00117882 13.6169 2.99459e-06 11.8855V11.0299L7.91109 15.4995L24.596 5.99064L25.298 7.76573Z" fill="#747177"/>
</svg>
