<svg width="26" height="20" viewBox="0 0 26 20" fill="none" xmlns="http://www.w3.org/2000/svg">
<path d="M17.15 14.6C17.15 14.3514 17.3514 14.15 17.6 14.15H21.4C21.6486 14.15 21.85 14.3514 21.85 14.6V14.9C21.85 15.1486 21.6486 15.35 21.4 15.35H17.6C17.3514 15.35 17.15 15.1486 17.15 14.9V14.6Z" fill="#747177" stroke="#594966" stroke-width="0.3"/>
<path d="M0.15 2C0.15 0.978272 0.978263 0.15 2 0.15H24C25.0218 0.15 25.85 0.978271 25.85 2V18C25.85 19.0218 25.0218 19.85 24 19.85H2C0.97829 19.85 0.15 19.0218 0.15 18V2ZM23.8 4.15C23.9934 4.15 24.15 3.99328 24.15 3.8V2.5C24.15 2.14103 23.8591 1.85 23.5 1.85H2.5C2.14101 1.85 1.85 2.14102 1.85 2.5V3.8C1.85 3.99331 2.0067 4.15 2.20001 4.15H23.8ZM2.20001 5.85C2.00672 5.85 1.85 6.00663 1.85 6.2V8.8C1.85 8.99337 2.00672 9.15 2.20001 9.15H23.8C23.9933 9.15 24.15 8.99334 24.15 8.8V6.2C24.15 6.00666 23.9933 5.85 23.8 5.85H2.20001ZM24.15 11.2C24.15 11.0067 23.9933 10.85 23.8 10.85H2.20001C2.00672 10.85 1.85 11.0066 1.85 11.2V17.5C1.85 17.8589 2.141 18.15 2.5 18.15H23.5C23.8591 18.15 24.15 17.8589 24.15 17.5V11.2Z" fill="#747177" stroke="#594966" stroke-width="0.3"/>
</svg>
