<svg width="23" height="22" viewBox="0 0 23 22" fill="none" xmlns="http://www.w3.org/2000/svg">
<path d="M19.3022 8.94767C19.3022 8.94767 21.447 7.62918 21.447 5.29951C21.447 2.96994 19.1914 0 15.6414 0C13.4869 0 5.67023 0 5.67023 0V6.50697H0V9.28034H5.67023V12.9595H0V15.7328H5.67023V21.2007C5.67023 21.2007 12.641 21.2007 14.9019 21.2007C19.2653 21.2007 23 18.8206 23 14.4939C22.9999 10.1682 19.3022 8.94767 19.3022 8.94767ZM14.0514 2.92041C15.9005 2.92041 17.7862 3.80739 17.7862 5.82307C17.7862 7.83834 15.7895 8.85501 13.9404 8.85501C12.6844 8.85501 10.646 8.85501 9.46625 8.85501V2.92041C10.6068 2.92041 12.7434 2.92041 14.0514 2.92041ZM14.6761 17.7112C13.2962 17.7112 11.0626 17.7112 9.46625 17.7112V11.2773C10.5297 11.2773 12.4162 11.2773 14.6432 11.2773C18.082 11.2773 19.5052 12.7005 19.5052 14.79C19.5052 16.8793 17.0058 17.7112 14.6761 17.7112Z" fill="white"/>
</svg>
