<svg width="23" height="22" viewBox="0 0 23 22" fill="none" xmlns="http://www.w3.org/2000/svg">
<path d="M23 10.0592C23 8.60898 19.0538 7.39898 13.8097 7.11982L13.8093 4.80905H20.3571V0H2.45258V4.80905H8.99993V7.13112C3.85134 7.42942 0 8.6268 0 10.0592C0 11.4919 3.85134 12.6894 8.99993 12.9872V21.285H13.8093V12.9985C19.0538 12.7199 23 11.5095 23 10.0592ZM11.4999 11.4879C5.87113 11.4879 1.30794 10.6168 1.30794 9.54145C1.30794 8.63097 4.57998 7.86659 8.99993 7.65391V8.20195H9.00043V10.4478C9.79729 10.4924 10.6348 10.5159 11.4999 10.5159C12.2966 10.5159 13.0703 10.4956 13.8098 10.4585V7.64556C18.3255 7.84521 21.6922 8.61763 21.6922 9.54145C21.6921 10.6168 17.1288 11.4879 11.4999 11.4879Z" fill="white"/>
</svg>
