<svg width="26" height="19" viewBox="0 0 26 19" fill="none" xmlns="http://www.w3.org/2000/svg">
<path fill-rule="evenodd" clip-rule="evenodd" d="M20.176 9.5724C19.977 11.314 18.4068 12.837 16.3962 12.6282C14.641 12.4458 13.1052 10.8389 13.3348 8.82303C13.5323 7.09012 15.1154 5.57738 17.1392 5.80019C18.8694 5.99084 20.4049 7.56978 20.176 9.5724ZM7.53802 8.72808L7.53953 9.7309C7.47333 10.7685 8.0922 12.5646 8.49242 13.3488C9.03185 14.4057 9.75058 15.3079 10.4413 15.9377C11.2599 16.6845 12.1375 17.2742 13.2001 17.7191C19.2019 20.2339 26.0144 15.8053 26.0004 9.19412C25.9894 4.19628 21.9172 0.103657 16.9966 0.00227791C14.3229 -0.0529511 12.2192 0.899182 10.4012 2.5239C9.76231 3.09472 8.95128 4.14029 8.46708 5.1276C8.08615 5.90421 7.46577 7.68818 7.53802 8.72808Z" fill="#747177"/>
<path fill-rule="evenodd" clip-rule="evenodd" d="M4.17698 16.0936C4.23637 16.0936 4.21783 16.0803 4.22086 16.145L7.45592 16.1511L7.45781 2.75806L0 2.76222L4.17698 16.0936Z" fill="#747177"/>
<path fill-rule="evenodd" clip-rule="evenodd" d="M7.45636 16.1511L4.22131 16.145C4.21828 16.0803 4.23681 16.0936 4.17742 16.0936C4.17326 16.1719 4.15132 16.1632 4.22131 16.145C4.32155 16.2033 7.30656 16.215 7.45636 16.1511C7.53088 16.0663 7.50591 15.9158 7.50478 15.7766C7.50327 15.6378 7.5044 15.4989 7.5044 15.3601C7.5044 14.4363 7.4662 9.90945 7.53958 9.73091L7.53807 8.72808C7.47603 8.5518 7.49343 4.06956 7.50478 3.10343C7.50894 2.75238 7.47944 2.83977 7.47338 2.78492C7.47187 2.76941 7.4643 2.76638 7.45825 2.75806L7.45636 16.1511Z" fill="#747177"/>
</svg>
