<svg width="27" height="28" viewBox="0 0 27 28" fill="none" xmlns="http://www.w3.org/2000/svg">
<path d="M12.4115 0C5.55743 0 0 5.5744 0 12.452C0 19.3295 5.55743 24.9039 12.4126 24.9039C14.2349 24.9039 16.0385 24.5621 18.6899 24.5423C21.054 24.5423 23.6519 25.3753 26.5022 27.9093C26.7906 28.1625 27.1697 27.837 26.9173 27.529C24.1206 23.9636 21.5215 23.2939 18.9248 22.7153C15.7501 22.0082 14.1267 20.2349 12.9894 18.262C12.7731 17.8642 12.6638 17.9365 12.6464 18.444C12.6254 19.1895 12.6813 19.9351 12.8092 20.6701H12.4301C10.2532 20.6682 8.16606 19.7998 6.6268 18.2555C5.08753 16.7112 4.22196 14.6173 4.22011 12.4333C4.22257 10.2499 5.08845 8.1566 6.62769 6.613C8.16692 5.0694 10.2537 4.20159 12.4301 4.20005C13.5886 4.20066 14.7338 4.44709 15.7906 4.92318C16.8475 5.39926 17.792 6.09422 18.5621 6.96243C19.3323 7.83065 19.9107 8.85247 20.2594 9.96083C20.6081 11.0692 20.7192 12.239 20.5854 13.3935C19.9714 13.285 18.798 13.2675 17.9689 13.3398C17.6619 13.376 17.698 13.5206 17.9329 13.558C20.6389 14.0643 22.4972 15.7478 22.9298 18.8069C22.9472 18.8792 23.0379 18.8967 23.074 18.8419C24.2182 16.9084 24.8227 14.7017 24.8241 12.4531C24.8241 5.57439 19.2678 0 12.4115 0ZM21.3006 17.59C21.2299 17.5822 21.1585 17.5954 21.0952 17.628C21.032 17.6605 20.9796 17.711 20.9447 17.7732C20.8005 18.0275 20.9098 18.5152 21.1796 18.9504C21.4494 19.3844 21.7029 19.6014 21.8843 19.6014C22.0646 19.6014 22.2262 19.3844 22.1541 18.8232C22.1192 18.5152 21.9378 17.8105 21.468 17.6285C21.4134 17.604 21.3506 17.6017 21.3006 17.59ZM18.7259 19.6749C18.4736 19.6749 18.2747 19.7635 18.148 19.9269C17.8235 20.3247 17.9677 21.0492 18.4736 21.4844C18.6899 21.6827 19.0155 21.7912 19.3225 21.7912C19.4618 21.7949 19.6001 21.7677 19.7278 21.7116C19.8554 21.6556 19.9691 21.572 20.0609 21.4669C20.3505 21.0679 20.1889 20.5242 19.6283 20.0541C19.3399 19.8009 19.0155 19.6749 18.7259 19.6749Z" fill="#747177"/>
</svg>
