<svg width="30" height="30" viewBox="0 0 30 30" fill="none" xmlns="http://www.w3.org/2000/svg">
<path d="M25.1851 25.1851C30.9383 19.432 30.9383 10.068 25.1851 4.31487C19.432 -1.43829 10.068 -1.43829 4.31487 4.31487C-1.43829 10.068 -1.43829 19.432 4.31487 25.1851C10.068 30.9383 19.432 30.9383 25.1851 25.1851ZM5.35598 5.35598C10.5374 0.174521 18.9626 0.174521 24.144 5.35598C29.3255 10.5374 29.3255 18.9626 24.144 24.144C18.9626 29.3255 10.5374 29.3255 5.35598 24.144C0.174521 18.9626 0.180539 10.5374 5.35598 5.35598Z" fill="white"/>
<path d="M14.4357 19.9782C14.6403 19.9782 14.8209 19.894 14.9593 19.7616C15.0917 19.6292 15.1759 19.4426 15.1759 19.238V15.1879H19.226C19.4306 15.1879 19.6111 15.1037 19.7496 14.9713C19.882 14.8389 19.9662 14.6524 19.9662 14.4477C19.9662 14.0385 19.6352 13.7075 19.232 13.7136H15.1819V9.66347C15.1819 9.25425 14.8509 8.92326 14.4477 8.92928C14.0385 8.92928 13.7075 9.26027 13.7136 9.66347V13.7136H9.66347C9.25425 13.7136 8.92326 14.0445 8.92928 14.4477C8.92928 14.857 9.26027 15.188 9.66347 15.1819H13.7136V19.232C13.6955 19.6473 14.0265 19.9782 14.4357 19.9782Z" fill="white"/>
</svg>
