<svg width="26" height="23" viewBox="0 0 26 23" fill="none" xmlns="http://www.w3.org/2000/svg">
<path d="M6.5 13.0563C6.5 13.4891 6.6712 13.9042 6.97595 14.2103C7.2807 14.5164 7.69402 14.6883 8.125 14.6883C8.55598 14.6883 8.9693 14.5164 9.27405 14.2103C9.5788 13.9042 9.75 13.4891 9.75 13.0563C9.75 12.6234 9.5788 12.2083 9.27405 11.9023C8.9693 11.5962 8.55598 11.4242 8.125 11.4242C7.69402 11.4242 7.2807 11.5962 6.97595 11.9023C6.6712 12.2083 6.5 12.6234 6.5 13.0563ZM16.3283 16.5448C15.658 17.0752 14.329 17.6464 13 17.6464C11.671 17.6464 10.342 17.0752 9.67165 16.5448C9.25379 16.2154 8.64732 16.2854 8.31652 16.705C7.98571 17.1247 8.05826 17.7338 8.47612 18.066C9.64263 18.9899 11.4185 19.5844 13 19.5844C14.5815 19.5844 16.3574 18.9899 17.5239 18.066C17.7248 17.9068 17.8544 17.674 17.8843 17.4187C17.9143 17.1635 17.842 16.9068 17.6835 16.705C17.5249 16.5033 17.2931 16.3731 17.039 16.343C16.7848 16.313 16.5292 16.3855 16.3283 16.5448ZM26 9.79221C26 7.98823 24.5462 6.52814 22.75 6.52814C21.5283 6.52814 20.4663 7.20427 19.9092 8.2068C18.2377 7.28878 16.2036 6.69717 13.9866 6.5602L15.9279 2.18576L19.6393 3.26115C19.973 4.21123 20.8754 4.8961 21.9375 4.8961C23.2839 4.8961 24.375 3.80031 24.375 2.44805C24.375 1.09579 23.2839 0 21.9375 0C21.0089 0 20.2022 0.521668 19.7902 1.28814L15.6551 0.0874304C15.4314 0.0221657 15.1917 0.0405298 14.9805 0.139122C14.7692 0.237715 14.6006 0.409856 14.506 0.62367L11.8712 6.56602C9.70938 6.71757 7.72455 7.30627 6.09085 8.20389C5.80912 7.69553 5.39716 7.27209 4.89766 6.97745C4.39816 6.6828 3.82929 6.52767 3.25 6.52814C1.45379 6.52814 0 7.98823 0 9.79221C0 11.127 0.797991 12.2723 1.93839 12.7794C1.73237 13.3914 1.625 14.0326 1.625 14.6883C1.625 19.1939 6.71763 22.8485 13 22.8485C19.2824 22.8485 24.375 19.1939 24.375 14.6883C24.375 14.0297 24.2647 13.3914 24.0616 12.7794C25.202 12.2723 26 11.127 26 9.79221ZM21.9375 1.53003C22.0575 1.53003 22.1764 1.55378 22.2873 1.59991C22.3982 1.64605 22.499 1.71367 22.5838 1.79891C22.6687 1.88416 22.736 1.98536 22.782 2.09674C22.8279 2.20812 22.8516 2.3275 22.8516 2.44805C22.8516 2.56861 22.8279 2.68798 22.782 2.79936C22.736 2.91074 22.6687 3.01194 22.5838 3.09719C22.499 3.18244 22.3982 3.25006 22.2873 3.29619C22.1764 3.34233 22.0575 3.36607 21.9375 3.36607C21.6951 3.36607 21.4626 3.26935 21.2912 3.09719C21.1197 2.92503 21.0234 2.69153 21.0234 2.44805C21.0234 2.20458 21.1197 1.97108 21.2912 1.79891C21.4626 1.62675 21.6951 1.53003 21.9375 1.53003ZM1.625 9.79221C1.625 8.89167 2.35335 8.16017 3.25 8.16017C3.55784 8.16041 3.85928 8.24847 4.11922 8.41409C4.37917 8.57971 4.58692 8.81608 4.7183 9.09568C3.86808 9.74266 3.16585 10.4887 2.64353 11.3077C2.34304 11.1853 2.08567 10.9758 1.90426 10.7059C1.72285 10.4359 1.62563 10.1179 1.625 9.79221ZM13 20.9104C7.78259 20.9104 3.55469 18.1243 3.55469 14.6883C3.55469 11.2523 7.78259 8.46618 13 8.46618C18.2174 8.46618 22.4453 11.2523 22.4453 14.6883C22.4453 18.1243 18.2174 20.9104 13 20.9104ZM23.3536 11.3077C22.8342 10.4887 22.129 9.74266 21.2788 9.09568C21.54 8.54487 22.1 8.16017 22.7471 8.16017C23.6437 8.16017 24.3721 8.89167 24.3721 9.79221C24.375 10.4771 23.9513 11.0658 23.3536 11.3077ZM16.25 13.0563C16.25 13.4891 16.4212 13.9042 16.726 14.2103C17.0307 14.5164 17.444 14.6883 17.875 14.6883C18.306 14.6883 18.7193 14.5164 19.024 14.2103C19.3288 13.9042 19.5 13.4891 19.5 13.0563C19.5 12.6234 19.3288 12.2083 19.024 11.9023C18.7193 11.5962 18.306 11.4242 17.875 11.4242C17.444 11.4242 17.0307 11.5962 16.726 11.9023C16.4212 12.2083 16.25 12.6234 16.25 13.0563Z" fill="#747176"/>
</svg>
