<svg width="27" height="29" viewBox="0 0 27 29" fill="none" xmlns="http://www.w3.org/2000/svg">
<path d="M26.4668 9.74626L10.4896 0.524272C10.2726 0.398648 9.91286 0.398648 9.69587 0.524272L0.171249 6.05746C-0.0457388 6.18309 -0.0457388 6.38865 0.171249 6.51999L16.1484 15.742C16.3711 15.8676 16.7251 15.8676 16.9421 15.742L26.4668 10.2088C26.6895 10.0774 26.6895 9.87188 26.4668 9.74626ZM18.1413 13.6121C18.0557 13.5264 17.9472 13.4465 17.8216 13.3779C17.0107 12.9097 15.6974 12.9097 14.8865 13.3779C14.8237 13.4122 14.7723 13.4522 14.7209 13.4922L3.95717 7.27374C4.05996 7.23377 4.15703 7.18808 4.2541 7.13098C5.05924 6.66274 5.05924 5.90329 4.24268 5.42934C4.15132 5.37795 4.05996 5.33227 3.95717 5.29229L8.394 2.71128C8.46253 2.76838 8.53676 2.82549 8.62812 2.87688C9.43897 3.34511 10.7523 3.34511 11.5632 2.87688C11.6545 2.82549 11.7345 2.76838 11.803 2.70557L22.601 8.94112C22.4582 8.99251 22.3212 9.04961 22.2013 9.12384C21.3961 9.59208 21.3961 10.3515 22.2127 10.8255C22.3383 10.8997 22.4754 10.9568 22.6238 11.0082L18.1413 13.6121ZM19.4432 11.2595L18.7408 11.6706C18.6323 11.7334 18.4553 11.7334 18.3468 11.6706L17.1134 10.9568C17.0049 10.894 17.0049 10.7912 17.1134 10.7284L17.8158 10.3173C17.9243 10.2545 18.1013 10.2545 18.2098 10.3173L19.4432 11.0311C19.5517 11.0939 19.5517 11.1966 19.4432 11.2595ZM8.82798 5.94326C8.71949 6.00607 8.54247 6.00607 8.43398 5.94326L7.20057 5.23519C7.09208 5.17238 7.09208 5.0696 7.20057 5.00678L7.90293 4.59565C8.01142 4.53284 8.18844 4.53284 8.29693 4.59565L9.53034 5.30943C9.63883 5.37224 9.63883 5.47502 9.53034 5.53783L8.82798 5.94326ZM25.3876 12.5842L26.6324 13.3037L16.651 19.0996L16.3255 18.9111L15.4061 18.3801L0 9.47788L1.2334 8.75839L16.6395 17.6606L25.3876 12.5842ZM15.4233 21.5036L0 12.5842L1.2334 11.8705L16.6567 20.7898L25.3704 15.7248L26.6096 16.4386L16.6681 22.2173L16.3483 22.0289L15.4233 21.5036ZM25.3876 18.7912L26.6324 19.5107L16.651 25.3066L16.3255 25.1181L15.4061 24.5871L0 15.6906L1.2334 14.9711L16.6395 23.8733L25.3876 18.7912ZM25.3704 21.9318L26.6096 22.6456L16.6681 28.4301L16.3483 28.2416L15.429 27.7106L0 18.7912L1.2334 18.0774L16.6567 26.9968L25.3704 21.9318ZM16.4739 6.29158C14.7151 5.27516 11.8715 5.27516 10.1184 6.29158C8.37111 7.308 8.38253 8.95254 10.1413 9.96895C11.9 10.9854 14.7437 10.9854 16.491 9.96895C18.2384 8.95825 18.2327 7.308 16.4739 6.29158ZM15.9372 7.03962L15.4918 7.29658C15.6974 7.4793 15.7944 7.66774 15.7659 7.86189C15.743 8.05032 15.6117 8.22734 15.3662 8.38723C15.3034 8.4272 15.1949 8.4272 15.132 8.38723L14.5268 8.05032C14.4697 8.01606 14.4582 7.95896 14.5096 7.9247C14.6295 7.84476 14.6924 7.76481 14.7095 7.69058C14.7266 7.59922 14.6809 7.51928 14.561 7.45075C14.4411 7.38223 14.3212 7.35368 14.1899 7.3651C14.0642 7.37652 13.9386 7.41078 13.8301 7.4793C13.7159 7.54783 13.6531 7.61635 13.6474 7.69058C13.636 7.76481 13.6759 7.87331 13.773 8.01035C13.9957 8.32441 14.1156 8.58708 14.1328 8.78694C14.1499 8.9868 14.0071 9.17523 13.7045 9.34654C13.419 9.51214 13.0992 9.59779 12.7395 9.59208C12.4368 9.59208 12.1399 9.52927 11.8487 9.41506L11.4318 9.6606C11.3747 9.69486 11.2891 9.68915 11.232 9.6606L10.8722 9.44933C10.8151 9.41506 10.8151 9.36367 10.8722 9.33512L11.2777 9.101C11.0093 8.90115 10.8608 8.68987 10.8437 8.46717C10.8208 8.25589 10.9636 8.05604 11.2605 7.8676C11.3233 7.82763 11.4318 7.82763 11.4946 7.8676L12.0999 8.2045C12.157 8.23876 12.1685 8.29586 12.1171 8.33013C11.98 8.4272 11.9115 8.51285 11.9115 8.59851C11.9115 8.70129 11.98 8.79836 12.1228 8.8783C12.2427 8.94683 12.3683 8.98109 12.4996 8.97538C12.631 8.96967 12.7566 8.93541 12.8651 8.87259C12.9964 8.79836 13.065 8.71842 13.0707 8.64419C13.0821 8.56424 13.0364 8.46146 12.945 8.33013C12.7052 8.01606 12.5796 7.7591 12.5625 7.56496C12.5396 7.37081 12.6881 7.18237 12.9964 6.99965C13.2762 6.83976 13.6017 6.75982 13.9672 6.76553C14.3041 6.77124 14.6295 6.83976 14.9436 6.97681L15.3776 6.72556C15.4347 6.6913 15.5261 6.6913 15.5774 6.72556L15.9372 6.93683C15.9943 6.95968 15.9943 7.01107 15.9372 7.03962Z" fill="#9A77B6"/>
</svg>
