<svg width="26" height="27" viewBox="0 0 26 27" fill="none" xmlns="http://www.w3.org/2000/svg">
<path d="M24.9827 8.79383L9.90143 0.0889355C9.69661 -0.0296451 9.35703 -0.0296451 9.15221 0.0889355L0.161647 5.31187C-0.0431741 5.43045 -0.0431741 5.62449 0.161647 5.74846L15.2429 14.4534C15.4532 14.5719 15.7873 14.5719 15.9922 14.4534L24.9827 9.23042C25.193 9.10645 25.193 8.91241 24.9827 8.79383ZM17.1241 12.4429C17.0433 12.362 16.9409 12.2866 16.8223 12.2219C16.0569 11.7799 14.8172 11.7799 14.0518 12.2219C13.9925 12.2542 13.944 12.292 13.8955 12.3297L3.73529 6.45995C3.83231 6.42222 3.92394 6.3791 4.01557 6.3252C4.77556 5.88321 4.77556 5.16634 4.00479 4.71897C3.91855 4.67046 3.83231 4.62734 3.73529 4.58961L7.92334 2.15332C7.98802 2.20722 8.05809 2.26112 8.14433 2.30963C8.90972 2.75161 10.1494 2.75161 10.9148 2.30963C11.001 2.26112 11.0765 2.20722 11.1412 2.14793L21.3337 8.03384C21.199 8.08235 21.0696 8.13625 20.9564 8.20632C20.1964 8.6483 20.1964 9.36517 20.9672 9.81254C21.0858 9.88262 21.2151 9.93652 21.3553 9.98503L17.1241 12.4429ZM18.353 10.2222L17.69 10.6103C17.5876 10.6696 17.4205 10.6696 17.3181 10.6103L16.1539 9.93652C16.0514 9.87723 16.0514 9.78021 16.1539 9.72091L16.8168 9.33283C16.9192 9.27354 17.0863 9.27354 17.1887 9.33283L18.353 10.0066C18.4555 10.0659 18.4555 10.1629 18.353 10.2222ZM8.33298 5.20407C8.23057 5.26336 8.06348 5.26336 7.96107 5.20407L6.79682 4.53571C6.69441 4.47642 6.69441 4.3794 6.79682 4.32011L7.4598 3.93202C7.56221 3.87273 7.7293 3.87273 7.83171 3.93202L8.99596 4.60578C9.09837 4.66507 9.09837 4.76209 8.99596 4.82138L8.33298 5.20407ZM23.9641 11.4727L25.1391 12.1518L15.7173 17.6227L15.4101 17.4448L14.5423 16.9436L0 8.5405L1.16425 7.86136L15.7065 16.2644L23.9641 11.4727ZM14.5585 19.8919L0 11.4727L1.16425 10.7989L15.7227 19.2181L23.9479 14.4372L25.1175 15.1109L15.7335 20.5656L15.4316 20.3878L14.5585 19.8919ZM23.9641 17.3316L25.1391 18.0108L15.7173 23.4817L15.4101 23.3038L14.5423 22.8025L0 14.4048L1.16425 13.7257L15.7065 22.1288L23.9641 17.3316ZM23.9479 20.2961L25.1175 20.9699L15.7335 26.43L15.4316 26.2521L14.5639 25.7509L0 17.3316L1.16425 16.6579L15.7227 25.0771L23.9479 20.2961ZM15.5502 5.53286C13.89 4.57344 11.2058 4.57344 9.55107 5.53286C7.90173 6.49229 7.91251 8.04462 9.57263 9.00404C11.2328 9.96347 13.917 9.96347 15.5663 9.00404C17.2157 8.05001 17.2104 6.49229 15.5502 5.53286ZM15.0436 6.23896L14.6231 6.48151C14.8172 6.65399 14.9088 6.83186 14.8819 7.01512C14.8603 7.19299 14.7363 7.36008 14.5046 7.511C14.4453 7.54873 14.3429 7.54873 14.2836 7.511L13.7122 7.19299C13.6583 7.16065 13.6475 7.10675 13.6961 7.07441C13.8092 6.99895 13.8685 6.92349 13.8847 6.85342C13.9009 6.76718 13.8578 6.69172 13.7446 6.62704C13.6314 6.56236 13.5182 6.53541 13.3942 6.54619C13.2756 6.55697 13.1571 6.58931 13.0546 6.65399C12.9468 6.71867 12.8876 6.78335 12.8822 6.85342C12.8714 6.92349 12.9091 7.0259 13.0007 7.15526C13.211 7.45171 13.3241 7.69965 13.3403 7.88831C13.3565 8.07696 13.2217 8.25483 12.9361 8.41653C12.6666 8.57284 12.3647 8.65369 12.0252 8.6483C11.7395 8.6483 11.4592 8.58901 11.1843 8.48121L10.7908 8.71298C10.7369 8.74532 10.6561 8.73993 10.6022 8.71298L10.2626 8.51355C10.2087 8.48121 10.2087 8.4327 10.2626 8.40575L10.6453 8.18476C10.392 7.99611 10.2518 7.79667 10.2357 7.58646C10.2141 7.38703 10.3489 7.19838 10.6291 7.02051C10.6884 6.98278 10.7908 6.98278 10.8501 7.02051L11.4215 7.33852C11.4754 7.37086 11.4861 7.42476 11.4376 7.4571C11.3083 7.54873 11.2436 7.62958 11.2436 7.71043C11.2436 7.80746 11.3083 7.89909 11.443 7.97455C11.5562 8.03923 11.6748 8.07157 11.7988 8.06618C11.9227 8.06079 12.0413 8.02845 12.1437 7.96916C12.2677 7.89909 12.3324 7.82363 12.3378 7.75355C12.3486 7.67809 12.3054 7.58107 12.2192 7.4571C11.9928 7.16065 11.8742 6.9181 11.8581 6.73484C11.8365 6.55158 11.9766 6.37371 12.2677 6.20123C12.5318 6.05031 12.839 5.97485 13.184 5.98024C13.502 5.98563 13.8092 6.05031 14.1057 6.17967L14.5153 5.94251C14.5692 5.91017 14.6555 5.91017 14.704 5.94251L15.0436 6.14194C15.0975 6.1635 15.0975 6.21201 15.0436 6.23896Z" fill="#B394BD"/>
</svg>
