<svg width="66" height="24" viewBox="0 0 66 24" fill="none" xmlns="http://www.w3.org/2000/svg">
<path d="M45.58 19L42.88 15.1H42.72H39.9V19H36.66V5H42.72C43.96 5 45.0333 5.20667 45.94 5.62C46.86 6.03333 47.5667 6.62 48.06 7.38C48.5533 8.14 48.8 9.04 48.8 10.08C48.8 11.12 48.5467 12.02 48.04 12.78C47.5467 13.5267 46.84 14.1 45.92 14.5L49.06 19H45.58ZM45.52 10.08C45.52 9.29333 45.2667 8.69333 44.76 8.28C44.2533 7.85333 43.5133 7.64 42.54 7.64H39.9V12.52H42.54C43.5133 12.52 44.2533 12.3067 44.76 11.88C45.2667 11.4533 45.52 10.8533 45.52 10.08ZM57.587 19.24C55.587 19.24 54.027 18.6867 52.907 17.58C51.8004 16.4733 51.247 14.8933 51.247 12.84V5H54.487V12.72C54.487 15.2267 55.527 16.48 57.607 16.48C58.6204 16.48 59.3937 16.18 59.927 15.58C60.4604 14.9667 60.727 14.0133 60.727 12.72V5H63.927V12.84C63.927 14.8933 63.367 16.4733 62.247 17.58C61.1404 18.6867 59.587 19.24 57.587 19.24Z" fill="white"/>
<path fill-rule="evenodd" clip-rule="evenodd" d="M0.363525 4.36363H21.6363V20.9091H0.363525V4.36363Z" fill="white"/>
<path fill-rule="evenodd" clip-rule="evenodd" d="M0.363525 10.2727H21.6363V22.0909H0.363525V10.2727Z" fill="#0E54DA"/>
<path fill-rule="evenodd" clip-rule="evenodd" d="M0.363525 16.1818H21.6363V22.0909H0.363525V16.1818Z" fill="#FF3B2C"/>
</svg>
