<svg width="27" height="29" viewBox="0 0 27 29" fill="none" xmlns="http://www.w3.org/2000/svg">
<path fill-rule="evenodd" clip-rule="evenodd" d="M2.55974 19.9361C1.8352 21.7909 1.20851 23.6828 0.682262 25.6038C-0.112055 29.0392 -0.68974 29.8074 2.28534 28.184C5.27486 26.546 19.6881 18.4865 22.9087 16.7036C27.0969 14.3698 27.1547 14.5438 22.6776 12.065C19.2693 10.1806 5.0149 2.32411 2.28534 0.787592C-0.444224 -0.763419 -0.112056 -0.0821334 0.696703 3.35328C0.94222 4.45494 1.57767 6.36833 2.57418 9.06448C2.9195 10.0006 3.49977 10.8314 4.25881 11.4764C5.01785 12.1215 5.92995 12.5589 6.90682 12.7463L15.2255 14.3553C15.2638 14.3553 15.3005 14.3706 15.3276 14.3978C15.3547 14.425 15.3699 14.4618 15.3699 14.5003C15.3699 14.5387 15.3547 14.5756 15.3276 14.6028C15.3005 14.63 15.2638 14.6452 15.2255 14.6452L6.87793 16.2397C5.90107 16.4272 4.98897 16.8646 4.22993 17.5096C3.47089 18.1546 2.89062 18.9854 2.5453 19.9216L2.55974 19.9361Z" fill="#CBCBCB"/>
</svg>
