<svg width="25" height="11" viewBox="0 0 25 11" fill="none" xmlns="http://www.w3.org/2000/svg">
<path d="M1.20763 10.4028C1.25921 10.4028 1.30288 10.3604 1.3103 10.3007L1.59071 8.07807L1.31113 5.80489C1.3028 5.74514 1.25921 5.70239 1.20763 5.70239C1.15471 5.70239 1.10963 5.74606 1.10263 5.80489L0.857544 8.07807L1.10263 10.2999C1.10963 10.3596 1.15471 10.4028 1.20763 10.4028Z" fill="#747176"/>
<path d="M0.283084 9.5576C0.333751 9.5576 0.374835 9.51818 0.382251 9.45926L0.599585 8.07809L0.382251 6.67109C0.374751 6.614 0.333751 6.57275 0.283084 6.57275C0.230167 6.57275 0.189167 6.614 0.181667 6.67192L0 8.07817L0.181667 9.45893C0.189167 9.51735 0.230167 9.5576 0.283084 9.5576Z" fill="#747176"/>
<path d="M2.31346 5.38184C2.3068 5.30959 2.25388 5.25684 2.18821 5.25684C2.12305 5.25684 2.07005 5.30959 2.06396 5.38184L1.82971 8.0781L2.06396 10.6759C2.07005 10.7478 2.12305 10.7999 2.18821 10.7999C2.25388 10.7999 2.3068 10.7478 2.31346 10.6759L2.57846 8.0781L2.31346 5.38184Z" fill="#747176"/>
<path d="M3.17931 10.9045C3.25615 10.9045 3.31831 10.8412 3.32581 10.7586L3.57623 8.07888L3.32581 5.30737C3.31831 5.22412 3.25615 5.16162 3.17931 5.16162C3.1014 5.16162 3.03831 5.2242 3.03298 5.30779L2.81165 8.07888L3.03298 10.7586C3.03831 10.8413 3.1014 10.9045 3.17931 10.9045Z" fill="#747176"/>
<path d="M4.17728 10.9481C4.26678 10.9481 4.33861 10.8764 4.34603 10.7805L4.34519 10.7811L4.58103 8.07896L4.34519 5.50754C4.33853 5.4132 4.26678 5.34045 4.17719 5.34045C4.08636 5.34045 4.01494 5.4132 4.00953 5.50829L3.80103 8.07905L4.00953 10.7806C4.01503 10.8764 4.08644 10.9481 4.17728 10.9481Z" fill="#747176"/>
<path d="M5.59435 8.07964L5.3731 3.89863C5.36693 3.79263 5.28435 3.70813 5.18301 3.70813C5.08243 3.70813 5.0001 3.79255 4.99393 3.89863L4.7981 8.07964L4.99393 10.7812C5.0001 10.8877 5.08251 10.971 5.18301 10.971C5.28443 10.971 5.36693 10.8877 5.3731 10.7812V10.7819L5.59435 8.07964Z" fill="#747176"/>
<path d="M6.19886 10.9753C6.31044 10.9753 6.40302 10.8827 6.40827 10.7646V10.7663L6.61511 8.08021L6.40827 2.9422C6.40302 2.82403 6.31044 2.73145 6.19886 2.73145C6.08469 2.73145 5.99294 2.82403 5.98677 2.9422L5.80469 8.08021L5.9876 10.7654C5.99294 10.8827 6.08469 10.9753 6.19886 10.9753Z" fill="#747176"/>
<path d="M7.22039 2.28113C7.09473 2.28113 6.99331 2.3843 6.98814 2.51438L6.81873 8.08115L6.98814 10.7382C6.99339 10.8676 7.09473 10.9701 7.22039 10.9701C7.34573 10.9701 7.44789 10.8684 7.45231 10.7377V10.7391L7.64456 8.08115L7.45231 2.51438C7.44789 2.38346 7.34564 2.28113 7.22039 2.28113Z" fill="#747176"/>
<path d="M8.25087 10.9754C8.38887 10.9754 8.49879 10.864 8.50396 10.7207V10.7223L8.68171 8.08119L8.50396 2.32742C8.49871 2.18459 8.38887 2.07275 8.25087 2.07275C8.11204 2.07275 8.00046 2.18459 7.99829 2.32742L7.83862 8.08119L7.99829 10.7223C8.00046 10.864 8.11204 10.9754 8.25087 10.9754Z" fill="#747176"/>
<path d="M9.28973 10.9727C9.43865 10.9727 9.55948 10.8508 9.56398 10.6962V10.6986L9.72756 8.08159L9.56398 2.47416C9.55948 2.31966 9.43865 2.19824 9.28973 2.19824C9.13973 2.19824 9.0189 2.31958 9.01448 2.47416L8.87073 8.08159L9.01539 10.6974C9.01889 10.8508 9.13973 10.9727 9.28973 10.9727Z" fill="#747176"/>
<path d="M10.7799 8.08158L10.6319 2.67857C10.6283 2.5119 10.4978 2.38098 10.3359 2.38098C10.1737 2.38098 10.0431 2.5119 10.0397 2.67965L9.90686 8.08158L10.0397 10.6814C10.0431 10.8468 10.1736 10.9778 10.3359 10.9778C10.4977 10.9778 10.6283 10.8468 10.6319 10.679V10.6814L10.7799 8.08158Z" fill="#747176"/>
<path d="M11.3902 10.9827C11.5622 10.9827 11.7046 10.8396 11.7072 10.6637V10.6651L11.8417 8.08308L11.7072 1.65365C11.7047 1.47706 11.5623 1.33423 11.3902 1.33423C11.2182 1.33423 11.0762 1.47773 11.0727 1.65456L10.9532 8.0805L11.0727 10.6652C11.0762 10.8396 11.2182 10.9827 11.3902 10.9827Z" fill="#747176"/>
<path d="M12.4409 0.72937C12.2552 0.72937 12.1045 0.883454 12.1014 1.07129L11.9625 8.08389L12.1023 10.6277C12.1045 10.8132 12.2553 10.9667 12.4409 10.9667C12.6239 10.9667 12.7774 10.8131 12.7782 10.6247V10.6277L12.9299 8.08389L12.7782 1.07129C12.7774 0.882787 12.6239 0.72937 12.4409 0.72937Z" fill="#747176"/>
<path d="M13.4017 10.985C13.4092 10.9857 21.8703 10.9897 21.9246 10.9897C23.6234 10.9897 25 9.5962 25 7.87661C25 6.15794 23.6233 4.76418 21.9246 4.76418C21.503 4.76418 21.1014 4.85035 20.735 5.00643C20.4915 2.20051 18.1671 0 15.3315 0C14.6383 0 13.9624 0.138501 13.3654 0.372418C13.1331 0.463252 13.0709 0.556919 13.0691 0.738419V10.6167C13.0718 10.8075 13.2173 10.9661 13.4017 10.985Z" fill="#747176"/>
</svg>
