<svg width="23" height="23" viewBox="0 0 23 23" fill="none" xmlns="http://www.w3.org/2000/svg">
<path d="M15.8642 14.8901C12.0366 13.1212 6.67913 13.9036 6.453 13.9377C5.94879 14.0139 5.60177 14.4842 5.67797 14.9884C5.75417 15.4927 6.2249 15.8393 6.72874 15.7635C6.77871 15.7558 11.7594 15.0271 15.0896 16.5662C15.2149 16.6242 15.3467 16.6516 15.4763 16.6516C15.8252 16.6515 16.159 16.4529 16.315 16.1155C16.5288 15.6527 16.3271 15.104 15.8642 14.8901Z" fill="#747176"/>
<path d="M16.94 11.5653C12.593 9.55648 6.4972 10.4467 6.2398 10.4855C5.73584 10.5617 5.38907 11.0318 5.46503 11.5358C5.54085 12.0399 6.01133 12.3871 6.51517 12.3114C6.57278 12.3027 12.3261 11.4673 16.1653 13.2415C16.2909 13.2995 16.4225 13.327 16.5521 13.327C16.901 13.3268 17.2348 13.1283 17.3909 12.7908C17.6047 12.3279 17.4028 11.7793 16.94 11.5653Z" fill="#747176"/>
<path d="M17.6634 8.09182C12.8618 5.87273 6.11804 6.8574 5.83331 6.90036C5.32935 6.97655 4.98258 7.44667 5.05853 7.95063C5.13448 8.45459 5.60509 8.80234 6.10868 8.72615C6.17306 8.71642 12.5948 7.78358 16.8887 9.76792C17.0141 9.8259 17.1459 9.85335 17.2755 9.85335C17.6244 9.85335 17.9582 9.65468 18.1142 9.31726C18.3281 8.85429 18.1262 8.30577 17.6634 8.09182Z" fill="#747176"/>
<path d="M11.5002 0C5.15891 0 0 5.15879 0 11.4997C0 17.841 5.15891 23 11.5002 23C17.8413 23 23.0002 17.841 23.0002 11.4997C23.0002 5.15879 17.8413 0 11.5002 0ZM11.5002 21.1535C6.17706 21.1535 1.84647 16.8229 1.84647 11.4997C1.84647 6.17681 6.17706 1.84635 11.5002 1.84635C16.8232 1.84635 21.1538 6.17681 21.1538 11.4997C21.1538 16.8229 16.8232 21.1535 11.5002 21.1535Z" fill="#747176"/>
</svg>
