<svg width="24" height="32" viewBox="0 0 24 32" fill="none" xmlns="http://www.w3.org/2000/svg">
<path d="M2.14466 14.6223H3.86231C5.00195 17.9686 8.17567 20.3824 11.9027 20.3824C14.575 20.3824 16.9624 19.1411 18.52 17.2053H20.728C21.1378 17.2053 21.4699 16.8732 21.4699 16.4635V14.6223H21.8043C22.609 14.6223 23.2636 13.9676 23.2636 13.1629V9.43184C23.2636 8.7208 22.7523 8.12718 22.0782 7.99861C21.5913 5.79339 20.3924 3.91929 18.5928 2.55993C16.748 1.16657 14.4346 0.430054 11.9026 0.430054C6.76341 0.430054 2.70977 3.47391 1.71934 8.03583C1.12146 8.2184 0.685303 8.77506 0.685303 9.43184V13.1629C0.685303 13.9676 1.33995 14.6223 2.14466 14.6223ZM2.16904 13.1385V9.45622H3.76819C3.53673 10.228 3.41177 11.0453 3.41177 11.8914C3.41177 12.315 3.44338 12.7314 3.50357 13.1385H2.16904ZM11.9026 18.8986C8.03885 18.8986 4.89545 15.7551 4.89545 11.8914C4.89545 8.02758 8.03885 4.88424 11.9026 4.88424C15.7665 4.88424 18.9099 8.02764 18.9099 11.8914C18.9099 13.304 18.4893 14.62 17.7675 15.7216H11.4722C11.0625 15.7216 10.7303 16.0538 10.7303 16.4635C10.7303 16.8732 11.0625 17.2053 11.4722 17.2053H16.4651C15.2383 18.2602 13.6437 18.8986 11.9026 18.8986ZM19.9861 15.7216H19.4793C19.6584 15.3685 19.8139 15.0015 19.943 14.6223H19.986V15.7216H19.9861ZM21.7798 13.1385H20.3019C20.3621 12.7314 20.3937 12.315 20.3937 11.8914C20.3937 11.0453 20.2687 10.228 20.0373 9.45622H21.7799V13.1385H21.7798ZM11.9026 1.91379C16.179 1.91379 19.5636 4.32023 20.5441 7.97248H19.4334C18.0149 5.25788 15.1718 3.4005 11.9026 3.4005C8.6335 3.4005 5.7904 5.25788 4.37194 7.97248H3.26108C4.24054 4.32248 7.63204 1.91379 11.9026 1.91379Z" fill="#9A77B6"/>
<path d="M19.522 20.7091H4.27098C1.91596 20.7091 0 22.625 0 24.98V30.6882C0 31.0979 0.332164 31.43 0.74187 31.43C1.15158 31.43 1.48374 31.0979 1.48374 30.6882V24.98C1.48374 23.4432 2.73408 22.1928 4.27098 22.1928H19.522C21.0589 22.1928 22.3093 23.4432 22.3093 24.9801V30.6882C22.3093 31.098 22.6414 31.4301 23.0512 31.4301C23.461 31.4301 23.7931 31.098 23.7931 30.6882V24.9801C23.7931 22.6251 21.8771 20.7091 19.522 20.7091Z" fill="#9A77B6"/>
</svg>
