<svg width="21" height="27" viewBox="0 0 21 27" fill="none" xmlns="http://www.w3.org/2000/svg">
<path d="M1.82844 12.1H3.29288C4.26452 14.953 6.97037 17.0109 10.148 17.0109C12.4263 17.0109 14.4618 15.9527 15.7897 14.3023H17.6723C18.0216 14.3023 18.3048 14.0191 18.3048 13.6698V12.1H18.5899C19.276 12.1 19.834 11.5419 19.834 10.8558V7.67474C19.834 7.06852 19.3981 6.56241 18.8234 6.4528C18.4083 4.57267 17.3861 2.97485 15.8518 1.81589C14.279 0.627938 12.3066 0 10.1479 0C5.7663 0 2.31025 2.59513 1.46583 6.48453C0.956085 6.64018 0.584229 7.11478 0.584229 7.67474V10.8558C0.584229 11.5419 1.14237 12.1 1.82844 12.1ZM1.84923 10.835V7.69553H3.21264C3.0153 8.35349 2.90876 9.05035 2.90876 9.77168C2.90876 10.1329 2.93571 10.4878 2.98703 10.835H1.84923ZM10.1479 15.7459C6.85371 15.7459 4.17371 13.0659 4.17371 9.77168C4.17371 6.47749 6.85371 3.79755 10.1479 3.79755C13.4421 3.79755 16.1221 6.47755 16.1221 9.77168C16.1221 10.9761 15.7635 12.098 15.1481 13.0373H9.78088C9.43157 13.0373 9.14838 13.3205 9.14838 13.6698C9.14838 14.0191 9.43157 14.3023 9.78088 14.3023H14.0378C12.9918 15.2016 11.6323 15.7459 10.1479 15.7459ZM17.0397 13.0373H16.6076C16.7603 12.7362 16.8929 12.4233 17.003 12.1H17.0396V13.0373H17.0397ZM18.569 10.835H17.3089C17.3602 10.4879 17.3872 10.1329 17.3872 9.77168C17.3872 9.05035 17.2806 8.35349 17.0833 7.69553H18.569V10.835H18.569ZM10.1479 1.26501C13.7939 1.26501 16.6795 3.31668 17.5154 6.43052H16.5685C15.3591 4.11611 12.9351 2.53254 10.1479 2.53254C7.3607 2.53254 4.93673 4.11611 3.72738 6.43052H2.78028C3.61535 3.31861 6.50688 1.26501 10.1479 1.26501Z" fill="#B394BD"/>
<path d="M16.6441 17.2896H3.64135C1.63351 17.2896 0 18.923 0 20.9308V25.7975C0 26.1468 0.283196 26.43 0.632503 26.43C0.98181 26.43 1.26501 26.1468 1.26501 25.7975V20.9308C1.26501 19.6206 2.33102 18.5546 3.64135 18.5546H16.6441C17.9544 18.5546 19.0205 19.6206 19.0205 20.9309V25.7975C19.0205 26.1469 19.3036 26.43 19.653 26.43C20.0023 26.43 20.2855 26.1469 20.2855 25.7975V20.9309C20.2855 18.9231 18.652 17.2896 16.6441 17.2896Z" fill="#B394BD"/>
</svg>
