<svg width="11" height="17" viewBox="0 0 11 17" fill="none" xmlns="http://www.w3.org/2000/svg">
<path d="M10.5952 6.01953L8.77859 5.19327L9.53108 3.19858C9.6696 2.83134 9.51081 2.41037 9.17636 2.25823L4.33194 0.0549682C3.99753 -0.0971265 3.6141 0.0772307 3.47558 0.444465L2.72309 2.43916L0.906462 1.61291C0.572012 1.46081 0.188622 1.63517 0.0500611 2.0024C-0.0884558 2.36964 0.0703361 2.79061 0.404787 2.94275L2.827 4.04441L7.04927 5.96474H1.56737C1.20539 5.96474 0.911924 6.28697 0.911924 6.68443V16.2803C0.911924 16.6778 1.20539 17 1.56737 17H9.43268C9.79466 17 10.0881 16.6778 10.0881 16.2803V7.34688L10.0936 7.34937C10.1756 7.38665 10.2605 7.40436 10.3441 7.40436C10.6013 7.40436 10.8454 7.23705 10.9499 6.95988C11.0885 6.59264 10.9297 6.17162 10.5952 6.01953ZM3.93421 2.98996L4.43585 1.66017L8.06909 3.31263L7.56746 4.64242L5.75084 3.81622L3.93421 2.98996Z" fill="white"/>
</svg>
