<svg width="12" height="18" viewBox="0 0 12 18" fill="none" xmlns="http://www.w3.org/2000/svg">
<path d="M11.4868 6.34863L9.67019 5.52238L10.4227 3.52768C10.5612 3.16045 10.4024 2.73948 10.068 2.58733L5.22354 0.38407C4.88913 0.231975 4.5057 0.406332 4.36718 0.773567L3.61469 2.76826L1.79806 1.94201C1.46361 1.78991 1.08022 1.96427 0.941663 2.33151C0.803146 2.69874 0.961938 3.11971 1.29639 3.27185L3.7186 4.37351L7.94087 6.29384H2.45897C2.09699 6.29384 1.80353 6.61607 1.80353 7.01353V16.6094C1.80353 17.0069 2.09699 17.3291 2.45897 17.3291H10.3243C10.6863 17.3291 10.9797 17.0069 10.9797 16.6094V7.67598L10.9852 7.67847C11.0672 7.71575 11.1521 7.73346 11.2357 7.73346C11.4929 7.73346 11.737 7.56615 11.8415 7.28898C11.9801 6.92174 11.8213 6.50072 11.4868 6.34863ZM4.82582 3.31907L5.32745 1.98927L8.9607 3.64173L8.45906 4.97153L6.64244 4.14532L4.82582 3.31907Z" fill="#CBCBCB"/>
</svg>
