<svg width="27" height="23" viewBox="0 0 27 23" fill="none" xmlns="http://www.w3.org/2000/svg">
<path d="M25.021 20.4929L23.1022 18.7843C22.96 18.6577 22.7763 18.5878 22.5859 18.5878H7.86329V6.07412H25.021V20.4929ZM3.98777 14.0663C3.79747 14.0663 3.61373 14.1363 3.47156 14.2629L1.55269 15.9714V1.55269H18.7104V4.52143H7.08694C6.65819 4.52143 6.3106 4.86903 6.3106 5.29778V14.0663H3.98777ZM25.7974 4.52143H20.2631V0.776345C20.2631 0.347596 19.9155 0 19.4867 0H0.776345C0.347544 0 0 0.347596 0 0.776345V17.7022C0 18.008 0.179542 18.2854 0.458613 18.4106C0.560521 18.4563 0.668692 18.4786 0.77619 18.4786C0.963031 18.4786 1.14754 18.4111 1.29256 18.282L4.2833 15.619H6.3106V19.3641C6.3106 19.7929 6.65819 20.1405 7.08694 20.1405H22.2904L25.2811 22.8035C25.4261 22.9326 25.6107 23 25.7975 23C25.905 23 26.0133 22.9777 26.1151 22.932C26.3941 22.8068 26.5737 22.5295 26.5737 22.2237V5.29778C26.5737 4.86903 26.2261 4.52143 25.7974 4.52143Z" fill="white"/>
<path d="M25.021 20.4929L23.1022 18.7843C22.96 18.6577 22.7763 18.5878 22.5859 18.5878H7.86329V6.07412H25.021V20.4929ZM3.98777 14.0663C3.79747 14.0663 3.61373 14.1363 3.47156 14.2629L1.55269 15.9714V1.55269H18.7104V4.52143H7.08694C6.65819 4.52143 6.3106 4.86903 6.3106 5.29778V14.0663H3.98777ZM25.7974 4.52143H20.2631V0.776345C20.2631 0.347596 19.9155 0 19.4867 0H0.776345C0.347544 0 0 0.347596 0 0.776345V17.7022C0 18.008 0.179542 18.2854 0.458613 18.4106C0.560521 18.4563 0.668692 18.4786 0.77619 18.4786C0.963031 18.4786 1.14754 18.4111 1.29256 18.282L4.2833 15.619H6.3106V19.3641C6.3106 19.7929 6.65819 20.1405 7.08694 20.1405H22.2904L25.2811 22.8035C25.4261 22.9326 25.6107 23 25.7975 23C25.905 23 26.0133 22.9777 26.1151 22.932C26.3941 22.8068 26.5737 22.5295 26.5737 22.2237V5.29778C26.5737 4.86903 26.2261 4.52143 25.7974 4.52143Z" fill="white"/>
</svg>
