<svg width="21" height="24" viewBox="0 0 21 24" fill="none" xmlns="http://www.w3.org/2000/svg">
<path d="M10.9509 0.02C12.2609 0 13.5609 0.01 14.8609 0C14.9409 1.53 15.4909 3.09 16.6109 4.17C17.7309 5.28 19.3109 5.79 20.8509 5.96V9.99C19.4109 9.94 17.9609 9.64 16.6509 9.02C16.0809 8.76 15.5509 8.43 15.0309 8.09C15.0209 11.01 15.0409 13.93 15.0109 16.84C14.9309 18.24 14.4709 19.63 13.6609 20.78C12.3509 22.7 10.0809 23.95 7.7509 23.99C6.3209 24.07 4.8909 23.68 3.6709 22.96C1.6509 21.77 0.230902 19.59 0.0209017 17.25C0.000901693 16.75 -0.0090983 16.25 0.0109017 15.76C0.190902 13.86 1.1309 12.04 2.5909 10.8C4.2509 9.36 6.5709 8.67 8.7409 9.08C8.7609 10.56 8.7009 12.04 8.7009 13.52C7.7109 13.2 6.5509 13.29 5.6809 13.89C5.0509 14.3 4.5709 14.93 4.3209 15.64C4.1109 16.15 4.1709 16.71 4.1809 17.25C4.4209 18.89 6.0009 20.27 7.6809 20.12C8.8009 20.11 9.8709 19.46 10.4509 18.51C10.6409 18.18 10.8509 17.84 10.8609 17.45C10.9609 15.66 10.9209 13.88 10.9309 12.09C10.9409 8.06 10.9209 4.04 10.9509 0.02Z" fill="#747176"/>
</svg>
