<svg width="29" height="23" viewBox="0 0 29 23" fill="none" xmlns="http://www.w3.org/2000/svg">
<path d="M27.4557 2.65436C27.0144 2.8501 26.5607 3.0153 26.0971 3.14942C26.6459 2.52867 27.0644 1.79827 27.3199 0.998999C27.3772 0.819843 27.3178 0.62374 27.1705 0.506568C27.0235 0.389305 26.8191 0.375259 26.6572 0.471226C25.6726 1.05518 24.6103 1.47485 23.4965 1.72025C22.3746 0.623922 20.8507 0 19.2753 0C15.95 0 13.2446 2.70529 13.2446 6.03051C13.2446 6.29241 13.2612 6.55285 13.294 6.80967C9.16763 6.44737 5.3314 4.41919 2.69706 1.18776C2.60318 1.07258 2.45855 1.01051 2.31048 1.02238C2.16231 1.03398 2.02919 1.11753 1.95434 1.24594C1.42004 2.16275 1.13758 3.21131 1.13758 4.27819C1.13758 5.73129 1.65638 7.10999 2.57282 8.18728C2.29417 8.09077 2.02375 7.97015 1.76567 7.82688C1.62711 7.74977 1.45801 7.75094 1.32036 7.82987C1.18262 7.9088 1.09625 8.05398 1.09263 8.21265C1.092 8.23939 1.092 8.26612 1.092 8.29322C1.092 10.4622 2.25937 12.415 4.04414 13.4793C3.89081 13.464 3.73757 13.4418 3.58532 13.4127C3.42837 13.3827 3.26697 13.4377 3.16113 13.5574C3.0551 13.6771 3.02003 13.8438 3.06888 13.996C3.7295 16.0586 5.43036 17.5756 7.48653 18.0382C5.78115 19.1063 3.83091 19.6658 1.78361 19.6658C1.35643 19.6658 0.926794 19.6407 0.506315 19.591C0.297435 19.5661 0.097708 19.6895 0.026571 19.8881C-0.044566 20.0868 0.0308302 20.3084 0.208537 20.4223C2.83861 22.1087 5.87974 23 9.00297 23C15.1429 23 18.9838 20.1047 21.1247 17.6758C23.7944 14.6472 25.3255 10.6384 25.3255 6.67745C25.3255 6.51198 25.323 6.34488 25.3179 6.17832C26.3712 5.38475 27.278 4.42436 28.0159 3.32051C28.128 3.15286 28.1159 2.9313 27.986 2.77697C27.8564 2.62255 27.6402 2.57262 27.4557 2.65436Z" fill="#747176"/>
</svg>
