<svg width="23" height="27" viewBox="0 0 23 27" fill="none" xmlns="http://www.w3.org/2000/svg">
<path d="M22.1518 24.577L19.7984 7.14113C19.7336 6.66064 19.4797 6.2327 19.1175 5.92597L16.3366 3.21508C16.2255 3.10684 16.075 3.04604 15.9179 3.04604H15.0481C14.6172 1.30092 13.0034 0 11.083 0C9.16256 0 7.54884 1.30092 7.11802 3.04599H6.24673C6.08969 3.04599 5.93912 3.10679 5.82803 3.21502L3.02583 5.94664C2.6765 6.25178 2.43216 6.67125 2.36872 7.14108L0.0152715 24.5769C-0.0494645 25.0564 0.0935412 25.5316 0.407578 25.8807C0.721616 26.2298 1.18633 26.43 1.68239 26.43H20.4846C20.9808 26.43 21.4454 26.2298 21.7595 25.8807C22.0736 25.5316 22.2166 25.0564 22.1518 24.577ZM16.9429 5.43866H15.1619V4.20036H15.6726L16.9429 5.43866ZM11.083 1.15437C12.6791 1.15437 13.9777 2.42021 13.9777 3.97613V5.43866H8.18836V3.97613C8.18836 2.42021 9.48686 1.15437 11.083 1.15437ZM6.49197 4.20036H7.00417V5.43872H5.22167L6.49197 4.20036ZM3.54276 7.2917C3.59306 6.9195 3.97494 6.59303 4.36003 6.59303H7.00417V8.70019C7.00417 9.01896 7.26926 9.27737 7.59626 9.27737C7.92327 9.27737 8.18836 9.01896 8.18836 8.70019V6.59303H13.9777V8.70019C13.9777 9.01896 14.2428 9.27737 14.5698 9.27737C14.8968 9.27737 15.1619 9.01896 15.1619 8.70019V6.59303H17.8071C18.0088 6.59303 18.2091 6.68307 18.3618 6.82176L18.3661 6.82599C18.3676 6.82748 18.3693 6.82869 18.3708 6.83011C18.505 6.95528 18.6009 7.11827 18.6243 7.29164L20.5915 21.8656H1.57559L3.54276 7.2917ZM20.8692 25.1195C20.7787 25.2202 20.6421 25.2756 20.4847 25.2756H1.68245C1.52501 25.2756 1.38843 25.2202 1.29792 25.1195C1.20742 25.0189 1.16885 24.8797 1.18937 24.7275L1.41984 23.02H20.7473L20.9778 24.7275C20.9983 24.8797 20.9597 25.0189 20.8692 25.1195Z" fill="#B394BD"/>
</svg>
