<svg width="26" height="32" viewBox="0 0 26 32" fill="none" xmlns="http://www.w3.org/2000/svg">
<path d="M25.9821 29.2566L23.2218 8.80596C23.1457 8.24238 22.8479 7.74045 22.4231 7.38068L19.1614 4.20105C19.0311 4.0741 18.8545 4.00279 18.6703 4.00279H17.65C17.1446 1.95591 15.2518 0.430054 12.9993 0.430054C10.7469 0.430054 8.8541 1.95591 8.34879 4.00272H7.32685C7.14265 4.00272 6.96605 4.07403 6.83576 4.20098L3.54903 7.40492C3.13929 7.76282 2.8527 8.25483 2.77829 8.80589L0.0179121 29.2565C-0.0580174 29.819 0.109715 30.3763 0.478053 30.7858C0.84639 31.1952 1.39146 31.4301 1.97329 31.4301H24.0266C24.6085 31.4301 25.1535 31.1952 25.5219 30.7858C25.8903 30.3763 26.058 29.8189 25.9821 29.2566ZM19.8725 6.80911H17.7835V5.35669H18.3826L19.8725 6.80911ZM12.9993 1.78402C14.8715 1.78402 16.3945 3.26874 16.3945 5.0937V6.80911H9.60421V5.0937C9.60421 3.26874 11.1272 1.78402 12.9993 1.78402ZM7.6145 5.35669H8.21525V6.80918H6.12455L7.6145 5.35669ZM4.15534 8.98255C4.21434 8.546 4.66224 8.16308 5.11392 8.16308H8.21525V10.6346C8.21525 11.0085 8.52618 11.3116 8.90973 11.3116C9.29328 11.3116 9.60421 11.0085 9.60421 10.6346V8.16308H16.3945V10.6346C16.3945 11.0085 16.7055 11.3116 17.089 11.3116C17.4726 11.3116 17.7835 11.0085 17.7835 10.6346V8.16308H20.8862C21.1227 8.16308 21.3576 8.26869 21.5367 8.43136L21.5418 8.43632C21.5435 8.43807 21.5455 8.43948 21.5473 8.44116C21.7047 8.58797 21.8172 8.77914 21.8447 8.98249L24.1519 26.0764H1.84802L4.15534 8.98255ZM24.4777 29.893C24.3716 30.011 24.2114 30.076 24.0267 30.076H1.97336C1.7887 30.076 1.6285 30.011 1.52235 29.893C1.41619 29.7749 1.37095 29.6117 1.39503 29.4332L1.66534 27.4304H24.3347L24.605 29.4332C24.6291 29.6117 24.5839 29.7749 24.4777 29.893Z" fill="#9A77B6"/>
</svg>
