<svg width="25" height="15" viewBox="0 0 25 15" fill="none" xmlns="http://www.w3.org/2000/svg">
<path d="M24.4343 0.982C24.153 1.831 23.7738 2.57 23.2987 3.241L23.3185 3.211C22.8517 3.95767 22.2943 4.82033 21.6463 5.799C21.0907 6.57167 20.7965 6.97167 20.7639 6.999C20.6201 7.172 20.5201 7.384 20.4857 7.617L20.4847 7.624C20.5128 7.836 20.6149 8.021 20.7639 8.159L21.1806 8.605C23.4102 10.8043 24.6642 12.3203 24.9427 13.153C24.9792 13.245 25 13.351 25 13.462C25 13.656 24.9354 13.835 24.826 13.982L24.8281 13.979C24.6447 14.16 24.3884 14.272 24.1051 14.272C24.0738 14.272 24.0415 14.271 24.0113 14.268H24.0155H21.2744C21.2733 14.268 21.2713 14.268 21.2692 14.268C20.9181 14.268 20.5951 14.15 20.3419 13.954L20.3451 13.956C19.9762 13.665 19.6481 13.35 19.3543 13.008L19.3449 12.996C18.8649 12.4753 18.4392 12.037 18.0676 11.681C16.8299 10.5517 15.9165 9.987 15.3276 9.987C15.3057 9.985 15.2807 9.984 15.2546 9.984C15.0827 9.984 14.9223 10.035 14.79 10.122L14.7931 10.12C14.6847 10.25 14.6191 10.418 14.6191 10.599C14.6191 10.635 14.6212 10.669 14.6264 10.704V10.7C14.5983 11.014 14.5816 11.379 14.5816 11.748C14.5816 11.867 14.5837 11.985 14.5868 12.103V12.086V13.245C14.5972 13.292 14.6035 13.346 14.6035 13.401C14.6035 13.643 14.4889 13.859 14.3097 14.002L14.3086 14.003C13.9054 14.18 13.4345 14.284 12.9376 14.284C12.8313 14.284 12.7271 14.279 12.624 14.27L12.6375 14.271C10.9977 14.241 9.47658 13.78 8.18366 13.003L8.22012 13.023C6.6459 12.105 5.34152 10.91 4.3476 9.498L4.31947 9.456C3.37556 8.254 2.49521 6.896 1.74508 5.464L1.67215 5.31C1.23354 4.508 0.779297 3.522 0.387565 2.508L0.325054 2.323C0.165653 1.867 0.0500083 1.337 0.00208368 0.788L0 0.763C0 0.257667 0.309774 0.00500011 0.929322 0.00500011H3.66936C3.69437 0.00300011 3.72354 0.00199986 3.75375 0.00199986C4.01213 0.00199986 4.25071 0.087 4.43928 0.23L4.4372 0.228C4.64557 0.447 4.79976 0.716 4.87581 1.016L4.87894 1.028C5.38319 2.395 5.91765 3.543 6.53234 4.643L6.46254 4.506C6.9647 5.476 7.52 6.311 8.15344 7.082L8.12948 7.051C8.68513 7.70567 9.11853 8.033 9.4297 8.033C9.43907 8.034 9.45053 8.034 9.46304 8.034C9.61723 8.034 9.75163 7.954 9.82455 7.834L9.8256 7.832C9.90269 7.642 9.94749 7.421 9.94749 7.191C9.94749 7.142 9.94541 7.093 9.94124 7.045V7.051V3.172C9.91936 2.715 9.80268 2.288 9.60785 1.905L9.61619 1.924C9.487 1.66 9.33176 1.432 9.14736 1.229L9.15048 1.233C8.97962 1.069 8.86294 0.854 8.82647 0.614L8.82543 0.608C8.82543 0.438 8.90669 0.285 9.0338 0.185L9.03484 0.184C9.1609 0.073 9.32968 0.00600004 9.51409 0.00600004H9.52242H13.8419C13.8648 0.00300004 13.8909 0.00199986 13.9179 0.00199986C14.1211 0.00199986 14.3034 0.0900002 14.4243 0.228L14.4253 0.229C14.5326 0.417 14.5962 0.642 14.5962 0.88C14.5962 0.918 14.5941 0.955 14.591 0.992V0.987V6.16C14.5889 6.184 14.5878 6.212 14.5878 6.24C14.5878 6.424 14.641 6.597 14.7327 6.744L14.7306 6.74C14.8066 6.848 14.9337 6.918 15.0775 6.918H15.0786C15.2619 6.906 15.4286 6.848 15.5693 6.756L15.5661 6.758C15.8495 6.571 16.0933 6.358 16.3048 6.117L16.309 6.112C16.9414 5.426 17.5248 4.668 18.0332 3.862L18.0738 3.792C18.4322 3.222 18.8198 2.52 19.1709 1.799L19.2355 1.652L19.7002 0.76C19.8616 0.314 20.295 0 20.8045 0C20.8243 0 20.8441 -7.25267e-08 20.8639 0.000999928H20.8608H23.6019C24.3423 0.000999928 24.6201 0.328 24.4353 0.982H24.4343Z" fill="#747176"/>
</svg>
