<svg width="23" height="23" viewBox="0 0 23 23" fill="none" xmlns="http://www.w3.org/2000/svg">
<path d="M11.5 0C5.15 0 0 5.15 0 11.5C0 17.85 5.15 23 11.5 23C17.85 23 23 17.85 23 11.5C23 5.15 17.85 0 11.5 0ZM12.425 20.95C12.375 20.95 12.325 20.95 12.25 20.975V15.55C13.55 15.525 14.725 15.5 15.8 15.425C14.85 18.35 13.075 20.3 12.425 20.95ZM10.575 20.95C9.9 20.275 8.15 18.325 7.2 15.425C8.25 15.5 9.45 15.55 10.75 15.55V20.975C10.7 20.975 10.65 20.95 10.575 20.95ZM2 11.5C2 10.875 2.075 10.25 2.175 9.65C2.725 9.55 3.775 9.4 5.25 9.25C5.125 9.975 5.05 10.725 5.05 11.525C5.05 12.325 5.125 13.075 5.225 13.775C3.775 13.625 2.7 13.475 2.15 13.375C2.075 12.75 2 12.125 2 11.5ZM6.575 11.5C6.575 10.65 6.675 9.85 6.825 9.1C7.975 9.025 9.275 8.95 10.75 8.95V14.05C9.3 14.025 7.975 13.975 6.8 13.875C6.675 13.15 6.575 12.35 6.575 11.5ZM12.4 2.05C13.075 2.725 14.8 4.725 15.775 7.575C14.725 7.5 13.55 7.45 12.25 7.45V2.025C12.3 2.025 12.35 2.05 12.4 2.05ZM10.75 2.025V7.45C9.45 7.475 8.275 7.5 7.225 7.575C8.175 4.725 9.925 2.725 10.575 2.05C10.65 2.05 10.7 2.025 10.75 2.025ZM12.25 14.05V8.95C13.7 8.975 15.025 9.025 16.175 9.1C16.325 9.85 16.425 10.65 16.425 11.5C16.425 12.35 16.35 13.15 16.2 13.9C15.05 13.975 13.725 14.025 12.25 14.05ZM17.725 9.25C19.2 9.4 20.25 9.55 20.8 9.65C20.925 10.25 21 10.875 21 11.5C21 12.125 20.925 12.75 20.825 13.35C20.275 13.45 19.225 13.6 17.75 13.75C17.875 13.025 17.925 12.275 17.925 11.475C17.925 10.725 17.85 9.95 17.725 9.25ZM20.35 8.05C19.65 7.95 18.65 7.825 17.375 7.7C16.775 5.55 15.725 3.825 14.85 2.6C17.375 3.55 19.375 5.55 20.35 8.05ZM8.15 2.6C7.25 3.8 6.225 5.525 5.625 7.675C4.375 7.775 3.375 7.925 2.65 8.025C3.625 5.55 5.65 3.55 8.15 2.6ZM2.65 14.95C3.35 15.05 4.35 15.175 5.6 15.3C6.2 17.45 7.2 19.175 8.1 20.375C5.6 19.4 3.625 17.425 2.65 14.95ZM14.9 20.375C15.8 19.175 16.8 17.475 17.4 15.325C18.65 15.225 19.65 15.075 20.35 14.975C19.375 17.425 17.4 19.4 14.9 20.375Z" fill="#747176"/>
</svg>
