<svg width="25" height="18" viewBox="0 0 25 18" fill="none" xmlns="http://www.w3.org/2000/svg">
<path d="M24.0256 1.51032C23.1231 0.43758 21.457 0 18.2751 0H6.72468C3.46992 0 1.77556 0.465807 0.876532 1.6079C0 2.72145 0 4.36218 0 6.63298V10.9611C0 15.3604 1.04 17.594 6.72468 17.594H18.2752C21.0345 17.594 22.5635 17.2079 23.5527 16.2612C24.5672 15.2904 25 13.7053 25 10.9611V6.63298C25 4.23823 24.9322 2.58782 24.0256 1.51032ZM16.0501 9.3946L10.8051 12.1358C10.6878 12.1971 10.5596 12.2275 10.4315 12.2275C10.2865 12.2275 10.1419 12.1885 10.0137 12.1109C9.77242 11.9647 9.62508 11.7031 9.62508 11.421V5.95621C9.62508 5.6746 9.77202 5.41331 10.0128 5.26702C10.2537 5.12073 10.5533 5.11073 10.8032 5.24056L16.0482 7.96411C16.3151 8.10266 16.4827 8.37815 16.4831 8.67871C16.4834 8.97952 16.3165 9.2554 16.0501 9.3946Z" fill="#747176"/>
</svg>
