<svg width="27" height="25" viewBox="0 0 27 25" fill="none" xmlns="http://www.w3.org/2000/svg">
<path d="M24.8362 4.4583V1.09412C24.8362 0.727358 24.5389 0.430054 24.1722 0.430054H0.66407C0.297371 0.430054 0 0.727358 0 1.09412V20.0308C0 20.3975 0.297371 20.6948 0.66407 20.6948H3.32035V22.2361C3.32035 23.2614 4.15449 24.0955 5.17975 24.0955H24.5706C25.5959 24.0955 26.43 23.2614 26.43 22.2361V6.29844C26.43 5.36337 25.7361 4.58767 24.8362 4.4583ZM1.32814 19.3667V1.75819H23.5081V4.43905H17.133C16.1078 4.43905 15.2736 5.27318 15.2736 6.29844C15.2736 6.59136 15.0353 6.8297 14.7424 6.8297H5.17975C4.15449 6.8297 3.32035 7.66384 3.32035 8.6891V19.3667H1.32814ZM25.1019 22.2361C25.1019 22.5291 24.8635 22.7674 24.5706 22.7674H5.17975C4.88683 22.7674 4.64849 22.5291 4.64849 22.2361V8.6891C4.64849 8.39617 4.88683 8.15784 5.17975 8.15784H14.7424C15.7676 8.15784 16.6018 7.3237 16.6018 6.29844C16.6018 6.00552 16.8401 5.76719 17.133 5.76719H24.5706C24.8635 5.76719 25.1019 6.00552 25.1019 6.29844V22.2361Z" fill="#9A77B6"/>
<path d="M13.1485 10.15H7.03907C6.67237 10.15 6.375 10.4473 6.375 10.8141C6.375 11.1809 6.67237 11.4782 7.03907 11.4782H13.1485C13.5152 11.4782 13.8126 11.1809 13.8126 10.8141C13.8126 10.4473 13.5152 10.15 13.1485 10.15Z" fill="#9A77B6"/>
<path d="M13.1485 12.408H7.03907C6.67237 12.408 6.375 12.7053 6.375 13.072C6.375 13.4388 6.67237 13.7361 7.03907 13.7361H13.1485C13.5152 13.7361 13.8126 13.4388 13.8126 13.072C13.8126 12.7053 13.5152 12.408 13.1485 12.408Z" fill="#9A77B6"/>
</svg>
