<svg width="27" height="27" viewBox="0 0 27 27" fill="none" xmlns="http://www.w3.org/2000/svg">
<path d="M22.5642 22.5642C27.7186 17.4097 27.7186 9.02028 22.5642 3.86583C17.4097 -1.28861 9.02028 -1.28861 3.86583 3.86583C-1.28861 9.02028 -1.28861 17.4097 3.86583 22.5642C9.02028 27.7186 17.4097 27.7186 22.5642 22.5642ZM4.79859 4.79859C9.44083 0.156359 16.9892 0.156359 21.6314 4.79859C26.2736 9.44083 26.2736 16.9892 21.6314 21.6314C16.9892 26.2736 9.44083 26.2736 4.79859 21.6314C0.156359 16.9892 0.16175 9.44083 4.79859 4.79859Z" fill="white"/>
<path d="M13.215 18.1646C13.3983 18.1646 13.56 18.0891 13.684 17.9705C13.8026 17.8519 13.8781 17.6847 13.8781 17.5014V13.8728H17.5067C17.69 13.8728 17.8518 13.7973 17.9758 13.6787C18.0944 13.5601 18.1699 13.3929 18.1699 13.2096C18.1699 12.843 17.8734 12.5464 17.5121 12.5518H13.8835V8.92324C13.8835 8.5566 13.587 8.26006 13.2257 8.26545C12.8591 8.26545 12.5626 8.562 12.5679 8.92324V12.5518H8.93935C8.57272 12.5518 8.27617 12.8484 8.28157 13.2096C8.28157 13.5763 8.57811 13.8728 8.93935 13.8674H12.5679V17.496C12.5518 17.868 12.8483 18.1646 13.215 18.1646Z" fill="white"/>
</svg>
