<svg width="27" height="25" viewBox="0 0 27 25" fill="none" xmlns="http://www.w3.org/2000/svg">
<path d="M24.8362 4.45818V1.094C24.8362 0.727236 24.5389 0.429932 24.1722 0.429932H0.66407C0.297371 0.429932 0 0.727236 0 1.094V20.0306C0 20.3974 0.297371 20.6947 0.66407 20.6947H3.32035V22.236C3.32035 23.2613 4.15449 24.0954 5.17975 24.0954H24.5706C25.5959 24.0954 26.43 23.2613 26.43 22.236V6.29832C26.43 5.36324 25.7361 4.58754 24.8362 4.45818ZM1.32814 19.3666V1.75807H23.5081V4.43892H17.133C16.1078 4.43892 15.2736 5.27306 15.2736 6.29832C15.2736 6.59124 15.0353 6.82958 14.7424 6.82958H5.17975C4.15449 6.82958 3.32035 7.66372 3.32035 8.68897V19.3666H1.32814ZM25.1019 22.236C25.1019 22.5289 24.8635 22.7673 24.5706 22.7673H5.17975C4.88683 22.7673 4.64849 22.5289 4.64849 22.236V8.68897C4.64849 8.39605 4.88683 8.15772 5.17975 8.15772H14.7424C15.7676 8.15772 16.6018 7.32358 16.6018 6.29832C16.6018 6.0054 16.8401 5.76706 17.133 5.76706H24.5706C24.8635 5.76706 25.1019 6.0054 25.1019 6.29832V22.236Z" fill="white"/>
<path d="M13.1485 10.1499H7.03907C6.67237 10.1499 6.375 10.4472 6.375 10.814C6.375 11.1807 6.67237 11.478 7.03907 11.478H13.1485C13.5152 11.478 13.8126 11.1807 13.8126 10.814C13.8126 10.4472 13.5152 10.1499 13.1485 10.1499Z" fill="white"/>
<path d="M13.1485 12.4077H7.03907C6.67237 12.4077 6.375 12.705 6.375 13.0718C6.375 13.4386 6.67237 13.7359 7.03907 13.7359H13.1485C13.5152 13.7359 13.8126 13.4386 13.8126 13.0718C13.8126 12.705 13.5152 12.4077 13.1485 12.4077Z" fill="white"/>
</svg>
