<svg width="46" height="54" viewBox="0 0 46 54" fill="none" xmlns="http://www.w3.org/2000/svg">
<mask id="path-1-outside-1_197_1560" maskUnits="userSpaceOnUse" x="0" y="0" width="46" height="54" fill="black">
<rect fill="white" width="46" height="54"/>
<path fill-rule="evenodd" clip-rule="evenodd" d="M4.59229 18.6719H41.561C41.8498 19.9114 41.6042 21.3372 41.7919 22.7066C41.9529 23.8817 41.8227 25.5156 42.0101 26.754C42.1739 27.8358 42.2833 33.6515 42.4473 34.848L42.9789 45.9962C42.9847 46.5204 43.0606 46.555 43.085 47.0073C43.1026 47.3335 43.0765 47.6974 43.0804 48.0275C43.0866 48.5516 43.1622 48.5866 43.1865 49.0386C43.2059 49.3998 43.1661 49.7955 43.1855 50.1568C43.2102 50.6165 43.2876 50.6372 43.2876 51.1719H2.8657L3.06937 48.2271C3.08879 47.8656 3.05473 47.4701 3.06556 47.106C3.07991 46.6204 3.14695 46.642 3.17086 46.1958C3.19029 45.8345 3.15047 45.4389 3.16989 45.0776C3.1939 44.6314 3.26085 44.6531 3.27529 44.1674C3.28602 43.8033 3.25196 43.4079 3.27148 43.0464C3.29549 42.5999 3.36263 42.6218 3.37688 42.1361C3.38732 41.7768 3.34956 41.3761 3.37883 41.021C3.42861 40.4192 3.42382 39.6735 3.48043 38.9897L3.69308 34.9367C3.88563 33.2209 3.93862 28.0863 4.12736 26.8398C4.30937 25.6368 4.38627 19.5563 4.59229 18.6719ZM37.9047 14.2031H39.3266C39.421 14.5568 40.5788 16.3309 40.8501 16.8437H37.2954C37.4062 16.6127 37.8972 14.5436 37.9047 14.2031ZM6.82665 14.2031H7.13133C7.149 14.9964 7.43601 16.0139 7.43601 16.8437H5.30324C5.57533 16.3295 6.73316 14.5534 6.82665 14.2031ZM14.8501 14.4063L24.1127 12.1923C24.66 12.055 25.1109 11.9695 25.6773 11.8271C26.1555 11.707 26.7904 11.4984 27.2407 11.461L28.561 16.8437H15.3579C15.2941 16.0768 14.8709 15.1599 14.8501 14.4063ZM26.3267 9.73436C26.4401 9.24709 26.6948 8.36447 26.7329 7.90627L36.9907 10.3437L35.4673 16.8437H30.3892L28.9879 10.9326C28.3936 8.53681 27.9473 9.69825 26.3267 9.73436ZM8.14697 7.09372C8.55383 7.09372 9.35437 6.96803 9.70131 6.92157L17.7861 5.96722C18.292 5.91892 18.8956 5.83225 19.4205 5.7735C19.9114 5.71856 20.5814 5.58066 21.0454 5.57032C21.1645 7.0016 21.6547 9.60613 21.6547 10.9531C21.1581 10.9642 17.5702 11.9162 16.9576 12.045C16.1201 12.2213 15.4753 12.4093 14.6681 12.5994C13.937 12.7716 12.8189 12.7854 12.8189 13.6953C12.8189 14.0584 13.4182 16.6112 13.5297 16.8437H9.2642C9.2642 15.526 8.14697 8.34134 8.14697 7.09372ZM19.8266 3.84373C19.8903 3.78849 19.9499 3.73159 20.0495 3.66025C20.2061 3.54812 20.1758 3.56881 20.3655 3.46849C22.9976 2.07536 26.3579 2.90304 27.998 5.62556C28.2059 5.97064 28.2028 6.05955 28.3579 6.38277C25.7835 6.32548 25.5968 4.234 24.6084 9.0318C24.3845 10.1188 24.4742 10.3629 23.4829 10.4453C23.476 10.1367 23.3891 9.64721 23.3367 9.27109L22.9164 5.73056C22.8002 4.87722 22.8973 4.04935 22.2678 3.73589C21.8472 3.52636 20.5128 3.84373 19.8266 3.84373ZM6.21729 6.07809C6.21729 7.64785 6.90268 11.2273 6.92824 12.375C5.71206 12.375 5.61554 12.7463 5.14398 13.536L2.92913 17.2118C2.62396 17.7695 2.64016 21.9266 2.5333 22.7066C2.47533 23.1297 2.45806 23.4856 2.46167 24.0569C2.46586 24.708 2.36046 24.8851 2.35392 25.4726C2.34231 26.5131 2.29117 27.2605 2.25965 28.3236L2.05276 31.1636C1.99928 32.1558 1.95419 33.0585 1.95497 34.0112L1.79141 36.7928C1.71899 37.271 1.76613 37.6875 1.75188 38.1752C1.73597 38.7171 1.63975 38.9377 1.6459 39.5928C1.65146 40.1868 1.60998 40.4861 1.56021 40.9289L1.24479 48.0275C1.22411 49.7858 0.417607 53 1.85006 53H44.3032C45.6449 53 45.0011 50.8136 45.0148 49.5462C45.0219 48.8898 44.9254 48.6716 44.9093 48.1283C44.8778 47.0651 44.8265 46.3178 44.815 45.2773L44.5063 39.6953C44.5126 39.085 44.4482 38.8302 44.4101 38.3696C44.3697 37.8805 44.4443 37.37 44.377 36.8793L43.7974 25.6776C43.8023 25.0534 43.7063 24.8939 43.6906 24.3627L43.2937 17.3455L42.1896 15.5043C40.2811 12.3427 40.7979 12.375 38.4126 12.375C38.4287 11.6519 39.1095 9.8787 38.9615 9.3967C38.721 8.61411 37.5171 8.55506 36.4025 8.29127C34.4231 7.82293 32.3931 7.35752 30.3892 6.89064C30.1683 4.23614 26.7704 1 23.5844 1C20.7782 1 19.1304 1.65826 17.3121 3.66513C16.9518 4.06272 17.1504 4.14538 16.5865 4.25986L8.14697 5.26564C7.82765 5.30136 6.21729 5.30838 6.21729 6.07809Z"/>
</mask>
<path fill-rule="evenodd" clip-rule="evenodd" d="M4.59229 18.6719H41.561C41.8498 19.9114 41.6042 21.3372 41.7919 22.7066C41.9529 23.8817 41.8227 25.5156 42.0101 26.754C42.1739 27.8358 42.2833 33.6515 42.4473 34.848L42.9789 45.9962C42.9847 46.5204 43.0606 46.555 43.085 47.0073C43.1026 47.3335 43.0765 47.6974 43.0804 48.0275C43.0866 48.5516 43.1622 48.5866 43.1865 49.0386C43.2059 49.3998 43.1661 49.7955 43.1855 50.1568C43.2102 50.6165 43.2876 50.6372 43.2876 51.1719H2.8657L3.06937 48.2271C3.08879 47.8656 3.05473 47.4701 3.06556 47.106C3.07991 46.6204 3.14695 46.642 3.17086 46.1958C3.19029 45.8345 3.15047 45.4389 3.16989 45.0776C3.1939 44.6314 3.26085 44.6531 3.27529 44.1674C3.28602 43.8033 3.25196 43.4079 3.27148 43.0464C3.29549 42.5999 3.36263 42.6218 3.37688 42.1361C3.38732 41.7768 3.34956 41.3761 3.37883 41.021C3.42861 40.4192 3.42382 39.6735 3.48043 38.9897L3.69308 34.9367C3.88563 33.2209 3.93862 28.0863 4.12736 26.8398C4.30937 25.6368 4.38627 19.5563 4.59229 18.6719ZM37.9047 14.2031H39.3266C39.421 14.5568 40.5788 16.3309 40.8501 16.8437H37.2954C37.4062 16.6127 37.8972 14.5436 37.9047 14.2031ZM6.82665 14.2031H7.13133C7.149 14.9964 7.43601 16.0139 7.43601 16.8437H5.30324C5.57533 16.3295 6.73316 14.5534 6.82665 14.2031ZM14.8501 14.4063L24.1127 12.1923C24.66 12.055 25.1109 11.9695 25.6773 11.8271C26.1555 11.707 26.7904 11.4984 27.2407 11.461L28.561 16.8437H15.3579C15.2941 16.0768 14.8709 15.1599 14.8501 14.4063ZM26.3267 9.73436C26.4401 9.24709 26.6948 8.36447 26.7329 7.90627L36.9907 10.3437L35.4673 16.8437H30.3892L28.9879 10.9326C28.3936 8.53681 27.9473 9.69825 26.3267 9.73436ZM8.14697 7.09372C8.55383 7.09372 9.35437 6.96803 9.70131 6.92157L17.7861 5.96722C18.292 5.91892 18.8956 5.83225 19.4205 5.7735C19.9114 5.71856 20.5814 5.58066 21.0454 5.57032C21.1645 7.0016 21.6547 9.60613 21.6547 10.9531C21.1581 10.9642 17.5702 11.9162 16.9576 12.045C16.1201 12.2213 15.4753 12.4093 14.6681 12.5994C13.937 12.7716 12.8189 12.7854 12.8189 13.6953C12.8189 14.0584 13.4182 16.6112 13.5297 16.8437H9.2642C9.2642 15.526 8.14697 8.34134 8.14697 7.09372ZM19.8266 3.84373C19.8903 3.78849 19.9499 3.73159 20.0495 3.66025C20.2061 3.54812 20.1758 3.56881 20.3655 3.46849C22.9976 2.07536 26.3579 2.90304 27.998 5.62556C28.2059 5.97064 28.2028 6.05955 28.3579 6.38277C25.7835 6.32548 25.5968 4.234 24.6084 9.0318C24.3845 10.1188 24.4742 10.3629 23.4829 10.4453C23.476 10.1367 23.3891 9.64721 23.3367 9.27109L22.9164 5.73056C22.8002 4.87722 22.8973 4.04935 22.2678 3.73589C21.8472 3.52636 20.5128 3.84373 19.8266 3.84373ZM6.21729 6.07809C6.21729 7.64785 6.90268 11.2273 6.92824 12.375C5.71206 12.375 5.61554 12.7463 5.14398 13.536L2.92913 17.2118C2.62396 17.7695 2.64016 21.9266 2.5333 22.7066C2.47533 23.1297 2.45806 23.4856 2.46167 24.0569C2.46586 24.708 2.36046 24.8851 2.35392 25.4726C2.34231 26.5131 2.29117 27.2605 2.25965 28.3236L2.05276 31.1636C1.99928 32.1558 1.95419 33.0585 1.95497 34.0112L1.79141 36.7928C1.71899 37.271 1.76613 37.6875 1.75188 38.1752C1.73597 38.7171 1.63975 38.9377 1.6459 39.5928C1.65146 40.1868 1.60998 40.4861 1.56021 40.9289L1.24479 48.0275C1.22411 49.7858 0.417607 53 1.85006 53H44.3032C45.6449 53 45.0011 50.8136 45.0148 49.5462C45.0219 48.8898 44.9254 48.6716 44.9093 48.1283C44.8778 47.0651 44.8265 46.3178 44.815 45.2773L44.5063 39.6953C44.5126 39.085 44.4482 38.8302 44.4101 38.3696C44.3697 37.8805 44.4443 37.37 44.377 36.8793L43.7974 25.6776C43.8023 25.0534 43.7063 24.8939 43.6906 24.3627L43.2937 17.3455L42.1896 15.5043C40.2811 12.3427 40.7979 12.375 38.4126 12.375C38.4287 11.6519 39.1095 9.8787 38.9615 9.3967C38.721 8.61411 37.5171 8.55506 36.4025 8.29127C34.4231 7.82293 32.3931 7.35752 30.3892 6.89064C30.1683 4.23614 26.7704 1 23.5844 1C20.7782 1 19.1304 1.65826 17.3121 3.66513C16.9518 4.06272 17.1504 4.14538 16.5865 4.25986L8.14697 5.26564C7.82765 5.30136 6.21729 5.30838 6.21729 6.07809Z" fill="#0489FF"/>
<path fill-rule="evenodd" clip-rule="evenodd" d="M4.59229 18.6719H41.561C41.8498 19.9114 41.6042 21.3372 41.7919 22.7066C41.9529 23.8817 41.8227 25.5156 42.0101 26.754C42.1739 27.8358 42.2833 33.6515 42.4473 34.848L42.9789 45.9962C42.9847 46.5204 43.0606 46.555 43.085 47.0073C43.1026 47.3335 43.0765 47.6974 43.0804 48.0275C43.0866 48.5516 43.1622 48.5866 43.1865 49.0386C43.2059 49.3998 43.1661 49.7955 43.1855 50.1568C43.2102 50.6165 43.2876 50.6372 43.2876 51.1719H2.8657L3.06937 48.2271C3.08879 47.8656 3.05473 47.4701 3.06556 47.106C3.07991 46.6204 3.14695 46.642 3.17086 46.1958C3.19029 45.8345 3.15047 45.4389 3.16989 45.0776C3.1939 44.6314 3.26085 44.6531 3.27529 44.1674C3.28602 43.8033 3.25196 43.4079 3.27148 43.0464C3.29549 42.5999 3.36263 42.6218 3.37688 42.1361C3.38732 41.7768 3.34956 41.3761 3.37883 41.021C3.42861 40.4192 3.42382 39.6735 3.48043 38.9897L3.69308 34.9367C3.88563 33.2209 3.93862 28.0863 4.12736 26.8398C4.30937 25.6368 4.38627 19.5563 4.59229 18.6719ZM37.9047 14.2031H39.3266C39.421 14.5568 40.5788 16.3309 40.8501 16.8437H37.2954C37.4062 16.6127 37.8972 14.5436 37.9047 14.2031ZM6.82665 14.2031H7.13133C7.149 14.9964 7.43601 16.0139 7.43601 16.8437H5.30324C5.57533 16.3295 6.73316 14.5534 6.82665 14.2031ZM14.8501 14.4063L24.1127 12.1923C24.66 12.055 25.1109 11.9695 25.6773 11.8271C26.1555 11.707 26.7904 11.4984 27.2407 11.461L28.561 16.8437H15.3579C15.2941 16.0768 14.8709 15.1599 14.8501 14.4063ZM26.3267 9.73436C26.4401 9.24709 26.6948 8.36447 26.7329 7.90627L36.9907 10.3437L35.4673 16.8437H30.3892L28.9879 10.9326C28.3936 8.53681 27.9473 9.69825 26.3267 9.73436ZM8.14697 7.09372C8.55383 7.09372 9.35437 6.96803 9.70131 6.92157L17.7861 5.96722C18.292 5.91892 18.8956 5.83225 19.4205 5.7735C19.9114 5.71856 20.5814 5.58066 21.0454 5.57032C21.1645 7.0016 21.6547 9.60613 21.6547 10.9531C21.1581 10.9642 17.5702 11.9162 16.9576 12.045C16.1201 12.2213 15.4753 12.4093 14.6681 12.5994C13.937 12.7716 12.8189 12.7854 12.8189 13.6953C12.8189 14.0584 13.4182 16.6112 13.5297 16.8437H9.2642C9.2642 15.526 8.14697 8.34134 8.14697 7.09372ZM19.8266 3.84373C19.8903 3.78849 19.9499 3.73159 20.0495 3.66025C20.2061 3.54812 20.1758 3.56881 20.3655 3.46849C22.9976 2.07536 26.3579 2.90304 27.998 5.62556C28.2059 5.97064 28.2028 6.05955 28.3579 6.38277C25.7835 6.32548 25.5968 4.234 24.6084 9.0318C24.3845 10.1188 24.4742 10.3629 23.4829 10.4453C23.476 10.1367 23.3891 9.64721 23.3367 9.27109L22.9164 5.73056C22.8002 4.87722 22.8973 4.04935 22.2678 3.73589C21.8472 3.52636 20.5128 3.84373 19.8266 3.84373ZM6.21729 6.07809C6.21729 7.64785 6.90268 11.2273 6.92824 12.375C5.71206 12.375 5.61554 12.7463 5.14398 13.536L2.92913 17.2118C2.62396 17.7695 2.64016 21.9266 2.5333 22.7066C2.47533 23.1297 2.45806 23.4856 2.46167 24.0569C2.46586 24.708 2.36046 24.8851 2.35392 25.4726C2.34231 26.5131 2.29117 27.2605 2.25965 28.3236L2.05276 31.1636C1.99928 32.1558 1.95419 33.0585 1.95497 34.0112L1.79141 36.7928C1.71899 37.271 1.76613 37.6875 1.75188 38.1752C1.73597 38.7171 1.63975 38.9377 1.6459 39.5928C1.65146 40.1868 1.60998 40.4861 1.56021 40.9289L1.24479 48.0275C1.22411 49.7858 0.417607 53 1.85006 53H44.3032C45.6449 53 45.0011 50.8136 45.0148 49.5462C45.0219 48.8898 44.9254 48.6716 44.9093 48.1283C44.8778 47.0651 44.8265 46.3178 44.815 45.2773L44.5063 39.6953C44.5126 39.085 44.4482 38.8302 44.4101 38.3696C44.3697 37.8805 44.4443 37.37 44.377 36.8793L43.7974 25.6776C43.8023 25.0534 43.7063 24.8939 43.6906 24.3627L43.2937 17.3455L42.1896 15.5043C40.2811 12.3427 40.7979 12.375 38.4126 12.375C38.4287 11.6519 39.1095 9.8787 38.9615 9.3967C38.721 8.61411 37.5171 8.55506 36.4025 8.29127C34.4231 7.82293 32.3931 7.35752 30.3892 6.89064C30.1683 4.23614 26.7704 1 23.5844 1C20.7782 1 19.1304 1.65826 17.3121 3.66513C16.9518 4.06272 17.1504 4.14538 16.5865 4.25986L8.14697 5.26564C7.82765 5.30136 6.21729 5.30838 6.21729 6.07809Z" stroke="#0489FF" stroke-width="0.8" mask="url(#path-1-outside-1_197_1560)"/>
<path d="M27.0999 35.3574L27.0999 35.3574C26.2404 35.8745 25.5379 36.1485 24.8154 36.291C24.0977 36.4325 23.3683 36.4423 22.467 36.4423C21.3459 36.4423 20.1971 36.0335 19.1877 35.4199C18.1775 34.8059 17.2929 33.9784 16.7009 33.1215C15.2597 31.0351 15.2992 29.0276 15.3444 26.7357C15.3514 26.3802 15.3586 26.0178 15.3604 25.6473C14.8769 25.5367 14.4927 25.1679 14.2368 24.8336C13.925 24.4262 13.7631 24.1503 13.6896 23.8368C13.6302 23.5833 13.6316 23.3105 13.6335 22.9457C13.6338 22.8785 13.6342 22.8082 13.6342 22.7344C13.6342 22.0997 13.9675 21.4677 14.4355 20.9997C14.9035 20.5318 15.5355 20.1984 16.1701 20.1984H16.7795C17.4328 20.1984 18.0659 20.5525 18.5296 21.043C18.9935 21.5338 19.3155 22.19 19.3155 22.836C19.3155 23.5769 19.0954 24.2577 18.7521 24.7671C18.4514 25.2133 18.0425 25.5458 17.5886 25.6478C17.5875 25.9559 17.5834 26.2575 17.5795 26.5529C17.5628 27.8027 17.5476 28.9399 17.7577 29.9786C18.0221 31.2865 18.6435 32.4242 20.0966 33.3752C20.7429 33.7983 21.2586 34.0047 21.7826 34.1081C22.3132 34.2128 22.86 34.2141 23.5842 34.2141C25.2236 34.2141 26.9413 32.975 27.7874 31.5756L27.7874 31.5756C28.2947 30.7365 28.4904 29.8963 28.5582 28.9235C28.6033 28.2759 28.5916 27.5821 28.5783 26.7934C28.5722 26.4321 28.5657 26.0509 28.5643 25.6451C28.1404 25.5384 27.7376 25.1967 27.4377 24.8023C27.0908 24.3461 26.8374 23.7628 26.8374 23.2423C26.8374 21.4939 27.9756 20.1984 29.3733 20.1984H29.9827C30.9597 20.1984 31.8215 20.8722 32.2479 21.7697C32.678 22.6748 32.6808 23.8345 31.916 24.8336L31.916 24.8336C31.7134 25.0982 31.6034 25.1825 31.3562 25.3672M27.0999 35.3574L31.2365 25.207M27.0999 35.3574C29.0773 34.1676 30.3079 32.2002 30.7036 29.8936C30.8134 29.253 30.8346 28.4969 30.8293 27.732C30.8268 27.3675 30.8185 27.0087 30.8104 26.6569C30.8026 26.3163 30.7949 25.9821 30.7927 25.6555M27.0999 35.3574L30.592 25.4766M31.3562 25.3672L31.2365 25.207M31.3562 25.3672C31.3562 25.3672 31.3563 25.3672 31.3563 25.3672L31.2365 25.207M31.3562 25.3672C31.3259 25.3899 31.2991 25.4106 31.2741 25.4299L31.2649 25.437C31.2436 25.4536 31.2225 25.4699 31.2026 25.4848C31.1567 25.5193 31.1085 25.5528 31.0511 25.5808C30.9752 25.6179 30.8939 25.64 30.7927 25.6555M31.2365 25.207C31.2007 25.2338 31.1698 25.2577 31.1421 25.2792C30.9732 25.4102 30.9231 25.449 30.592 25.4766M30.7927 25.6555C30.7923 25.5956 30.792 25.536 30.792 25.4766H30.592M30.7927 25.6555C30.7379 25.6638 30.6773 25.6702 30.6087 25.6759L30.592 25.4766M30.2998 22.9994C30.2999 23.0058 30.3001 23.0123 30.3002 23.0187C30.1083 22.8908 29.9111 22.8238 29.7011 22.8212C29.4944 22.8186 29.2931 22.8791 29.0928 22.9781C29.1242 22.7908 29.1794 22.6636 29.2407 22.5793C29.3303 22.4563 29.4459 22.4064 29.5743 22.3996C29.7098 22.3924 29.8607 22.4345 29.9919 22.5039C30.1286 22.5762 30.2095 22.6594 30.2324 22.7036C30.2801 22.7959 30.2966 22.8852 30.2998 22.9994ZM17.0991 22.9034C17.1011 22.9404 17.0998 22.982 17.097 23.0416C17.0857 23.0342 17.0747 23.0268 17.0637 23.0192C17.0529 23.0117 17.0412 23.0034 17.0286 22.9944C16.9633 22.9478 16.8758 22.8853 16.7736 22.85C16.6374 22.8029 16.4873 22.803 16.2983 22.8532C16.1821 22.8841 16.0466 22.9351 15.8843 23.0098C15.9137 22.8082 15.9694 22.6731 16.0318 22.5846C16.1184 22.4618 16.2297 22.4115 16.353 22.4017C16.4837 22.3914 16.6301 22.4275 16.7599 22.4885C16.8949 22.5519 16.9786 22.6261 17.002 22.6609C17.0815 22.7789 17.0953 22.8368 17.0991 22.9034Z" fill="#0489FF" stroke="#0489FF" stroke-width="0.4"/>
</svg>
