<svg width="50" height="54" viewBox="0 0 50 54" fill="none" xmlns="http://www.w3.org/2000/svg">
<path d="M12.4489 11.1628L12.4489 11.1628C13.9725 10.4015 15.5839 9.54305 17.1975 8.68334L17.2753 8.64189C18.9139 7.76891 20.5535 6.89625 22.0993 6.12761C22.367 5.99449 22.8005 5.76653 23.2928 5.5077C23.6291 5.33087 23.9928 5.13962 24.3498 4.95436C24.7875 4.72717 25.214 4.5096 25.5623 4.34143C25.7314 4.25982 25.8835 4.18913 26.0104 4.13438C25.9233 4.07474 25.8184 4.01581 25.6992 3.95656C25.5802 3.89746 25.455 3.84173 25.3291 3.78588L25.3198 3.78176C25.1987 3.72803 25.0762 3.67366 24.9661 3.6186M12.4489 11.1628L25.0555 3.43971M12.4489 11.1628L12.4469 11.1638L8.28408 13.3031L8.28402 13.303L8.27754 13.3066C8.19017 13.3557 8.11694 13.4076 8.06814 13.4421C8.05189 13.4536 8.03835 13.4632 8.0279 13.4701C7.98514 13.4985 7.97593 13.4982 7.96297 13.4978L7.96239 13.4978C7.93114 13.4969 7.86731 13.4833 7.72255 13.4214C7.58227 13.3613 7.38777 13.2659 7.10276 13.1222L7.10285 13.122L7.09442 13.1183L4.33131 11.8814C4.4836 11.8272 4.65622 11.7554 4.82215 11.6821C5.09151 11.5632 5.36037 11.4328 5.53167 11.3457C7.13413 10.5314 9.08325 9.65571 11.0575 8.77353C11.1626 8.72658 11.2677 8.67961 11.3729 8.63263C13.2403 7.79844 15.1141 6.96135 16.7133 6.17128M12.4489 11.1628L16.7133 6.17128M24.9661 3.6186L25.0555 3.43971M24.9661 3.6186C24.9661 3.6186 24.9661 3.6186 24.9661 3.61861L25.0555 3.43971M24.9661 3.6186C24.891 3.58105 24.7873 3.52569 24.6728 3.46454L24.6414 3.44782C24.5131 3.37931 24.3709 3.30367 24.2319 3.2331C24.0924 3.16226 23.9594 3.09822 23.8492 3.05233C23.7941 3.02935 23.7476 3.01217 23.7108 3.00102C23.7015 2.9982 23.6935 2.99598 23.6867 2.99425M25.0555 3.43971C24.983 3.40344 24.8817 3.34937 24.766 3.28761C24.3789 3.08091 23.8304 2.78807 23.6569 2.78807M23.6867 2.99425L23.7398 2.97007L23.6569 2.78807M23.6867 2.99425L16.7133 6.17128M23.6867 2.99425C23.6688 2.98967 23.6596 2.98847 23.6573 2.98816C23.6567 2.98808 23.6566 2.98807 23.6569 2.98807V2.78807M23.6569 2.78807L16.7133 6.17128M2.87828 13.5412L5.11388 14.5641L5.11387 14.5641L5.11585 14.565C5.5651 14.7647 5.87982 14.9075 6.33149 15.1246C6.53816 15.2239 6.72819 15.3059 6.90856 15.3837C6.93964 15.3971 6.97044 15.4104 7.00099 15.4236C7.17441 15.4987 7.34098 15.5725 7.5132 15.6592V15.6824V15.7066V15.7308V15.7549V15.7791V15.8033V15.8274V15.8516V15.8758V15.9V15.9241V15.9483V15.9725V15.9967V16.0208V16.045V16.0692V16.0934V16.1175V16.1417V16.1659V16.1901V16.2142V16.2384V16.2626V16.2868V16.3109V16.3351V16.3593V16.3835V16.4076V16.4318V16.456V16.4802V16.5043V16.5285V16.5527V16.5769V16.601V16.6252V16.6494V16.6736V16.6977V16.7219V16.7461V16.7703V16.7944V16.8186V16.8428V16.867V16.8911V16.9153V16.9395V16.9637V16.9878V17.012V17.0362V17.0604V17.0845V17.1087V17.1329V17.1571V17.1812V17.2054V17.2296V17.2538V17.2779V17.3021V17.3263V17.3505V17.3746V17.3988V17.423V17.4472V17.4713V17.4955V17.5197V17.5439V17.568V17.5922V17.6164V17.6406V17.6647V17.6889V17.7131V17.7373V17.7614V17.7856V17.8098V17.834V17.8581V17.8823V17.9065V17.9307V17.9548V17.979V18.0032V18.0274V18.0515V18.0757V18.0999V18.1241V18.1482V18.1724V18.1966V18.2208V18.2449V18.2691V18.2933V18.3175V18.3416V18.3658V18.39V18.4142V18.4383V18.4625V18.4867V18.5109V18.535V18.5592V18.5834V18.6075V18.6317V18.6559V18.6801V18.7042V18.7284V18.7526V18.7768V18.8009V18.8251V18.8493V18.8735V18.8976V18.9218V18.946V18.9702V18.9943V19.0185V19.0427V19.0669V19.091V19.1152V19.1394V19.1636V19.1877V19.2119V19.2361V19.2603V19.2844V19.3086V19.3328V19.357V19.3811V19.4053V19.4295V19.4537V19.4778V19.502V19.5262V19.5504V19.5745V19.5987V19.6229V19.6471V19.6712V19.6954V19.7196V19.7438V19.7679V19.7921V19.8163V19.8405V19.8646V19.8888V19.913V19.9372V19.9613V19.9855V20.0097V20.0339V20.058V20.0822V20.1064V20.1306V20.1547V20.1789V20.2031V20.2273V20.2514V20.2756V20.2998V20.3239V20.3481V20.3723V20.3965V20.4206V20.4448V20.469V20.4932V20.5173V20.5415V20.5657V20.5899V20.614V20.6382V20.6624V20.6866V20.7107V20.7349V20.7591V20.7833V20.8074V20.8316V20.8558V20.88V20.9041V20.9283V20.9525V20.9767V21.0008V21.025V21.0492V21.0734V21.0975V21.1217V21.1459V21.1701V21.1942V21.2184V21.2426V21.2668V21.2909V21.3151V21.3393V21.3635V21.3876V21.4118V21.436V21.4602V21.4843V21.5085V21.5327V21.5569V21.581V21.6052V21.6294V21.6536V21.6777V21.7019V21.7261V21.7502V21.7744V21.7986V21.8228V21.8469V21.8711V21.8953V21.9195V21.9436V21.9678V21.992V22.0162V22.0403V22.0645V22.0887V22.1129V22.137V22.1612V22.1854V22.2096V22.2337V22.2579V22.2821V22.3063V22.3304V22.3546V22.3788V22.403V22.4271V22.4513V22.4755V22.4997V22.5238V22.548V22.5722V22.5964V22.6205V22.6447V22.6689V22.6931V22.7172V22.7414V22.7656V22.7898V22.8139V22.8381V22.8623V22.8865V22.9106V22.9348V22.959V22.9832V23.0073V23.0315V23.0557V23.0798V23.104V23.1282V23.1524V23.1765V23.2007V23.2249V23.2491V23.2732V23.2974V23.3216V23.3458V23.3699V23.3941V23.4183V23.4425V23.4666V23.4908V23.515V23.5392V23.5633V23.5875V23.6117V23.6359V23.66V23.6842V23.7084V23.7326V23.7567V23.7809V23.8051V23.8293V23.8534V23.8776V23.9018V23.926V23.9501V23.9743V23.9985V24.0227V24.0468V24.071V24.0952V24.1194V24.1435V24.1677V24.1919V24.216V24.2402V24.2644V24.2886V24.3127V24.3369V24.3611V24.3853V24.4094V24.4336V24.4578V24.482V24.5061V24.5303V24.5545V24.5787V24.6028V24.627V24.6512V24.6754V24.6995V24.7237V24.7479V24.7721V24.7962V24.8204V24.8446V24.8688V24.8929V24.9171V24.9413V24.9655V24.9896V25.0138V25.038V25.0622V25.0863V25.1105V25.1347V25.1588V25.183V25.2072V25.2314V25.2555V25.2797V25.3039V25.3281V25.3522V25.3764V25.4006V25.4248V25.4489V25.4731V25.4973V25.5215V25.5456V25.5698V25.594V25.6182V25.6423V25.6665V25.6907V25.7149V25.739V25.7632V25.7874V25.8116V25.8357V25.8599V25.8841V25.9083V25.9324V25.9566V25.9808V26.005V26.0291V26.0533V26.0775V26.1017V26.1258V26.15V26.1742V26.1984V26.2225V26.2467V26.2709V26.295V26.3192V26.3434V26.3676V26.3917V26.4159V26.4401V26.4643V26.4884V26.5126V26.5368V26.561V26.5851V26.6093V26.6335V26.6577V26.6818V26.706V26.7302V26.7544V26.7785V26.8027V26.8269V26.8511V26.8752V26.8994V26.9236V26.9478V26.9719V26.9961V27.0203V27.0445V27.0686V27.0928V27.117V27.1412V27.1653V27.1895V27.2137V27.2378V27.262V27.2862V27.3104V27.3345V27.3587V27.3829V27.4071V27.4312V27.4554V27.4796V27.5038V27.5279V27.5521V27.5763V27.6005V27.6246V27.6488V27.673V27.6972V27.7213V27.7455V27.7697V27.7939V27.818V27.8422V27.8664V27.8906V27.9147C7.5132 28.356 7.5074 28.7373 7.50242 29.0639C7.49752 29.3861 7.49342 29.6551 7.49652 29.8757C7.50275 30.3201 7.53598 30.6441 7.68289 30.8935C7.83464 31.1511 8.08673 31.2954 8.42197 31.443C8.55882 31.5032 8.71796 31.5673 8.89861 31.64C8.94197 31.6575 8.98657 31.6755 9.0324 31.694C9.27085 31.7903 9.54774 31.9041 9.87046 32.0476C9.90708 32.0639 9.95255 32.0842 10.0058 32.1079C10.4237 32.2942 11.3218 32.6947 12.1973 33.0667C12.6906 33.2764 13.1787 33.4778 13.5707 33.6272C13.7664 33.7018 13.9405 33.7642 14.0804 33.8083C14.1502 33.8304 14.2138 33.8485 14.2686 33.8614C14.3199 33.8734 14.3762 33.8839 14.4263 33.8839C14.7646 33.8839 15.0234 33.7688 15.2004 33.5466C15.3681 33.3361 15.4428 33.0531 15.4771 32.7548C15.5117 32.4534 15.5079 32.1075 15.4965 31.751C15.4933 31.6518 15.4895 31.5518 15.4857 31.4512C15.4757 31.185 15.4655 30.9142 15.4655 30.642V19.3246C15.6766 19.4277 15.8868 19.5226 16.0965 19.6167C16.1149 19.6249 16.1332 19.6331 16.1516 19.6414C16.4412 19.7713 16.7301 19.9008 17.0273 20.0519L17.0273 20.052L17.0342 20.0552L21.6997 22.2077L21.6996 22.2079L21.7083 22.2114C21.841 22.2653 21.9587 22.3228 22.0793 22.3818C22.1251 22.4041 22.1713 22.4267 22.219 22.4494C22.3442 22.509 22.4748 22.5669 22.6178 22.6124V47.1132L2.87828 38.066V13.5412ZM41.3495 32.9415L41.3037 33.1305L41.3494 32.9415C39.0354 32.3815 36.4784 32.5688 34.3709 33.6078C33.5336 34.0206 32.9541 34.3702 32.4408 34.7752C31.9287 35.1793 31.4886 35.634 30.9283 36.2481C30.3166 36.9185 29.895 37.6444 29.4906 38.4532C29.0071 39.4204 28.4918 40.9794 28.4918 42.39C28.4918 43.2124 28.5413 43.7715 28.5928 44.2045C28.6077 44.3298 28.6224 44.4423 28.636 44.546C28.6632 44.7543 28.6858 44.9273 28.6962 45.0984L24.6961 47.0032V22.5842L42.7369 13.616L42.7569 33.4227C42.577 33.3674 42.4095 33.3024 42.2316 33.2333L42.2273 33.2316C41.971 33.132 41.6954 33.0253 41.3495 32.9415ZM19.9362 15.9974L19.9363 15.9975L19.9422 15.9943L34.1777 8.3003C34.1834 8.30202 34.1898 8.30401 34.197 8.30634C34.2433 8.32137 34.3057 8.34454 34.3835 8.37585C34.5386 8.43829 34.745 8.52895 34.9886 8.64048C35.475 8.86328 36.1012 9.16561 36.7439 9.4826C38.0297 10.1168 39.3742 10.806 39.7861 11.0278C39.8963 11.0871 40.0266 11.1646 40.1739 11.2522L40.2039 11.27C40.3616 11.3638 40.5353 11.4666 40.7127 11.5629C40.9439 11.6884 41.1953 11.8111 41.4369 11.8871C41.3793 11.911 41.3192 11.9372 41.2577 11.965C41.0627 12.0532 40.8395 12.1632 40.6126 12.2777C40.4879 12.3406 40.3624 12.4047 40.2395 12.4675C39.9102 12.6357 39.5991 12.7946 39.3693 12.8975L39.3692 12.8973L39.3614 12.9012L32.3067 16.4359C30.7633 17.1414 28.8586 18.1193 27.0504 19.0477C26.1759 19.4967 25.324 19.9341 24.5464 20.3235C24.4552 20.3691 24.3742 20.4103 24.3015 20.4472C24.092 20.5537 23.9511 20.6252 23.833 20.6694C23.693 20.7216 23.6099 20.7255 23.4974 20.6939C23.3616 20.6558 23.1904 20.5681 22.8755 20.4066C22.569 20.2494 22.1479 20.0346 21.5349 19.7619C21.5346 19.7618 21.5344 19.7617 21.5341 19.7615L18.2863 18.2909L18.2851 18.2903C18.1291 18.2209 17.9733 18.1413 17.8081 18.057C17.7041 18.0038 17.5964 17.9488 17.4825 17.8932C17.3309 17.8192 17.173 17.7467 17.0103 17.6838L18.8605 16.5834C18.959 16.5282 19.0467 16.4786 19.129 16.4319C19.3929 16.2823 19.6018 16.1639 19.9362 15.9974ZM19.1686 10.088L19.1686 10.088L19.1709 10.0868L23.713 7.70859C25.088 7.02112 26.0252 6.49973 26.6967 6.1261L26.7155 6.11566C27.3978 5.73604 27.7801 5.52542 28.072 5.43746C28.2107 5.39568 28.3209 5.38461 28.4272 5.3956C28.5358 5.40682 28.6521 5.44218 28.8026 5.509C28.9548 5.57654 29.1308 5.67106 29.3614 5.79563L29.3826 5.80705C29.6069 5.92825 29.8768 6.07402 30.2107 6.24097L30.2107 6.24098C30.4449 6.35807 30.6714 6.46913 30.8935 6.57805C31.2353 6.74569 31.5668 6.90826 31.9003 7.07996C31.7846 7.15992 31.6311 7.25596 31.4493 7.3636C31.0836 7.5801 30.6135 7.83758 30.1285 8.09569C29.5621 8.39712 28.9642 8.70507 28.5015 8.94344C28.183 9.10747 27.9286 9.23855 27.7923 9.31189L27.7922 9.31194L21.1152 12.9111C20.673 13.1353 19.7312 13.6549 18.688 14.2304C18.2608 14.4661 17.8167 14.7112 17.3829 14.9492C16.6333 15.3604 15.9136 15.7511 15.3607 16.0389C15.084 16.1829 14.8512 16.3001 14.6783 16.3809C14.5915 16.4214 14.5225 16.4515 14.4718 16.4711C14.4622 16.4748 14.4537 16.478 14.4461 16.4807L11.1911 15.0075C11.1316 14.9772 11.0752 14.9481 11.0208 14.92C10.8008 14.8064 10.6136 14.7097 10.3827 14.6265C11.7925 13.8097 15.6116 11.8832 17.9317 10.7129C18.4239 10.4646 18.8487 10.2504 19.1686 10.088ZM26.2279 4.0476C26.2892 4.09817 26.3423 4.15173 26.3842 4.20891C26.3372 4.21986 26.2689 4.24391 26.1829 4.27883L26.2279 4.0476ZM12.7343 44.9135L12.7345 44.9136L14.1662 45.5758C14.1667 45.576 14.1672 45.5763 14.1677 45.5765C14.7814 45.8716 17.0173 46.9292 19.1577 47.9134C20.2286 48.4059 21.2769 48.8806 22.0865 49.2323C22.4911 49.4081 22.8378 49.5539 23.0986 49.656C23.2288 49.707 23.3398 49.748 23.4271 49.7766C23.4706 49.7908 23.5105 49.8027 23.5453 49.8113C23.576 49.8189 23.617 49.8276 23.6569 49.8276C23.7516 49.8276 23.8606 49.8053 23.9705 49.7743C24.0832 49.7425 24.2098 49.6978 24.3437 49.6449C24.6116 49.539 24.92 49.3962 25.2252 49.2465C25.531 49.0965 25.8367 48.938 26.0997 48.8003C26.1713 48.7628 26.2396 48.7269 26.3037 48.6932C26.4764 48.6024 26.6192 48.5274 26.7183 48.4778C26.8771 48.3984 27.1033 48.2791 27.3589 48.1443C27.6216 48.0058 27.9153 47.8509 28.1989 47.706C28.4838 47.5605 28.7641 47.4221 29.008 47.3121C29.156 47.2453 29.2859 47.1912 29.3928 47.1523C29.6104 47.8447 30.1154 48.6105 30.693 49.3038C31.3329 50.072 32.0831 50.7765 32.692 51.2282L32.8112 51.0676L32.692 51.2282C35.5739 53.3662 39.8823 53.8718 43.1528 52.2191C43.9585 51.812 44.6671 51.4292 45.3714 50.7986L45.3715 50.7986C45.4842 50.6976 45.578 50.626 45.6734 50.5532C45.6864 50.5434 45.6994 50.5335 45.7124 50.5235C45.8222 50.4394 45.9345 50.3507 46.0661 50.219C46.1974 50.0878 46.2763 49.9859 46.3501 49.8867C46.3585 49.8754 46.3668 49.8641 46.3751 49.853C46.4378 49.7682 46.4989 49.6857 46.5949 49.5782L46.4458 49.4449L46.5949 49.5782C47.9361 48.0764 49.0312 45.5743 49.0312 43.4389C49.0312 42.26 48.9757 41.3434 48.7768 40.4664C48.5776 39.5874 48.2367 38.758 47.6769 37.7483C47.0335 36.5876 45.8969 35.3625 44.8355 34.627L44.8363 12.601C44.8363 12.6008 44.8363 12.6006 44.8363 12.6004C44.839 12.191 44.8396 11.8776 44.7924 11.6316C44.7419 11.3683 44.6356 11.1726 44.432 10.9983C44.2425 10.8361 43.9705 10.6949 43.6057 10.5202C43.4972 10.4683 43.3794 10.4129 43.251 10.3526C42.9379 10.2054 42.5614 10.0285 42.1026 9.79913L33.0119 5.25377L32.9225 5.43266L33.0119 5.25377L28.4666 2.98109L28.3771 3.15998L28.4666 2.98109C27.7071 2.60138 27.081 2.27571 26.5555 2.00074C26.4805 1.96151 26.4075 1.92328 26.3364 1.88605C25.9102 1.66282 25.5524 1.47547 25.2457 1.3236C24.5364 0.972364 24.0628 0.79051 23.5942 0.800384C23.127 0.810228 22.6917 1.01097 22.065 1.32814C21.9753 1.37354 21.881 1.42172 21.7814 1.47262C21.1753 1.78236 20.3719 2.19285 19.2032 2.6917C18.9332 2.80691 18.7111 2.9141 18.4977 3.01705L18.4668 3.03195C18.2436 3.13962 18.0276 3.24297 17.7672 3.35046C16.2523 3.97569 13.4638 5.28415 11.1853 6.35333C10.4211 6.71194 9.7142 7.04363 9.132 7.3136L1.9643 10.6352L1.96426 10.6351L1.95884 10.6378C1.88456 10.675 1.81157 10.7075 1.7344 10.7418C1.6913 10.7609 1.6469 10.7807 1.60023 10.8021C1.47674 10.859 1.34626 10.9243 1.22879 11.009C1.10975 11.0948 1.00012 11.2032 0.921253 11.348C0.842049 11.4935 0.8 11.6644 0.8 11.8661V38.7187C0.8 39.2748 1.23994 39.6089 1.72041 39.8588C1.96624 39.9867 2.2467 40.1047 2.52912 40.2234L2.53512 40.2259C2.82253 40.3468 3.11425 40.4695 3.3929 40.6101C3.64985 40.7397 3.88565 40.8445 4.11708 40.9472L4.11887 40.948C4.35044 41.0509 4.57769 41.1518 4.82496 41.2762C5.85778 41.7958 7.09483 42.3597 8.34989 42.9266C8.50703 42.9975 8.66444 43.0686 8.82179 43.1395C9.92291 43.6363 11.0208 44.1315 11.9958 44.5996C12.1444 44.6709 12.2625 44.7182 12.3763 44.7632L12.3936 44.77C12.5008 44.8124 12.6046 44.8534 12.7343 44.9135ZM30.5701 42.9145C30.5701 41.85 30.963 40.3322 31.3191 39.5714C34.6896 32.3701 44.9188 33.558 46.7244 41.0972C48.2716 47.5576 41.4156 53.1636 35.4185 50.3569C33.5582 49.4862 32.1887 48.1184 31.3199 46.257C30.8802 45.315 30.5701 43.9496 30.5701 42.9145ZM9.59148 29.6382V16.6389C9.59937 16.6417 9.60749 16.6446 9.61583 16.6476C9.74592 16.6945 9.91094 16.7607 10.1007 16.841C10.4797 17.0014 10.9492 17.2148 11.4192 17.4345C12.2439 17.8201 13.0626 18.2218 13.3872 18.3866V31.2134C13.2082 31.1523 12.9841 31.064 12.7295 30.9572C12.3697 30.8063 11.9616 30.624 11.5546 30.4421L11.4664 30.4027C11.0319 30.2086 10.6024 30.0176 10.2452 29.8721C10.0666 29.7993 9.90347 29.7369 9.76519 29.6908C9.70504 29.6708 9.64653 29.6527 9.59148 29.6382Z" fill="#0489FF" stroke="#0489FF" stroke-width="0.4"/>
<path d="M36.7578 46.5954L36.7578 46.5954C37.0937 46.9353 37.3881 47.1705 37.6896 47.2563C38.0132 47.3483 38.3062 47.2597 38.6071 47.0561C38.8992 46.8583 39.2248 46.5346 39.6285 46.1129C39.7334 46.0033 39.8442 45.8863 39.9619 45.7621C40.3029 45.4023 40.7019 44.9811 41.185 44.4981L41.185 44.4981C41.2774 44.4057 41.4228 44.2685 41.602 44.0993C41.6744 44.0309 41.7524 43.9574 41.8346 43.8794C42.1181 43.6107 42.4478 43.2941 42.7616 42.9737C43.0745 42.6542 43.3755 42.3268 43.5995 42.0369C43.7113 41.8921 43.8074 41.7522 43.8765 41.6239C43.9426 41.5011 43.997 41.3656 43.997 41.2362C43.997 40.938 43.8986 40.6744 43.7091 40.4848C43.5196 40.2953 43.256 40.197 42.9578 40.197C42.7897 40.197 42.608 40.2853 42.4388 40.3935C42.261 40.5071 42.0615 40.6666 41.8496 40.8541C41.4252 41.2297 40.9308 41.7362 40.4306 42.2623C40.2692 42.4321 40.1072 42.6038 39.9464 42.7743C39.6063 43.1349 39.2716 43.4898 38.9587 43.8084C38.5526 44.222 38.1957 44.5613 37.9227 44.7669C37.6051 44.5283 37.3052 44.1963 37.0007 43.859C36.9199 43.7696 36.8387 43.6798 36.7569 43.5912C36.5498 43.3672 36.3374 43.1521 36.1213 42.9927C35.9064 42.8341 35.6664 42.7144 35.4055 42.7144C35.1074 42.7144 34.8438 42.8128 34.6543 43.0023C34.4648 43.1918 34.3664 43.4554 34.3664 43.7535C34.3664 43.877 34.4092 44.0029 34.4659 44.1193C34.524 44.2385 34.6047 44.364 34.6982 44.491C34.8853 44.7449 35.1367 45.022 35.3988 45.2898C35.6618 45.5585 35.9401 45.8225 36.1832 46.0505C36.2339 46.098 36.2829 46.1438 36.3298 46.1876C36.5099 46.3561 36.6593 46.4957 36.7578 46.5954Z" fill="#0489FF" stroke="#0489FF" stroke-width="0.4"/>
</svg>
