<svg width="53" height="54" viewBox="0 0 53 54" fill="none" xmlns="http://www.w3.org/2000/svg">
<mask id="path-1-outside-1_197_1591" maskUnits="userSpaceOnUse" x="0" y="0" width="53" height="54" fill="black">
<rect fill="white" width="53" height="54"/>
<path fill-rule="evenodd" clip-rule="evenodd" d="M3.43911 50.0528C3.43911 49.8158 3.71027 49.5446 3.9473 49.5446H49.0704C49.7772 49.5446 49.5786 50.752 49.5786 51.5772H3.43911V50.0528ZM40.1271 47.0039H48.2574V48.0202H40.1271V47.0039ZM22.4437 47.0039H30.5741V48.0202H22.4437V47.0039ZM4.76034 47.0039H12.8906V48.0202H4.76034V47.0039ZM40.1271 45.1746C40.1271 44.9001 40.1757 44.8943 40.2287 44.6665C41.0687 44.4708 47.3159 44.4708 48.1558 44.6665L48.2574 45.5811H40.1271V45.1746ZM4.76034 45.1746C4.76034 44.9001 4.80886 44.8943 4.86192 44.6665C5.88862 44.4272 10.949 44.5648 12.3825 44.5648C12.8984 44.5648 12.8906 45.2458 12.8906 45.5811H4.76034V45.1746ZM22.4437 45.1746C22.4437 44.9001 22.4922 44.8943 22.5454 44.6665C22.7911 44.5485 22.9899 44.4632 23.3584 44.4632H29.6593C30.0278 44.4632 30.2266 44.5485 30.4724 44.6665L30.5741 45.4795H22.4437V45.1746ZM42.0581 24.9504H46.3265V43.0404H42.0581V24.9504ZM30.1675 24.9504C30.5178 24.7824 31.9969 24.5985 31.9969 23.0195V19.9706H38.7043C38.7043 22.1749 38.3015 23.9914 39.7829 24.6849C40.0935 24.8303 40.2804 24.8289 40.5337 24.9504V43.0404C38.2137 43.2334 38.7043 45.8728 38.7043 48.0202H31.9969C31.9969 45.8728 32.4875 43.2334 30.1675 43.0404V24.9504ZM24.3747 24.9504H28.643V43.0404H24.3747V24.9504ZM12.4841 24.9504C12.8344 24.7824 14.3134 24.5985 14.3134 23.0195V19.9706H21.0209C21.0209 22.1749 20.6181 23.9914 22.0996 24.6849C22.4101 24.8303 22.5969 24.8289 22.8502 24.9504V43.0404C20.5303 43.2334 21.0209 45.8728 21.0209 48.0202H14.3134C14.3134 45.8728 14.804 43.2334 12.4841 43.0404V24.9504ZM6.69125 24.9504H10.9597V43.0404H6.69125V24.9504ZM40.1271 22.8163V22.4097H48.2574L48.1558 23.3244C47.3159 23.5201 41.0687 23.5201 40.2287 23.3244C40.1757 23.0965 40.1271 23.0907 40.1271 22.8163ZM30.0659 23.426C28.6324 23.426 23.5721 23.5636 22.5454 23.3244L22.4437 22.4097H30.5741C30.5741 22.745 30.5819 23.426 30.0659 23.426ZM12.3825 23.426C10.949 23.426 5.88862 23.5636 4.86192 23.3244L4.76034 22.4097H12.8906C12.8906 22.745 12.8984 23.426 12.3825 23.426ZM40.1271 19.9706H48.2574V20.9869H40.1271V19.9706ZM22.4437 19.9706H30.5741V20.9869H22.4437V19.9706ZM4.76034 19.9706H12.8906V20.9869H4.76034V19.9706ZM3.43911 17.938C3.43911 15.9614 3.1372 14.9908 4.15056 14.9908H48.8672C49.8805 14.9908 49.5786 15.9614 49.5786 17.938C49.5786 18.1751 49.3075 18.4462 49.0704 18.4462H3.9473C3.71027 18.4462 3.43911 18.1751 3.43911 17.938ZM47.2411 13.4664H5.77663C6.00362 13.1565 11.4991 10.3473 12.1785 10.0102L22.5792 4.5569C23.0926 4.30076 23.4195 4.10373 23.8999 3.84501C24.254 3.65429 26.3895 2.53676 26.509 2.53659L38.1623 8.62209C38.6762 8.87823 39.0037 9.06283 39.4848 9.33221C40.5793 9.94483 46.9671 13.0924 47.2411 13.4664ZM1 14.6859C1 15.1573 1.40848 15.3861 1.91472 15.3974C1.91472 17.8881 1.58952 18.8424 3.33753 19.7674C3.33753 21.9399 2.83564 23.9965 4.48571 24.717C4.76771 24.8401 4.93196 24.8377 5.16686 24.9504V43.0404C2.72962 43.2432 3.33753 46.2046 3.33753 48.2235C2.79548 48.3498 2.5852 48.6151 2.30284 49.0181C1.77732 49.7679 1.91472 51.1206 1.91472 52.187C1.91472 52.6785 2.23618 53 2.72775 53H50.29C51.3529 53 51.103 51.7823 51.103 50.5609C51.103 49.5173 50.6878 48.4582 49.6802 48.2235C49.6802 46.1971 50.2935 43.2437 47.8509 43.0404V24.9504C48.2734 24.7477 48.6475 24.7652 49.0454 24.4172C50.0559 23.533 49.6802 21.4395 49.6802 19.7674C51.4268 18.8432 51.103 17.8939 51.103 15.3974C51.8344 15.3974 52.0177 15.2056 52.0177 14.5843C52.0177 14.0708 49.6284 12.9831 49.0366 12.6873L29.8639 2.5908C25.5911 0.36659 27.2048 0.585936 23.2225 2.55782C20.1708 4.06889 16.6513 6.10059 13.5681 7.63974L10.3696 9.31922C9.83755 9.64318 9.33176 9.85781 8.75646 10.1453L2.36407 13.5093C1.90867 13.782 1 14.0957 1 14.6859Z"/>
</mask>
<path fill-rule="evenodd" clip-rule="evenodd" d="M3.43911 50.0528C3.43911 49.8158 3.71027 49.5446 3.9473 49.5446H49.0704C49.7772 49.5446 49.5786 50.752 49.5786 51.5772H3.43911V50.0528ZM40.1271 47.0039H48.2574V48.0202H40.1271V47.0039ZM22.4437 47.0039H30.5741V48.0202H22.4437V47.0039ZM4.76034 47.0039H12.8906V48.0202H4.76034V47.0039ZM40.1271 45.1746C40.1271 44.9001 40.1757 44.8943 40.2287 44.6665C41.0687 44.4708 47.3159 44.4708 48.1558 44.6665L48.2574 45.5811H40.1271V45.1746ZM4.76034 45.1746C4.76034 44.9001 4.80886 44.8943 4.86192 44.6665C5.88862 44.4272 10.949 44.5648 12.3825 44.5648C12.8984 44.5648 12.8906 45.2458 12.8906 45.5811H4.76034V45.1746ZM22.4437 45.1746C22.4437 44.9001 22.4922 44.8943 22.5454 44.6665C22.7911 44.5485 22.9899 44.4632 23.3584 44.4632H29.6593C30.0278 44.4632 30.2266 44.5485 30.4724 44.6665L30.5741 45.4795H22.4437V45.1746ZM42.0581 24.9504H46.3265V43.0404H42.0581V24.9504ZM30.1675 24.9504C30.5178 24.7824 31.9969 24.5985 31.9969 23.0195V19.9706H38.7043C38.7043 22.1749 38.3015 23.9914 39.7829 24.6849C40.0935 24.8303 40.2804 24.8289 40.5337 24.9504V43.0404C38.2137 43.2334 38.7043 45.8728 38.7043 48.0202H31.9969C31.9969 45.8728 32.4875 43.2334 30.1675 43.0404V24.9504ZM24.3747 24.9504H28.643V43.0404H24.3747V24.9504ZM12.4841 24.9504C12.8344 24.7824 14.3134 24.5985 14.3134 23.0195V19.9706H21.0209C21.0209 22.1749 20.6181 23.9914 22.0996 24.6849C22.4101 24.8303 22.5969 24.8289 22.8502 24.9504V43.0404C20.5303 43.2334 21.0209 45.8728 21.0209 48.0202H14.3134C14.3134 45.8728 14.804 43.2334 12.4841 43.0404V24.9504ZM6.69125 24.9504H10.9597V43.0404H6.69125V24.9504ZM40.1271 22.8163V22.4097H48.2574L48.1558 23.3244C47.3159 23.5201 41.0687 23.5201 40.2287 23.3244C40.1757 23.0965 40.1271 23.0907 40.1271 22.8163ZM30.0659 23.426C28.6324 23.426 23.5721 23.5636 22.5454 23.3244L22.4437 22.4097H30.5741C30.5741 22.745 30.5819 23.426 30.0659 23.426ZM12.3825 23.426C10.949 23.426 5.88862 23.5636 4.86192 23.3244L4.76034 22.4097H12.8906C12.8906 22.745 12.8984 23.426 12.3825 23.426ZM40.1271 19.9706H48.2574V20.9869H40.1271V19.9706ZM22.4437 19.9706H30.5741V20.9869H22.4437V19.9706ZM4.76034 19.9706H12.8906V20.9869H4.76034V19.9706ZM3.43911 17.938C3.43911 15.9614 3.1372 14.9908 4.15056 14.9908H48.8672C49.8805 14.9908 49.5786 15.9614 49.5786 17.938C49.5786 18.1751 49.3075 18.4462 49.0704 18.4462H3.9473C3.71027 18.4462 3.43911 18.1751 3.43911 17.938ZM47.2411 13.4664H5.77663C6.00362 13.1565 11.4991 10.3473 12.1785 10.0102L22.5792 4.5569C23.0926 4.30076 23.4195 4.10373 23.8999 3.84501C24.254 3.65429 26.3895 2.53676 26.509 2.53659L38.1623 8.62209C38.6762 8.87823 39.0037 9.06283 39.4848 9.33221C40.5793 9.94483 46.9671 13.0924 47.2411 13.4664ZM1 14.6859C1 15.1573 1.40848 15.3861 1.91472 15.3974C1.91472 17.8881 1.58952 18.8424 3.33753 19.7674C3.33753 21.9399 2.83564 23.9965 4.48571 24.717C4.76771 24.8401 4.93196 24.8377 5.16686 24.9504V43.0404C2.72962 43.2432 3.33753 46.2046 3.33753 48.2235C2.79548 48.3498 2.5852 48.6151 2.30284 49.0181C1.77732 49.7679 1.91472 51.1206 1.91472 52.187C1.91472 52.6785 2.23618 53 2.72775 53H50.29C51.3529 53 51.103 51.7823 51.103 50.5609C51.103 49.5173 50.6878 48.4582 49.6802 48.2235C49.6802 46.1971 50.2935 43.2437 47.8509 43.0404V24.9504C48.2734 24.7477 48.6475 24.7652 49.0454 24.4172C50.0559 23.533 49.6802 21.4395 49.6802 19.7674C51.4268 18.8432 51.103 17.8939 51.103 15.3974C51.8344 15.3974 52.0177 15.2056 52.0177 14.5843C52.0177 14.0708 49.6284 12.9831 49.0366 12.6873L29.8639 2.5908C25.5911 0.36659 27.2048 0.585936 23.2225 2.55782C20.1708 4.06889 16.6513 6.10059 13.5681 7.63974L10.3696 9.31922C9.83755 9.64318 9.33176 9.85781 8.75646 10.1453L2.36407 13.5093C1.90867 13.782 1 14.0957 1 14.6859Z" fill="#0489FF"/>
<path fill-rule="evenodd" clip-rule="evenodd" d="M3.43911 50.0528C3.43911 49.8158 3.71027 49.5446 3.9473 49.5446H49.0704C49.7772 49.5446 49.5786 50.752 49.5786 51.5772H3.43911V50.0528ZM40.1271 47.0039H48.2574V48.0202H40.1271V47.0039ZM22.4437 47.0039H30.5741V48.0202H22.4437V47.0039ZM4.76034 47.0039H12.8906V48.0202H4.76034V47.0039ZM40.1271 45.1746C40.1271 44.9001 40.1757 44.8943 40.2287 44.6665C41.0687 44.4708 47.3159 44.4708 48.1558 44.6665L48.2574 45.5811H40.1271V45.1746ZM4.76034 45.1746C4.76034 44.9001 4.80886 44.8943 4.86192 44.6665C5.88862 44.4272 10.949 44.5648 12.3825 44.5648C12.8984 44.5648 12.8906 45.2458 12.8906 45.5811H4.76034V45.1746ZM22.4437 45.1746C22.4437 44.9001 22.4922 44.8943 22.5454 44.6665C22.7911 44.5485 22.9899 44.4632 23.3584 44.4632H29.6593C30.0278 44.4632 30.2266 44.5485 30.4724 44.6665L30.5741 45.4795H22.4437V45.1746ZM42.0581 24.9504H46.3265V43.0404H42.0581V24.9504ZM30.1675 24.9504C30.5178 24.7824 31.9969 24.5985 31.9969 23.0195V19.9706H38.7043C38.7043 22.1749 38.3015 23.9914 39.7829 24.6849C40.0935 24.8303 40.2804 24.8289 40.5337 24.9504V43.0404C38.2137 43.2334 38.7043 45.8728 38.7043 48.0202H31.9969C31.9969 45.8728 32.4875 43.2334 30.1675 43.0404V24.9504ZM24.3747 24.9504H28.643V43.0404H24.3747V24.9504ZM12.4841 24.9504C12.8344 24.7824 14.3134 24.5985 14.3134 23.0195V19.9706H21.0209C21.0209 22.1749 20.6181 23.9914 22.0996 24.6849C22.4101 24.8303 22.5969 24.8289 22.8502 24.9504V43.0404C20.5303 43.2334 21.0209 45.8728 21.0209 48.0202H14.3134C14.3134 45.8728 14.804 43.2334 12.4841 43.0404V24.9504ZM6.69125 24.9504H10.9597V43.0404H6.69125V24.9504ZM40.1271 22.8163V22.4097H48.2574L48.1558 23.3244C47.3159 23.5201 41.0687 23.5201 40.2287 23.3244C40.1757 23.0965 40.1271 23.0907 40.1271 22.8163ZM30.0659 23.426C28.6324 23.426 23.5721 23.5636 22.5454 23.3244L22.4437 22.4097H30.5741C30.5741 22.745 30.5819 23.426 30.0659 23.426ZM12.3825 23.426C10.949 23.426 5.88862 23.5636 4.86192 23.3244L4.76034 22.4097H12.8906C12.8906 22.745 12.8984 23.426 12.3825 23.426ZM40.1271 19.9706H48.2574V20.9869H40.1271V19.9706ZM22.4437 19.9706H30.5741V20.9869H22.4437V19.9706ZM4.76034 19.9706H12.8906V20.9869H4.76034V19.9706ZM3.43911 17.938C3.43911 15.9614 3.1372 14.9908 4.15056 14.9908H48.8672C49.8805 14.9908 49.5786 15.9614 49.5786 17.938C49.5786 18.1751 49.3075 18.4462 49.0704 18.4462H3.9473C3.71027 18.4462 3.43911 18.1751 3.43911 17.938ZM47.2411 13.4664H5.77663C6.00362 13.1565 11.4991 10.3473 12.1785 10.0102L22.5792 4.5569C23.0926 4.30076 23.4195 4.10373 23.8999 3.84501C24.254 3.65429 26.3895 2.53676 26.509 2.53659L38.1623 8.62209C38.6762 8.87823 39.0037 9.06283 39.4848 9.33221C40.5793 9.94483 46.9671 13.0924 47.2411 13.4664ZM1 14.6859C1 15.1573 1.40848 15.3861 1.91472 15.3974C1.91472 17.8881 1.58952 18.8424 3.33753 19.7674C3.33753 21.9399 2.83564 23.9965 4.48571 24.717C4.76771 24.8401 4.93196 24.8377 5.16686 24.9504V43.0404C2.72962 43.2432 3.33753 46.2046 3.33753 48.2235C2.79548 48.3498 2.5852 48.6151 2.30284 49.0181C1.77732 49.7679 1.91472 51.1206 1.91472 52.187C1.91472 52.6785 2.23618 53 2.72775 53H50.29C51.3529 53 51.103 51.7823 51.103 50.5609C51.103 49.5173 50.6878 48.4582 49.6802 48.2235C49.6802 46.1971 50.2935 43.2437 47.8509 43.0404V24.9504C48.2734 24.7477 48.6475 24.7652 49.0454 24.4172C50.0559 23.533 49.6802 21.4395 49.6802 19.7674C51.4268 18.8432 51.103 17.8939 51.103 15.3974C51.8344 15.3974 52.0177 15.2056 52.0177 14.5843C52.0177 14.0708 49.6284 12.9831 49.0366 12.6873L29.8639 2.5908C25.5911 0.36659 27.2048 0.585936 23.2225 2.55782C20.1708 4.06889 16.6513 6.10059 13.5681 7.63974L10.3696 9.31922C9.83755 9.64318 9.33176 9.85781 8.75646 10.1453L2.36407 13.5093C1.90867 13.782 1 14.0957 1 14.6859Z" stroke="#0489FF" stroke-width="0.8" mask="url(#path-1-outside-1_197_1591)"/>
</svg>
