<svg width="50" height="50" viewBox="0 0 50 50" fill="none" xmlns="http://www.w3.org/2000/svg">
<g clip-path="url(#clip0_197_1966)">
<path fill-rule="evenodd" clip-rule="evenodd" d="M25 0C20.0555 0 15.222 1.46622 11.1108 4.21326C6.99953 6.9603 3.79521 10.8648 1.90302 15.4329C0.0108323 20.0011 -0.484251 25.0277 0.480379 29.8773C1.44501 34.7268 3.82603 39.1814 7.32234 42.6777C10.8187 46.174 15.2732 48.555 20.1228 49.5196C24.9723 50.4843 29.9989 49.9892 34.5671 48.097C39.1353 46.2048 43.0397 43.0005 45.7868 38.8893C48.5338 34.778 50 29.9445 50 25C49.9969 18.3705 47.362 12.0135 42.6743 7.32575C37.9865 2.63801 31.6295 0.00309159 25 0ZM25 3.33333C29.2853 3.33333 33.4743 4.60406 37.0374 6.98483C40.6004 9.36559 43.3775 12.7495 45.0174 16.7085C46.6573 20.6676 47.0864 25.024 46.2504 29.227C45.4143 33.4299 43.3508 37.2905 40.3207 40.3206C37.2905 43.3508 33.4299 45.4143 29.227 46.2503C25.024 47.0864 20.6676 46.6573 16.7085 45.0174C12.7495 43.3775 9.3656 40.6004 6.98484 37.0374C4.60407 33.4743 3.33334 29.2853 3.33334 25C3.33599 19.2545 5.61958 13.745 9.68229 9.68228C13.745 5.61957 19.2545 3.33598 25 3.33333Z" fill="#156AC5"/>
<path fill-rule="evenodd" clip-rule="evenodd" d="M16.178 31.1784L24.9997 22.3567L33.8214 31.1784C33.9751 31.3376 34.159 31.4645 34.3624 31.5519C34.5657 31.6392 34.7844 31.6852 35.0057 31.6871C35.227 31.6891 35.4465 31.6469 35.6513 31.5631C35.8561 31.4793 36.0422 31.3555 36.1987 31.199C36.3552 31.0426 36.4789 30.8565 36.5627 30.6516C36.6465 30.4468 36.6887 30.2273 36.6868 30.006C36.6849 29.7847 36.6389 29.566 36.5515 29.3627C36.4642 29.1594 36.3372 28.9755 36.178 28.8217L26.178 18.8217C25.8655 18.5093 25.4416 18.3337 24.9997 18.3337C24.5578 18.3337 24.1339 18.5093 23.8214 18.8217L13.8214 28.8217C13.5178 29.1361 13.3498 29.5571 13.3536 29.9941C13.3574 30.431 13.5327 30.8491 13.8417 31.1581C14.1507 31.4671 14.5687 31.6424 15.0057 31.6462C15.4427 31.65 15.8637 31.482 16.178 31.1784Z" fill="#156AC5"/>
</g>
<defs>
<clipPath id="clip0_197_1966">
<rect width="50" height="50" fill="white"/>
</clipPath>
</defs>
</svg>
