<svg width="64" height="54" viewBox="0 0 64 54" fill="none" xmlns="http://www.w3.org/2000/svg">
<path d="M63.096 15.8696V15.8442L62.2975 15.1513L62.3927 14.9754C62.3927 14.9754 62.3927 14.9754 62.3927 14.9754C62.212 14.8775 62.0014 14.7773 61.7978 14.6803C61.6637 14.6165 61.5326 14.5541 61.415 14.4947L61.415 14.4946L61.4097 14.4921L57.5432 12.6804C56.0583 11.9333 54.3692 11.1594 52.6735 10.3861C52.5777 10.3424 52.4818 10.2987 52.386 10.255C50.7836 9.52442 49.185 8.79556 47.7504 8.08891L47.662 8.26833L47.7504 8.08891C46.4764 7.46152 45.1959 6.8548 43.878 6.26883C42.3988 5.61107 40.741 4.80224 39.074 3.98891L39.061 3.98257C37.3913 3.16791 35.7128 2.34916 34.2038 1.67813L34.1225 1.86088L34.2037 1.67813C34.0228 1.59767 33.8558 1.52272 33.7011 1.45332C33.1492 1.20565 32.7545 1.02854 32.4457 0.92351C32.036 0.784111 31.7444 0.759456 31.4075 0.866151C31.1634 0.943469 30.8931 1.09249 30.5332 1.29094C30.4395 1.34261 30.3397 1.39763 30.2327 1.45561C29.7027 1.74283 28.9609 2.12434 27.8313 2.59053L27.8312 2.59031L27.8224 2.59445L18.1225 7.15966L18.1224 7.1596L18.1176 7.16202C17.7805 7.33196 17.4532 7.47972 17.1258 7.62738L17.1161 7.63175C16.7929 7.77747 16.4692 7.92347 16.1425 8.0884L16.1425 8.08841C14.407 8.96489 12.4098 9.87894 10.3927 10.7971C10.2652 10.8552 10.1375 10.9133 10.0099 10.9713C8.12057 11.8311 6.22771 12.6924 4.53657 13.5254L4.53656 13.5254C4.3733 13.6058 4.21219 13.6883 4.05269 13.77L4.05197 13.7704C3.89178 13.8524 3.73321 13.9336 3.57298 14.0126C3.42438 14.0857 3.22051 14.171 2.98402 14.2698C2.94487 14.2862 2.90482 14.3029 2.86399 14.32C2.58051 14.4388 2.26489 14.5736 1.97071 14.721C1.67836 14.8674 1.39629 15.0314 1.18472 15.2116C0.979764 15.3863 0.8 15.611 0.8 15.8826C0.8 16.2956 0.823741 16.5991 0.998289 16.8304C1.0859 16.9465 1.20159 17.0319 1.33846 17.107C1.47233 17.1805 1.6379 17.25 1.83419 17.3284L10.1376 21.2271L10.1375 21.2272L10.1441 21.23C10.3279 21.3084 10.4867 21.3944 10.6505 21.4831C10.7084 21.5145 10.7669 21.5462 10.8274 21.578C11.0136 21.6759 11.2101 21.7701 11.4384 21.8389C11.4385 22.8223 11.4399 23.8058 11.4413 24.7893C11.4444 27.0602 11.4476 29.3309 11.4355 31.6002C11.4264 33.3043 12.2355 34.8569 13.5302 36.2182C14.8244 37.5791 16.6156 38.7619 18.6049 39.734C22.5816 41.677 27.3961 42.7994 30.7391 42.7994C34.245 42.7994 36.486 42.7905 39.9409 41.7823C41.6572 41.2815 43.6506 40.6085 45.2877 39.7845V41.3915C44.6666 41.7264 44.1819 42.0494 43.8547 42.5115C43.5052 43.0052 43.3534 43.6308 43.3534 44.5337C43.3534 45.0714 43.5874 45.5664 43.8055 45.9266C43.9155 46.1083 44.0251 46.2616 44.1044 46.3724L44.1048 46.3729C44.1456 46.4299 44.1755 46.4718 44.1956 46.5027C44.1971 46.505 44.1984 46.5071 44.1997 46.5091C44.1976 48.2065 44.0666 49.4577 43.9564 50.3825C43.9438 50.4882 43.9314 50.59 43.9195 50.6881C43.879 51.0207 43.8439 51.31 43.8237 51.557C43.7977 51.8749 43.7941 52.1465 43.8441 52.3697C43.8966 52.6037 44.0093 52.7898 44.2099 52.9216C44.3993 53.046 44.6503 53.1104 44.9562 53.1473C45.4336 53.205 46.1176 53.2021 47.0639 53.1982C47.3242 53.1972 47.6044 53.196 47.9055 53.196C48.1573 53.196 48.375 53.1458 48.5545 53.0357C48.7357 52.9246 48.8615 52.7627 48.9454 52.5686C49.1076 52.1935 49.1219 51.6759 49.0846 51.088C49.0582 50.6717 49.0036 50.1969 48.9445 49.6831C48.9193 49.4641 48.8933 49.238 48.8684 49.0063C48.7861 48.243 48.7133 47.4073 48.7101 46.5271C48.7148 46.5208 48.72 46.5137 48.7258 46.5059C48.7315 46.4982 48.7379 46.4897 48.7448 46.4802C48.7918 46.4167 48.8583 46.3253 48.9331 46.2104C49.0823 45.981 49.2658 45.6558 49.3973 45.2615C49.6626 44.4661 49.713 43.3931 48.8659 42.2813C48.6371 41.9809 48.449 41.8529 48.1509 41.6782L48.1509 41.6781C48.0816 41.6376 48.0148 41.6002 47.9574 41.5681C47.9244 41.5496 47.8946 41.5329 47.8691 41.5183C47.7929 41.4746 47.744 41.4433 47.7087 41.4135C47.6767 41.3865 47.6579 41.3624 47.6437 41.3331C47.6282 41.3013 47.6138 41.2539 47.6037 41.1745C47.5826 41.009 47.5859 40.7571 47.596 40.3228C47.5969 40.2849 47.5979 40.2457 47.5988 40.2052C47.6087 39.7893 47.622 39.2349 47.622 38.4892C47.622 38.4854 47.6272 38.4469 47.7037 38.3643C47.775 38.2873 47.8819 38.1999 48.019 38.0992C48.1076 38.0341 48.2096 37.9631 48.3179 37.8877C48.529 37.7409 48.7642 37.5773 48.9717 37.4073L48.845 37.2526L48.9717 37.4073C51.1069 35.6585 51.9963 34.2961 52.3336 32.7398C52.5006 31.9693 52.5301 31.1608 52.5194 30.2521C52.5151 29.8843 52.5043 29.5041 52.493 29.1029C52.4759 28.5007 52.4576 27.8512 52.4576 27.1254V27.1148V27.1042V27.0935V27.0829V27.0723V27.0617V27.051V27.0404V27.0298V27.0192V27.0085V26.9979V26.9873V26.9767V26.966V26.9554V26.9448V26.9342V26.9235V26.9129V26.9023V26.8917V26.881V26.8704V26.8598V26.8492V26.8385V26.8279V26.8173V26.8067V26.796V26.7854V26.7748V26.7642V26.7535V26.7429V26.7323V26.7217V26.711V26.7004V26.6898V26.6792V26.6685V26.6579V26.6473V26.6367V26.626V26.6154V26.6048V26.5942V26.5835V26.5729V26.5623V26.5517V26.541V26.5304V26.5198V26.5092V26.4985V26.4879V26.4773V26.4667V26.456V26.4454V26.4348V26.4242V26.4135V26.4029V26.3923V26.3817V26.371V26.3604V26.3498V26.3392V26.3285V26.3179V26.3073V26.2967V26.286V26.2754V26.2648V26.2542V26.2435V26.2329V26.2223V26.2117V26.201V26.1904V26.1798V26.1692V26.1585V26.1479V26.1373V26.1266V26.116V26.1054V26.0948V26.0842V26.0735V26.0629V26.0523V26.0417V26.031V26.0204V26.0098V25.9991V25.9885V25.9779V25.9673V25.9566V25.946V25.9354V25.9248V25.9142V25.9035V25.8929V25.8823V25.8716V25.861V25.8504V25.8398V25.8291V25.8185V25.8079V25.7973V25.7866V25.776V25.7654V25.7548V25.7441V25.7335V25.7229V25.7123V25.7016V25.691V25.6804V25.6698V25.6591V25.6485V25.6379V25.6273V25.6166V25.606V25.5954V25.5848V25.5741V25.5635V25.5529V25.5423V25.5316V25.521V25.5104V25.4998V25.4891V25.4785V25.4679V25.4573V25.4466V25.436V25.4254V25.4148V25.4041V25.3935V25.3829V25.3723V25.3616V25.351V25.3404V25.3298V25.3191V25.3085V25.2979V25.2873V25.2766V25.266V25.2554V25.2448V25.2341V25.2235V25.2129V25.2023V25.1916V25.181V25.1704V25.1598V25.1491V25.1385V25.1279V25.1173V25.1066V25.096V25.0854V25.0748V25.0641V25.0535V25.0429V25.0323V25.0216V25.011V25.0004V24.9898V24.9791V24.9685V24.9579V24.9473V24.9366V24.926V24.9154V24.9048V24.8941V24.8835V24.8729V24.8623V24.8516V24.841V24.8304V24.8198V24.8091V24.7985V24.7879V24.7773V24.7666V24.756V24.7454V24.7348V24.7241V24.7135V24.7029V24.6923V24.6816V24.671V24.6604V24.6498V24.6391V24.6285V24.6179V24.6073V24.5966V24.586V24.5754V24.5648V24.5541V24.5435V24.5329V24.5223V24.5116V24.501V24.4904V24.4798V24.4691V24.4585V24.4479V24.4373V24.4266V24.416V24.4054V24.3948V24.3841V24.3735V24.3629V24.3523V24.3416V24.331V24.3204V24.3098V24.2991V24.2885V24.2779V24.2673V24.2566V24.246V24.2354V24.2248V24.2141V24.2035V24.1929V24.1823V24.1716V24.161V24.1504V24.1398V24.1291V24.1185V24.1079V24.0973V24.0866V24.076V24.0654V24.0548V24.0441V24.0335V24.0229V24.0123V24.0016V23.991V23.9804V23.9698V23.9591V23.9485V23.9379V23.9273V23.9166V23.906V23.8954V23.8848V23.8741V23.8635V23.8529V23.8423V23.8316V23.821V23.8104V23.7998V23.7891V23.7785V23.7679V23.7573V23.7466V23.736V23.7254V23.7148V23.7041V23.6935V23.6829V23.6723V23.6616V23.651V23.6404V23.6298V23.6191V23.6085V23.5979V23.5873V23.5766V23.566V23.5554V23.5448V23.5341V23.5235V23.5129V23.5023V23.4916V23.481V23.4704V23.4598V23.4491V23.4385V23.4279V23.4173V23.4066V23.396V23.3854V23.3748V23.3641V23.3535V23.3429V23.3323V23.3216V23.311V23.3004V23.2898V23.2791V23.2685V23.2579V23.2473V23.2366V23.226V23.2154V23.2048V23.1941V23.1835V23.1729V23.1623V23.1516V23.141V23.1304V23.1198V23.1091V23.0985V23.0879V23.0773V23.0666V23.056V23.0454V23.0348V23.0241V23.0135V23.0029V22.9923V22.9816V22.971V22.9604V22.9498V22.9391V22.9285V22.9179V22.9073V22.8966V22.886V22.8754V22.8648V22.8541V22.8435V22.8329V22.8223V22.8116V22.801V22.7904V22.7798V22.7691V22.7585V22.7479V22.7373V22.7266V22.716V22.7054V22.6948V22.6841V22.6735V22.6629V22.6523V22.6416V22.631V22.6204V22.6098V22.5991V22.5885V22.5779V22.5673V22.5566V22.546V22.5354V22.5248V22.5141V22.5035V22.4929V22.4823V22.4716V22.461V22.4504V22.4398V22.4291V22.4185V22.4079V22.3973V22.3866V22.376V22.3654V22.3548V22.3441V22.3335V22.3229V22.3123V22.3016V22.291V22.2804V22.2698V22.2591V22.2485V22.2379V22.2273V22.2166V22.206V22.1954V22.1848V22.1741V22.1635V22.1529V22.1423V22.1316V22.121V22.1104V22.0998V22.0891V22.0785V22.0679V22.0573V22.0466V22.036V22.0254V22.0147V22.0041V21.9935V21.9829V21.9722V21.9616V21.951V21.9404V21.9298V21.9191V21.9085V21.8979V21.8872V21.8766V21.866V21.8554V21.8447V21.8341V21.8235V21.813L61.992 17.3806C62.6198 17.1328 62.9799 16.7686 63.0893 16.3555L63.096 16.3304V16.3043V15.8696ZM44.2113 46.5286C44.2132 46.5326 44.2124 46.5318 44.2105 46.5272C44.2109 46.5278 44.2111 46.5283 44.2113 46.5286ZM13.7726 22.9845V22.9818C14.7354 23.4739 16.0388 24.068 17.3579 24.6655C17.4611 24.7123 17.5645 24.7591 17.6678 24.8059C19.0275 25.4215 20.3788 26.0333 21.3805 26.5386L21.3804 26.5387L21.3856 26.5411L25.3324 28.3933C25.9895 28.7238 26.6549 29.0256 27.3203 29.3272L27.3394 29.3359C28.0131 29.6413 28.687 29.9472 29.3597 30.286L29.4497 30.1074L29.3597 30.286C29.5899 30.4019 29.7982 30.5081 29.9875 30.6046C30.3348 30.7816 30.6181 30.926 30.8549 31.0379C31.2202 31.2105 31.5004 31.3188 31.7628 31.352C32.0347 31.3865 32.2708 31.3388 32.5448 31.2352C32.7362 31.1628 32.9581 31.0581 33.2303 30.9296C33.3339 30.8807 33.4447 30.8283 33.564 30.773C34.3433 30.4116 35.3629 29.9175 36.435 29.3978C38.3016 28.4931 40.3277 27.5111 41.5236 27.0175C41.8901 26.8663 42.1993 26.7077 42.5004 26.5532L42.5211 26.5426C42.8298 26.3843 43.1316 26.2303 43.4907 26.0849C43.7375 25.985 44.0258 25.834 44.3117 25.6843C44.3899 25.6433 44.4679 25.6025 44.5448 25.5628C44.8111 25.4254 45.0646 25.3019 45.2877 25.2197V37.0322C45.2718 37.04 45.2544 37.0485 45.2357 37.0577C45.2123 37.0693 45.1865 37.0821 45.1585 37.0959C45.0716 37.1389 44.9633 37.1924 44.8356 37.2549C44.4982 37.4198 44.0266 37.6462 43.467 37.8981C42.3467 38.4026 40.878 39.0076 39.4303 39.428C32.2589 41.5104 23.5296 40.3086 17.8904 36.5342C15.376 34.8512 14.3744 33.7018 13.9748 32.4197C13.7734 31.7734 13.7206 31.08 13.7204 30.2424C13.7203 29.8576 13.7312 29.446 13.7432 28.9962C13.7442 28.9565 13.7453 28.9165 13.7463 28.8762C13.7594 28.3802 13.7726 27.8399 13.7726 27.2463V27.2373V27.2283V27.2194V27.2104V27.2014V27.1925V27.1835V27.1745V27.1655V27.1566V27.1476V27.1386V27.1296V27.1207V27.1117V27.1027V27.0938V27.0848V27.0758V27.0668V27.0579V27.0489V27.0399V27.031V27.022V27.013V27.004V26.9951V26.9861V26.9771V26.9681V26.9592V26.9502V26.9412V26.9323V26.9233V26.9143V26.9053V26.8964V26.8874V26.8784V26.8695V26.8605V26.8515V26.8425V26.8336V26.8246V26.8156V26.8067V26.7977V26.7887V26.7797V26.7708V26.7618V26.7528V26.7438V26.7349V26.7259V26.7169V26.708V26.699V26.69V26.681V26.6721V26.6631V26.6541V26.6452V26.6362V26.6272V26.6182V26.6093V26.6003V26.5913V26.5823V26.5734V26.5644V26.5554V26.5465V26.5375V26.5285V26.5195V26.5106V26.5016V26.4926V26.4837V26.4747V26.4657V26.4567V26.4478V26.4388V26.4298V26.4208V26.4119V26.4029V26.3939V26.385V26.376V26.367V26.358V26.3491V26.3401V26.3311V26.3222V26.3132V26.3042V26.2952V26.2863V26.2773V26.2683V26.2593V26.2504V26.2414V26.2324V26.2235V26.2145V26.2055V26.1965V26.1876V26.1786V26.1696V26.1607V26.1517V26.1427V26.1337V26.1248V26.1158V26.1068V26.0978V26.0889V26.0799V26.0709V26.062V26.053V26.044V26.035V26.0261V26.0171V26.0081V25.9992V25.9902V25.9812V25.9722V25.9633V25.9543V25.9453V25.9363V25.9274V25.9184V25.9094V25.9005V25.8915V25.8825V25.8735V25.8646V25.8556V25.8466V25.8377V25.8287V25.8197V25.8107V25.8018V25.7928V25.7838V25.7749V25.7659V25.7569V25.7479V25.739V25.73V25.721V25.712V25.7031V25.6941V25.6851V25.6762V25.6672V25.6582V25.6492V25.6403V25.6313V25.6223V25.6134V25.6044V25.5954V25.5864V25.5775V25.5685V25.5595V25.5505V25.5416V25.5326V25.5236V25.5147V25.5057V25.4967V25.4877V25.4788V25.4698V25.4608V25.4519V25.4429V25.4339V25.4249V25.416V25.407V25.398V25.389V25.3801V25.3711V25.3621V25.3532V25.3442V25.3352V25.3262V25.3173V25.3083V25.2993V25.2904V25.2814V25.2724V25.2634V25.2545V25.2455V25.2365V25.2275V25.2186V25.2096V25.2006V25.1917V25.1827V25.1737V25.1647V25.1558V25.1468V25.1378V25.1289V25.1199V25.1109V25.1019V25.093V25.084V25.075V25.066V25.0571V25.0481V25.0391V25.0302V25.0212V25.0122V25.0032V24.9943V24.9853V24.9763V24.9674V24.9584V24.9494V24.9404V24.9315V24.9225V24.9135V24.9045V24.8956V24.8866V24.8776V24.8687V24.8597V24.8507V24.8417V24.8328V24.8238V24.8148V24.8059V24.7969V24.7879V24.7789V24.77V24.761V24.752V24.743V24.7341V24.7251V24.7161V24.7072V24.6982V24.6892V24.6802V24.6713V24.6623V24.6533V24.6444V24.6354V24.6264V24.6174V24.6085V24.5995V24.5905V24.5816V24.5726V24.5636V24.5546V24.5457V24.5367V24.5277V24.5187V24.5098V24.5008V24.4918V24.4829V24.4739V24.4649V24.4559V24.447V24.438V24.429V24.4201V24.4111V24.4021V24.3931V24.3842V24.3752V24.3662V24.3572V24.3483V24.3393V24.3303V24.3214V24.3124V24.3034V24.2944V24.2855V24.2765V24.2675V24.2586V24.2496V24.2406V24.2316V24.2227V24.2137V24.2047V24.1957V24.1868V24.1778V24.1688V24.1599V24.1509V24.1419V24.1329V24.124V24.115V24.106V24.0971V24.0881V24.0791V24.0701V24.0612V24.0522V24.0432V24.0342V24.0253V24.0163V24.0073V23.9984V23.9894V23.9804V23.9714V23.9625V23.9535V23.9445V23.9356V23.9266V23.9176V23.9086V23.8997V23.8907V23.8817V23.8727V23.8638V23.8548V23.8458V23.8369V23.8279V23.8189V23.8099V23.801V23.792V23.783V23.7741V23.7651V23.7561V23.7471V23.7382V23.7292V23.7202V23.7113V23.7023V23.6933V23.6843V23.6754V23.6664V23.6574V23.6484V23.6395V23.6305V23.6215V23.6126V23.6036V23.5946V23.5856V23.5767V23.5677V23.5587V23.5498V23.5408V23.5318V23.5228V23.5139V23.5049V23.4959V23.4869V23.478V23.469V23.46V23.4511V23.4421V23.4331V23.4241V23.4152V23.4062V23.3972V23.3883V23.3793V23.3703V23.3613V23.3524V23.3434V23.3344V23.3254V23.3165V23.3075V23.2985V23.2896V23.2806V23.2716V23.2626V23.2537V23.2447V23.2357V23.2268V23.2178V23.2088V23.1998V23.1909V23.1819V23.1729V23.1639V23.155V23.146V23.137V23.1281V23.1191V23.1101V23.1011V23.0922V23.0832V23.0742V23.0653V23.0563V23.0473V23.0383V23.0294V23.0204V23.0114V23.0024V22.9935V22.9845ZM32.3421 17.2704L32.4293 17.0959L32.3421 17.2704C32.7161 17.4573 33.0678 17.6332 33.4335 17.816C33.6529 17.9258 33.8773 18.038 34.1146 18.1567C34.1148 18.1567 34.115 18.1568 34.1152 18.1569L43.5865 22.9494L43.5863 22.9497L43.5974 22.9545C43.7156 23.0057 43.813 23.0387 43.8942 23.065C43.9098 23.0701 43.9244 23.0747 43.9381 23.0791C43.9987 23.0985 44.0424 23.1125 44.0838 23.1299C44.1031 23.138 44.1219 23.1468 44.1411 23.1578C44.1401 23.1581 44.139 23.1585 44.1379 23.1589C43.9894 23.2134 43.807 23.2884 43.6028 23.3769C43.1941 23.5541 42.6891 23.7893 42.1767 24.0329C41.8071 24.2087 41.4347 24.3882 41.0905 24.5542C40.4743 24.8513 39.9488 25.1047 39.6924 25.2141C39.1665 25.4385 37.9288 26.0429 36.5922 26.6955C36.2069 26.8836 35.8135 27.0758 35.4264 27.264C34.5589 27.6858 33.7218 28.089 33.0756 28.3865C32.7523 28.5354 32.4788 28.6569 32.2742 28.7409C32.1716 28.7829 32.0888 28.8145 32.0269 28.8353C32.0062 28.8422 31.9889 28.8476 31.9748 28.8516L26.8368 26.4618C26.5529 26.3191 26.2722 26.1944 25.9928 26.0703L25.9758 26.0628C25.6888 25.9352 25.4024 25.8077 25.1061 25.6583L25.0161 25.8369L25.1061 25.6583C24.678 25.4425 24.3347 25.2878 23.9586 25.1182C23.7743 25.0351 23.5822 24.9485 23.3683 24.8494C23.3681 24.8493 23.3678 24.8492 23.3676 24.8491L9.59073 18.32C9.59058 18.3199 9.59043 18.3199 9.59027 18.3198C9.43358 18.2446 9.0937 18.0946 8.66142 17.9038C8.15126 17.6787 7.51241 17.3968 6.89406 17.114C6.31796 16.8505 5.75579 16.5846 5.31839 16.3576C5.09941 16.244 4.91469 16.1416 4.77621 16.0553C4.77218 16.0527 4.76819 16.0503 4.76426 16.0478L14.7868 11.3912L14.7868 11.3912L14.7891 11.3901C15.0061 11.2859 15.1913 11.1927 15.3669 11.1044C15.7229 10.9254 16.039 10.7664 16.4993 10.5764C16.8302 10.4398 17.1077 10.2953 17.3761 10.1544L17.406 10.1387C17.6649 10.0027 17.9162 9.87072 18.21 9.74534L18.2101 9.74533C18.805 9.49136 19.2204 9.28603 19.7138 9.04213C19.7889 9.00498 19.8659 8.96694 19.9455 8.9277C20.2097 8.79762 20.4684 8.68235 20.734 8.56402C20.7538 8.5552 20.7736 8.54637 20.7935 8.53751C21.0782 8.4106 21.3708 8.27913 21.6787 8.12389L31.9479 3.34373L42.1365 8.0839C43.4245 8.73188 44.921 9.41988 46.4228 10.1098L46.4631 10.1283C47.9542 10.8133 49.4489 11.5 50.7562 12.1541L50.7562 12.1542L50.7615 12.1566L54.226 13.7652C54.5212 13.9142 54.7996 14.0409 55.0807 14.1671C55.1165 14.1832 55.1523 14.1993 55.1883 14.2154C55.4359 14.3265 55.6876 14.4394 55.9605 14.5703C56.1145 14.6442 56.3466 14.76 56.622 14.8974C56.952 15.062 57.3442 15.2576 57.7392 15.4497C58.0973 15.6238 58.4532 15.7926 58.7543 15.9261C58.8838 15.9836 59.0066 16.0361 59.1169 16.0799C59.0289 16.1336 58.9199 16.1892 58.7881 16.2498C58.6935 16.2934 58.5872 16.3395 58.4732 16.389C58.2576 16.4825 58.0145 16.588 57.7714 16.7103L47.4187 21.5899L47.4186 21.5897L47.4105 21.594C46.998 21.8118 46.8059 21.8162 46.6354 21.7613C46.5369 21.7296 46.4341 21.6741 46.293 21.5917C46.2725 21.5797 46.2513 21.5673 46.2294 21.5544C46.1048 21.4812 45.9571 21.3943 45.7787 21.305L45.7783 21.3048L34.8035 15.841C34.8033 15.8409 34.803 15.8408 34.8028 15.8406C34.5108 15.6918 34.2328 15.5548 33.9031 15.4019C33.704 15.3095 33.5251 15.2151 33.3527 15.1234L33.3231 15.1076C33.1625 15.0222 33.0049 14.9383 32.8467 14.8651C32.506 14.7074 32.1532 14.5946 31.7062 14.5946C31.587 14.5946 31.4711 14.6377 31.3731 14.6921C31.2727 14.7477 31.1765 14.8232 31.0929 14.9067C31.0094 14.9902 30.934 15.0864 30.8783 15.1868C30.824 15.2848 30.7808 15.4007 30.7808 15.52C30.7808 15.9969 30.7868 16.3115 31.0478 16.5626C31.1661 16.6764 31.3284 16.7695 31.5295 16.8718C31.6264 16.921 31.7437 16.9779 31.8778 17.0429C32.0161 17.1099 32.1722 17.1855 32.3421 17.2704ZM46.4121 49.3437C46.4266 49.1967 46.4411 49.0476 46.4549 48.8971C46.4686 49.0476 46.4832 49.1967 46.4976 49.3436L46.505 49.4186C46.5555 49.9305 46.6032 50.4144 46.6149 50.8618H46.2949C46.3065 50.4145 46.3542 49.9305 46.4047 49.4187L46.4121 49.3437ZM45.6877 44.2919C45.6877 44.0447 45.7832 43.872 45.9188 43.7579C46.0588 43.64 46.2529 43.5759 46.4549 43.5759C46.6569 43.5759 46.8509 43.64 46.9909 43.7579C47.1265 43.872 47.222 44.0447 47.222 44.2919C47.222 44.539 47.1265 44.7118 46.9909 44.8259C46.8509 44.9438 46.6569 45.0079 46.4549 45.0079C46.2529 45.0079 46.0588 44.9438 45.9188 44.8259C45.7832 44.7118 45.6877 44.539 45.6877 44.2919ZM47.622 24.1106L50.1233 22.9642C50.1231 23.7357 50.1222 24.5075 50.1212 25.2794C50.1191 27.0636 50.1169 28.8486 50.1237 30.6324C50.1268 31.4443 50.0871 31.9561 49.9651 32.38C49.8446 32.799 49.6397 33.1464 49.2842 33.622C48.8153 34.2495 48.2492 34.9281 47.622 35.3543V24.1106Z" fill="#0489FF" stroke="#0489FF" stroke-width="0.4"/>
</svg>
