<svg width="43" height="42" viewBox="0 0 43 42" fill="none" xmlns="http://www.w3.org/2000/svg">
<circle cx="21.8125" cy="21" r="21" fill="white" fill-opacity="0.15"/>
<circle cx="21.8125" cy="21" r="20" stroke="#EFF6FF" stroke-opacity="0.4" stroke-width="2"/>
<path d="M31.0492 28.9999H13.322C13.1439 28.9999 13 28.8205 13 28.5986V14.4013C13 14.1794 13.1439 14 13.322 14H31.053C31.2311 14 31.375 14.1794 31.375 14.4013V28.6033C31.3712 28.8205 31.2273 28.9999 31.0492 28.9999Z" fill="#BABABA" fill-opacity="0.17"/>
<path d="M31.375 14.3918C31.375 14.1746 31.2348 14 31.0605 14H29.6432L23.7734 18.7907V14H20.6054V18.7907L14.7318 14H13.3145C13.1402 14 13 14.1746 13 14.3918V15.4113L18.0362 19.5223H13V23.4681H18.0362L13 27.5792V28.5987C13 28.8158 13.1402 28.9904 13.3145 28.9904H14.7318L20.6016 24.1997V28.9904H23.7696V24.2092L29.6394 28.9999H31.0567C31.231 28.9999 31.3712 28.8252 31.3712 28.6081V27.5886L26.335 23.4776H31.375V19.5317H26.3388L31.375 15.416V14.3918Z" fill="#F5F5F5" fill-opacity="0.38"/>
</svg>
