<svg width="43" height="42" viewBox="0 0 43 42" fill="none" xmlns="http://www.w3.org/2000/svg">
<circle cx="21.8125" cy="21" r="21" fill="white" fill-opacity="0.42"/>
<circle cx="21.8125" cy="21" r="20" stroke="white" stroke-opacity="0.63" stroke-width="2"/>
<path d="M30.8617 28.0213H13.1345C12.9564 28.0213 12.8125 27.8581 12.8125 27.6563V14.7471C12.8125 14.5454 12.9564 14.3822 13.1345 14.3822H30.8655C31.0436 14.3822 31.1875 14.5454 31.1875 14.7471V27.6606C31.1837 27.8581 31.0398 28.0213 30.8617 28.0213Z" fill="#BABABA" fill-opacity="0.17"/>
<path d="M31.1875 14.7385C31.1875 14.541 31.0473 14.3822 30.873 14.3822H29.4557L23.5859 18.7383V14.3822H20.4179V18.7383L14.5443 14.3822H13.127C12.9527 14.3822 12.8125 14.541 12.8125 14.7385V15.6655L17.8487 19.4035H12.8125V22.9914H17.8487L12.8125 26.7295V27.6565C12.8125 27.8539 12.9527 28.0127 13.127 28.0127H14.5443L20.4141 23.6566V28.0127H23.5821V23.6652L29.4519 28.0213H30.8692C31.0435 28.0213 31.1837 27.8625 31.1837 27.665V26.738L26.1475 23H31.1875V19.4121H26.1513L31.1875 15.6697V14.7385Z" fill="#F5F5F5" fill-opacity="0.38"/>
</svg>
