<svg width="43" height="42" viewBox="0 0 43 42" fill="none" xmlns="http://www.w3.org/2000/svg">
<circle cx="21.8125" cy="21" r="20" fill="#7E8CB5" stroke="#0489FF" stroke-width="2"/>
<path d="M30.8617 28.0213H13.1345C12.9564 28.0213 12.8125 27.8581 12.8125 27.6563V14.7471C12.8125 14.5454 12.9564 14.3822 13.1345 14.3822H30.8655C31.0436 14.3822 31.1875 14.5454 31.1875 14.7471V27.6606C31.1837 27.8581 31.0398 28.0213 30.8617 28.0213Z" fill="#195BDA"/>
<path d="M26.1513 19.6121H30.9875V22.8H26.1475H25.5425L26.0283 23.1606L30.9837 26.8387V27.665C30.9837 27.7761 30.9104 27.8213 30.8692 27.8213H29.518L23.7013 23.5046L23.3821 23.2677V23.6652V27.8127H20.6141V23.6566V23.2591L20.2949 23.496L14.4782 27.8127H13.127C13.0858 27.8127 13.0125 27.7675 13.0125 27.6565V26.8301L17.9679 23.152L18.4537 22.7914H17.8487H13.0125V19.6035H17.8487H18.4537L17.9679 19.2429L13.0125 15.5648V14.7385C13.0125 14.6274 13.0858 14.5822 13.127 14.5822H14.4782L20.2988 18.899L20.6179 19.1356V18.7383V14.5822H23.3859V18.7383V19.1358L23.7051 18.8989L29.5218 14.5822H30.873C30.9142 14.5822 30.9875 14.6274 30.9875 14.7385V15.5692L26.032 19.2516L25.5469 19.6121H26.1513Z" fill="#D52B1E" stroke="white" stroke-width="0.4"/>
</svg>
