<svg width="54" height="54" viewBox="0 0 54 54" fill="none" xmlns="http://www.w3.org/2000/svg">
<mask id="path-1-outside-1_197_1563" maskUnits="userSpaceOnUse" x="0" y="0" width="54" height="54" fill="black">
<rect fill="white" width="54" height="54"/>
<path fill-rule="evenodd" clip-rule="evenodd" d="M25.9848 1.91405C25.9848 2.57027 26.2568 3.00521 26.9947 3.037C28.9139 3.11945 30.8689 3.03243 32.7896 3.03131C34.678 3.03019 35.9695 3.29544 36.8131 4.79696C37.7684 6.49752 36.9516 8.70939 35.3595 9.46066C34.0369 10.0847 32.4924 9.66883 30.7707 9.84838C28.3745 10.0984 25.9848 12.3672 25.9848 15.0159V19.2816H20.9066C20.6533 19.2816 20.5583 19.0737 20.3659 18.9081C20.1526 18.7243 20.0266 18.6335 19.812 18.4464C17.2973 16.2538 14.7353 13.6955 11.0548 13.6955C6.5222 13.6955 3.2529 17.1491 2.66441 21.1491L1.81525 33.5032C1.81058 34.222 1.64353 35.2358 1.60961 35.9383C1.52735 37.6414 1.34862 39.2291 1.30739 40.9174C1.26982 42.4513 1.03625 43.8961 1 45.2849V45.9743C1.04996 47.6716 1.50319 49.2909 3.10656 50.8943C5.89209 53.6798 10.2999 53.6551 13.213 51.0964C14.3263 50.1185 17.6655 45.5347 19.154 44.0372C19.8428 43.3445 20.7648 42.8136 21.8455 42.6662C22.3141 42.6022 22.7792 42.7123 23.1546 42.3502C23.8498 41.68 23.6624 39.762 20.2067 40.9258C17.7968 41.7373 15.8661 44.7033 14.2346 46.6336C14.0542 46.8473 13.9173 47.0286 13.7398 47.2559C12.8877 48.3474 12.048 49.5053 10.8342 50.2411C9.91357 50.7992 8.42191 51.1467 7.05392 50.8064C4.56889 50.1882 2.80455 47.6466 3.04269 45.5034C3.20232 44.0659 3.1944 42.5626 3.35089 41.1328C3.67331 38.1876 3.7116 35.3763 3.95085 32.3888L4.56035 23.6544C4.77574 20.9072 4.99823 18.6763 7.29418 17.0443C9.35697 15.578 11.8869 15.4646 14.1373 16.6053C15.2666 17.1778 18.3648 19.9519 19.6594 21.0366C19.862 21.2063 19.9536 21.3128 20.2972 21.3128H33.7037C34.374 21.3128 35.2859 20.2195 35.7781 19.8326C38.2746 17.8704 39.7298 15.8284 43.2507 15.8284C45.8325 15.8284 47.7455 17.5492 48.771 19.6519C49.5434 21.2358 49.7436 27.9953 49.8525 30.2502C49.8813 30.8457 50.0029 31.8001 50.05 32.3888C50.2892 35.3763 50.3275 38.1876 50.6499 41.1328C50.7302 41.8661 50.7459 42.623 50.7638 43.3549C50.8209 45.6893 51.4238 46.8508 49.8118 48.9992C49.2208 49.7869 48.0607 50.5293 46.9469 50.8064C45.1384 51.2563 42.9152 50.5615 41.8706 49.2011C41.0708 48.1593 37.4387 43.6775 36.5743 42.8176C35.2028 41.4528 33.8499 40.7113 31.8462 40.5333C30.8307 40.4431 30.1297 41.5431 30.7964 42.2985C30.9138 42.4315 31.1144 42.5527 31.3069 42.6006C31.7608 42.7134 32.2283 42.6478 32.7477 42.7848C33.0586 42.8667 33.6881 43.1213 33.9048 43.2527C34.8816 43.845 35.5856 44.8588 36.313 45.7196L37.7807 47.5019C38.5968 48.5041 39.8385 50.227 40.7348 51.0479C43.6094 53.6809 48.1182 53.6705 50.8943 50.8943C51.9347 49.8539 53.0008 47.9349 53.0008 45.9929C53.0008 44.2585 52.7808 42.7175 52.696 41.0165C52.6102 39.2978 52.4356 37.7327 52.3941 36.037L52.0281 31.1217C51.8227 29.754 51.737 25.4359 51.5051 23.7226C51.3937 22.8987 51.456 22.0666 51.3503 21.2367C50.9928 18.4275 49.4783 16.2739 47.1546 14.8698C45.0704 13.6104 42.1119 13.3728 39.8097 14.3171C37.4838 15.2713 33.4813 19.2816 33.0942 19.2816H28.016C28.016 17.006 27.548 13.7396 29.5959 12.4316C31.8585 10.9866 34.8972 13.0927 37.7061 10.2837C41.0961 6.89367 38.6542 1 34.11 1H26.8989C26.3969 1 25.9848 1.41209 25.9848 1.91405Z"/>
</mask>
<path fill-rule="evenodd" clip-rule="evenodd" d="M25.9848 1.91405C25.9848 2.57027 26.2568 3.00521 26.9947 3.037C28.9139 3.11945 30.8689 3.03243 32.7896 3.03131C34.678 3.03019 35.9695 3.29544 36.8131 4.79696C37.7684 6.49752 36.9516 8.70939 35.3595 9.46066C34.0369 10.0847 32.4924 9.66883 30.7707 9.84838C28.3745 10.0984 25.9848 12.3672 25.9848 15.0159V19.2816H20.9066C20.6533 19.2816 20.5583 19.0737 20.3659 18.9081C20.1526 18.7243 20.0266 18.6335 19.812 18.4464C17.2973 16.2538 14.7353 13.6955 11.0548 13.6955C6.5222 13.6955 3.2529 17.1491 2.66441 21.1491L1.81525 33.5032C1.81058 34.222 1.64353 35.2358 1.60961 35.9383C1.52735 37.6414 1.34862 39.2291 1.30739 40.9174C1.26982 42.4513 1.03625 43.8961 1 45.2849V45.9743C1.04996 47.6716 1.50319 49.2909 3.10656 50.8943C5.89209 53.6798 10.2999 53.6551 13.213 51.0964C14.3263 50.1185 17.6655 45.5347 19.154 44.0372C19.8428 43.3445 20.7648 42.8136 21.8455 42.6662C22.3141 42.6022 22.7792 42.7123 23.1546 42.3502C23.8498 41.68 23.6624 39.762 20.2067 40.9258C17.7968 41.7373 15.8661 44.7033 14.2346 46.6336C14.0542 46.8473 13.9173 47.0286 13.7398 47.2559C12.8877 48.3474 12.048 49.5053 10.8342 50.2411C9.91357 50.7992 8.42191 51.1467 7.05392 50.8064C4.56889 50.1882 2.80455 47.6466 3.04269 45.5034C3.20232 44.0659 3.1944 42.5626 3.35089 41.1328C3.67331 38.1876 3.7116 35.3763 3.95085 32.3888L4.56035 23.6544C4.77574 20.9072 4.99823 18.6763 7.29418 17.0443C9.35697 15.578 11.8869 15.4646 14.1373 16.6053C15.2666 17.1778 18.3648 19.9519 19.6594 21.0366C19.862 21.2063 19.9536 21.3128 20.2972 21.3128H33.7037C34.374 21.3128 35.2859 20.2195 35.7781 19.8326C38.2746 17.8704 39.7298 15.8284 43.2507 15.8284C45.8325 15.8284 47.7455 17.5492 48.771 19.6519C49.5434 21.2358 49.7436 27.9953 49.8525 30.2502C49.8813 30.8457 50.0029 31.8001 50.05 32.3888C50.2892 35.3763 50.3275 38.1876 50.6499 41.1328C50.7302 41.8661 50.7459 42.623 50.7638 43.3549C50.8209 45.6893 51.4238 46.8508 49.8118 48.9992C49.2208 49.7869 48.0607 50.5293 46.9469 50.8064C45.1384 51.2563 42.9152 50.5615 41.8706 49.2011C41.0708 48.1593 37.4387 43.6775 36.5743 42.8176C35.2028 41.4528 33.8499 40.7113 31.8462 40.5333C30.8307 40.4431 30.1297 41.5431 30.7964 42.2985C30.9138 42.4315 31.1144 42.5527 31.3069 42.6006C31.7608 42.7134 32.2283 42.6478 32.7477 42.7848C33.0586 42.8667 33.6881 43.1213 33.9048 43.2527C34.8816 43.845 35.5856 44.8588 36.313 45.7196L37.7807 47.5019C38.5968 48.5041 39.8385 50.227 40.7348 51.0479C43.6094 53.6809 48.1182 53.6705 50.8943 50.8943C51.9347 49.8539 53.0008 47.9349 53.0008 45.9929C53.0008 44.2585 52.7808 42.7175 52.696 41.0165C52.6102 39.2978 52.4356 37.7327 52.3941 36.037L52.0281 31.1217C51.8227 29.754 51.737 25.4359 51.5051 23.7226C51.3937 22.8987 51.456 22.0666 51.3503 21.2367C50.9928 18.4275 49.4783 16.2739 47.1546 14.8698C45.0704 13.6104 42.1119 13.3728 39.8097 14.3171C37.4838 15.2713 33.4813 19.2816 33.0942 19.2816H28.016C28.016 17.006 27.548 13.7396 29.5959 12.4316C31.8585 10.9866 34.8972 13.0927 37.7061 10.2837C41.0961 6.89367 38.6542 1 34.11 1H26.8989C26.3969 1 25.9848 1.41209 25.9848 1.91405Z" fill="#0489FF"/>
<path fill-rule="evenodd" clip-rule="evenodd" d="M25.9848 1.91405C25.9848 2.57027 26.2568 3.00521 26.9947 3.037C28.9139 3.11945 30.8689 3.03243 32.7896 3.03131C34.678 3.03019 35.9695 3.29544 36.8131 4.79696C37.7684 6.49752 36.9516 8.70939 35.3595 9.46066C34.0369 10.0847 32.4924 9.66883 30.7707 9.84838C28.3745 10.0984 25.9848 12.3672 25.9848 15.0159V19.2816H20.9066C20.6533 19.2816 20.5583 19.0737 20.3659 18.9081C20.1526 18.7243 20.0266 18.6335 19.812 18.4464C17.2973 16.2538 14.7353 13.6955 11.0548 13.6955C6.5222 13.6955 3.2529 17.1491 2.66441 21.1491L1.81525 33.5032C1.81058 34.222 1.64353 35.2358 1.60961 35.9383C1.52735 37.6414 1.34862 39.2291 1.30739 40.9174C1.26982 42.4513 1.03625 43.8961 1 45.2849V45.9743C1.04996 47.6716 1.50319 49.2909 3.10656 50.8943C5.89209 53.6798 10.2999 53.6551 13.213 51.0964C14.3263 50.1185 17.6655 45.5347 19.154 44.0372C19.8428 43.3445 20.7648 42.8136 21.8455 42.6662C22.3141 42.6022 22.7792 42.7123 23.1546 42.3502C23.8498 41.68 23.6624 39.762 20.2067 40.9258C17.7968 41.7373 15.8661 44.7033 14.2346 46.6336C14.0542 46.8473 13.9173 47.0286 13.7398 47.2559C12.8877 48.3474 12.048 49.5053 10.8342 50.2411C9.91357 50.7992 8.42191 51.1467 7.05392 50.8064C4.56889 50.1882 2.80455 47.6466 3.04269 45.5034C3.20232 44.0659 3.1944 42.5626 3.35089 41.1328C3.67331 38.1876 3.7116 35.3763 3.95085 32.3888L4.56035 23.6544C4.77574 20.9072 4.99823 18.6763 7.29418 17.0443C9.35697 15.578 11.8869 15.4646 14.1373 16.6053C15.2666 17.1778 18.3648 19.9519 19.6594 21.0366C19.862 21.2063 19.9536 21.3128 20.2972 21.3128H33.7037C34.374 21.3128 35.2859 20.2195 35.7781 19.8326C38.2746 17.8704 39.7298 15.8284 43.2507 15.8284C45.8325 15.8284 47.7455 17.5492 48.771 19.6519C49.5434 21.2358 49.7436 27.9953 49.8525 30.2502C49.8813 30.8457 50.0029 31.8001 50.05 32.3888C50.2892 35.3763 50.3275 38.1876 50.6499 41.1328C50.7302 41.8661 50.7459 42.623 50.7638 43.3549C50.8209 45.6893 51.4238 46.8508 49.8118 48.9992C49.2208 49.7869 48.0607 50.5293 46.9469 50.8064C45.1384 51.2563 42.9152 50.5615 41.8706 49.2011C41.0708 48.1593 37.4387 43.6775 36.5743 42.8176C35.2028 41.4528 33.8499 40.7113 31.8462 40.5333C30.8307 40.4431 30.1297 41.5431 30.7964 42.2985C30.9138 42.4315 31.1144 42.5527 31.3069 42.6006C31.7608 42.7134 32.2283 42.6478 32.7477 42.7848C33.0586 42.8667 33.6881 43.1213 33.9048 43.2527C34.8816 43.845 35.5856 44.8588 36.313 45.7196L37.7807 47.5019C38.5968 48.5041 39.8385 50.227 40.7348 51.0479C43.6094 53.6809 48.1182 53.6705 50.8943 50.8943C51.9347 49.8539 53.0008 47.9349 53.0008 45.9929C53.0008 44.2585 52.7808 42.7175 52.696 41.0165C52.6102 39.2978 52.4356 37.7327 52.3941 36.037L52.0281 31.1217C51.8227 29.754 51.737 25.4359 51.5051 23.7226C51.3937 22.8987 51.456 22.0666 51.3503 21.2367C50.9928 18.4275 49.4783 16.2739 47.1546 14.8698C45.0704 13.6104 42.1119 13.3728 39.8097 14.3171C37.4838 15.2713 33.4813 19.2816 33.0942 19.2816H28.016C28.016 17.006 27.548 13.7396 29.5959 12.4316C31.8585 10.9866 34.8972 13.0927 37.7061 10.2837C41.0961 6.89367 38.6542 1 34.11 1H26.8989C26.3969 1 25.9848 1.41209 25.9848 1.91405Z" stroke="#0489FF" stroke-width="0.8" mask="url(#path-1-outside-1_197_1563)"/>
<mask id="path-2-outside-2_197_1563" maskUnits="userSpaceOnUse" x="6.93555" y="21.9221" width="17" height="17" fill="black">
<rect fill="white" x="6.93555" y="21.9221" width="17" height="17"/>
<path fill-rule="evenodd" clip-rule="evenodd" d="M10.0386 30.4537C10.0386 28.5831 13.2526 29.9998 14.1506 29.1827C15.0388 28.3745 13.7512 24.9692 15.4215 24.9692C17.2972 24.9692 15.89 27.9319 16.718 29.0557C17.5715 30.214 20.906 28.3808 20.906 30.5553C20.906 31.7174 19.1343 31.4736 17.8547 31.4651C17.2537 31.461 17.0627 31.4717 16.7578 31.7899C15.8445 32.7436 17.3099 36.0161 15.4468 35.8947C13.1492 35.7449 16.0665 31.4428 13.1921 31.4643C11.9101 31.4739 10.0386 31.7246 10.0386 30.4537ZM12.3746 26.2895V27.4068C11.3888 27.4068 10.4726 27.2952 9.69468 27.6721C8.28872 28.3536 7.51114 30.0149 8.17711 31.6043C8.36102 32.0432 8.47852 32.2011 8.77941 32.5254C8.79363 32.5408 8.81383 32.5631 8.82825 32.5781L9.57008 33.1567C10.404 33.6283 11.3366 33.5006 12.3746 33.5006C12.3746 35.0066 12.2711 36.1957 13.5059 37.2444C13.6649 37.3793 13.7873 37.4724 13.9756 37.5872C15.7955 38.6966 18.5701 37.3852 18.5701 34.9225V33.5006H20.0935C22.5659 33.5006 24.0161 30.3777 22.2535 28.3953C21.195 27.2049 19.9796 27.4068 18.5701 27.4068C18.5701 26.0656 18.7138 24.9714 17.7847 23.9265C16.0981 22.0297 12.3746 22.8207 12.3746 26.2895Z"/>
</mask>
<path fill-rule="evenodd" clip-rule="evenodd" d="M10.0386 30.4537C10.0386 28.5831 13.2526 29.9998 14.1506 29.1827C15.0388 28.3745 13.7512 24.9692 15.4215 24.9692C17.2972 24.9692 15.89 27.9319 16.718 29.0557C17.5715 30.214 20.906 28.3808 20.906 30.5553C20.906 31.7174 19.1343 31.4736 17.8547 31.4651C17.2537 31.461 17.0627 31.4717 16.7578 31.7899C15.8445 32.7436 17.3099 36.0161 15.4468 35.8947C13.1492 35.7449 16.0665 31.4428 13.1921 31.4643C11.9101 31.4739 10.0386 31.7246 10.0386 30.4537ZM12.3746 26.2895V27.4068C11.3888 27.4068 10.4726 27.2952 9.69468 27.6721C8.28872 28.3536 7.51114 30.0149 8.17711 31.6043C8.36102 32.0432 8.47852 32.2011 8.77941 32.5254C8.79363 32.5408 8.81383 32.5631 8.82825 32.5781L9.57008 33.1567C10.404 33.6283 11.3366 33.5006 12.3746 33.5006C12.3746 35.0066 12.2711 36.1957 13.5059 37.2444C13.6649 37.3793 13.7873 37.4724 13.9756 37.5872C15.7955 38.6966 18.5701 37.3852 18.5701 34.9225V33.5006H20.0935C22.5659 33.5006 24.0161 30.3777 22.2535 28.3953C21.195 27.2049 19.9796 27.4068 18.5701 27.4068C18.5701 26.0656 18.7138 24.9714 17.7847 23.9265C16.0981 22.0297 12.3746 22.8207 12.3746 26.2895Z" fill="#0489FF"/>
<path fill-rule="evenodd" clip-rule="evenodd" d="M10.0386 30.4537C10.0386 28.5831 13.2526 29.9998 14.1506 29.1827C15.0388 28.3745 13.7512 24.9692 15.4215 24.9692C17.2972 24.9692 15.89 27.9319 16.718 29.0557C17.5715 30.214 20.906 28.3808 20.906 30.5553C20.906 31.7174 19.1343 31.4736 17.8547 31.4651C17.2537 31.461 17.0627 31.4717 16.7578 31.7899C15.8445 32.7436 17.3099 36.0161 15.4468 35.8947C13.1492 35.7449 16.0665 31.4428 13.1921 31.4643C11.9101 31.4739 10.0386 31.7246 10.0386 30.4537ZM12.3746 26.2895V27.4068C11.3888 27.4068 10.4726 27.2952 9.69468 27.6721C8.28872 28.3536 7.51114 30.0149 8.17711 31.6043C8.36102 32.0432 8.47852 32.2011 8.77941 32.5254C8.79363 32.5408 8.81383 32.5631 8.82825 32.5781L9.57008 33.1567C10.404 33.6283 11.3366 33.5006 12.3746 33.5006C12.3746 35.0066 12.2711 36.1957 13.5059 37.2444C13.6649 37.3793 13.7873 37.4724 13.9756 37.5872C15.7955 38.6966 18.5701 37.3852 18.5701 34.9225V33.5006H20.0935C22.5659 33.5006 24.0161 30.3777 22.2535 28.3953C21.195 27.2049 19.9796 27.4068 18.5701 27.4068C18.5701 26.0656 18.7138 24.9714 17.7847 23.9265C16.0981 22.0297 12.3746 22.8207 12.3746 26.2895Z" stroke="#0489FF" stroke-width="0.8" mask="url(#path-2-outside-2_197_1563)"/>
<mask id="path-3-outside-3_197_1563" maskUnits="userSpaceOnUse" x="37.9844" y="22.2427" width="9" height="9" fill="black">
<rect fill="white" x="37.9844" y="22.2427" width="9" height="9"/>
<path fill-rule="evenodd" clip-rule="evenodd" d="M43.5548 26.3911C43.5548 29.0276 39.9103 27.5386 41.3618 25.7217C41.9869 24.9393 43.5548 25.3367 43.5548 26.3911ZM38.9844 26.3911C38.9844 27.5288 39.176 28.173 40.0221 29.0098C42.1566 31.1209 45.6876 29.3472 45.6876 26.6959C45.6876 24.562 44.1953 23.2427 42.1329 23.2427C40.4929 23.2427 38.9844 24.7512 38.9844 26.3911Z"/>
</mask>
<path fill-rule="evenodd" clip-rule="evenodd" d="M43.5548 26.3911C43.5548 29.0276 39.9103 27.5386 41.3618 25.7217C41.9869 24.9393 43.5548 25.3367 43.5548 26.3911ZM38.9844 26.3911C38.9844 27.5288 39.176 28.173 40.0221 29.0098C42.1566 31.1209 45.6876 29.3472 45.6876 26.6959C45.6876 24.562 44.1953 23.2427 42.1329 23.2427C40.4929 23.2427 38.9844 24.7512 38.9844 26.3911Z" fill="#0489FF"/>
<path fill-rule="evenodd" clip-rule="evenodd" d="M43.5548 26.3911C43.5548 29.0276 39.9103 27.5386 41.3618 25.7217C41.9869 24.9393 43.5548 25.3367 43.5548 26.3911ZM38.9844 26.3911C38.9844 27.5288 39.176 28.173 40.0221 29.0098C42.1566 31.1209 45.6876 29.3472 45.6876 26.6959C45.6876 24.562 44.1953 23.2427 42.1329 23.2427C40.4929 23.2427 38.9844 24.7512 38.9844 26.3911Z" stroke="#0489FF" stroke-width="0.8" mask="url(#path-3-outside-3_197_1563)"/>
<mask id="path-4-outside-4_197_1563" maskUnits="userSpaceOnUse" x="31.3828" y="28.7427" width="9" height="9" fill="black">
<rect fill="white" x="31.3828" y="28.7427" width="9" height="9"/>
<path fill-rule="evenodd" clip-rule="evenodd" d="M34.5157 33.1959C34.5157 31.2569 37.0548 31.6813 37.0548 32.9927C37.0548 33.7488 36.6004 34.2859 35.8992 34.3826C35.1877 34.4807 34.5157 33.8631 34.5157 33.1959ZM32.3828 33.0942C32.3828 34.761 33.8853 36.4459 35.4298 36.4459C36.5505 36.4459 37.2798 36.3152 38.0981 35.5594C40.1551 33.6591 38.8591 29.7427 35.836 29.7427C33.9651 29.7427 32.3828 31.2567 32.3828 33.0942Z"/>
</mask>
<path fill-rule="evenodd" clip-rule="evenodd" d="M34.5157 33.1959C34.5157 31.2569 37.0548 31.6813 37.0548 32.9927C37.0548 33.7488 36.6004 34.2859 35.8992 34.3826C35.1877 34.4807 34.5157 33.8631 34.5157 33.1959ZM32.3828 33.0942C32.3828 34.761 33.8853 36.4459 35.4298 36.4459C36.5505 36.4459 37.2798 36.3152 38.0981 35.5594C40.1551 33.6591 38.8591 29.7427 35.836 29.7427C33.9651 29.7427 32.3828 31.2567 32.3828 33.0942Z" fill="#0489FF"/>
<path fill-rule="evenodd" clip-rule="evenodd" d="M34.5157 33.1959C34.5157 31.2569 37.0548 31.6813 37.0548 32.9927C37.0548 33.7488 36.6004 34.2859 35.8992 34.3826C35.1877 34.4807 34.5157 33.8631 34.5157 33.1959ZM32.3828 33.0942C32.3828 34.761 33.8853 36.4459 35.4298 36.4459C36.5505 36.4459 37.2798 36.3152 38.0981 35.5594C40.1551 33.6591 38.8591 29.7427 35.836 29.7427C33.9651 29.7427 32.3828 31.2567 32.3828 33.0942Z" stroke="#0489FF" stroke-width="0.8" mask="url(#path-4-outside-4_197_1563)"/>
<mask id="path-5-outside-5_197_1563" maskUnits="userSpaceOnUse" x="24.9844" y="39.5706" width="4" height="4" fill="black">
<rect fill="white" x="24.9844" y="39.5706" width="4" height="4"/>
<path fill-rule="evenodd" clip-rule="evenodd" d="M25.9844 41.524C25.9844 43.0172 28.0156 43.0172 28.0156 41.524C28.0156 40.2528 25.9844 40.2528 25.9844 41.524Z"/>
</mask>
<path fill-rule="evenodd" clip-rule="evenodd" d="M25.9844 41.524C25.9844 43.0172 28.0156 43.0172 28.0156 41.524C28.0156 40.2528 25.9844 40.2528 25.9844 41.524Z" fill="#0489FF"/>
<path fill-rule="evenodd" clip-rule="evenodd" d="M25.9844 41.524C25.9844 43.0172 28.0156 43.0172 28.0156 41.524C28.0156 40.2528 25.9844 40.2528 25.9844 41.524Z" stroke="#0489FF" stroke-width="0.8" mask="url(#path-5-outside-5_197_1563)"/>
</svg>
