<svg width="53" height="53" viewBox="0 0 53 53" fill="none" xmlns="http://www.w3.org/2000/svg">
<path d="M50.7718 48.5504H50.7069V14.4827C50.7069 13.261 49.7447 12.2663 48.5013 12.2771C47.2796 12.2771 46.2957 13.261 46.2957 14.4827V48.5504H35.1381V24.7755C35.1381 23.5537 34.1542 22.5591 32.9325 22.5699C31.7107 22.5699 30.7269 23.5537 30.7269 24.7755V48.5504H19.5692V31.2625C19.5692 30.0408 18.5961 29.0461 17.3636 29.0569C16.1419 29.0569 15.158 30.0408 15.158 31.2625V48.5396H4.4328V3.10879C4.4328 1.88706 3.47056 0.903198 2.22721 0.903198C0.994677 0.903198 0 1.89788 0 3.1196V50.7668C0.0324351 52.475 1.54607 53.0589 2.20559 52.9724H50.761C51.9827 52.9724 52.9666 51.9885 52.9666 50.7668C52.9774 49.5451 52.0043 48.5612 50.7718 48.5504V48.5504Z" fill="#0489FF"/>
<path d="M12.0006 20.3318C12.1088 20.3427 12.2277 20.3427 12.3466 20.3318C12.7034 20.2994 20.996 19.4453 41.4193 8.77413L40.9328 10.7635C40.6409 11.9528 41.3869 13.1096 42.5545 13.434C43.8411 13.7908 44.9655 12.8718 45.225 11.8122L47.009 4.48188C47.3982 2.76282 45.9386 1.88707 45.3764 1.81139L37.9488 0.0598938C36.7703 -0.221211 35.5702 0.513986 35.2891 1.70327C35.008 2.89256 35.7432 4.08185 36.9325 4.36295L39.2894 4.92516C20.0121 14.9801 12.0871 15.9315 11.9358 15.9531C10.7249 16.072 9.83831 17.1424 9.94642 18.3425C10.0437 19.4237 10.9303 20.267 12.0006 20.3318Z" fill="#0489FF"/>
</svg>
