<svg width="57" height="57" viewBox="0 0 57 57" fill="none" xmlns="http://www.w3.org/2000/svg">
<path d="M22.0363 48.8957C22.0345 47.2294 22.5825 45.6091 23.5952 44.2858C24.6079 42.9626 26.0288 42.0103 27.6377 41.5767C29.2466 41.143 30.9536 41.2521 32.4941 41.8871C34.0347 42.5221 35.3228 43.6475 36.1588 45.089C41.9157 42.5493 44.0725 38.5635 44.0725 30.9885V22.7249C44.0725 11.7288 37.8721 4.1318 28.234 4.1318C18.5958 4.1318 12.3954 11.7316 12.3954 22.7249V32.3658C12.3947 32.9135 12.1768 33.4385 11.7895 33.8258C11.4022 34.213 10.8772 34.4309 10.3295 34.4317H7.57497C5.56711 34.4295 3.64207 33.6311 2.22204 32.2116C0.802015 30.7921 0.00291615 28.8673 0 26.8595L0 24.1049C0.00218589 22.0963 0.800875 20.1706 2.2209 18.75C3.64093 17.3295 5.56638 16.5301 7.57497 16.5272H8.89163C10.9768 6.69076 18.1138 0 28.234 0C38.3541 0 45.4884 6.69076 47.5735 16.5272H48.8902C50.8983 16.5301 52.8233 17.3291 54.2433 18.7491C55.6632 20.169 56.4623 22.0941 56.4652 24.1022V26.8567C56.463 28.865 55.6642 30.7905 54.2441 32.2106C52.824 33.6307 50.8985 34.4295 48.8902 34.4317H48.0391C47.9328 37.6941 46.8382 40.8474 44.9002 43.4741C42.9622 46.1007 40.2721 48.0768 37.1862 49.1409C37.1537 51.1499 36.3244 53.0637 34.8809 54.4613C33.4373 55.8589 31.4977 56.6258 29.4886 56.5933C27.4796 56.5607 25.5658 55.7315 24.1682 54.2879C22.7706 52.8444 22.0038 50.9047 22.0363 48.8957ZM26.1681 48.8957C26.1681 49.5767 26.37 50.2424 26.7483 50.8086C27.1267 51.3749 27.6644 51.8162 28.2936 52.0768C28.9227 52.3374 29.615 52.4056 30.283 52.2727C30.9509 52.1399 31.5644 51.8119 32.0459 51.3304C32.5275 50.8489 32.8554 50.2354 32.9882 49.5674C33.1211 48.8995 33.0529 48.2072 32.7923 47.5781C32.5317 46.9489 32.0904 46.4112 31.5241 46.0328C30.9579 45.6545 30.2922 45.4525 29.6112 45.4525C28.6983 45.4533 27.8229 45.8163 27.1773 46.4618C26.5318 47.1074 26.1688 47.9828 26.1681 48.8957ZM48.2043 30.3026H48.8902C49.8036 30.3026 50.6797 29.9399 51.3259 29.2943C51.972 28.6487 52.3354 27.7729 52.3361 26.8595V24.1049C52.3361 23.1915 51.9734 22.3154 51.3278 21.6693C50.6822 21.0231 49.8064 20.6597 48.893 20.659H48.2043V30.3026ZM4.1318 24.1049V26.8595C4.13326 27.7719 4.49657 28.6466 5.14206 29.2916C5.78754 29.9365 6.66248 30.2991 7.57497 30.2999H8.2636V20.659H7.57497C6.66153 20.6597 5.78575 21.0231 5.14011 21.6693C4.49447 22.3154 4.1318 23.1915 4.1318 24.1049Z" fill="#0489FF"/>
</svg>
