<svg width="25" height="52" viewBox="0 0 25 52" fill="none" xmlns="http://www.w3.org/2000/svg">
<path d="M20.8587 20.8587L21.2122 21.2123L20.8587 20.8587C19.3996 22.3179 17.6328 23.3501 15.7049 23.8949L15.3409 23.9978V24.3761V31.3703V31.8703H15.8409H17.7971C19.4061 31.8703 20.7122 33.1765 20.7122 34.7855C20.7122 36.3945 19.4061 37.7007 17.7971 37.7007H15.8409H15.3409V38.2007V40.2061V40.7061H15.8409H17.7971C19.4061 40.7061 20.7122 42.0122 20.7122 43.6212C20.7122 45.2302 19.4061 46.5364 17.7971 46.5364H15.8409H15.3409V47.0364V47.8123C15.3409 49.4213 14.0348 50.7275 12.4257 50.7275C10.8167 50.7275 9.51057 49.4213 9.51057 47.8123V43.6212V34.7854V24.376V23.9977L9.14654 23.8949C7.21872 23.3501 5.45207 22.318 3.99296 20.8589C1.74206 18.6027 0.5 15.6095 0.5 12.4257C0.5 9.24168 1.74224 6.24343 3.99245 3.99306C6.24872 1.74209 9.24193 0.5 12.4257 0.5C15.6094 0.5 18.6025 1.74202 20.8588 3.99286C23.1092 6.24326 24.3515 9.2416 24.3515 12.4257C24.3515 15.6099 23.1091 18.6083 20.8587 20.8587ZM12.4257 6.33033C9.06223 6.33033 6.33028 9.06228 6.33028 12.4257C6.33028 15.7834 9.06197 18.5211 12.4257 18.5211C15.7892 18.5211 18.5211 15.7892 18.5211 12.4257C18.5211 9.06228 15.7891 6.33033 12.4257 6.33033Z" fill="#0489FF" stroke="#1F2B72"/>
</svg>
