<svg width="293" height="237" viewBox="0 0 293 237" fill="none" xmlns="http://www.w3.org/2000/svg">
<path d="M0.0820312 234.879C10.6681 235.643 21.254 236.407 31.1638 235.628C41.0736 234.85 50.3072 232.529 58.8765 227.653C67.4461 222.776 75.3513 215.345 79.149 205.229C82.9472 195.114 82.6375 182.315 77.9515 172.358C73.2654 162.401 64.2032 155.287 56.9688 155.055C49.7344 154.824 44.3279 161.475 46.6345 169.493C48.9411 177.51 58.9605 186.894 68.8821 192.369C78.8037 197.843 88.6276 199.409 98.2124 199.147C107.798 198.886 117.144 196.798 126.954 192.255C136.765 187.712 147.038 180.714 156.096 171.356C165.154 161.999 172.994 150.282 178.161 137.056C183.328 123.831 185.821 109.097 183.597 94.1327C181.374 79.1686 174.435 63.974 164.661 51.0905C154.886 38.2068 142.275 27.6337 128.487 21.1575C114.698 14.6814 99.7662 12.8963 88 14C76.2335 15.1037 67.5 19 60.5 25.5C53.9589 32.6296 48.1989 41.535 46 51.0905C43.8011 60.6458 44.6071 71.1809 47.5 81C50.3927 90.8194 57.2071 101.416 68.746 109.631C80.2848 117.847 97.6948 124.077 113.163 125.71C128.631 127.343 142.156 124.379 156.023 119.595C169.888 114.811 184.095 108.208 200.928 97.3801C217.761 86.5527 237.222 71.5015 252.017 56.7704C266.813 42.0396 276.944 27.6287 282.848 18.3212C288.752 9.01373 290.429 4.80911 292.105 0.604492" stroke="white" stroke-width="1.88847" stroke-miterlimit="22.9256" stroke-dasharray="2 3"/>
</svg>
