<svg width="29" height="23" viewBox="0 0 29 23" fill="none" xmlns="http://www.w3.org/2000/svg">
<path d="M25.3898 22.5557C27.3816 22.5557 29 20.9373 29 18.9455V4.05427C29 2.06245 27.3816 0.444092 25.3898 0.444092H3.61018C1.61836 0.444092 0 2.06245 0 4.05427V18.9396C0 20.9314 1.61836 22.5498 3.61018 22.5498H25.3898V22.5557ZM3.69317 5.47107C3.31971 5.15096 3.27228 4.59372 3.5924 4.22026C3.91251 3.84679 4.46975 3.79937 4.84321 4.11948L14.5 12.312L24.1627 4.11355C24.5362 3.79344 25.0993 3.84086 25.4135 4.21433C25.7336 4.58779 25.6862 5.15096 25.3128 5.46515L18.4184 11.3221L25.3483 17.8429C25.704 18.1808 25.7218 18.744 25.3839 19.0996C25.2061 19.2834 24.9749 19.3783 24.7377 19.3783C24.5184 19.3783 24.2991 19.2953 24.1271 19.1352L17.055 12.484L15.0809 14.1616C14.915 14.3039 14.7075 14.375 14.5059 14.375C14.2984 14.375 14.0969 14.3039 13.9309 14.1616L11.9509 12.484L4.87878 19.1411C4.70687 19.3012 4.48753 19.3842 4.26819 19.3842C4.03107 19.3842 3.79395 19.2893 3.62204 19.1056C3.28414 18.7499 3.30192 18.1867 3.6576 17.8488L10.5875 11.3221L3.69317 5.47107Z" fill="#0489FF"/>
</svg>
