<svg width="54" height="54" viewBox="0 0 54 54" fill="none" xmlns="http://www.w3.org/2000/svg">
<mask id="path-1-outside-1_197_1596" maskUnits="userSpaceOnUse" x="0" y="0" width="54" height="54" fill="black">
<rect fill="white" width="54" height="54"/>
<path fill-rule="evenodd" clip-rule="evenodd" d="M42.5934 46.9343C42.5934 42.3072 49.0521 40.9796 50.8603 45.1664C51.3593 46.3213 51.3656 47.527 50.8615 48.7033C49.9779 50.7653 47.4441 51.856 45.1581 50.8686C44.234 50.4695 43.3909 49.6264 42.9917 48.7023C42.8177 48.2994 42.5934 47.4524 42.5934 46.9343ZM18.3306 46.9343C18.3306 46.4163 18.5549 45.5693 18.7289 45.1664C20.5372 40.9796 26.9959 42.3072 26.9959 46.9343C26.9959 48.5353 25.9555 50.2102 24.4312 50.8686C22.1533 51.8525 19.6264 50.7804 18.7289 48.7023C18.5549 48.2994 18.3306 47.4524 18.3306 46.9343ZM14.8645 27.0042C14.8645 23.2417 19.5312 21.2207 22.2558 23.9454C23.4826 25.1721 23.8617 27.0814 23.1314 28.7721C22.7323 29.6963 21.8892 30.5393 20.9651 30.9384C17.8979 32.2632 14.8645 29.9038 14.8645 27.0042ZM26.9959 7.07392C26.9959 6.55585 27.2201 5.70889 27.3942 5.30593C27.5434 4.96061 28.0296 4.25542 28.2698 4.01526C31.5554 0.729587 37.1978 4.36208 35.2629 8.8419C34.8638 9.76603 34.0207 10.6091 33.0965 11.0083C30.8186 11.9921 28.2918 10.92 27.3942 8.8419C27.2201 8.43893 26.9959 7.59199 26.9959 7.07392ZM2.73307 7.07392C2.73307 2.44689 9.19174 1.11932 11 5.30593C11.4988 6.46093 11.5052 7.66663 11.0011 8.84303C10.6081 9.76012 9.74831 10.6133 8.83366 11.0083C7.64927 11.5198 6.48216 11.5198 5.29768 11.0083C3.78065 10.353 2.73307 8.6901 2.73307 7.07392ZM1 6.74906V7.39895C1 10.3506 3.78911 13.1397 6.74083 13.1397C8.56552 13.1397 9.6779 12.8073 10.9823 11.7487C13.2915 9.87448 12.5959 8.10404 13.348 7.94049C13.5013 7.90716 14.4178 7.9403 14.6478 7.94049H22.2299L21.1726 9.0494L22.3622 10.2997C22.9171 9.93579 24.74 8.0003 25.2629 7.39895C25.2629 10.3506 28.052 13.1397 31.0036 13.1397C32.9109 13.1397 34.309 12.6876 35.5281 11.4902C37.5236 9.53028 36.9999 7.94049 37.6109 7.94049C41.3813 7.94049 44.812 7.50325 47.8177 9.97333C48.7489 10.7386 48.7018 10.6745 49.5112 11.746C49.9126 12.2775 50.092 12.6381 50.394 13.2462C50.6255 13.7124 50.837 14.3274 50.9783 14.9364C51.4283 16.8756 51.2872 18.5524 50.595 20.3831C49.5647 23.1078 46.9988 25.2665 44.0847 25.8958C42.0341 26.3388 31.2437 26.1376 28.2957 26.1376L29.4025 24.9694L28.1028 23.7307C27.7656 24.2229 25.94 25.9002 25.2629 26.6792C25.2629 23.7275 22.4737 20.9384 19.522 20.9384C17.6544 20.9384 16.2615 21.3719 15.0517 22.5337C14.5081 23.0557 14.2649 23.3999 13.8669 24.0568C13.3434 24.9206 13.3286 25.7266 13.1314 26.1376C10.4578 26.1376 8.47069 26.2596 6.28491 27.6314C5.76656 27.9568 5.07856 28.4056 4.65344 28.8162C2.70537 30.6975 1 33.3181 1 36.3193C1 38.7867 1.10243 39.7725 2.22626 42.0254C3.49796 44.5745 5.70694 46.2755 8.36497 47.2597C9.9403 47.843 11.4218 47.8008 13.5646 47.8008L12.5073 48.9098L13.6969 50.1601C14.2518 49.7962 16.0748 47.8607 16.5976 47.2593C16.5976 50.2109 19.3867 53 22.3383 53C25.3751 53 27.4575 51.5439 28.419 48.899C28.5252 48.607 28.6127 48.0432 28.7289 47.8008H37.8275L36.7701 48.9098L37.9598 50.1601C38.5146 49.7962 40.3376 47.8607 40.8603 47.2593C40.8603 50.2109 43.6494 53 46.6011 53H47.251C50.2027 53 52.9918 50.2109 52.9918 47.2593V46.6094C52.9918 43.6577 50.2027 40.8686 47.251 40.8686H46.6011C43.6494 40.8686 40.8603 43.6577 40.8603 46.6094C40.3376 46.0079 38.5146 44.0725 37.9358 43.6848L36.7702 44.9021L37.8512 46.0444L28.7289 46.0678C28.424 45.432 28.5476 44.1728 26.8629 42.5181C23.2176 38.9377 16.5976 41.558 16.5976 46.6094C16.0748 46.0079 14.2518 44.0725 13.673 43.6848L12.5075 44.9021L13.5884 46.0444C11.7461 46.0678 10.4671 46.0561 9.05458 45.5953C8.34019 45.3623 7.93253 45.1677 7.31738 44.8412C6.7504 44.5404 6.33852 44.1532 5.87331 43.7941C5.39439 43.4245 5.05358 42.9907 4.66779 42.5083C3.92721 41.5824 3.32849 40.3707 3.03378 39.1597C1.96422 34.7648 4.15349 30.4662 8.2572 28.6289C9.6978 27.984 11.1576 27.8707 12.9147 27.8707C13.3291 27.8707 13.2379 28.3036 13.3604 28.7247C14.0589 31.1249 16.3489 33.0698 18.8722 33.0698H19.522C22.4737 33.0698 25.2629 30.2807 25.2629 27.3291C25.9351 28.1025 27.7692 29.7908 28.079 30.2536L29.4049 28.9798L28.2699 27.8965L41.4019 27.8707C43.2324 27.8707 43.9406 27.8117 45.3893 27.4171C49.4182 26.32 52.9918 21.9661 52.9918 17.4723C52.9918 15.6135 52.8819 14.5162 52.1886 12.8595C50.8254 9.60173 48.1185 7.35689 44.6954 6.48834C43.1565 6.09786 40.0375 6.18189 38.1461 6.21381C36.9984 6.23315 37.5406 6.29474 37.0244 4.95253C36.583 3.80495 35.9657 2.94082 35.0601 2.2592C30.9545 -0.830996 25.2629 2.18831 25.2629 6.74906C24.74 6.14753 22.9171 4.21204 22.3383 3.82448L21.1728 5.04182L22.2536 6.18405L14.7562 6.20743C12.7211 6.20799 13.1512 6.36826 12.9497 5.52262C12.3659 3.07226 9.93167 1.00825 7.39071 1.00825H6.74083C3.78911 1.00825 1 3.79734 1 6.74906Z"/>
</mask>
<path fill-rule="evenodd" clip-rule="evenodd" d="M42.5934 46.9343C42.5934 42.3072 49.0521 40.9796 50.8603 45.1664C51.3593 46.3213 51.3656 47.527 50.8615 48.7033C49.9779 50.7653 47.4441 51.856 45.1581 50.8686C44.234 50.4695 43.3909 49.6264 42.9917 48.7023C42.8177 48.2994 42.5934 47.4524 42.5934 46.9343ZM18.3306 46.9343C18.3306 46.4163 18.5549 45.5693 18.7289 45.1664C20.5372 40.9796 26.9959 42.3072 26.9959 46.9343C26.9959 48.5353 25.9555 50.2102 24.4312 50.8686C22.1533 51.8525 19.6264 50.7804 18.7289 48.7023C18.5549 48.2994 18.3306 47.4524 18.3306 46.9343ZM14.8645 27.0042C14.8645 23.2417 19.5312 21.2207 22.2558 23.9454C23.4826 25.1721 23.8617 27.0814 23.1314 28.7721C22.7323 29.6963 21.8892 30.5393 20.9651 30.9384C17.8979 32.2632 14.8645 29.9038 14.8645 27.0042ZM26.9959 7.07392C26.9959 6.55585 27.2201 5.70889 27.3942 5.30593C27.5434 4.96061 28.0296 4.25542 28.2698 4.01526C31.5554 0.729587 37.1978 4.36208 35.2629 8.8419C34.8638 9.76603 34.0207 10.6091 33.0965 11.0083C30.8186 11.9921 28.2918 10.92 27.3942 8.8419C27.2201 8.43893 26.9959 7.59199 26.9959 7.07392ZM2.73307 7.07392C2.73307 2.44689 9.19174 1.11932 11 5.30593C11.4988 6.46093 11.5052 7.66663 11.0011 8.84303C10.6081 9.76012 9.74831 10.6133 8.83366 11.0083C7.64927 11.5198 6.48216 11.5198 5.29768 11.0083C3.78065 10.353 2.73307 8.6901 2.73307 7.07392ZM1 6.74906V7.39895C1 10.3506 3.78911 13.1397 6.74083 13.1397C8.56552 13.1397 9.6779 12.8073 10.9823 11.7487C13.2915 9.87448 12.5959 8.10404 13.348 7.94049C13.5013 7.90716 14.4178 7.9403 14.6478 7.94049H22.2299L21.1726 9.0494L22.3622 10.2997C22.9171 9.93579 24.74 8.0003 25.2629 7.39895C25.2629 10.3506 28.052 13.1397 31.0036 13.1397C32.9109 13.1397 34.309 12.6876 35.5281 11.4902C37.5236 9.53028 36.9999 7.94049 37.6109 7.94049C41.3813 7.94049 44.812 7.50325 47.8177 9.97333C48.7489 10.7386 48.7018 10.6745 49.5112 11.746C49.9126 12.2775 50.092 12.6381 50.394 13.2462C50.6255 13.7124 50.837 14.3274 50.9783 14.9364C51.4283 16.8756 51.2872 18.5524 50.595 20.3831C49.5647 23.1078 46.9988 25.2665 44.0847 25.8958C42.0341 26.3388 31.2437 26.1376 28.2957 26.1376L29.4025 24.9694L28.1028 23.7307C27.7656 24.2229 25.94 25.9002 25.2629 26.6792C25.2629 23.7275 22.4737 20.9384 19.522 20.9384C17.6544 20.9384 16.2615 21.3719 15.0517 22.5337C14.5081 23.0557 14.2649 23.3999 13.8669 24.0568C13.3434 24.9206 13.3286 25.7266 13.1314 26.1376C10.4578 26.1376 8.47069 26.2596 6.28491 27.6314C5.76656 27.9568 5.07856 28.4056 4.65344 28.8162C2.70537 30.6975 1 33.3181 1 36.3193C1 38.7867 1.10243 39.7725 2.22626 42.0254C3.49796 44.5745 5.70694 46.2755 8.36497 47.2597C9.9403 47.843 11.4218 47.8008 13.5646 47.8008L12.5073 48.9098L13.6969 50.1601C14.2518 49.7962 16.0748 47.8607 16.5976 47.2593C16.5976 50.2109 19.3867 53 22.3383 53C25.3751 53 27.4575 51.5439 28.419 48.899C28.5252 48.607 28.6127 48.0432 28.7289 47.8008H37.8275L36.7701 48.9098L37.9598 50.1601C38.5146 49.7962 40.3376 47.8607 40.8603 47.2593C40.8603 50.2109 43.6494 53 46.6011 53H47.251C50.2027 53 52.9918 50.2109 52.9918 47.2593V46.6094C52.9918 43.6577 50.2027 40.8686 47.251 40.8686H46.6011C43.6494 40.8686 40.8603 43.6577 40.8603 46.6094C40.3376 46.0079 38.5146 44.0725 37.9358 43.6848L36.7702 44.9021L37.8512 46.0444L28.7289 46.0678C28.424 45.432 28.5476 44.1728 26.8629 42.5181C23.2176 38.9377 16.5976 41.558 16.5976 46.6094C16.0748 46.0079 14.2518 44.0725 13.673 43.6848L12.5075 44.9021L13.5884 46.0444C11.7461 46.0678 10.4671 46.0561 9.05458 45.5953C8.34019 45.3623 7.93253 45.1677 7.31738 44.8412C6.7504 44.5404 6.33852 44.1532 5.87331 43.7941C5.39439 43.4245 5.05358 42.9907 4.66779 42.5083C3.92721 41.5824 3.32849 40.3707 3.03378 39.1597C1.96422 34.7648 4.15349 30.4662 8.2572 28.6289C9.6978 27.984 11.1576 27.8707 12.9147 27.8707C13.3291 27.8707 13.2379 28.3036 13.3604 28.7247C14.0589 31.1249 16.3489 33.0698 18.8722 33.0698H19.522C22.4737 33.0698 25.2629 30.2807 25.2629 27.3291C25.9351 28.1025 27.7692 29.7908 28.079 30.2536L29.4049 28.9798L28.2699 27.8965L41.4019 27.8707C43.2324 27.8707 43.9406 27.8117 45.3893 27.4171C49.4182 26.32 52.9918 21.9661 52.9918 17.4723C52.9918 15.6135 52.8819 14.5162 52.1886 12.8595C50.8254 9.60173 48.1185 7.35689 44.6954 6.48834C43.1565 6.09786 40.0375 6.18189 38.1461 6.21381C36.9984 6.23315 37.5406 6.29474 37.0244 4.95253C36.583 3.80495 35.9657 2.94082 35.0601 2.2592C30.9545 -0.830996 25.2629 2.18831 25.2629 6.74906C24.74 6.14753 22.9171 4.21204 22.3383 3.82448L21.1728 5.04182L22.2536 6.18405L14.7562 6.20743C12.7211 6.20799 13.1512 6.36826 12.9497 5.52262C12.3659 3.07226 9.93167 1.00825 7.39071 1.00825H6.74083C3.78911 1.00825 1 3.79734 1 6.74906Z" fill="#0489FF"/>
<path fill-rule="evenodd" clip-rule="evenodd" d="M42.5934 46.9343C42.5934 42.3072 49.0521 40.9796 50.8603 45.1664C51.3593 46.3213 51.3656 47.527 50.8615 48.7033C49.9779 50.7653 47.4441 51.856 45.1581 50.8686C44.234 50.4695 43.3909 49.6264 42.9917 48.7023C42.8177 48.2994 42.5934 47.4524 42.5934 46.9343ZM18.3306 46.9343C18.3306 46.4163 18.5549 45.5693 18.7289 45.1664C20.5372 40.9796 26.9959 42.3072 26.9959 46.9343C26.9959 48.5353 25.9555 50.2102 24.4312 50.8686C22.1533 51.8525 19.6264 50.7804 18.7289 48.7023C18.5549 48.2994 18.3306 47.4524 18.3306 46.9343ZM14.8645 27.0042C14.8645 23.2417 19.5312 21.2207 22.2558 23.9454C23.4826 25.1721 23.8617 27.0814 23.1314 28.7721C22.7323 29.6963 21.8892 30.5393 20.9651 30.9384C17.8979 32.2632 14.8645 29.9038 14.8645 27.0042ZM26.9959 7.07392C26.9959 6.55585 27.2201 5.70889 27.3942 5.30593C27.5434 4.96061 28.0296 4.25542 28.2698 4.01526C31.5554 0.729587 37.1978 4.36208 35.2629 8.8419C34.8638 9.76603 34.0207 10.6091 33.0965 11.0083C30.8186 11.9921 28.2918 10.92 27.3942 8.8419C27.2201 8.43893 26.9959 7.59199 26.9959 7.07392ZM2.73307 7.07392C2.73307 2.44689 9.19174 1.11932 11 5.30593C11.4988 6.46093 11.5052 7.66663 11.0011 8.84303C10.6081 9.76012 9.74831 10.6133 8.83366 11.0083C7.64927 11.5198 6.48216 11.5198 5.29768 11.0083C3.78065 10.353 2.73307 8.6901 2.73307 7.07392ZM1 6.74906V7.39895C1 10.3506 3.78911 13.1397 6.74083 13.1397C8.56552 13.1397 9.6779 12.8073 10.9823 11.7487C13.2915 9.87448 12.5959 8.10404 13.348 7.94049C13.5013 7.90716 14.4178 7.9403 14.6478 7.94049H22.2299L21.1726 9.0494L22.3622 10.2997C22.9171 9.93579 24.74 8.0003 25.2629 7.39895C25.2629 10.3506 28.052 13.1397 31.0036 13.1397C32.9109 13.1397 34.309 12.6876 35.5281 11.4902C37.5236 9.53028 36.9999 7.94049 37.6109 7.94049C41.3813 7.94049 44.812 7.50325 47.8177 9.97333C48.7489 10.7386 48.7018 10.6745 49.5112 11.746C49.9126 12.2775 50.092 12.6381 50.394 13.2462C50.6255 13.7124 50.837 14.3274 50.9783 14.9364C51.4283 16.8756 51.2872 18.5524 50.595 20.3831C49.5647 23.1078 46.9988 25.2665 44.0847 25.8958C42.0341 26.3388 31.2437 26.1376 28.2957 26.1376L29.4025 24.9694L28.1028 23.7307C27.7656 24.2229 25.94 25.9002 25.2629 26.6792C25.2629 23.7275 22.4737 20.9384 19.522 20.9384C17.6544 20.9384 16.2615 21.3719 15.0517 22.5337C14.5081 23.0557 14.2649 23.3999 13.8669 24.0568C13.3434 24.9206 13.3286 25.7266 13.1314 26.1376C10.4578 26.1376 8.47069 26.2596 6.28491 27.6314C5.76656 27.9568 5.07856 28.4056 4.65344 28.8162C2.70537 30.6975 1 33.3181 1 36.3193C1 38.7867 1.10243 39.7725 2.22626 42.0254C3.49796 44.5745 5.70694 46.2755 8.36497 47.2597C9.9403 47.843 11.4218 47.8008 13.5646 47.8008L12.5073 48.9098L13.6969 50.1601C14.2518 49.7962 16.0748 47.8607 16.5976 47.2593C16.5976 50.2109 19.3867 53 22.3383 53C25.3751 53 27.4575 51.5439 28.419 48.899C28.5252 48.607 28.6127 48.0432 28.7289 47.8008H37.8275L36.7701 48.9098L37.9598 50.1601C38.5146 49.7962 40.3376 47.8607 40.8603 47.2593C40.8603 50.2109 43.6494 53 46.6011 53H47.251C50.2027 53 52.9918 50.2109 52.9918 47.2593V46.6094C52.9918 43.6577 50.2027 40.8686 47.251 40.8686H46.6011C43.6494 40.8686 40.8603 43.6577 40.8603 46.6094C40.3376 46.0079 38.5146 44.0725 37.9358 43.6848L36.7702 44.9021L37.8512 46.0444L28.7289 46.0678C28.424 45.432 28.5476 44.1728 26.8629 42.5181C23.2176 38.9377 16.5976 41.558 16.5976 46.6094C16.0748 46.0079 14.2518 44.0725 13.673 43.6848L12.5075 44.9021L13.5884 46.0444C11.7461 46.0678 10.4671 46.0561 9.05458 45.5953C8.34019 45.3623 7.93253 45.1677 7.31738 44.8412C6.7504 44.5404 6.33852 44.1532 5.87331 43.7941C5.39439 43.4245 5.05358 42.9907 4.66779 42.5083C3.92721 41.5824 3.32849 40.3707 3.03378 39.1597C1.96422 34.7648 4.15349 30.4662 8.2572 28.6289C9.6978 27.984 11.1576 27.8707 12.9147 27.8707C13.3291 27.8707 13.2379 28.3036 13.3604 28.7247C14.0589 31.1249 16.3489 33.0698 18.8722 33.0698H19.522C22.4737 33.0698 25.2629 30.2807 25.2629 27.3291C25.9351 28.1025 27.7692 29.7908 28.079 30.2536L29.4049 28.9798L28.2699 27.8965L41.4019 27.8707C43.2324 27.8707 43.9406 27.8117 45.3893 27.4171C49.4182 26.32 52.9918 21.9661 52.9918 17.4723C52.9918 15.6135 52.8819 14.5162 52.1886 12.8595C50.8254 9.60173 48.1185 7.35689 44.6954 6.48834C43.1565 6.09786 40.0375 6.18189 38.1461 6.21381C36.9984 6.23315 37.5406 6.29474 37.0244 4.95253C36.583 3.80495 35.9657 2.94082 35.0601 2.2592C30.9545 -0.830996 25.2629 2.18831 25.2629 6.74906C24.74 6.14753 22.9171 4.21204 22.3383 3.82448L21.1728 5.04182L22.2536 6.18405L14.7562 6.20743C12.7211 6.20799 13.1512 6.36826 12.9497 5.52262C12.3659 3.07226 9.93167 1.00825 7.39071 1.00825H6.74083C3.78911 1.00825 1 3.79734 1 6.74906Z" stroke="#0489FF" stroke-width="0.8" mask="url(#path-1-outside-1_197_1596)"/>
</svg>
