<svg width="41" height="49" viewBox="0 0 41 49" fill="none" xmlns="http://www.w3.org/2000/svg">
<path d="M35.6878 35.2369L27.3752 31.3953C26.5912 31.0325 26.1042 30.3039 26.1042 29.4931V26.7735C26.3034 26.5483 26.5131 26.2917 26.7296 26.0086C27.8077 24.601 28.6719 23.034 29.3 21.344C30.5278 20.8236 31.3248 19.7015 31.3248 18.4347V15.2173C31.3248 14.4425 31.0116 13.6921 30.4546 13.1058V8.8273C30.5035 8.38507 30.6949 5.75143 28.6343 3.57884C26.8471 1.69439 23.9471 0.73877 20.0131 0.73877C16.0793 0.73877 13.1791 1.69441 11.3919 3.5781C9.33129 5.7507 9.52272 8.38507 9.57158 8.8273V13.1058C9.01459 13.6921 8.70139 14.4425 8.70139 15.2173V18.4347C8.70139 19.4136 9.18271 20.3264 10.004 20.9355C10.8011 23.8528 12.469 26.0512 13.0521 26.7565V29.4182C13.0521 30.1969 12.5926 30.911 11.8539 31.2843L4.09137 35.1983C1.56724 36.4717 0 38.9121 0 41.5697V44.1741C0 47.9916 13.0912 49.0003 20.0131 49.0003C26.935 49.0003 40.0262 47.9916 40.0262 44.1741V41.7266C40.0262 38.9612 38.3632 36.4741 35.6878 35.2369Z" fill="white"/>
</svg>
