<svg width="54" height="54" viewBox="0 0 54 54" fill="none" xmlns="http://www.w3.org/2000/svg">
<mask id="path-1-outside-1_197_1573" maskUnits="userSpaceOnUse" x="0" y="0" width="54" height="54" fill="black">
<rect fill="white" width="54" height="54"/>
<path fill-rule="evenodd" clip-rule="evenodd" d="M15.0156 20.6015C15.0156 22.1499 18.1028 26.6682 19.1043 27.7864C19.3204 28.0279 19.4005 28.1581 19.6121 28.3957C19.8455 28.6578 19.93 28.8126 20.1688 29.0578C20.5756 29.4756 20.8131 29.8068 21.2368 30.2242L24.6885 33.5771C25.9418 34.6909 28.6006 36.7695 29.9439 37.4624L31.3998 38.2407C34.0086 39.5444 34.0173 38.924 36.9278 36.0137C37.9622 34.9793 39.3703 33.1953 40.8126 33.1953C41.9669 33.1953 42.8565 34.2744 43.4785 34.8965C44.6232 36.0412 49.6104 40.7144 49.9706 41.8114C50.4106 43.1524 49.7268 44.0396 48.963 44.799C48.1114 45.6456 45.0997 48.8035 44.4851 49.2585C40.7505 52.0235 33.7523 48.9113 30.2839 47.1771L27.2619 45.5272C24.5228 43.9172 22.8919 42.7154 20.4129 40.6965C19.1455 39.6643 17.8395 38.5532 16.7668 37.3347L14.4813 34.9484C13.094 33.5235 9.55986 28.7049 8.51968 26.8944C7.33815 24.8378 6.36777 23.0019 5.42532 20.6451C4.13068 17.4075 2.20749 11.7882 5.34133 8.69287C5.90859 8.13259 9.54655 4.37674 10.0033 4.11279C12.2684 2.80398 13.4771 4.79349 15.5996 6.91605C16.6401 7.95645 17.6061 8.92246 18.6465 9.96286C20.6782 11.9947 21.8697 13.0164 19.3071 15.5493L16.1581 18.5957C15.631 19.1241 15.0156 19.5879 15.0156 20.6015ZM1 12.375C1 16.3744 1.53727 18.1842 2.91524 21.6317C3.39699 22.8371 3.85201 23.8682 4.41927 25.0026L6.17952 28.2189C7.52215 30.234 8.60868 32.075 10.2186 34.0314L13.0083 37.3355C13.2868 37.6138 13.3385 37.6829 13.5787 37.9839C14.1604 38.7131 17.1472 41.4907 17.9909 42.2045L20.0644 43.8887C22.421 45.6395 23.507 46.3922 25.9401 47.8647C29.1602 49.8133 35.5392 53 40.5078 53C42.5145 53 43.9521 52.7749 45.5055 51.8024C46.0878 51.4379 46.5088 51.1169 46.9826 50.6389C47.226 50.3934 47.3969 50.2224 47.643 49.979C47.9513 49.6743 48.0347 49.5228 48.3036 49.2175C50.5792 46.6334 52.7969 45.7708 52.7969 42.3359C52.7969 41.2246 52.1834 39.8807 51.553 39.2126C49.5951 37.1378 46.89 34.293 44.8509 32.4069L43.21 31.1026C40.6988 29.5855 38.178 30.8872 36.3689 32.7126L33.0937 36.0391C32.2716 35.604 31.4495 35.1887 30.6609 34.7141C30.2832 34.4868 29.8832 34.2177 29.5094 33.9358L23.4302 28.6401L20.7731 25.5082C19.4198 23.8507 18.8174 22.6153 17.8594 20.8047C18.2711 20.1898 21.2075 17.5298 21.8919 16.7122C22.0592 16.5125 22.0683 16.4659 22.2531 16.2608C22.4045 16.0924 22.4927 16.0005 22.6161 15.8114C23.3377 14.7058 23.4453 13.939 23.4453 12.6796C23.4453 11.1025 22.2679 9.71986 21.4395 8.89639C20.4119 7.87476 15.544 2.91665 14.8559 2.37851C13.6054 1.40071 13.0504 1 11.1563 1C8.53877 1 6.551 3.62482 4.78323 5.39259C3.88212 6.29371 2.92548 7.12546 2.24926 8.24133C1.62005 9.27955 1 10.7613 1 12.375Z"/>
</mask>
<path fill-rule="evenodd" clip-rule="evenodd" d="M15.0156 20.6015C15.0156 22.1499 18.1028 26.6682 19.1043 27.7864C19.3204 28.0279 19.4005 28.1581 19.6121 28.3957C19.8455 28.6578 19.93 28.8126 20.1688 29.0578C20.5756 29.4756 20.8131 29.8068 21.2368 30.2242L24.6885 33.5771C25.9418 34.6909 28.6006 36.7695 29.9439 37.4624L31.3998 38.2407C34.0086 39.5444 34.0173 38.924 36.9278 36.0137C37.9622 34.9793 39.3703 33.1953 40.8126 33.1953C41.9669 33.1953 42.8565 34.2744 43.4785 34.8965C44.6232 36.0412 49.6104 40.7144 49.9706 41.8114C50.4106 43.1524 49.7268 44.0396 48.963 44.799C48.1114 45.6456 45.0997 48.8035 44.4851 49.2585C40.7505 52.0235 33.7523 48.9113 30.2839 47.1771L27.2619 45.5272C24.5228 43.9172 22.8919 42.7154 20.4129 40.6965C19.1455 39.6643 17.8395 38.5532 16.7668 37.3347L14.4813 34.9484C13.094 33.5235 9.55986 28.7049 8.51968 26.8944C7.33815 24.8378 6.36777 23.0019 5.42532 20.6451C4.13068 17.4075 2.20749 11.7882 5.34133 8.69287C5.90859 8.13259 9.54655 4.37674 10.0033 4.11279C12.2684 2.80398 13.4771 4.79349 15.5996 6.91605C16.6401 7.95645 17.6061 8.92246 18.6465 9.96286C20.6782 11.9947 21.8697 13.0164 19.3071 15.5493L16.1581 18.5957C15.631 19.1241 15.0156 19.5879 15.0156 20.6015ZM1 12.375C1 16.3744 1.53727 18.1842 2.91524 21.6317C3.39699 22.8371 3.85201 23.8682 4.41927 25.0026L6.17952 28.2189C7.52215 30.234 8.60868 32.075 10.2186 34.0314L13.0083 37.3355C13.2868 37.6138 13.3385 37.6829 13.5787 37.9839C14.1604 38.7131 17.1472 41.4907 17.9909 42.2045L20.0644 43.8887C22.421 45.6395 23.507 46.3922 25.9401 47.8647C29.1602 49.8133 35.5392 53 40.5078 53C42.5145 53 43.9521 52.7749 45.5055 51.8024C46.0878 51.4379 46.5088 51.1169 46.9826 50.6389C47.226 50.3934 47.3969 50.2224 47.643 49.979C47.9513 49.6743 48.0347 49.5228 48.3036 49.2175C50.5792 46.6334 52.7969 45.7708 52.7969 42.3359C52.7969 41.2246 52.1834 39.8807 51.553 39.2126C49.5951 37.1378 46.89 34.293 44.8509 32.4069L43.21 31.1026C40.6988 29.5855 38.178 30.8872 36.3689 32.7126L33.0937 36.0391C32.2716 35.604 31.4495 35.1887 30.6609 34.7141C30.2832 34.4868 29.8832 34.2177 29.5094 33.9358L23.4302 28.6401L20.7731 25.5082C19.4198 23.8507 18.8174 22.6153 17.8594 20.8047C18.2711 20.1898 21.2075 17.5298 21.8919 16.7122C22.0592 16.5125 22.0683 16.4659 22.2531 16.2608C22.4045 16.0924 22.4927 16.0005 22.6161 15.8114C23.3377 14.7058 23.4453 13.939 23.4453 12.6796C23.4453 11.1025 22.2679 9.71986 21.4395 8.89639C20.4119 7.87476 15.544 2.91665 14.8559 2.37851C13.6054 1.40071 13.0504 1 11.1563 1C8.53877 1 6.551 3.62482 4.78323 5.39259C3.88212 6.29371 2.92548 7.12546 2.24926 8.24133C1.62005 9.27955 1 10.7613 1 12.375Z" fill="#0489FF"/>
<path fill-rule="evenodd" clip-rule="evenodd" d="M15.0156 20.6015C15.0156 22.1499 18.1028 26.6682 19.1043 27.7864C19.3204 28.0279 19.4005 28.1581 19.6121 28.3957C19.8455 28.6578 19.93 28.8126 20.1688 29.0578C20.5756 29.4756 20.8131 29.8068 21.2368 30.2242L24.6885 33.5771C25.9418 34.6909 28.6006 36.7695 29.9439 37.4624L31.3998 38.2407C34.0086 39.5444 34.0173 38.924 36.9278 36.0137C37.9622 34.9793 39.3703 33.1953 40.8126 33.1953C41.9669 33.1953 42.8565 34.2744 43.4785 34.8965C44.6232 36.0412 49.6104 40.7144 49.9706 41.8114C50.4106 43.1524 49.7268 44.0396 48.963 44.799C48.1114 45.6456 45.0997 48.8035 44.4851 49.2585C40.7505 52.0235 33.7523 48.9113 30.2839 47.1771L27.2619 45.5272C24.5228 43.9172 22.8919 42.7154 20.4129 40.6965C19.1455 39.6643 17.8395 38.5532 16.7668 37.3347L14.4813 34.9484C13.094 33.5235 9.55986 28.7049 8.51968 26.8944C7.33815 24.8378 6.36777 23.0019 5.42532 20.6451C4.13068 17.4075 2.20749 11.7882 5.34133 8.69287C5.90859 8.13259 9.54655 4.37674 10.0033 4.11279C12.2684 2.80398 13.4771 4.79349 15.5996 6.91605C16.6401 7.95645 17.6061 8.92246 18.6465 9.96286C20.6782 11.9947 21.8697 13.0164 19.3071 15.5493L16.1581 18.5957C15.631 19.1241 15.0156 19.5879 15.0156 20.6015ZM1 12.375C1 16.3744 1.53727 18.1842 2.91524 21.6317C3.39699 22.8371 3.85201 23.8682 4.41927 25.0026L6.17952 28.2189C7.52215 30.234 8.60868 32.075 10.2186 34.0314L13.0083 37.3355C13.2868 37.6138 13.3385 37.6829 13.5787 37.9839C14.1604 38.7131 17.1472 41.4907 17.9909 42.2045L20.0644 43.8887C22.421 45.6395 23.507 46.3922 25.9401 47.8647C29.1602 49.8133 35.5392 53 40.5078 53C42.5145 53 43.9521 52.7749 45.5055 51.8024C46.0878 51.4379 46.5088 51.1169 46.9826 50.6389C47.226 50.3934 47.3969 50.2224 47.643 49.979C47.9513 49.6743 48.0347 49.5228 48.3036 49.2175C50.5792 46.6334 52.7969 45.7708 52.7969 42.3359C52.7969 41.2246 52.1834 39.8807 51.553 39.2126C49.5951 37.1378 46.89 34.293 44.8509 32.4069L43.21 31.1026C40.6988 29.5855 38.178 30.8872 36.3689 32.7126L33.0937 36.0391C32.2716 35.604 31.4495 35.1887 30.6609 34.7141C30.2832 34.4868 29.8832 34.2177 29.5094 33.9358L23.4302 28.6401L20.7731 25.5082C19.4198 23.8507 18.8174 22.6153 17.8594 20.8047C18.2711 20.1898 21.2075 17.5298 21.8919 16.7122C22.0592 16.5125 22.0683 16.4659 22.2531 16.2608C22.4045 16.0924 22.4927 16.0005 22.6161 15.8114C23.3377 14.7058 23.4453 13.939 23.4453 12.6796C23.4453 11.1025 22.2679 9.71986 21.4395 8.89639C20.4119 7.87476 15.544 2.91665 14.8559 2.37851C13.6054 1.40071 13.0504 1 11.1563 1C8.53877 1 6.551 3.62482 4.78323 5.39259C3.88212 6.29371 2.92548 7.12546 2.24926 8.24133C1.62005 9.27955 1 10.7613 1 12.375Z" stroke="#0489FF" stroke-width="0.8" mask="url(#path-1-outside-1_197_1573)"/>
</svg>
