<svg width="55" height="54" viewBox="0 0 55 54" fill="none" xmlns="http://www.w3.org/2000/svg">
<mask id="path-1-outside-1_197_1569" maskUnits="userSpaceOnUse" x="0" y="0" width="55" height="54" fill="black">
<rect fill="white" width="55" height="54"/>
<path fill-rule="evenodd" clip-rule="evenodd" d="M3.79683 27.2071C4.94004 27.2071 5.0655 28.4861 5.24705 28.8645C4.77805 28.854 3.87187 28.5716 3.55955 28.3753C2.72918 27.8534 3.53391 27.2071 3.79683 27.2071ZM1 33.1538V32.7928C1.07941 32.482 1.36635 32.2013 1.86759 32.1146C2.86261 31.9422 4.43108 31.5342 4.72908 30.4183C3.61443 30.3255 1.62147 29.3623 1.62147 28.2429C1.62147 27.4523 1.78981 26.7739 2.36892 26.1936C3.49412 25.066 5.18127 25.5975 6.03514 26.7298C6.52566 27.3803 6.80077 28.0767 6.80077 29.1753H7.00795C7.05572 27.0301 8.53329 23.9795 9.72941 22.3668C10.4463 21.4002 13.6706 18.0916 14.8805 18.0916C15.515 18.0916 16.2082 19.0476 14.9908 19.7557C14.3065 20.1537 13.7299 20.6225 13.1186 21.0947C7.64135 25.3244 6.86028 34.9574 11.076 40.6451C11.5249 41.2506 11.9582 41.8248 12.5286 42.3001L13.369 43.0134C15.3114 44.5311 16.3321 44.3915 16.6525 46.0486C16.8264 46.948 16.9862 47.8377 17.168 48.7443C17.3362 49.5831 17.4843 50.514 17.6773 51.3426C17.9096 51.3967 17.9155 51.4462 18.1952 51.4462C21.7341 51.4462 21.7867 51.7931 21.9883 50.6815C22.3066 48.9282 22.172 46.8023 24.1247 47.0627C25.53 47.2502 27.0181 47.1991 28.4502 47.1991C31.064 47.1991 32.9019 46.3243 33.4805 47.5554C33.7551 48.1397 34.2 50.729 34.251 51.3426C35.4123 51.6132 36.8748 51.4462 38.0837 51.4462C38.6677 51.4462 38.9054 48.9436 39.0079 48.4342C39.8494 44.259 39.0059 45.1382 41.8085 43.4658C42.0391 43.328 42.196 43.2049 42.4186 43.0401C43.7384 42.0629 44.8475 41.0558 45.8681 39.7565C47.1928 38.07 46.8181 37.7316 49.02 37.1076C49.5273 36.9639 49.9793 36.7947 50.4236 36.6466C51.4217 36.314 52.482 36.1947 52.482 34.8725C52.482 30.7919 53.0391 30.6551 50.4236 29.7836C48.4055 29.1112 48.1781 28.9221 47.4663 27.0436C46.9042 25.5605 45.4688 23.5928 45.4382 23.478C45.1227 23.7092 44.9739 24.308 44.7596 24.6639C43.0307 27.5338 38.8021 26.7908 36.7112 24.954C35.8212 24.1721 34.8725 22.4254 34.8725 20.7849C34.8725 19.2373 35.0627 18.4391 35.0797 17.6772C34.6876 17.5859 34.0158 17.3986 33.6295 17.3666C33.2903 18.6368 31.0406 19.9074 30.6255 20.4741C30.9919 20.5594 31.4234 20.7029 31.8093 20.8439C32.1567 20.9711 32.49 21.2116 32.49 21.6135C32.49 23.1395 30.1306 21.9876 29.461 21.8457C28.8374 21.7136 28.2353 21.5874 27.6134 21.5181C24.7296 21.1969 21.6446 21.3539 18.9074 22.2221C18.647 22.3047 18.382 22.4422 18.0916 22.4422C17.7985 22.4422 17.3665 22.1134 17.3665 21.8207C17.3665 20.6879 18.2894 20.8763 19.1275 20.4741C18.9449 20.2249 18.5028 19.9739 18.2218 19.7223C17.3401 18.933 16.5874 18.1536 15.9362 17.1395C14.6953 15.2069 14.3625 13.4387 14.3625 10.9442C14.3625 9.55061 14.9349 7.84459 15.3961 6.90205C15.9479 5.77428 16.6415 4.88653 17.496 4.02975C19.4157 2.10522 21.8498 1 25.239 1C28.8517 1 32.9284 3.51092 34.3473 6.81938C34.5707 7.34034 34.2642 7.9402 33.6295 7.9402C32.9783 7.9402 32.9135 7.48784 32.6546 7.05057C31.5456 5.1775 29.9038 3.78757 27.817 3.08335C25.7561 2.38787 23.1396 2.40528 21.1288 3.41565C14.2637 6.86483 14.2853 16.2554 20.7499 19.4732C21.4875 19.8404 21.4748 19.9706 22.3523 19.874C23.0689 19.7951 23.5446 19.7489 24.3068 19.7489C25.1684 19.7489 27.9226 19.9763 28.2456 19.8622C30.2922 19.1396 32.2008 17.338 33.0233 15.3101C33.3411 14.5267 33.6012 13.9513 33.7402 12.9195C33.7865 12.576 33.8129 11.8657 33.9736 11.5989C34.4958 10.732 36.2805 10.851 34.9397 14.844C34.7994 15.262 34.6599 15.4946 34.5618 15.9163C36.0478 16.2625 35.6805 16.4161 37.012 15.7768L39.8005 14.6291C41.1884 14.0965 44.9443 12.4217 45.8869 14.6389C46.2804 15.5644 46.1481 15.8262 46.2956 16.9236C46.3752 17.5155 46.3376 18.648 46.24 19.4112L45.8526 21.7171C46.802 22.3529 48.1611 24.5126 48.606 25.5932C49.3688 27.4463 49.05 27.6387 50.527 28.1263C52.0339 28.6238 54.0358 29.1269 54.0358 31.1434V35.2868C54.0358 35.8686 53.7053 36.5178 53.4329 36.8592C52.6442 37.8478 50.3397 38.4056 49.1072 38.7486C47.7661 39.1218 47.951 39.6881 47.0519 40.8368C46.6941 41.2938 46.4617 41.5322 46.0847 41.9412L45.0493 42.9776C44.3508 43.6919 43.4743 44.2654 42.6425 44.8178C41.325 45.6928 41.2088 45.2782 41.0405 46.3234C40.8664 47.4053 40.2 51.6483 39.7164 52.2502C39.4817 52.5422 38.8707 53 38.3944 53H34.4582C33.5973 53 32.987 52.3724 32.7349 51.7192C32.5771 51.3104 32.5439 50.9211 32.4616 50.4387C32.0363 47.9463 32.4643 48.5615 30.102 48.7474C28.7024 48.8575 27.0097 48.9184 25.6381 48.7682L23.996 48.6494C23.959 49.0943 23.783 49.7221 23.7137 50.128C23.5001 51.3771 23.3427 53 21.6136 53H17.8845C17.3068 53 16.7479 52.6782 16.4726 52.34C15.8392 51.5617 15.5045 48.609 15.3028 47.6055C14.8698 45.4521 15.2906 46.3062 13.72 45.2521C11.3366 43.6526 9.46923 41.5525 8.21505 38.9482C7.02245 36.4717 6.80077 33.7263 6.80077 30.729H6.38648C6.22329 31.4293 5.2281 32.4589 4.6694 32.8447C2.42449 34.3948 1.18026 33.858 1 33.1538ZM41.3984 24.9282C39.848 24.9282 38.7062 24.7651 37.5889 23.5584C35.93 21.7666 36.3287 18.1301 36.9657 17.5952C37.5686 17.089 42.7737 15.1216 44.2988 15.0876C45.1981 16.7874 44.4849 20.9113 44.002 22.3526C43.545 23.7166 43.1989 24.9282 41.3984 24.9282Z"/>
</mask>
<path fill-rule="evenodd" clip-rule="evenodd" d="M3.79683 27.2071C4.94004 27.2071 5.0655 28.4861 5.24705 28.8645C4.77805 28.854 3.87187 28.5716 3.55955 28.3753C2.72918 27.8534 3.53391 27.2071 3.79683 27.2071ZM1 33.1538V32.7928C1.07941 32.482 1.36635 32.2013 1.86759 32.1146C2.86261 31.9422 4.43108 31.5342 4.72908 30.4183C3.61443 30.3255 1.62147 29.3623 1.62147 28.2429C1.62147 27.4523 1.78981 26.7739 2.36892 26.1936C3.49412 25.066 5.18127 25.5975 6.03514 26.7298C6.52566 27.3803 6.80077 28.0767 6.80077 29.1753H7.00795C7.05572 27.0301 8.53329 23.9795 9.72941 22.3668C10.4463 21.4002 13.6706 18.0916 14.8805 18.0916C15.515 18.0916 16.2082 19.0476 14.9908 19.7557C14.3065 20.1537 13.7299 20.6225 13.1186 21.0947C7.64135 25.3244 6.86028 34.9574 11.076 40.6451C11.5249 41.2506 11.9582 41.8248 12.5286 42.3001L13.369 43.0134C15.3114 44.5311 16.3321 44.3915 16.6525 46.0486C16.8264 46.948 16.9862 47.8377 17.168 48.7443C17.3362 49.5831 17.4843 50.514 17.6773 51.3426C17.9096 51.3967 17.9155 51.4462 18.1952 51.4462C21.7341 51.4462 21.7867 51.7931 21.9883 50.6815C22.3066 48.9282 22.172 46.8023 24.1247 47.0627C25.53 47.2502 27.0181 47.1991 28.4502 47.1991C31.064 47.1991 32.9019 46.3243 33.4805 47.5554C33.7551 48.1397 34.2 50.729 34.251 51.3426C35.4123 51.6132 36.8748 51.4462 38.0837 51.4462C38.6677 51.4462 38.9054 48.9436 39.0079 48.4342C39.8494 44.259 39.0059 45.1382 41.8085 43.4658C42.0391 43.328 42.196 43.2049 42.4186 43.0401C43.7384 42.0629 44.8475 41.0558 45.8681 39.7565C47.1928 38.07 46.8181 37.7316 49.02 37.1076C49.5273 36.9639 49.9793 36.7947 50.4236 36.6466C51.4217 36.314 52.482 36.1947 52.482 34.8725C52.482 30.7919 53.0391 30.6551 50.4236 29.7836C48.4055 29.1112 48.1781 28.9221 47.4663 27.0436C46.9042 25.5605 45.4688 23.5928 45.4382 23.478C45.1227 23.7092 44.9739 24.308 44.7596 24.6639C43.0307 27.5338 38.8021 26.7908 36.7112 24.954C35.8212 24.1721 34.8725 22.4254 34.8725 20.7849C34.8725 19.2373 35.0627 18.4391 35.0797 17.6772C34.6876 17.5859 34.0158 17.3986 33.6295 17.3666C33.2903 18.6368 31.0406 19.9074 30.6255 20.4741C30.9919 20.5594 31.4234 20.7029 31.8093 20.8439C32.1567 20.9711 32.49 21.2116 32.49 21.6135C32.49 23.1395 30.1306 21.9876 29.461 21.8457C28.8374 21.7136 28.2353 21.5874 27.6134 21.5181C24.7296 21.1969 21.6446 21.3539 18.9074 22.2221C18.647 22.3047 18.382 22.4422 18.0916 22.4422C17.7985 22.4422 17.3665 22.1134 17.3665 21.8207C17.3665 20.6879 18.2894 20.8763 19.1275 20.4741C18.9449 20.2249 18.5028 19.9739 18.2218 19.7223C17.3401 18.933 16.5874 18.1536 15.9362 17.1395C14.6953 15.2069 14.3625 13.4387 14.3625 10.9442C14.3625 9.55061 14.9349 7.84459 15.3961 6.90205C15.9479 5.77428 16.6415 4.88653 17.496 4.02975C19.4157 2.10522 21.8498 1 25.239 1C28.8517 1 32.9284 3.51092 34.3473 6.81938C34.5707 7.34034 34.2642 7.9402 33.6295 7.9402C32.9783 7.9402 32.9135 7.48784 32.6546 7.05057C31.5456 5.1775 29.9038 3.78757 27.817 3.08335C25.7561 2.38787 23.1396 2.40528 21.1288 3.41565C14.2637 6.86483 14.2853 16.2554 20.7499 19.4732C21.4875 19.8404 21.4748 19.9706 22.3523 19.874C23.0689 19.7951 23.5446 19.7489 24.3068 19.7489C25.1684 19.7489 27.9226 19.9763 28.2456 19.8622C30.2922 19.1396 32.2008 17.338 33.0233 15.3101C33.3411 14.5267 33.6012 13.9513 33.7402 12.9195C33.7865 12.576 33.8129 11.8657 33.9736 11.5989C34.4958 10.732 36.2805 10.851 34.9397 14.844C34.7994 15.262 34.6599 15.4946 34.5618 15.9163C36.0478 16.2625 35.6805 16.4161 37.012 15.7768L39.8005 14.6291C41.1884 14.0965 44.9443 12.4217 45.8869 14.6389C46.2804 15.5644 46.1481 15.8262 46.2956 16.9236C46.3752 17.5155 46.3376 18.648 46.24 19.4112L45.8526 21.7171C46.802 22.3529 48.1611 24.5126 48.606 25.5932C49.3688 27.4463 49.05 27.6387 50.527 28.1263C52.0339 28.6238 54.0358 29.1269 54.0358 31.1434V35.2868C54.0358 35.8686 53.7053 36.5178 53.4329 36.8592C52.6442 37.8478 50.3397 38.4056 49.1072 38.7486C47.7661 39.1218 47.951 39.6881 47.0519 40.8368C46.6941 41.2938 46.4617 41.5322 46.0847 41.9412L45.0493 42.9776C44.3508 43.6919 43.4743 44.2654 42.6425 44.8178C41.325 45.6928 41.2088 45.2782 41.0405 46.3234C40.8664 47.4053 40.2 51.6483 39.7164 52.2502C39.4817 52.5422 38.8707 53 38.3944 53H34.4582C33.5973 53 32.987 52.3724 32.7349 51.7192C32.5771 51.3104 32.5439 50.9211 32.4616 50.4387C32.0363 47.9463 32.4643 48.5615 30.102 48.7474C28.7024 48.8575 27.0097 48.9184 25.6381 48.7682L23.996 48.6494C23.959 49.0943 23.783 49.7221 23.7137 50.128C23.5001 51.3771 23.3427 53 21.6136 53H17.8845C17.3068 53 16.7479 52.6782 16.4726 52.34C15.8392 51.5617 15.5045 48.609 15.3028 47.6055C14.8698 45.4521 15.2906 46.3062 13.72 45.2521C11.3366 43.6526 9.46923 41.5525 8.21505 38.9482C7.02245 36.4717 6.80077 33.7263 6.80077 30.729H6.38648C6.22329 31.4293 5.2281 32.4589 4.6694 32.8447C2.42449 34.3948 1.18026 33.858 1 33.1538ZM41.3984 24.9282C39.848 24.9282 38.7062 24.7651 37.5889 23.5584C35.93 21.7666 36.3287 18.1301 36.9657 17.5952C37.5686 17.089 42.7737 15.1216 44.2988 15.0876C45.1981 16.7874 44.4849 20.9113 44.002 22.3526C43.545 23.7166 43.1989 24.9282 41.3984 24.9282Z" fill="#0489FF"/>
<path fill-rule="evenodd" clip-rule="evenodd" d="M3.79683 27.2071C4.94004 27.2071 5.0655 28.4861 5.24705 28.8645C4.77805 28.854 3.87187 28.5716 3.55955 28.3753C2.72918 27.8534 3.53391 27.2071 3.79683 27.2071ZM1 33.1538V32.7928C1.07941 32.482 1.36635 32.2013 1.86759 32.1146C2.86261 31.9422 4.43108 31.5342 4.72908 30.4183C3.61443 30.3255 1.62147 29.3623 1.62147 28.2429C1.62147 27.4523 1.78981 26.7739 2.36892 26.1936C3.49412 25.066 5.18127 25.5975 6.03514 26.7298C6.52566 27.3803 6.80077 28.0767 6.80077 29.1753H7.00795C7.05572 27.0301 8.53329 23.9795 9.72941 22.3668C10.4463 21.4002 13.6706 18.0916 14.8805 18.0916C15.515 18.0916 16.2082 19.0476 14.9908 19.7557C14.3065 20.1537 13.7299 20.6225 13.1186 21.0947C7.64135 25.3244 6.86028 34.9574 11.076 40.6451C11.5249 41.2506 11.9582 41.8248 12.5286 42.3001L13.369 43.0134C15.3114 44.5311 16.3321 44.3915 16.6525 46.0486C16.8264 46.948 16.9862 47.8377 17.168 48.7443C17.3362 49.5831 17.4843 50.514 17.6773 51.3426C17.9096 51.3967 17.9155 51.4462 18.1952 51.4462C21.7341 51.4462 21.7867 51.7931 21.9883 50.6815C22.3066 48.9282 22.172 46.8023 24.1247 47.0627C25.53 47.2502 27.0181 47.1991 28.4502 47.1991C31.064 47.1991 32.9019 46.3243 33.4805 47.5554C33.7551 48.1397 34.2 50.729 34.251 51.3426C35.4123 51.6132 36.8748 51.4462 38.0837 51.4462C38.6677 51.4462 38.9054 48.9436 39.0079 48.4342C39.8494 44.259 39.0059 45.1382 41.8085 43.4658C42.0391 43.328 42.196 43.2049 42.4186 43.0401C43.7384 42.0629 44.8475 41.0558 45.8681 39.7565C47.1928 38.07 46.8181 37.7316 49.02 37.1076C49.5273 36.9639 49.9793 36.7947 50.4236 36.6466C51.4217 36.314 52.482 36.1947 52.482 34.8725C52.482 30.7919 53.0391 30.6551 50.4236 29.7836C48.4055 29.1112 48.1781 28.9221 47.4663 27.0436C46.9042 25.5605 45.4688 23.5928 45.4382 23.478C45.1227 23.7092 44.9739 24.308 44.7596 24.6639C43.0307 27.5338 38.8021 26.7908 36.7112 24.954C35.8212 24.1721 34.8725 22.4254 34.8725 20.7849C34.8725 19.2373 35.0627 18.4391 35.0797 17.6772C34.6876 17.5859 34.0158 17.3986 33.6295 17.3666C33.2903 18.6368 31.0406 19.9074 30.6255 20.4741C30.9919 20.5594 31.4234 20.7029 31.8093 20.8439C32.1567 20.9711 32.49 21.2116 32.49 21.6135C32.49 23.1395 30.1306 21.9876 29.461 21.8457C28.8374 21.7136 28.2353 21.5874 27.6134 21.5181C24.7296 21.1969 21.6446 21.3539 18.9074 22.2221C18.647 22.3047 18.382 22.4422 18.0916 22.4422C17.7985 22.4422 17.3665 22.1134 17.3665 21.8207C17.3665 20.6879 18.2894 20.8763 19.1275 20.4741C18.9449 20.2249 18.5028 19.9739 18.2218 19.7223C17.3401 18.933 16.5874 18.1536 15.9362 17.1395C14.6953 15.2069 14.3625 13.4387 14.3625 10.9442C14.3625 9.55061 14.9349 7.84459 15.3961 6.90205C15.9479 5.77428 16.6415 4.88653 17.496 4.02975C19.4157 2.10522 21.8498 1 25.239 1C28.8517 1 32.9284 3.51092 34.3473 6.81938C34.5707 7.34034 34.2642 7.9402 33.6295 7.9402C32.9783 7.9402 32.9135 7.48784 32.6546 7.05057C31.5456 5.1775 29.9038 3.78757 27.817 3.08335C25.7561 2.38787 23.1396 2.40528 21.1288 3.41565C14.2637 6.86483 14.2853 16.2554 20.7499 19.4732C21.4875 19.8404 21.4748 19.9706 22.3523 19.874C23.0689 19.7951 23.5446 19.7489 24.3068 19.7489C25.1684 19.7489 27.9226 19.9763 28.2456 19.8622C30.2922 19.1396 32.2008 17.338 33.0233 15.3101C33.3411 14.5267 33.6012 13.9513 33.7402 12.9195C33.7865 12.576 33.8129 11.8657 33.9736 11.5989C34.4958 10.732 36.2805 10.851 34.9397 14.844C34.7994 15.262 34.6599 15.4946 34.5618 15.9163C36.0478 16.2625 35.6805 16.4161 37.012 15.7768L39.8005 14.6291C41.1884 14.0965 44.9443 12.4217 45.8869 14.6389C46.2804 15.5644 46.1481 15.8262 46.2956 16.9236C46.3752 17.5155 46.3376 18.648 46.24 19.4112L45.8526 21.7171C46.802 22.3529 48.1611 24.5126 48.606 25.5932C49.3688 27.4463 49.05 27.6387 50.527 28.1263C52.0339 28.6238 54.0358 29.1269 54.0358 31.1434V35.2868C54.0358 35.8686 53.7053 36.5178 53.4329 36.8592C52.6442 37.8478 50.3397 38.4056 49.1072 38.7486C47.7661 39.1218 47.951 39.6881 47.0519 40.8368C46.6941 41.2938 46.4617 41.5322 46.0847 41.9412L45.0493 42.9776C44.3508 43.6919 43.4743 44.2654 42.6425 44.8178C41.325 45.6928 41.2088 45.2782 41.0405 46.3234C40.8664 47.4053 40.2 51.6483 39.7164 52.2502C39.4817 52.5422 38.8707 53 38.3944 53H34.4582C33.5973 53 32.987 52.3724 32.7349 51.7192C32.5771 51.3104 32.5439 50.9211 32.4616 50.4387C32.0363 47.9463 32.4643 48.5615 30.102 48.7474C28.7024 48.8575 27.0097 48.9184 25.6381 48.7682L23.996 48.6494C23.959 49.0943 23.783 49.7221 23.7137 50.128C23.5001 51.3771 23.3427 53 21.6136 53H17.8845C17.3068 53 16.7479 52.6782 16.4726 52.34C15.8392 51.5617 15.5045 48.609 15.3028 47.6055C14.8698 45.4521 15.2906 46.3062 13.72 45.2521C11.3366 43.6526 9.46923 41.5525 8.21505 38.9482C7.02245 36.4717 6.80077 33.7263 6.80077 30.729H6.38648C6.22329 31.4293 5.2281 32.4589 4.6694 32.8447C2.42449 34.3948 1.18026 33.858 1 33.1538ZM41.3984 24.9282C39.848 24.9282 38.7062 24.7651 37.5889 23.5584C35.93 21.7666 36.3287 18.1301 36.9657 17.5952C37.5686 17.089 42.7737 15.1216 44.2988 15.0876C45.1981 16.7874 44.4849 20.9113 44.002 22.3526C43.545 23.7166 43.1989 24.9282 41.3984 24.9282Z" stroke="#0489FF" stroke-width="1.4" mask="url(#path-1-outside-1_197_1569)"/>
<path d="M24.4748 14.606C24.196 14.558 23.989 14.4527 23.795 14.3225C23.689 14.2514 23.592 14.1766 23.4838 14.0932C23.4437 14.0622 23.402 14.0301 23.3578 13.9966C23.2007 13.8774 23.0236 13.7502 22.8133 13.6389L22.6496 13.5522L22.4859 13.6388C21.9809 13.906 21.6588 14.2701 21.6392 14.7265C21.6206 15.1601 21.8852 15.5344 22.1958 15.812C22.751 16.3082 23.66 16.6867 24.4985 16.768C24.5262 16.9465 24.5795 17.1012 24.6638 17.2267C24.8113 17.446 25.0361 17.547 25.2676 17.5281C25.4757 17.5112 25.6546 17.4017 25.7765 17.2746C25.8978 17.1482 26.0035 16.9614 26.0035 16.7451V16.6582C27.2681 16.4933 28.1648 15.4467 28.4288 14.2833C28.7216 12.9924 28.2594 11.4915 26.6758 10.6981L26.6758 10.6981C26.4468 10.5834 26.2507 10.5149 26.1281 10.4721C26.0912 10.4592 26.061 10.4487 26.0386 10.4399C26.0221 10.4334 26.0104 10.4283 26.0022 10.4245C25.9943 10.3928 25.9858 10.3337 25.9816 10.2236C25.9773 10.1099 25.9779 9.96154 25.9811 9.76092C25.9825 9.67149 25.9845 9.57274 25.9866 9.46379C25.9923 9.16838 25.9995 8.79805 26.0023 8.33548C26.1665 8.37484 26.3112 8.43601 26.4605 8.50476C26.4866 8.51675 26.5133 8.5293 26.5408 8.54219C26.7676 8.64865 27.0446 8.77863 27.3854 8.80702L27.5326 8.81928L27.6441 8.72237C28.0076 8.40637 28.2365 8.06071 28.2418 7.68752C28.2473 7.30143 28.0137 7.01324 27.7473 6.81978C27.308 6.50078 26.6292 6.32115 26.002 6.26338C26.0014 6.24595 26.0006 6.22924 25.9996 6.21338C25.9939 6.12084 25.9792 5.96579 25.8783 5.83579C25.763 5.68717 25.6012 5.649 25.4954 5.63506C25.3971 5.62211 25.2748 5.62214 25.1524 5.62217C25.1468 5.62217 25.1412 5.62217 25.1356 5.62217C25.0047 5.62217 24.7977 5.63604 24.6432 5.79051C24.4887 5.945 24.4748 6.152 24.4748 6.28286V6.36301C23.0967 6.49005 22.2771 7.36715 21.9937 8.38026C21.6978 9.438 21.9798 10.6933 22.8509 11.335L24.4748 14.606ZM24.4748 14.606V12.1403C24.2356 12.0616 23.974 11.9518 23.7316 11.8367C23.393 11.6759 23.061 11.4897 22.851 11.335L24.4748 14.606ZM26.3393 13.9482C26.3393 14.192 26.168 14.4145 25.8999 14.5381V12.7721C25.9645 12.8115 26.0268 12.859 26.0839 12.9137C26.2511 13.0738 26.3393 13.2613 26.3393 13.4303V13.9482ZM24.0354 9.18329V8.9761C24.0354 8.83529 24.0641 8.74559 24.0984 8.68495C24.1328 8.62417 24.1846 8.5715 24.2628 8.52285C24.35 8.4686 24.4547 8.42715 24.5784 8.38978V9.87178C24.4819 9.82765 24.3903 9.77076 24.3105 9.70327C24.1306 9.55129 24.0354 9.36949 24.0354 9.18329Z" fill="#0489FF" stroke="#0489FF" stroke-width="0.7"/>
<path d="M40.9177 31.314L40.9177 31.314C40.4661 30.8644 40.1158 30.1159 40.1158 29.2788C40.1158 28.1546 41.5583 27.7207 42.1778 28.5767L40.9177 31.314ZM40.9177 31.314C42.7641 33.1519 45.8915 31.946 45.8915 29.2788M40.9177 31.314L45.8915 29.2788M45.8915 29.2788C45.8915 28.7015 45.5451 28.3135 45.116 28.1765M45.8915 29.2788L45.116 28.1765M45.116 28.1765C44.709 28.0465 44.2108 28.14 43.9012 28.5086M45.116 28.1765L43.9012 28.5086M43.9012 28.5086C43.7417 28.6985 43.6778 28.9213 43.6393 29.0969M43.9012 28.5086L43.6393 29.0969M43.6393 29.0969C43.6214 29.1783 43.6091 29.2448 43.5983 29.3039M43.6393 29.0969L43.5983 29.3039M43.5983 29.3039C43.5815 29.3952 43.5679 29.4689 43.5418 29.5526M43.5983 29.3039L43.5418 29.5526M43.5418 29.5526C43.5068 29.6651 43.466 29.7245 43.4102 29.7642M43.5418 29.5526L43.4102 29.7642M43.4102 29.7642C43.3497 29.8073 43.2234 29.8611 42.9519 29.8611M43.4102 29.7642L42.9519 29.8611M42.9519 29.8611C42.7565 29.8611 42.669 29.8147 42.6254 29.7791M42.9519 29.8611L42.6254 29.7791M42.6254 29.7791C42.5774 29.7399 42.535 29.6749 42.4964 29.5555M42.6254 29.7791L42.4964 29.5555M42.4964 29.5555C42.4678 29.4668 42.45 29.3809 42.4287 29.2779M42.4964 29.5555L42.4287 29.2779M42.4287 29.2779C42.4184 29.2284 42.4074 29.175 42.3939 29.1154M42.4287 29.2779L42.3939 29.1154M42.3939 29.1154C42.3581 28.9569 42.3033 28.7502 42.1778 28.5768L42.3939 29.1154Z" fill="#0489FF" stroke="#0489FF" stroke-width="0.7"/>
</svg>
