<svg width="42" height="48" viewBox="0 0 42 48" fill="none" xmlns="http://www.w3.org/2000/svg">
<path d="M5.69625 5.83841H6.05185L6.16856 5.50251C6.67739 4.03793 7.62053 2.77106 8.86661 1.87561C10.1126 0.980238 11.6004 0.5 13.125 0.5C14.6496 0.5 16.1374 0.980238 17.3834 1.87561C18.6295 2.77106 19.5726 4.03793 20.0814 5.50251L20.1981 5.83841H20.5537H39.375C39.9361 5.83841 40.4757 6.0647 40.8749 6.47006C41.2743 6.87568 41.5 7.42744 41.5 8.00436C41.5 8.58127 41.2743 9.13303 40.8749 9.53865C40.4757 9.94401 39.9361 10.1703 39.375 10.1703H20.5537H20.1981L20.0814 10.5062C19.5726 11.9708 18.6295 13.2377 17.3834 14.1331C16.1374 15.0285 14.6496 15.5087 13.125 15.5087C11.6004 15.5087 10.1126 15.0285 8.86661 14.1331C7.62053 13.2377 6.67739 11.9708 6.16856 10.5062L6.05185 10.1703H5.69625H2.625C2.06393 10.1703 1.52426 9.94401 1.12512 9.53865C0.725734 9.13303 0.5 8.58127 0.5 8.00436C0.5 7.42744 0.725734 6.87568 1.12512 6.47006C1.52426 6.0647 2.06393 5.83841 2.625 5.83841H5.69625ZM21.4463 21.8341H21.8019L21.9186 21.4982C22.4274 20.0336 23.3705 18.7667 24.6166 17.8713C25.8626 16.9759 27.3504 16.4956 28.875 16.4956C30.3996 16.4956 31.8874 16.9759 33.1334 17.8713C34.3795 18.7667 35.3226 20.0336 35.8314 21.4982L35.9481 21.8341H36.3037H39.375C39.9361 21.8341 40.4757 22.0603 40.8749 22.4657C41.2743 22.8713 41.5 23.4231 41.5 24C41.5 24.5769 41.2743 25.1287 40.8749 25.5343C40.4757 25.9397 39.9361 26.1659 39.375 26.1659H36.3037H35.9481L35.8314 26.5019C35.3226 27.9664 34.3795 29.2333 33.1334 30.1287C31.8874 31.0241 30.3996 31.5044 28.875 31.5044C27.3504 31.5044 25.8626 31.0241 24.6166 30.1287C23.3705 29.2333 22.4274 27.9664 21.9186 26.5019L21.8019 26.1659H21.4463H2.625C2.06394 26.1659 1.52426 25.9397 1.12512 25.5343C0.725734 25.1287 0.5 24.5769 0.5 24C0.5 23.4231 0.725734 22.8713 1.12512 22.4657C1.52425 22.0603 2.06393 21.8341 2.625 21.8341H21.4463ZM5.69625 37.8297H6.05185L6.16856 37.4938C6.67739 36.0292 7.62053 34.7623 8.86661 33.8669C10.1126 32.9715 11.6004 32.4913 13.125 32.4913C14.6496 32.4913 16.1374 32.9715 17.3834 33.8669C18.6295 34.7623 19.5726 36.0292 20.0814 37.4938L20.1981 37.8297H20.5537H39.375C39.9361 37.8297 40.4757 38.056 40.8749 38.4613C41.2743 38.867 41.5 39.4187 41.5 39.9956C41.5 40.5726 41.2743 41.1243 40.8749 41.5299C40.4757 41.9353 39.9361 42.1616 39.375 42.1616H20.5537H20.1981L20.0814 42.4975C19.5726 43.9621 18.6295 45.2289 17.3834 46.1244C16.1374 47.0198 14.6496 47.5 13.125 47.5C11.6004 47.5 10.1126 47.0198 8.86661 46.1244C7.62053 45.2289 6.67739 43.9621 6.16856 42.4975L6.05185 42.1616H5.69625H2.625C2.06393 42.1616 1.52425 41.9353 1.12512 41.5299C0.725734 41.1243 0.5 40.5726 0.5 39.9956C0.5 39.4187 0.725734 38.867 1.12512 38.4613C1.52425 38.056 2.06393 37.8297 2.625 37.8297H5.69625ZM13.125 4.83841C12.2937 4.83841 11.498 5.17388 10.9126 5.76844C10.3274 6.36275 10 7.16717 10 8.00436C10 8.84154 10.3274 9.64596 10.9126 10.2403C11.498 10.8348 12.2937 11.1703 13.125 11.1703C13.9563 11.1703 14.752 10.8348 15.3374 10.2403C15.9226 9.64596 16.25 8.84154 16.25 8.00436C16.25 7.16717 15.9226 6.36275 15.3374 5.76844C14.752 5.17388 13.9563 4.83841 13.125 4.83841ZM28.875 20.8341C28.0437 20.8341 27.248 21.1695 26.6626 21.7641C26.0774 22.3584 25.75 23.1628 25.75 24C25.75 24.8372 26.0774 25.6416 26.6626 26.2359C27.248 26.8305 28.0437 27.1659 28.875 27.1659C29.7063 27.1659 30.502 26.8305 31.0874 26.2359C31.6726 25.6416 32 24.8372 32 24C32 23.1628 31.6726 22.3584 31.0874 21.7641C30.502 21.1695 29.7063 20.8341 28.875 20.8341ZM13.125 36.8297C12.2937 36.8297 11.498 37.1652 10.9126 37.7597C10.3274 38.354 10 39.1585 10 39.9956C10 40.8328 10.3274 41.6373 10.9126 42.2316C11.498 42.8261 12.2937 43.1616 13.125 43.1616C13.9563 43.1616 14.752 42.8261 15.3374 42.2316C15.9226 41.6373 16.25 40.8328 16.25 39.9956C16.25 39.1585 15.9226 38.354 15.3374 37.7597C14.752 37.1652 13.9563 36.8297 13.125 36.8297Z" fill="#0489FF" stroke="#1F3179"/>
</svg>
