<svg width="59" height="36" viewBox="0 0 59 36" fill="none" xmlns="http://www.w3.org/2000/svg">
<path d="M23.4378 32.4756L23.4368 32.4746C20.4994 29.412 20.3638 24.4402 23.1385 21.2435C23.9862 20.2816 24.9781 19.5538 26.0554 19.0774L26.0691 19.0714L26.0825 19.0645L48.1966 7.65737C48.3954 7.56646 48.5959 7.76693 48.5049 7.96571L37.0978 30.0798L37.091 30.093L37.085 30.1065C36.6875 31.0037 36.107 31.8583 35.3652 32.6C33.7353 34.2299 31.6058 35.0497 29.4638 35.0497C27.275 35.0497 25.0775 34.1951 23.4378 32.4756ZM32.4981 23.6763L32.4952 23.6735C31.652 22.8439 30.5597 22.4189 29.4638 22.4189C28.3689 22.4189 27.275 22.8433 26.4423 23.6756C24.7598 25.3452 24.7621 28.0533 26.4416 29.7328C27.2744 30.5656 28.3686 30.9902 29.4638 30.9902C30.5702 30.9902 31.6647 30.5662 32.4981 29.7328C34.1665 28.0643 34.1665 25.3448 32.4981 23.6763ZM54.5943 14.9457L54.5946 14.9464C57.1466 19.3499 58.5 24.3834 58.5 29.5C58.5 30.8419 57.4197 31.9222 56.0778 31.9222C54.7466 31.9222 53.6555 30.8406 53.6555 29.5C53.6555 25.2349 52.5339 21.0426 50.4002 17.3791C49.7287 16.2156 50.121 14.7356 51.2804 14.066C52.444 13.3939 53.9245 13.7861 54.5943 14.9457ZM0.5 29.5C0.5 13.5107 13.5107 0.5 29.5 0.5C33.217 0.5 36.8363 1.1886 40.2533 2.56483C41.4953 3.06564 42.0955 4.46607 41.606 5.70736C41.1045 6.94867 39.7041 7.54819 38.4631 7.05814C35.6147 5.92383 32.5937 5.34445 29.5 5.34445C16.1825 5.34445 5.34445 16.1825 5.34445 29.5C5.34445 30.8419 4.26418 31.9222 2.92223 31.9222C1.58028 31.9222 0.5 30.8419 0.5 29.5Z" fill="#0489FF" stroke="#1F377F"/>
</svg>
