<svg width="536" height="508" viewBox="0 0 536 508" fill="none" xmlns="http://www.w3.org/2000/svg">
<rect y="416.63" width="437" height="91" rx="12" fill="#95B04C"/>
<path d="M125.743 456.763C126.405 456.763 127.035 456.851 127.633 457.027C128.23 457.197 128.72 457.405 129.101 457.651C129.487 457.897 129.827 458.143 130.12 458.389C130.419 458.635 130.633 458.843 130.762 459.013L130.964 459.277L129.25 460.991C129.215 460.944 129.165 460.879 129.101 460.797C129.042 460.709 128.904 460.563 128.688 460.358C128.477 460.153 128.245 459.974 127.993 459.822C127.741 459.664 127.41 459.52 127 459.391C126.59 459.256 126.171 459.189 125.743 459.189C124.565 459.189 123.581 459.584 122.79 460.375C121.999 461.167 121.604 462.151 121.604 463.329C121.604 464.506 121.999 465.491 122.79 466.282C123.581 467.073 124.565 467.468 125.743 467.468C126.2 467.468 126.637 467.407 127.053 467.284C127.475 467.155 127.823 467.005 128.099 466.835C128.374 466.66 128.617 466.484 128.828 466.308C129.039 466.132 129.191 465.98 129.285 465.851L129.426 465.667L131.052 467.38C131.005 467.451 130.932 467.544 130.832 467.662C130.738 467.773 130.524 467.975 130.19 468.268C129.862 468.555 129.508 468.81 129.127 469.033C128.752 469.25 128.257 469.449 127.642 469.63C127.032 469.812 126.399 469.903 125.743 469.903C123.821 469.903 122.198 469.261 120.874 467.978C119.556 466.689 118.896 465.139 118.896 463.329C118.896 461.518 119.556 459.971 120.874 458.688C122.198 457.405 123.821 456.763 125.743 456.763ZM139.638 469.63H133.925V457.027H139.33C140.473 457.027 141.416 457.361 142.16 458.029C142.91 458.697 143.285 459.473 143.285 460.358C143.285 460.692 143.239 461.011 143.145 461.316C143.051 461.615 142.931 461.864 142.784 462.063C142.638 462.262 142.491 462.435 142.345 462.582C142.204 462.722 142.087 462.822 141.993 462.88L141.844 462.968C141.903 462.992 141.976 463.027 142.064 463.074C142.158 463.115 142.324 463.223 142.565 463.399C142.805 463.569 143.016 463.756 143.198 463.961C143.379 464.167 143.543 464.448 143.69 464.805C143.842 465.157 143.918 465.535 143.918 465.939C143.918 466.947 143.517 467.814 142.714 468.541C141.911 469.267 140.886 469.63 139.638 469.63ZM136.632 467.38H139.506C139.998 467.38 140.406 467.225 140.728 466.915C141.056 466.604 141.22 466.22 141.22 465.763C141.22 465.306 141.056 464.922 140.728 464.612C140.406 464.295 139.998 464.137 139.506 464.137H136.632V467.38ZM139.146 459.277H136.632V461.984H139.146C139.591 461.984 139.943 461.861 140.2 461.615C140.458 461.369 140.587 461.041 140.587 460.63C140.587 460.22 140.458 459.892 140.2 459.646C139.943 459.4 139.591 459.277 139.146 459.277ZM156.521 457.027V469.63H153.823V465.218H151.485L149.05 469.63H146.176L148.875 464.858C148.816 464.834 148.734 464.796 148.628 464.744C148.529 464.691 148.35 464.556 148.092 464.339C147.835 464.123 147.606 463.888 147.407 463.636C147.208 463.384 147.026 463.036 146.862 462.59C146.704 462.145 146.625 461.67 146.625 461.167C146.625 460 147.032 459.019 147.846 458.222C148.661 457.425 149.692 457.027 150.94 457.027H156.521ZM149.323 461.167C149.323 461.624 149.484 462.01 149.806 462.327C150.134 462.637 150.544 462.792 151.037 462.792H153.823V459.461H151.037C150.544 459.461 150.134 459.623 149.806 459.945C149.484 460.267 149.323 460.674 149.323 461.167ZM166.971 462.968C167.029 462.992 167.111 463.027 167.217 463.074C167.328 463.115 167.518 463.223 167.788 463.399C168.057 463.569 168.292 463.762 168.491 463.979C168.696 464.196 168.884 464.498 169.054 464.884C169.223 465.265 169.308 465.678 169.308 466.124C169.308 467.178 168.857 468.072 167.955 468.804C167.058 469.537 165.828 469.903 164.264 469.903C163.666 469.903 163.083 469.827 162.514 469.674C161.952 469.528 161.486 469.349 161.117 469.138C160.748 468.927 160.42 468.716 160.133 468.505C159.851 468.294 159.646 468.119 159.517 467.978L159.315 467.741L160.941 466.124L161.082 466.264C161.14 466.323 161.272 466.431 161.477 466.589C161.682 466.748 161.899 466.885 162.128 467.002C162.356 467.12 162.646 467.228 162.998 467.328C163.349 467.421 163.713 467.468 164.088 467.468C164.832 467.468 165.406 467.313 165.81 467.002C166.221 466.692 166.426 466.308 166.426 465.851C166.426 465.382 166.235 464.996 165.854 464.691C165.479 464.386 164.92 464.234 164.176 464.234H162.558V461.887H164.088C164.697 461.887 165.163 461.761 165.485 461.509C165.813 461.257 165.977 460.935 165.977 460.542C165.977 460.156 165.805 459.833 165.459 459.576C165.119 459.318 164.633 459.189 164 459.189C163.543 459.189 163.097 459.286 162.664 459.479C162.23 459.672 161.914 459.863 161.715 460.05L161.389 460.358L159.764 458.653C159.799 458.606 159.857 458.542 159.939 458.459C160.027 458.372 160.212 458.216 160.493 457.994C160.774 457.771 161.073 457.581 161.389 457.422C161.712 457.258 162.134 457.109 162.655 456.974C163.177 456.833 163.713 456.763 164.264 456.763C165.646 456.763 166.757 457.112 167.595 457.809C168.438 458.5 168.86 459.321 168.86 460.27C168.86 460.668 168.793 461.032 168.658 461.36C168.529 461.688 168.371 461.946 168.183 462.133C167.996 462.321 167.811 462.485 167.63 462.625C167.454 462.76 167.299 462.851 167.164 462.898L166.971 462.968ZM178.659 464.322L177.13 460.182L175.592 464.322H178.659ZM179.556 466.66H174.695L173.614 469.63H170.732L175.689 457.027H178.563L183.52 469.63H180.637L179.556 466.66ZM183.695 457.027H193.591V459.461H189.996V469.63H187.298V459.461H183.695V457.027ZM201.597 469.63H196.289V457.027H198.996V461.167H201.597C202.892 461.167 203.965 461.574 204.814 462.388C205.67 463.197 206.097 464.202 206.097 465.403C206.097 466.604 205.67 467.609 204.814 468.417C203.965 469.226 202.892 469.63 201.597 469.63ZM198.996 467.205H201.509C202.049 467.205 202.497 467.032 202.854 466.686C203.217 466.334 203.399 465.907 203.399 465.403C203.399 464.899 203.217 464.474 202.854 464.128C202.497 463.777 202.049 463.601 201.509 463.601H198.996V467.205ZM215.369 456.763C216.031 456.763 216.661 456.851 217.259 457.027C217.856 457.197 218.346 457.405 218.727 457.651C219.113 457.897 219.453 458.143 219.746 458.389C220.045 458.635 220.259 458.843 220.388 459.013L220.59 459.277L218.876 460.991C218.841 460.944 218.791 460.879 218.727 460.797C218.668 460.709 218.53 460.563 218.313 460.358C218.103 460.153 217.871 459.974 217.619 459.822C217.367 459.664 217.036 459.52 216.626 459.391C216.216 459.256 215.797 459.189 215.369 459.189C214.191 459.189 213.207 459.584 212.416 460.375C211.625 461.167 211.229 462.151 211.229 463.329C211.229 464.506 211.625 465.491 212.416 466.282C213.207 467.073 214.191 467.468 215.369 467.468C215.826 467.468 216.263 467.407 216.679 467.284C217.101 467.155 217.449 467.005 217.725 466.835C218 466.66 218.243 466.484 218.454 466.308C218.665 466.132 218.817 465.98 218.911 465.851L219.052 465.667L220.678 467.38C220.631 467.451 220.558 467.544 220.458 467.662C220.364 467.773 220.15 467.975 219.816 468.268C219.488 468.555 219.134 468.81 218.753 469.033C218.378 469.25 217.883 469.449 217.268 469.63C216.658 469.812 216.025 469.903 215.369 469.903C213.447 469.903 211.824 469.261 210.5 467.978C209.182 466.689 208.522 465.139 208.522 463.329C208.522 461.518 209.182 459.971 210.5 458.688C211.824 457.405 213.447 456.763 215.369 456.763ZM232.911 457.027V469.63H230.213V465.218H227.875L225.441 469.63H222.567L225.265 464.858C225.206 464.834 225.124 464.796 225.019 464.744C224.919 464.691 224.74 464.556 224.483 464.339C224.225 464.123 223.996 463.888 223.797 463.636C223.598 463.384 223.416 463.036 223.252 462.59C223.094 462.145 223.015 461.67 223.015 461.167C223.015 460 223.422 459.019 224.237 458.222C225.051 457.425 226.082 457.027 227.33 457.027H232.911ZM225.713 461.167C225.713 461.624 225.874 462.01 226.197 462.327C226.525 462.637 226.935 462.792 227.427 462.792H230.213V459.461H227.427C226.935 459.461 226.525 459.623 226.197 459.945C225.874 460.267 225.713 460.674 225.713 461.167ZM247.412 456.763C248.074 456.763 248.704 456.851 249.302 457.027C249.899 457.197 250.388 457.405 250.769 457.651C251.156 457.897 251.496 458.143 251.789 458.389C252.088 458.635 252.302 458.843 252.43 459.013L252.633 459.277L250.919 460.991C250.884 460.944 250.834 460.879 250.769 460.797C250.711 460.709 250.573 460.563 250.356 460.358C250.145 460.153 249.914 459.974 249.662 459.822C249.41 459.664 249.079 459.52 248.669 459.391C248.259 459.256 247.84 459.189 247.412 459.189C246.234 459.189 245.25 459.584 244.459 460.375C243.668 461.167 243.272 462.151 243.272 463.329C243.272 464.506 243.668 465.491 244.459 466.282C245.25 467.073 246.234 467.468 247.412 467.468C247.869 467.468 248.305 467.407 248.721 467.284C249.143 467.155 249.492 467.005 249.767 466.835C250.043 466.66 250.286 466.484 250.497 466.308C250.708 466.132 250.86 465.98 250.954 465.851L251.095 465.667L252.721 467.38C252.674 467.451 252.6 467.544 252.501 467.662C252.407 467.773 252.193 467.975 251.859 468.268C251.531 468.555 251.177 468.81 250.796 469.033C250.421 469.25 249.926 469.449 249.31 469.63C248.701 469.812 248.068 469.903 247.412 469.903C245.49 469.903 243.867 469.261 242.543 467.978C241.224 466.689 240.565 465.139 240.565 463.329C240.565 461.518 241.224 459.971 242.543 458.688C243.867 457.405 245.49 456.763 247.412 456.763ZM270.807 457.027V469.63H268.109V464.498H262.712V469.63H260.005V457.027H262.712V462.072H268.109V457.027H270.807ZM281.256 464.322L279.727 460.182L278.189 464.322H281.256ZM282.153 466.66H277.293L276.212 469.63H273.329L278.286 457.027H281.16L286.117 469.63H283.234L282.153 466.66ZM295.389 462.52L299.748 457.027H302.139V469.63H299.44V461.228L295.389 466.387L291.346 461.263V469.63H288.639V457.027H291.073L295.389 462.52ZM317.343 469.63H314.645V461.624L308.44 469.63H306.093V457.027H308.8V465.042L315.005 457.027H317.343V469.63Z" fill="white"/>
<circle cx="14" cy="45" r="14" fill="#95B04C"/>
<path d="M133.578 72.8782C133.702 72.8782 133.765 73.0652 133.765 73.4391C133.765 73.813 133.702 74 133.578 74H121.799C120.926 74 120.147 73.7819 119.461 73.3456C118.838 72.847 117.779 71.6006 116.283 69.6063C114.787 67.6119 112.107 63.8414 108.243 58.2947C105.19 53.9321 102.977 50.9095 101.606 49.2268C100.235 47.5441 98.8327 46.3599 97.3993 45.6744C95.9659 44.9265 94.0339 44.5526 91.6033 44.5526C91.0424 44.5526 90.6373 44.5837 90.388 44.6461V66.4278C90.388 68.2975 90.575 69.6997 90.9489 70.6346C91.3852 71.5071 92.133 72.0992 93.1925 72.4108C94.3143 72.7224 96.0905 72.8782 98.5211 72.8782C98.6457 72.8782 98.7081 73.0652 98.7081 73.4391C98.7081 73.813 98.6457 74 98.5211 74C96.5891 74 95.0622 73.9688 93.9404 73.9065L87.2095 73.813L80.8526 73.9065C79.7308 73.9688 78.1728 74 76.1785 74C76.0538 74 75.9915 73.813 75.9915 73.4391C75.9915 73.0652 76.0538 72.8782 76.1785 72.8782C78.5467 72.8782 80.2917 72.7224 81.4135 72.4108C82.5354 72.0992 83.2832 71.5071 83.6572 70.6346C84.0934 69.6997 84.3115 68.2975 84.3115 66.4278V23.1448C84.3115 21.2751 84.1246 19.904 83.7506 19.0315C83.3767 18.159 82.6288 17.5669 81.507 17.2553C80.3852 16.8814 78.6402 16.6944 76.2719 16.6944C76.1473 16.6944 76.085 16.5074 76.085 16.1335C76.085 15.7595 76.1473 15.5726 76.2719 15.5726L80.8526 15.6661C83.4702 15.7907 85.5892 15.853 87.2095 15.853C89.0169 15.853 91.2917 15.7907 94.0339 15.6661L98.5211 15.5726C98.6457 15.5726 98.7081 15.7595 98.7081 16.1335C98.7081 16.5074 98.6457 16.6944 98.5211 16.6944C96.1528 16.6944 94.4078 16.8814 93.286 17.2553C92.1642 17.6292 91.3852 18.2836 90.9489 19.2184C90.575 20.091 90.388 21.4621 90.388 23.3317V43.0568C93.7534 42.9322 95.8412 42.8699 96.6514 42.8699H98.4276L109.739 27.0711C112.544 23.2071 113.946 20.5272 113.946 19.0315C113.946 18.2213 113.541 17.6292 112.731 17.2553C111.983 16.8814 110.799 16.6944 109.178 16.6944C109.054 16.6944 108.991 16.5074 108.991 16.1335C108.991 15.7595 109.054 15.5726 109.178 15.5726L113.198 15.6661C115.566 15.7907 117.779 15.853 119.835 15.853C121.954 15.853 124.136 15.7907 126.379 15.6661L129.745 15.5726C129.932 15.5726 130.025 15.7595 130.025 16.1335C130.025 16.5074 129.932 16.6944 129.745 16.6944C126.504 16.6944 123.637 17.5046 121.144 19.125C118.651 20.683 115.971 23.3629 113.105 27.1646L100.578 43.1503C102.073 43.3996 103.351 43.8982 104.411 44.6461C105.532 45.3939 106.654 46.4534 107.776 47.8245C108.898 49.1333 110.549 51.3457 112.731 54.4619L114.133 56.425C117.062 60.5383 119.43 63.6856 121.238 65.8669C123.045 68.0482 124.946 69.7621 126.94 71.0085C128.935 72.1926 131.147 72.8159 133.578 72.8782ZM163.888 75.1218C159.525 75.1218 155.63 74.0935 152.202 72.0368C148.837 69.9802 146.219 67.2068 144.349 63.7168C142.48 60.2267 141.545 56.4562 141.545 52.4052C141.545 47.5441 142.791 43.3685 145.284 39.8784C147.839 36.326 151.049 33.6461 154.913 31.8388C158.839 30.0314 162.828 29.1277 166.879 29.1277C171.242 29.1277 175.074 30.2184 178.378 32.3997C181.743 34.5186 184.298 37.292 186.043 40.7197C187.851 44.1475 188.754 47.731 188.754 51.4704C188.754 55.646 187.632 59.5723 185.389 63.2494C183.145 66.8641 180.123 69.7621 176.321 71.9434C172.519 74.0623 168.375 75.1218 163.888 75.1218ZM166.318 73.1586C171.179 73.1586 175.043 71.4448 177.91 68.017C180.839 64.5893 182.304 59.8528 182.304 53.8075C182.304 49.6319 181.556 45.8302 180.06 42.4024C178.627 38.9747 176.508 36.2325 173.703 34.1759C170.899 32.1192 167.565 31.0909 163.701 31.0909C158.715 31.0909 154.851 32.7736 152.109 36.139C149.366 39.4421 147.995 44.0852 147.995 50.0681C147.995 54.3684 148.712 58.2635 150.145 61.7536C151.641 65.2437 153.76 68.017 156.502 70.0737C159.307 72.1303 162.579 73.1586 166.318 73.1586ZM250.748 72.8782C250.935 72.8782 251.028 73.0652 251.028 73.4391C251.028 73.813 250.935 74 250.748 74C249.003 74 247.601 73.9688 246.541 73.9065L240.932 73.813L235.23 73.9065C234.232 73.9688 232.861 74 231.116 74C230.929 74 230.836 73.813 230.836 73.4391C230.836 73.0652 230.929 72.8782 231.116 72.8782C233.173 72.8782 234.669 72.7224 235.604 72.4108C236.538 72.0992 237.162 71.5071 237.473 70.6346C237.847 69.6997 238.034 68.2975 238.034 66.4278V52.7792H211.859V66.4278C211.859 68.3598 212.014 69.7621 212.326 70.6346C212.7 71.5071 213.354 72.0992 214.289 72.4108C215.224 72.7224 216.751 72.8782 218.87 72.8782C218.995 72.8782 219.057 73.0652 219.057 73.4391C219.057 73.813 218.995 74 218.87 74C217.125 74 215.754 73.9688 214.757 73.9065L208.961 73.813L203.445 73.9065C202.386 73.9688 200.952 74 199.145 74C199.02 74 198.958 73.813 198.958 73.4391C198.958 73.0652 199.02 72.8782 199.145 72.8782C201.201 72.8782 202.697 72.7224 203.632 72.4108C204.629 72.0992 205.315 71.5071 205.689 70.6346C206.063 69.6997 206.25 68.2975 206.25 66.4278V37.8217C206.25 35.9521 206.063 34.581 205.689 33.7084C205.377 32.8359 204.723 32.2439 203.726 31.9323C202.791 31.5583 201.295 31.3714 199.238 31.3714C199.114 31.3714 199.051 31.1844 199.051 30.8105C199.051 30.4365 199.114 30.2495 199.238 30.2495L203.445 30.343C205.813 30.4677 207.652 30.53 208.961 30.53C210.519 30.53 212.482 30.4677 214.85 30.343L218.87 30.2495C218.995 30.2495 219.057 30.4365 219.057 30.8105C219.057 31.1844 218.995 31.3714 218.87 31.3714C216.876 31.3714 215.38 31.5583 214.383 31.9323C213.386 32.3062 212.7 32.9606 212.326 33.8954C212.014 34.7679 211.859 36.139 211.859 38.0087V51.0965H238.034V38.0087C238.034 36.139 237.847 34.7679 237.473 33.8954C237.162 32.9606 236.507 32.3062 235.51 31.9323C234.575 31.5583 233.111 31.3714 231.116 31.3714C230.929 31.3714 230.836 31.1844 230.836 30.8105C230.836 30.4365 230.929 30.2495 231.116 30.2495L235.23 30.343C237.473 30.4677 239.374 30.53 240.932 30.53C242.303 30.53 244.173 30.4677 246.541 30.343L250.748 30.2495C250.935 30.2495 251.028 30.4365 251.028 30.8105C251.028 31.1844 250.935 31.3714 250.748 31.3714C248.691 31.3714 247.164 31.5583 246.167 31.9323C245.232 32.2439 244.578 32.8359 244.204 33.7084C243.83 34.581 243.643 35.9521 243.643 37.8217V66.4278C243.643 68.2975 243.83 69.6997 244.204 70.6346C244.578 71.5071 245.232 72.0992 246.167 72.4108C247.164 72.7224 248.691 72.8782 250.748 72.8782ZM271.788 31.4648C269.42 31.4648 267.55 31.8076 266.179 32.4932C264.808 33.1164 263.718 34.207 262.907 35.7651C262.16 37.3232 261.567 39.5356 261.131 42.4024C261.131 42.5271 260.944 42.5894 260.57 42.5894C260.259 42.5894 260.103 42.5271 260.103 42.4024C260.29 40.969 260.508 38.6631 260.757 35.4846C261.007 32.3062 261.131 29.8756 261.131 28.1929C261.131 27.8813 261.318 27.7255 261.692 27.7255C262.066 27.7255 262.253 27.8813 262.253 28.1929C262.253 29.0031 262.72 29.5328 263.655 29.7821C264.59 29.9691 265.743 30.0626 267.114 30.0626C272.599 30.1872 277.304 30.2495 281.23 30.2495L289.363 30.1561C290.485 30.0937 291.95 30.0626 293.757 30.0626C296.001 30.0626 297.652 29.9379 298.712 29.6886C299.771 29.377 300.457 28.7538 300.768 27.819C300.893 27.632 301.111 27.5385 301.423 27.5385C301.734 27.5385 301.89 27.632 301.89 27.819C301.516 34.5498 301.329 39.411 301.329 42.4024C301.329 42.5271 301.142 42.5894 300.768 42.5894C300.457 42.5894 300.301 42.5271 300.301 42.4024C300.239 39.5979 299.896 37.4166 299.273 35.8586C298.712 34.3005 297.746 33.1787 296.375 32.4932C295.004 31.8076 293.103 31.4648 290.672 31.4648C287.992 31.4648 286.216 31.9011 285.344 32.7736C284.471 33.5838 284.035 35.2665 284.035 37.8217V66.4278C284.035 68.3598 284.222 69.7621 284.596 70.6346C284.97 71.5071 285.686 72.0992 286.746 72.4108C287.805 72.7224 289.55 72.8782 291.981 72.8782C292.168 72.8782 292.261 73.0652 292.261 73.4391C292.261 73.813 292.168 74 291.981 74C290.049 74 288.553 73.9688 287.494 73.9065L280.95 73.813L274.686 73.9065C273.565 73.9688 272.006 74 270.012 74C269.888 74 269.825 73.813 269.825 73.4391C269.825 73.0652 269.888 72.8782 270.012 72.8782C272.38 72.8782 274.125 72.7224 275.247 72.4108C276.369 72.0992 277.117 71.5071 277.491 70.6346C277.927 69.6997 278.145 68.2975 278.145 66.4278V37.6348C278.145 35.8274 277.989 34.5186 277.678 33.7084C277.429 32.8359 276.868 32.2439 275.995 31.9323C275.123 31.6206 273.72 31.4648 271.788 31.4648ZM356.572 72.8782C356.822 72.8782 356.946 73.0652 356.946 73.4391C356.946 73.813 356.822 74 356.572 74C355.451 74 353.643 73.9377 351.15 73.813C348.657 73.6884 346.85 73.6261 345.728 73.6261C344.731 73.6261 343.422 73.6884 341.802 73.813C340.182 73.9377 338.935 74 338.063 74C337.813 74 337.689 73.813 337.689 73.4391C337.689 73.0652 337.813 72.8782 338.063 72.8782C339.683 72.8782 340.867 72.6912 341.615 72.3173C342.425 71.881 342.83 71.1332 342.83 70.0737C342.83 69.1388 342.456 67.8301 341.708 66.1474L335.352 52.4987H322.264L318.244 62.5015C317.247 64.8697 316.748 66.8329 316.748 68.391C316.748 70.0114 317.309 71.1643 318.431 71.8499C319.553 72.5354 321.267 72.8782 323.573 72.8782C323.884 72.8782 324.04 73.0652 324.04 73.4391C324.04 73.813 323.884 74 323.573 74C322.638 74 321.36 73.9377 319.74 73.813C317.995 73.6884 316.374 73.6261 314.879 73.6261C313.32 73.6261 311.482 73.6884 309.363 73.813C307.493 73.9377 305.998 74 304.876 74C304.564 74 304.408 73.813 304.408 73.4391C304.408 73.0652 304.564 72.8782 304.876 72.8782C306.808 72.8782 308.335 72.6289 309.456 72.1303C310.578 71.5694 311.607 70.5099 312.541 68.9519C313.539 67.3938 314.723 64.9632 316.094 61.6601L329.556 28.8473C329.68 28.598 329.867 28.4734 330.116 28.4734C330.366 28.4734 330.522 28.598 330.584 28.8473L345.635 61.1927C347.255 64.6828 348.533 67.2068 349.468 68.7649C350.465 70.323 351.462 71.4136 352.459 72.0368C353.519 72.5977 354.89 72.8782 356.572 72.8782ZM322.918 50.816H334.604L328.34 37.3543L322.918 50.816ZM410.755 72.8782C410.88 72.8782 410.942 73.0652 410.942 73.4391C410.942 73.813 410.88 74 410.755 74H399.817C399.257 74 398.82 73.9377 398.509 73.813C398.259 73.6261 397.885 73.1586 397.387 72.4108C396.888 71.6006 396.234 70.5099 395.424 69.1388C393.305 65.4618 391.809 62.9377 390.936 61.5666C388.942 58.3259 387.509 56.1757 386.636 55.1163C385.826 53.9945 384.86 53.1843 383.738 52.6857C382.679 52.1248 381.121 51.8443 379.064 51.8443C378.005 51.8443 377.163 51.8755 376.54 51.9378V66.4278C376.54 68.3598 376.696 69.7621 377.007 70.6346C377.381 71.5071 378.036 72.0992 378.971 72.4108C379.905 72.7224 381.432 72.8782 383.551 72.8782C383.676 72.8782 383.738 73.0652 383.738 73.4391C383.738 73.813 383.676 74 383.551 74C381.806 74 380.435 73.9688 379.438 73.9065L373.642 73.813L368.126 73.9065C367.067 73.9688 365.633 74 363.826 74C363.701 74 363.639 73.813 363.639 73.4391C363.639 73.0652 363.701 72.8782 363.826 72.8782C365.883 72.8782 367.379 72.7224 368.313 72.4108C369.311 72.0992 369.996 71.5071 370.37 70.6346C370.744 69.6997 370.931 68.2975 370.931 66.4278V37.8217C370.931 35.9521 370.744 34.581 370.37 33.7084C370.058 32.8359 369.404 32.2439 368.407 31.9323C367.472 31.5583 365.976 31.3714 363.92 31.3714C363.795 31.3714 363.733 31.1844 363.733 30.8105C363.733 30.4365 363.795 30.2495 363.92 30.2495L368.126 30.343C370.495 30.4677 372.333 30.53 373.642 30.53C375.2 30.53 377.163 30.4677 379.531 30.343L383.551 30.2495C383.676 30.2495 383.738 30.4365 383.738 30.8105C383.738 31.1844 383.676 31.3714 383.551 31.3714C381.557 31.3714 380.061 31.5583 379.064 31.9323C378.067 32.3062 377.381 32.9606 377.007 33.8954C376.696 34.7679 376.54 36.139 376.54 38.0087V50.2551C380.903 49.9435 383.832 49.8188 385.327 49.8812L391.497 41.1872C393.99 37.5101 395.237 34.9861 395.237 33.615C395.237 32.8048 394.863 32.2439 394.115 31.9323C393.429 31.5583 392.339 31.3714 390.843 31.3714C390.656 31.3714 390.563 31.1844 390.563 30.8105C390.563 30.4365 390.656 30.2495 390.843 30.2495L394.395 30.343C396.639 30.4677 398.789 30.53 400.846 30.53C402.404 30.53 404.118 30.4677 405.987 30.343L408.885 30.2495C409.072 30.2495 409.166 30.4365 409.166 30.8105C409.166 31.1844 409.072 31.3714 408.885 31.3714C405.956 31.3714 403.339 32.1504 401.033 33.7084C398.727 35.2665 396.265 37.8217 393.647 41.3741L387.01 50.0681C388.693 50.4421 390.064 51.2523 391.123 52.4987C392.245 53.7452 393.959 56.1757 396.265 59.7905C398.509 63.4052 400.347 66.1162 401.781 67.9235C403.214 69.6686 404.585 70.915 405.894 71.6629C407.265 72.4108 408.885 72.8159 410.755 72.8782ZM429.075 31.4648C426.707 31.4648 424.837 31.8076 423.466 32.4932C422.095 33.1164 421.004 34.207 420.194 35.7651C419.446 37.3232 418.854 39.5356 418.418 42.4024C418.418 42.5271 418.231 42.5894 417.857 42.5894C417.545 42.5894 417.389 42.5271 417.389 42.4024C417.576 40.969 417.795 38.6631 418.044 35.4846C418.293 32.3062 418.418 29.8756 418.418 28.1929C418.418 27.8813 418.605 27.7255 418.979 27.7255C419.353 27.7255 419.54 27.8813 419.54 28.1929C419.54 29.0031 420.007 29.5328 420.942 29.7821C421.877 29.9691 423.03 30.0626 424.401 30.0626C429.885 30.1872 434.59 30.2495 438.517 30.2495L446.65 30.1561C447.772 30.0937 449.236 30.0626 451.044 30.0626C453.287 30.0626 454.939 29.9379 455.998 29.6886C457.058 29.377 457.743 28.7538 458.055 27.819C458.18 27.632 458.398 27.5385 458.709 27.5385C459.021 27.5385 459.177 27.632 459.177 27.819C458.803 34.5498 458.616 39.411 458.616 42.4024C458.616 42.5271 458.429 42.5894 458.055 42.5894C457.743 42.5894 457.588 42.5271 457.588 42.4024C457.525 39.5979 457.182 37.4166 456.559 35.8586C455.998 34.3005 455.032 33.1787 453.661 32.4932C452.29 31.8076 450.389 31.4648 447.959 31.4648C445.279 31.4648 443.503 31.9011 442.63 32.7736C441.758 33.5838 441.321 35.2665 441.321 37.8217V66.4278C441.321 68.3598 441.508 69.7621 441.882 70.6346C442.256 71.5071 442.973 72.0992 444.032 72.4108C445.092 72.7224 446.837 72.8782 449.267 72.8782C449.454 72.8782 449.548 73.0652 449.548 73.4391C449.548 73.813 449.454 74 449.267 74C447.335 74 445.84 73.9688 444.78 73.9065L438.236 73.813L431.973 73.9065C430.851 73.9688 429.293 74 427.299 74C427.174 74 427.112 73.813 427.112 73.4391C427.112 73.0652 427.174 72.8782 427.299 72.8782C429.667 72.8782 431.412 72.7224 432.534 72.4108C433.656 72.0992 434.404 71.5071 434.777 70.6346C435.214 69.6997 435.432 68.2975 435.432 66.4278V37.6348C435.432 35.8274 435.276 34.5186 434.964 33.7084C434.715 32.8359 434.154 32.2439 433.282 31.9323C432.409 31.6206 431.007 31.4648 429.075 31.4648ZM491.718 49.4137C497.078 49.4137 501.16 50.3797 503.964 52.3117C506.769 54.2437 508.171 57.0483 508.171 60.7253C508.171 64.7763 506.551 68.0794 503.31 70.6346C500.069 73.1275 495.894 74.3739 490.783 74.3739C489.163 74.3739 487.262 74.2805 485.081 74.0935C484.208 74.0312 483.18 73.9688 481.996 73.9065C480.811 73.8442 479.534 73.813 478.163 73.813L472.741 73.9065C471.681 73.9688 470.248 74 468.44 74C468.316 74 468.253 73.813 468.253 73.4391C468.253 73.0652 468.316 72.8782 468.44 72.8782C470.559 72.8782 472.086 72.7224 473.021 72.4108C474.018 72.0992 474.673 71.5071 474.984 70.6346C475.358 69.6997 475.545 68.2975 475.545 66.4278V37.8217C475.545 35.9521 475.358 34.581 474.984 33.7084C474.673 32.8359 474.018 32.2439 473.021 31.9323C472.086 31.5583 470.591 31.3714 468.534 31.3714C468.409 31.3714 468.347 31.1844 468.347 30.8105C468.347 30.4365 468.409 30.2495 468.534 30.2495L472.741 30.343C475.109 30.4677 476.947 30.53 478.256 30.53C479.814 30.53 481.777 30.4677 484.146 30.343L488.166 30.2495C488.29 30.2495 488.352 30.4365 488.352 30.8105C488.352 31.1844 488.29 31.3714 488.166 31.3714C486.171 31.3714 484.675 31.5583 483.678 31.9323C482.681 32.3062 481.996 32.9606 481.622 33.8954C481.31 34.7679 481.154 36.139 481.154 38.0087V50.4421C485.268 49.7565 488.789 49.4137 491.718 49.4137ZM532.944 72.8782C533.069 72.8782 533.131 73.0652 533.131 73.4391C533.131 73.813 533.069 74 532.944 74C531.199 74 529.828 73.9688 528.831 73.9065L522.942 73.813L517.426 73.9065C516.366 73.9688 514.933 74 513.126 74C513.001 74 512.939 73.813 512.939 73.4391C512.939 73.0652 513.001 72.8782 513.126 72.8782C515.245 72.8782 516.772 72.7224 517.706 72.4108C518.641 72.0992 519.264 71.5071 519.576 70.6346C519.95 69.7621 520.137 68.3598 520.137 66.4278V37.8217C520.137 35.9521 519.95 34.581 519.576 33.7084C519.264 32.8359 518.61 32.2439 517.613 31.9323C516.678 31.5583 515.182 31.3714 513.126 31.3714C513.001 31.3714 512.939 31.1844 512.939 30.8105C512.939 30.4365 513.001 30.2495 513.126 30.2495L517.426 30.343C519.67 30.4677 521.508 30.53 522.942 30.53C524.562 30.53 526.556 30.4677 528.924 30.343L532.944 30.2495C533.069 30.2495 533.131 30.4365 533.131 30.8105C533.131 31.1844 533.069 31.3714 532.944 31.3714C530.95 31.3714 529.454 31.5583 528.457 31.9323C527.46 32.3062 526.774 32.9606 526.4 33.8954C526.089 34.7679 525.933 36.139 525.933 38.0087V66.4278C525.933 68.3598 526.089 69.7621 526.4 70.6346C526.774 71.5071 527.429 72.0992 528.364 72.4108C529.298 72.7224 530.825 72.8782 532.944 72.8782ZM489.007 72.8782C493.432 72.8782 496.704 72.0057 498.823 70.2606C500.942 68.4533 502.001 65.8981 502.001 62.595C502.001 58.9179 500.724 56.1134 498.168 54.1814C495.675 52.1871 492.123 51.1899 487.511 51.1899C485.517 51.1899 483.398 51.3769 481.154 51.7508V66.4278C481.154 68.7961 481.684 70.4788 482.743 71.4759C483.803 72.4108 485.891 72.8782 489.007 72.8782Z" fill="#21242E"/>
<path d="M51.0361 170.679H48.5117V166.94H44.7734V164.19H48.5117V160.452H51.0361V164.19H54.7852V166.94H51.0361V170.679ZM56.2139 156.596H66.7734V159.238L60.7256 172H57.3203L63.2607 159.571H56.2139V156.596ZM76.667 163.524C76.4593 164.527 76.3555 165.519 76.3555 166.5C76.3555 167.481 76.4557 168.473 76.6562 169.476C76.8639 170.471 77.1146 171.327 77.4082 172.043C77.7018 172.759 77.9919 173.407 78.2783 173.987C78.5648 174.567 78.8118 175.004 79.0195 175.298L79.3203 175.738L77.0107 177.06C76.9105 176.945 76.778 176.78 76.6133 176.565C76.4557 176.351 76.1657 175.889 75.7432 175.18C75.3278 174.471 74.9626 173.733 74.6475 172.967C74.3324 172.208 74.0423 171.237 73.7773 170.056C73.5124 168.874 73.3799 167.689 73.3799 166.5C73.3799 165.311 73.5052 164.133 73.7559 162.966C74.0065 161.799 74.3073 160.814 74.6582 160.012C75.0091 159.202 75.3636 158.479 75.7217 157.842C76.0869 157.204 76.3913 156.732 76.6348 156.424L77.0107 155.94L79.3203 157.369C79.2487 157.469 79.1413 157.62 78.998 157.82C78.862 158.021 78.6257 158.436 78.2891 159.066C77.9525 159.697 77.6517 160.345 77.3867 161.011C77.1217 161.677 76.8818 162.515 76.667 163.524ZM86.1523 167.048C84.7702 167.048 83.542 166.507 82.4678 165.426C81.4007 164.337 80.8672 163.08 80.8672 161.655C80.8672 160.144 81.415 158.869 82.5107 157.831C83.6136 156.793 85.0065 156.273 86.6895 156.273C88.3796 156.273 89.776 156.793 90.8789 157.831C91.9818 158.869 92.5332 160.144 92.5332 161.655C92.5332 162.271 92.4222 162.894 92.2002 163.524C91.9782 164.147 91.7562 164.613 91.5342 164.921L91.2119 165.404L86.915 172H83.5098L86.8076 166.94C86.6214 167.012 86.403 167.048 86.1523 167.048ZM84.7988 159.861C84.3047 160.341 84.0576 160.943 84.0576 161.666C84.0576 162.382 84.3047 162.984 84.7988 163.471C85.3001 163.951 85.9303 164.19 86.6895 164.19C87.4557 164.19 88.0895 163.951 88.5908 163.471C89.0921 162.984 89.3428 162.382 89.3428 161.666C89.3428 160.943 89.0921 160.341 88.5908 159.861C88.0895 159.374 87.4557 159.131 86.6895 159.131C85.9303 159.131 85.3001 159.374 84.7988 159.861ZM104.962 172H94.1875C94.1875 170.868 94.3701 169.844 94.7354 168.928C95.1006 168.011 95.5553 167.288 96.0996 166.758C96.6439 166.221 97.2347 165.712 97.8721 165.232C98.5094 164.745 99.0967 164.334 99.6338 163.997C100.178 163.653 100.633 163.256 100.998 162.805C101.37 162.346 101.557 161.856 101.557 161.333C101.557 160.717 101.363 160.234 100.977 159.883C100.597 159.525 100.056 159.346 99.3545 159.346C98.7959 159.346 98.3125 159.503 97.9043 159.818C97.5033 160.133 97.2383 160.445 97.1094 160.753L96.9375 161.215L94.1875 159.904C94.2161 159.804 94.2627 159.672 94.3271 159.507C94.3916 159.342 94.5635 159.052 94.8428 158.637C95.1221 158.214 95.4443 157.845 95.8096 157.53C96.1748 157.215 96.6904 156.929 97.3564 156.671C98.0296 156.406 98.7673 156.273 99.5693 156.273C101.138 156.273 102.427 156.75 103.437 157.702C104.453 158.655 104.962 159.826 104.962 161.215C104.962 161.995 104.794 162.704 104.457 163.342C104.12 163.979 103.68 164.523 103.136 164.975C102.591 165.419 102.033 165.83 101.46 166.21C100.894 166.582 100.314 167.008 99.7197 167.488C99.1253 167.961 98.6742 168.437 98.3662 168.917H104.962V172ZM115.199 163.857C115.271 163.886 115.368 163.929 115.489 163.986C115.618 164.036 115.84 164.165 116.155 164.373C116.47 164.574 116.746 164.806 116.982 165.071C117.226 165.336 117.448 165.705 117.648 166.178C117.849 166.643 117.949 167.155 117.949 167.714C117.949 168.974 117.423 170.059 116.37 170.969C115.325 171.878 113.942 172.333 112.224 172.333C111.493 172.333 110.788 172.247 110.107 172.075C109.434 171.91 108.883 171.71 108.453 171.474C108.023 171.237 107.644 171.005 107.314 170.775C106.992 170.539 106.759 170.331 106.616 170.152L106.391 169.905L108.378 167.821C108.407 167.864 108.453 167.925 108.518 168.004C108.582 168.076 108.729 168.208 108.958 168.401C109.187 168.588 109.427 168.756 109.678 168.906C109.936 169.049 110.261 169.178 110.655 169.293C111.056 169.408 111.468 169.465 111.891 169.465C112.743 169.465 113.395 169.279 113.846 168.906C114.304 168.534 114.533 168.061 114.533 167.488C114.533 166.915 114.308 166.443 113.856 166.07C113.412 165.698 112.797 165.512 112.009 165.512H110.354V162.762H111.891C112.535 162.762 113.044 162.59 113.416 162.246C113.796 161.902 113.985 161.451 113.985 160.893C113.985 160.377 113.799 159.954 113.427 159.625C113.054 159.296 112.542 159.131 111.891 159.131C111.332 159.131 110.806 159.253 110.312 159.496C109.825 159.74 109.474 159.976 109.259 160.205L108.926 160.56L106.949 158.583C106.992 158.526 107.057 158.447 107.143 158.347C107.229 158.239 107.433 158.049 107.755 157.777C108.084 157.505 108.435 157.272 108.808 157.079C109.18 156.879 109.674 156.696 110.29 156.531C110.906 156.359 111.55 156.273 112.224 156.273C113.778 156.273 115.027 156.685 115.973 157.509C116.918 158.325 117.391 159.342 117.391 160.56C117.391 161.011 117.312 161.433 117.154 161.827C117.004 162.214 116.821 162.529 116.606 162.772C116.399 163.016 116.188 163.224 115.973 163.396C115.765 163.56 115.579 163.678 115.414 163.75L115.199 163.857ZM122.031 169.497C122.246 168.48 122.354 167.481 122.354 166.5C122.354 165.519 122.25 164.534 122.042 163.546C121.834 162.55 121.584 161.698 121.29 160.989C120.996 160.28 120.706 159.643 120.42 159.077C120.141 158.511 119.897 158.082 119.689 157.788L119.378 157.369L121.688 155.94C121.788 156.055 121.92 156.22 122.085 156.435C122.25 156.649 122.54 157.111 122.955 157.82C123.37 158.529 123.736 159.267 124.051 160.033C124.366 160.792 124.656 161.763 124.921 162.944C125.186 164.126 125.318 165.311 125.318 166.5C125.318 167.689 125.193 168.867 124.942 170.034C124.699 171.201 124.395 172.186 124.029 172.988C123.671 173.798 123.317 174.521 122.966 175.158C122.615 175.796 122.314 176.268 122.063 176.576L121.688 177.06L119.378 175.738C119.45 175.638 119.553 175.488 119.689 175.287C119.833 175.094 120.073 174.671 120.409 174.02C120.753 173.375 121.054 172.713 121.312 172.032C121.576 171.352 121.816 170.507 122.031 169.497ZM132.032 156.596H142.592V159.238L136.544 172H133.139L139.079 159.571H132.032V156.596ZM148.188 160.56C147.537 161.44 147.211 162.687 147.211 164.298C147.211 165.909 147.537 167.155 148.188 168.036C148.84 168.917 149.614 169.357 150.509 169.357C151.404 169.357 152.177 168.917 152.829 168.036C153.481 167.155 153.807 165.909 153.807 164.298C153.807 162.687 153.481 161.44 152.829 160.56C152.177 159.679 151.404 159.238 150.509 159.238C149.614 159.238 148.84 159.679 148.188 160.56ZM155.182 158.486C156.464 159.954 157.104 161.892 157.104 164.298C157.104 166.704 156.464 168.645 155.182 170.12C153.9 171.595 152.342 172.333 150.509 172.333C148.675 172.333 147.118 171.595 145.836 170.12C144.554 168.645 143.913 166.704 143.913 164.298C143.913 161.892 144.554 159.954 145.836 158.486C147.118 157.011 148.675 156.273 150.509 156.273C152.342 156.273 153.9 157.011 155.182 158.486ZM162.39 156.596H165.14V172H161.842V160.785H159.199V158.69C159.672 158.633 160.105 158.522 160.499 158.357C160.893 158.186 161.197 158.003 161.412 157.81C161.634 157.616 161.82 157.43 161.971 157.251C162.128 157.065 162.239 156.907 162.304 156.778L162.39 156.596ZM175.817 164.19V166.833H167.9V164.19H175.817ZM187.795 166.393H189.557V169.25H187.795V172H184.497V169.25H177.235V165.952L183.949 156.596H187.795V166.393ZM184.497 166.393V160.452L180.318 166.393H184.497ZM195.497 160.56C194.845 161.44 194.52 162.687 194.52 164.298C194.52 165.909 194.845 167.155 195.497 168.036C196.149 168.917 196.922 169.357 197.817 169.357C198.713 169.357 199.486 168.917 200.138 168.036C200.789 167.155 201.115 165.909 201.115 164.298C201.115 162.687 200.789 161.44 200.138 160.56C199.486 159.679 198.713 159.238 197.817 159.238C196.922 159.238 196.149 159.679 195.497 160.56ZM202.49 158.486C203.772 159.954 204.413 161.892 204.413 164.298C204.413 166.704 203.772 168.645 202.49 170.12C201.208 171.595 199.651 172.333 197.817 172.333C195.984 172.333 194.426 171.595 193.145 170.12C191.863 168.645 191.222 166.704 191.222 164.298C191.222 161.892 191.863 159.954 193.145 158.486C194.426 157.011 195.984 156.273 197.817 156.273C199.651 156.273 201.208 157.011 202.49 158.486ZM214.769 164.19V166.833H206.852V164.19H214.769ZM221.021 160.56C220.369 161.44 220.043 162.687 220.043 164.298C220.043 165.909 220.369 167.155 221.021 168.036C221.672 168.917 222.446 169.357 223.341 169.357C224.236 169.357 225.009 168.917 225.661 168.036C226.313 167.155 226.639 165.909 226.639 164.298C226.639 162.687 226.313 161.44 225.661 160.56C225.009 159.679 224.236 159.238 223.341 159.238C222.446 159.238 221.672 159.679 221.021 160.56ZM228.014 158.486C229.296 159.954 229.937 161.892 229.937 164.298C229.937 166.704 229.296 168.645 228.014 170.12C226.732 171.595 225.174 172.333 223.341 172.333C221.507 172.333 219.95 171.595 218.668 170.12C217.386 168.645 216.745 166.704 216.745 164.298C216.745 161.892 217.386 159.954 218.668 158.486C219.95 157.011 221.507 156.273 223.341 156.273C225.174 156.273 226.732 157.011 228.014 158.486ZM236.64 160.56C235.988 161.44 235.662 162.687 235.662 164.298C235.662 165.909 235.988 167.155 236.64 168.036C237.291 168.917 238.065 169.357 238.96 169.357C239.855 169.357 240.629 168.917 241.28 168.036C241.932 167.155 242.258 165.909 242.258 164.298C242.258 162.687 241.932 161.44 241.28 160.56C240.629 159.679 239.855 159.238 238.96 159.238C238.065 159.238 237.291 159.679 236.64 160.56ZM243.633 158.486C244.915 159.954 245.556 161.892 245.556 164.298C245.556 166.704 244.915 168.645 243.633 170.12C242.351 171.595 240.793 172.333 238.96 172.333C237.127 172.333 235.569 171.595 234.287 170.12C233.005 168.645 232.364 166.704 232.364 164.298C232.364 161.892 233.005 159.954 234.287 158.486C235.569 157.011 237.127 156.273 238.96 156.273C240.793 156.273 242.351 157.011 243.633 158.486Z" fill="#21242E"/>
<path d="M6.76902 152H0.315805C0.315805 152 -0.394757 157.487 0.315805 160.882C1.19851 165.099 2.20327 167.703 5.25001 170.75C8.29675 173.797 10.9011 174.801 15.1184 175.684C18.5133 176.395 24 175.684 24 175.684V169.231C24 168.37 23.4491 167.606 22.6325 167.334L19.0188 166.129C18.4586 165.942 17.8418 166.138 17.4918 166.614C16.2087 168.357 13.6451 168.476 12.2068 166.858L9.33053 163.622C8.0279 162.156 8.11226 159.925 9.5218 158.562C9.92662 158.17 10.0709 157.581 9.89283 157.047L8.66638 153.368C8.39416 152.551 7.62988 152 6.76902 152Z" fill="#95B04C"/>
<path d="M52.6904 227.44V228.869H47.1904V238H45.6543V227.44H52.6904ZM52.7656 237.914C52.5723 237.706 52.4756 237.441 52.4756 237.119C52.4756 236.797 52.5723 236.535 52.7656 236.335C52.9661 236.127 53.2347 236.023 53.5713 236.023C53.9079 236.023 54.1729 236.127 54.3662 236.335C54.5667 236.535 54.667 236.797 54.667 237.119C54.667 237.441 54.5667 237.706 54.3662 237.914C54.1729 238.115 53.9079 238.215 53.5713 238.215C53.2347 238.215 52.9661 238.115 52.7656 237.914ZM62.3799 238V222.596H64.0342V229.417H72.6064V222.596H74.2607V238H72.6064V230.964H64.0342V238H62.3799ZM85.5508 235.615C86.3099 234.827 86.6895 233.864 86.6895 232.726C86.6895 231.58 86.3099 230.617 85.5508 229.836C84.7988 229.048 83.8929 228.654 82.833 228.654C81.7803 228.654 80.8743 229.048 80.1152 229.836C79.3633 230.617 78.9873 231.576 78.9873 232.715C78.9873 233.846 79.3633 234.81 80.1152 235.604C80.8743 236.392 81.7803 236.786 82.833 236.786C83.8929 236.786 84.7988 236.396 85.5508 235.615ZM79.0195 236.625C77.974 235.565 77.4512 234.265 77.4512 232.726C77.4512 231.179 77.974 229.875 79.0195 228.815C80.0723 227.748 81.347 227.215 82.8438 227.215C84.3405 227.215 85.6117 227.748 86.6572 228.815C87.7028 229.875 88.2256 231.179 88.2256 232.726C88.2256 234.265 87.7028 235.565 86.6572 236.625C85.6117 237.685 84.3405 238.215 82.8438 238.215C81.347 238.215 80.0723 237.685 79.0195 236.625ZM90.9863 227.44H95.8203C96.7871 227.44 97.5605 227.702 98.1406 228.225C98.7207 228.74 99.0107 229.396 99.0107 230.19C99.0107 230.642 98.8997 231.053 98.6777 231.426C98.4629 231.791 98.2445 232.045 98.0225 232.188L97.6895 232.393C97.7324 232.407 97.7933 232.428 97.8721 232.457C97.958 232.486 98.1012 232.564 98.3018 232.693C98.5094 232.815 98.6885 232.962 98.8389 233.134C98.9964 233.299 99.1361 233.538 99.2578 233.854C99.3867 234.169 99.4512 234.523 99.4512 234.917C99.4512 235.869 99.154 236.621 98.5596 237.173C97.9652 237.724 97.1273 238 96.0459 238H90.9863V227.44ZM96.0459 233.048H92.5225V236.571H96.0459C96.6475 236.571 97.1094 236.417 97.4316 236.109C97.7539 235.801 97.915 235.368 97.915 234.81C97.915 234.251 97.7539 233.818 97.4316 233.51C97.1094 233.202 96.6475 233.048 96.0459 233.048ZM95.8203 231.727C96.9232 231.727 97.4746 231.25 97.4746 230.298C97.4746 229.345 96.9232 228.869 95.8203 228.869H92.5225V231.727H95.8203ZM109.742 235.615C110.501 234.827 110.881 233.864 110.881 232.726C110.881 231.58 110.501 230.617 109.742 229.836C108.99 229.048 108.084 228.654 107.024 228.654C105.972 228.654 105.066 229.048 104.307 229.836C103.555 230.617 103.179 231.576 103.179 232.715C103.179 233.846 103.555 234.81 104.307 235.604C105.066 236.392 105.972 236.786 107.024 236.786C108.084 236.786 108.99 236.396 109.742 235.615ZM103.211 236.625C102.165 235.565 101.643 234.265 101.643 232.726C101.643 231.179 102.165 229.875 103.211 228.815C104.264 227.748 105.538 227.215 107.035 227.215C108.532 227.215 109.803 227.748 110.849 228.815C111.894 229.875 112.417 231.179 112.417 232.726C112.417 234.265 111.894 235.565 110.849 236.625C109.803 237.685 108.532 238.215 107.035 238.215C105.538 238.215 104.264 237.685 103.211 236.625ZM115.962 236.614C114.924 235.54 114.404 234.24 114.404 232.715C114.404 231.189 114.924 229.893 115.962 228.826C117.007 227.752 118.246 227.215 119.679 227.215C120.502 227.215 121.269 227.394 121.978 227.752C122.694 228.103 123.206 228.454 123.514 228.805L123.976 229.31L122.869 230.405C122.84 230.362 122.798 230.301 122.74 230.223C122.683 230.144 122.554 230.001 122.354 229.793C122.16 229.585 121.949 229.406 121.72 229.256C121.491 229.098 121.193 228.959 120.828 228.837C120.463 228.715 120.08 228.654 119.679 228.654C118.669 228.654 117.792 229.048 117.047 229.836C116.309 230.617 115.94 231.58 115.94 232.726C115.94 233.864 116.309 234.827 117.047 235.615C117.792 236.396 118.669 236.786 119.679 236.786C120.295 236.786 120.878 236.639 121.43 236.346C121.981 236.052 122.382 235.758 122.633 235.465L122.987 235.035L124.083 236.023C124.04 236.081 123.972 236.163 123.879 236.271C123.793 236.371 123.607 236.546 123.32 236.797C123.034 237.04 122.733 237.259 122.418 237.452C122.103 237.638 121.695 237.814 121.193 237.979C120.699 238.136 120.194 238.215 119.679 238.215C118.239 238.215 117 237.681 115.962 236.614ZM134.417 227.44H135.738V238H134.191V230.083L127.811 238H126.5V227.44H128.036V235.357L134.417 227.44ZM149.263 232.94C149.263 234.423 148.761 235.673 147.759 236.689C146.756 237.706 145.535 238.215 144.096 238.215C142.542 238.215 141.274 237.624 140.293 236.442C139.312 235.254 138.821 233.574 138.821 231.404C138.821 226.549 140.615 223.799 144.203 223.154C144.984 223.025 145.678 222.857 146.287 222.649C146.896 222.442 147.304 222.27 147.512 222.134L147.834 221.94L148.607 223.154C148.02 223.67 146.627 224.146 144.429 224.583C143.269 224.819 142.33 225.371 141.614 226.237C140.905 227.097 140.522 228.268 140.465 229.75C140.493 229.693 140.54 229.618 140.604 229.524C140.676 229.424 140.823 229.259 141.045 229.03C141.274 228.794 141.525 228.583 141.797 228.396C142.069 228.21 142.42 228.042 142.85 227.892C143.286 227.734 143.738 227.655 144.203 227.655C145.6 227.655 146.792 228.171 147.78 229.202C148.769 230.226 149.263 231.472 149.263 232.94ZM141.528 230.201C140.819 230.939 140.465 231.852 140.465 232.94C140.465 234.029 140.819 234.942 141.528 235.68C142.244 236.417 143.1 236.786 144.096 236.786C145.091 236.786 145.943 236.417 146.652 235.68C147.368 234.942 147.727 234.029 147.727 232.94C147.727 231.852 147.368 230.939 146.652 230.201C145.943 229.464 145.091 229.095 144.096 229.095C143.1 229.095 142.244 229.464 141.528 230.201ZM160.048 227.44H161.369V238H159.822V230.083L153.441 238H152.131V227.44H153.667V235.357L160.048 227.44ZM167.578 229.879C166.812 230.688 166.429 231.637 166.429 232.726C166.429 233.807 166.812 234.756 167.578 235.572C168.352 236.382 169.215 236.786 170.167 236.786C171.076 236.786 171.889 236.392 172.605 235.604C173.329 234.81 173.69 233.85 173.69 232.726C173.69 231.594 173.329 230.634 172.605 229.847C171.889 229.052 171.076 228.654 170.167 228.654C169.215 228.654 168.352 229.062 167.578 229.879ZM166.429 236.346V242.619H164.893V227.44H166.429V229.095C166.457 229.052 166.507 228.987 166.579 228.901C166.658 228.808 166.812 228.654 167.041 228.439C167.277 228.225 167.532 228.035 167.804 227.87C168.076 227.698 168.423 227.548 168.846 227.419C169.275 227.283 169.716 227.215 170.167 227.215C171.513 227.215 172.691 227.756 173.701 228.837C174.718 229.918 175.227 231.215 175.227 232.726C175.227 234.229 174.722 235.522 173.712 236.604C172.702 237.678 171.521 238.215 170.167 238.215C169.716 238.215 169.279 238.15 168.856 238.021C168.441 237.893 168.09 237.739 167.804 237.56C167.517 237.381 167.267 237.201 167.052 237.022C166.844 236.836 166.687 236.679 166.579 236.55L166.429 236.346ZM178.761 236.614C177.722 235.54 177.203 234.24 177.203 232.715C177.203 231.189 177.722 229.893 178.761 228.826C179.806 227.752 181.045 227.215 182.478 227.215C183.301 227.215 184.067 227.394 184.776 227.752C185.493 228.103 186.005 228.454 186.312 228.805L186.774 229.31L185.668 230.405C185.639 230.362 185.596 230.301 185.539 230.223C185.482 230.144 185.353 230.001 185.152 229.793C184.959 229.585 184.748 229.406 184.519 229.256C184.289 229.098 183.992 228.959 183.627 228.837C183.262 228.715 182.879 228.654 182.478 228.654C181.468 228.654 180.59 229.048 179.846 229.836C179.108 230.617 178.739 231.58 178.739 232.726C178.739 233.864 179.108 234.827 179.846 235.615C180.59 236.396 181.468 236.786 182.478 236.786C183.093 236.786 183.677 236.639 184.229 236.346C184.78 236.052 185.181 235.758 185.432 235.465L185.786 235.035L186.882 236.023C186.839 236.081 186.771 236.163 186.678 236.271C186.592 236.371 186.406 236.546 186.119 236.797C185.833 237.04 185.532 237.259 185.217 237.452C184.902 237.638 184.493 237.814 183.992 237.979C183.498 238.136 182.993 238.215 182.478 238.215C181.038 238.215 179.799 237.681 178.761 236.614ZM190.835 235.035V238H189.299V227.44H190.835V233.048L196.109 227.44H197.989L193.918 231.727L198.43 238H196.668L192.93 232.833L190.835 235.035ZM200.729 236.023L202.275 236.904L199.74 240.857L198.752 240.31L200.729 236.023ZM211.299 235.905C209.759 234.366 208.989 232.496 208.989 230.298C208.989 228.099 209.759 226.23 211.299 224.69C212.839 223.151 214.708 222.381 216.906 222.381C217.687 222.381 218.435 222.492 219.151 222.714C219.868 222.929 220.458 223.19 220.924 223.498C221.396 223.806 221.808 224.118 222.159 224.433C222.517 224.748 222.775 225.016 222.933 225.238L223.18 225.571L222.073 226.56C222.03 226.488 221.966 226.395 221.88 226.28C221.794 226.159 221.593 225.947 221.278 225.646C220.963 225.346 220.619 225.081 220.247 224.852C219.882 224.615 219.398 224.4 218.797 224.207C218.195 224.014 217.565 223.917 216.906 223.917C215.145 223.917 213.659 224.529 212.448 225.754C211.238 226.979 210.633 228.493 210.633 230.298C210.633 232.103 211.238 233.617 212.448 234.842C213.659 236.066 215.145 236.679 216.906 236.679C217.565 236.679 218.195 236.589 218.797 236.41C219.398 236.224 219.896 236.002 220.29 235.744C220.691 235.486 221.042 235.232 221.343 234.981C221.644 234.724 221.858 234.498 221.987 234.305L222.191 234.036L223.287 235.035C223.23 235.121 223.14 235.236 223.019 235.379C222.904 235.515 222.643 235.766 222.234 236.131C221.833 236.496 221.407 236.822 220.956 237.108C220.505 237.395 219.91 237.653 219.173 237.882C218.442 238.104 217.687 238.215 216.906 238.215C214.708 238.215 212.839 237.445 211.299 235.905ZM235.275 233.295L226.692 233.273C226.75 234.226 227.14 235.049 227.863 235.744C228.594 236.439 229.45 236.786 230.431 236.786C231.09 236.786 231.702 236.639 232.268 236.346C232.833 236.052 233.234 235.758 233.471 235.465L233.847 235.035L234.835 236.023C234.792 236.081 234.728 236.163 234.642 236.271C234.563 236.371 234.384 236.546 234.104 236.797C233.832 237.04 233.535 237.259 233.213 237.452C232.898 237.638 232.486 237.814 231.978 237.979C231.476 238.136 230.961 238.215 230.431 238.215C228.991 238.215 227.752 237.681 226.714 236.614C225.675 235.54 225.156 234.24 225.156 232.715C225.156 231.189 225.668 229.893 226.692 228.826C227.724 227.752 228.934 227.215 230.323 227.215C231.763 227.215 232.966 227.716 233.933 228.719C234.899 229.714 235.383 230.975 235.383 232.5L235.275 233.295ZM232.687 229.589C232.035 228.966 231.247 228.654 230.323 228.654C229.399 228.654 228.594 228.98 227.906 229.632C227.219 230.284 226.814 231.057 226.692 231.952H233.847C233.732 231 233.345 230.212 232.687 229.589ZM247.371 230.19L243.515 235.035L239.669 230.19V238H238.133V227.44H239.336L243.515 232.715L247.693 227.44H248.907V238H247.371V230.19ZM253.978 236.571H256.749C257.437 236.571 257.988 236.378 258.403 235.991C258.826 235.597 259.037 235.092 259.037 234.477C259.037 233.861 258.826 233.359 258.403 232.973C257.988 232.586 257.429 232.393 256.728 232.393H253.978V236.571ZM259.542 231.931C260.229 232.575 260.573 233.427 260.573 234.487C260.573 235.54 260.233 236.389 259.553 237.033C258.872 237.678 257.938 238 256.749 238H252.441V227.44H253.978V230.964H256.728C257.916 230.964 258.854 231.286 259.542 231.931ZM271.251 227.44H272.572V238H271.025V230.083L264.645 238H263.334V227.44H264.87V235.357L271.251 227.44ZM280.94 238V222.596H282.595V236.464H288.976V222.596H290.619V236.464H297V222.596H298.654V238H280.94ZM304.917 231.952L308.988 231.286C308.988 230.506 308.741 229.872 308.247 229.385C307.753 228.898 307.119 228.654 306.346 228.654C305.787 228.654 305.261 228.783 304.767 229.041C304.28 229.292 303.925 229.549 303.703 229.814L303.37 230.19L302.382 229.202C302.425 229.145 302.482 229.073 302.554 228.987C302.632 228.894 302.797 228.737 303.048 228.515C303.306 228.285 303.574 228.081 303.854 227.902C304.133 227.723 304.498 227.566 304.949 227.43C305.408 227.286 305.873 227.215 306.346 227.215C307.549 227.215 308.544 227.605 309.332 228.386C310.127 229.166 310.524 230.133 310.524 231.286V238H308.988V236.571C308.96 236.614 308.913 236.675 308.849 236.754C308.791 236.826 308.655 236.958 308.44 237.151C308.233 237.338 308.007 237.506 307.764 237.656C307.52 237.799 307.198 237.928 306.797 238.043C306.403 238.158 305.995 238.215 305.572 238.215C304.52 238.215 303.632 237.903 302.908 237.28C302.192 236.657 301.834 235.945 301.834 235.143C301.834 234.262 302.099 233.553 302.629 233.016C303.159 232.471 303.922 232.117 304.917 231.952ZM305.572 236.786C306.568 236.786 307.384 236.46 308.021 235.809C308.666 235.157 308.988 234.312 308.988 233.273V232.607L305.357 233.273C304.04 233.524 303.377 234.147 303.37 235.143C303.37 235.615 303.563 236.009 303.95 236.324C304.344 236.632 304.885 236.786 305.572 236.786ZM323.275 230.19L319.419 235.035L315.573 230.19V238H314.037V227.44H315.24L319.419 232.715L323.598 227.44H324.812V238H323.275V230.19ZM328.346 238V227.44H329.882V236.571H334.394V227.44H335.951V236.571H340.441V227.44H341.978V238H328.346ZM353.429 227.44H354.75V238H353.203V230.083L346.822 238H345.512V227.44H347.048V235.357L353.429 227.44ZM365.857 238V233.381H359.81V238H358.273V227.44H359.81V231.952H365.857V227.44H367.404V238H365.857ZM382.476 227.44V238H380.929V227.44H382.476ZM372.464 236.571H375.128C375.815 236.571 376.367 236.378 376.782 235.991C377.205 235.597 377.416 235.092 377.416 234.477C377.416 233.861 377.205 233.359 376.782 232.973C376.367 232.586 375.808 232.393 375.106 232.393H372.464V236.571ZM377.921 231.931C378.608 232.575 378.952 233.427 378.952 234.487C378.952 235.54 378.612 236.389 377.932 237.033C377.251 237.678 376.317 238 375.128 238H370.928V227.44H372.464V230.964H375.106C376.295 230.964 377.233 231.286 377.921 231.931ZM389.501 233.714L386.429 238H384.549L388.513 232.5L384.882 227.44H386.751L389.501 231.286L392.251 227.44H394.12L390.489 232.5L394.453 238H392.584L389.501 233.714ZM48.1787 254.596H49.3926V270H47.7383V257.679H44.8809V256.69C45.3822 256.676 45.8333 256.594 46.2344 256.443C46.6354 256.286 46.9541 256.11 47.1904 255.917C47.4268 255.716 47.6201 255.516 47.7705 255.315C47.9281 255.115 48.0355 254.95 48.0928 254.821L48.1787 254.596ZM56.0957 260.268C56.6185 260.74 57.3132 260.977 58.1797 260.977C59.0462 260.977 59.7373 260.74 60.2529 260.268C60.7757 259.788 61.0371 259.183 61.0371 258.452C61.0371 257.715 60.7757 257.109 60.2529 256.637C59.7373 256.157 59.0462 255.917 58.1797 255.917C57.3132 255.917 56.6185 256.157 56.0957 256.637C55.5801 257.109 55.3223 257.715 55.3223 258.452C55.3223 259.183 55.5801 259.788 56.0957 260.268ZM54.9893 255.616C55.8701 254.793 56.9336 254.381 58.1797 254.381C59.4258 254.381 60.4893 254.793 61.3701 255.616C62.251 256.433 62.6914 257.378 62.6914 258.452C62.6914 258.875 62.6198 259.279 62.4766 259.666C62.3405 260.046 62.1758 260.35 61.9824 260.579C61.7962 260.801 61.6064 260.998 61.4131 261.17C61.2269 261.335 61.0658 261.456 60.9297 261.535L60.7148 261.643C60.7865 261.671 60.8796 261.711 60.9941 261.761C61.1159 261.811 61.3271 261.947 61.6279 262.169C61.9287 262.391 62.1937 262.634 62.4229 262.899C62.6592 263.157 62.8704 263.522 63.0566 263.995C63.25 264.461 63.3467 264.958 63.3467 265.488C63.3467 266.777 62.8525 267.887 61.8643 268.818C60.876 269.749 59.6478 270.215 58.1797 270.215C56.7116 270.215 55.4834 269.749 54.4951 268.818C53.5068 267.887 53.0127 266.777 53.0127 265.488C53.0127 264.958 53.1022 264.464 53.2812 264.006C53.4674 263.54 53.6895 263.172 53.9473 262.899C54.2051 262.62 54.4593 262.38 54.71 262.18C54.9678 261.979 55.1934 261.843 55.3867 261.771L55.6553 261.643C55.598 261.614 55.5228 261.578 55.4297 261.535C55.3438 261.485 55.1862 261.37 54.957 261.191C54.7279 261.005 54.5238 260.801 54.3447 260.579C54.1729 260.35 54.0153 260.046 53.8721 259.666C53.736 259.279 53.668 258.875 53.668 258.452C53.668 257.378 54.1084 256.433 54.9893 255.616ZM60.6611 263.265C59.9736 262.62 59.1465 262.298 58.1797 262.298C57.2129 262.298 56.3822 262.62 55.6875 263.265C55 263.909 54.6562 264.65 54.6562 265.488C54.6562 266.355 54.9785 267.103 55.623 267.733C56.2747 268.364 57.127 268.679 58.1797 268.679C59.2396 268.679 60.0918 268.364 60.7363 267.733C61.3809 267.103 61.7031 266.355 61.7031 265.488C61.7031 264.65 61.3558 263.909 60.6611 263.265ZM73.4658 254.381L66.8701 274.619H65.4414L72.0371 254.381H73.4658ZM78.4072 254.596H79.6211V270H77.9668V257.679H75.1094V256.69C75.6107 256.676 76.0618 256.594 76.4629 256.443C76.8639 256.286 77.1826 256.11 77.4189 255.917C77.6553 255.716 77.8486 255.516 77.999 255.315C78.1566 255.115 78.264 254.95 78.3213 254.821L78.4072 254.596ZM83.8965 268.023L85.4434 268.904L82.9082 272.857L81.9199 272.31L83.8965 268.023ZM107.121 257.464L100.955 265.596L94.7998 257.464V270H93.1455V254.596H94.5742L100.955 262.964L107.336 254.596H108.765V270H107.121V257.464ZM115.038 263.952L119.109 263.286C119.109 262.506 118.862 261.872 118.368 261.385C117.874 260.898 117.24 260.654 116.467 260.654C115.908 260.654 115.382 260.783 114.888 261.041C114.401 261.292 114.046 261.549 113.824 261.814L113.491 262.19L112.503 261.202C112.546 261.145 112.603 261.073 112.675 260.987C112.754 260.894 112.918 260.737 113.169 260.515C113.427 260.285 113.695 260.081 113.975 259.902C114.254 259.723 114.619 259.566 115.07 259.43C115.529 259.286 115.994 259.215 116.467 259.215C117.67 259.215 118.665 259.605 119.453 260.386C120.248 261.166 120.646 262.133 120.646 263.286V270H119.109V268.571C119.081 268.614 119.034 268.675 118.97 268.754C118.912 268.826 118.776 268.958 118.562 269.151C118.354 269.338 118.128 269.506 117.885 269.656C117.641 269.799 117.319 269.928 116.918 270.043C116.524 270.158 116.116 270.215 115.693 270.215C114.641 270.215 113.753 269.903 113.029 269.28C112.313 268.657 111.955 267.945 111.955 267.143C111.955 266.262 112.22 265.553 112.75 265.016C113.28 264.471 114.043 264.117 115.038 263.952ZM115.693 268.786C116.689 268.786 117.505 268.46 118.143 267.809C118.787 267.157 119.109 266.312 119.109 265.273V264.607L115.479 265.273C114.161 265.524 113.498 266.147 113.491 267.143C113.491 267.615 113.685 268.009 114.071 268.324C114.465 268.632 115.006 268.786 115.693 268.786ZM131.194 259.44V260.869H125.694V270H124.158V259.44H131.194ZM141.099 259.44H142.42V270H140.873V262.083L134.492 270H133.182V259.44H134.718V267.357L141.099 259.44ZM146.728 268.614C145.689 267.54 145.17 266.24 145.17 264.715C145.17 263.189 145.689 261.893 146.728 260.826C147.773 259.752 149.012 259.215 150.444 259.215C151.268 259.215 152.034 259.394 152.743 259.752C153.459 260.103 153.971 260.454 154.279 260.805L154.741 261.31L153.635 262.405C153.606 262.362 153.563 262.301 153.506 262.223C153.449 262.144 153.32 262.001 153.119 261.793C152.926 261.585 152.715 261.406 152.485 261.256C152.256 261.098 151.959 260.959 151.594 260.837C151.229 260.715 150.845 260.654 150.444 260.654C149.435 260.654 148.557 261.048 147.812 261.836C147.075 262.617 146.706 263.58 146.706 264.726C146.706 265.864 147.075 266.827 147.812 267.615C148.557 268.396 149.435 268.786 150.444 268.786C151.06 268.786 151.644 268.639 152.195 268.346C152.747 268.052 153.148 267.758 153.398 267.465L153.753 267.035L154.849 268.023C154.806 268.081 154.738 268.163 154.645 268.271C154.559 268.371 154.372 268.546 154.086 268.797C153.799 269.04 153.499 269.259 153.184 269.452C152.868 269.638 152.46 269.814 151.959 269.979C151.465 270.136 150.96 270.215 150.444 270.215C149.005 270.215 147.766 269.681 146.728 268.614ZM155.944 260.869V259.44H164.957V260.869H161.219V270H159.683V260.869H155.944ZM169.855 261.879C169.089 262.688 168.706 263.637 168.706 264.726C168.706 265.807 169.089 266.756 169.855 267.572C170.629 268.382 171.492 268.786 172.444 268.786C173.354 268.786 174.167 268.392 174.883 267.604C175.606 266.81 175.968 265.85 175.968 264.726C175.968 263.594 175.606 262.634 174.883 261.847C174.167 261.052 173.354 260.654 172.444 260.654C171.492 260.654 170.629 261.062 169.855 261.879ZM168.706 268.346V274.619H167.17V259.44H168.706V261.095C168.735 261.052 168.785 260.987 168.856 260.901C168.935 260.808 169.089 260.654 169.318 260.439C169.555 260.225 169.809 260.035 170.081 259.87C170.353 259.698 170.701 259.548 171.123 259.419C171.553 259.283 171.993 259.215 172.444 259.215C173.791 259.215 174.969 259.756 175.979 260.837C176.995 261.918 177.504 263.215 177.504 264.726C177.504 266.229 176.999 267.522 175.989 268.604C174.979 269.678 173.798 270.215 172.444 270.215C171.993 270.215 171.556 270.15 171.134 270.021C170.718 269.893 170.368 269.739 170.081 269.56C169.795 269.381 169.544 269.201 169.329 269.022C169.121 268.836 168.964 268.679 168.856 268.55L168.706 268.346ZM182.563 263.952L186.635 263.286C186.635 262.506 186.388 261.872 185.894 261.385C185.399 260.898 184.766 260.654 183.992 260.654C183.434 260.654 182.907 260.783 182.413 261.041C181.926 261.292 181.572 261.549 181.35 261.814L181.017 262.19L180.028 261.202C180.071 261.145 180.129 261.073 180.2 260.987C180.279 260.894 180.444 260.737 180.694 260.515C180.952 260.285 181.221 260.081 181.5 259.902C181.779 259.723 182.145 259.566 182.596 259.43C183.054 259.286 183.52 259.215 183.992 259.215C185.195 259.215 186.191 259.605 186.979 260.386C187.773 261.166 188.171 262.133 188.171 263.286V270H186.635V268.571C186.606 268.614 186.56 268.675 186.495 268.754C186.438 268.826 186.302 268.958 186.087 269.151C185.879 269.338 185.654 269.506 185.41 269.656C185.167 269.799 184.844 269.928 184.443 270.043C184.049 270.158 183.641 270.215 183.219 270.215C182.166 270.215 181.278 269.903 180.555 269.28C179.839 268.657 179.48 267.945 179.48 267.143C179.48 266.262 179.745 265.553 180.275 265.016C180.805 264.471 181.568 264.117 182.563 263.952ZM183.219 268.786C184.214 268.786 185.031 268.46 185.668 267.809C186.312 267.157 186.635 266.312 186.635 265.273V264.607L183.004 265.273C181.686 265.524 181.024 266.147 181.017 267.143C181.017 267.615 181.21 268.009 181.597 268.324C181.991 268.632 182.531 268.786 183.219 268.786ZM192.779 259.44H200.481V270H198.935V260.869H194.315V262.523C194.315 264.077 194.237 265.374 194.079 266.412C193.929 267.443 193.7 268.231 193.392 268.775C193.084 269.312 192.743 269.688 192.371 269.903C191.999 270.111 191.548 270.215 191.018 270.215C190.839 270.215 190.656 270.197 190.47 270.161C190.291 270.125 190.158 270.086 190.072 270.043L189.922 270V268.464C190.215 268.607 190.509 268.679 190.803 268.679C191.254 268.679 191.608 268.55 191.866 268.292C192.124 268.034 192.339 267.44 192.511 266.509C192.69 265.578 192.779 264.249 192.779 262.523V259.44ZM205.53 268.571H208.302C208.989 268.571 209.541 268.378 209.956 267.991C210.379 267.597 210.59 267.092 210.59 266.477C210.59 265.861 210.379 265.359 209.956 264.973C209.541 264.586 208.982 264.393 208.28 264.393H205.53V268.571ZM211.095 263.931C211.782 264.575 212.126 265.427 212.126 266.487C212.126 267.54 211.786 268.389 211.105 269.033C210.425 269.678 209.491 270 208.302 270H203.994V259.44H205.53V262.964H208.28C209.469 262.964 210.407 263.286 211.095 263.931ZM222.471 270V265.381H216.423V270H214.887V259.44H216.423V263.952H222.471V259.44H224.018V270H222.471ZM229.851 263.952L233.922 263.286C233.922 262.506 233.675 261.872 233.181 261.385C232.687 260.898 232.053 260.654 231.279 260.654C230.721 260.654 230.194 260.783 229.7 261.041C229.213 261.292 228.859 261.549 228.637 261.814L228.304 262.19L227.315 261.202C227.358 261.145 227.416 261.073 227.487 260.987C227.566 260.894 227.731 260.737 227.981 260.515C228.239 260.285 228.508 260.081 228.787 259.902C229.066 259.723 229.432 259.566 229.883 259.43C230.341 259.286 230.807 259.215 231.279 259.215C232.482 259.215 233.478 259.605 234.266 260.386C235.061 261.166 235.458 262.133 235.458 263.286V270H233.922V268.571C233.893 268.614 233.847 268.675 233.782 268.754C233.725 268.826 233.589 268.958 233.374 269.151C233.166 269.338 232.941 269.506 232.697 269.656C232.454 269.799 232.132 269.928 231.73 270.043C231.337 270.158 230.928 270.215 230.506 270.215C229.453 270.215 228.565 269.903 227.842 269.28C227.126 268.657 226.768 267.945 226.768 267.143C226.768 266.262 227.033 265.553 227.562 265.016C228.092 264.471 228.855 264.117 229.851 263.952ZM230.506 268.786C231.501 268.786 232.318 268.46 232.955 267.809C233.6 267.157 233.922 266.312 233.922 265.273V264.607L230.291 265.273C228.973 265.524 228.311 266.147 228.304 267.143C228.304 267.615 228.497 268.009 228.884 268.324C229.278 268.632 229.818 268.786 230.506 268.786ZM238.305 262.964C238.305 261.954 238.659 261.116 239.368 260.45C240.084 259.777 241.015 259.44 242.161 259.44H246.662V270H245.126V266.477H242.043L239.852 270H238.09L240.507 266.154C240.45 266.14 240.367 266.115 240.26 266.079C240.16 266.036 239.984 265.939 239.733 265.789C239.483 265.632 239.261 265.445 239.067 265.23C238.881 265.008 238.706 264.701 238.541 264.307C238.383 263.913 238.305 263.465 238.305 262.964ZM245.126 260.869H242.161C241.459 260.869 240.897 261.066 240.475 261.46C240.059 261.847 239.852 262.348 239.852 262.964C239.852 263.58 240.059 264.081 240.475 264.468C240.89 264.854 241.452 265.048 242.161 265.048H245.126V260.869ZM259.102 264.5C257.619 264.5 256.387 264.017 255.406 263.05C254.425 262.083 253.935 260.88 253.935 259.44C253.935 258.001 254.432 256.798 255.428 255.831C256.423 254.864 257.684 254.381 259.209 254.381C260.734 254.381 261.995 254.864 262.99 255.831C263.993 256.798 264.494 258.001 264.494 259.44C264.494 259.999 264.401 260.554 264.215 261.105C264.029 261.65 263.85 262.062 263.678 262.341L263.388 262.738L258.769 270H257.125L260.756 264.285C260.326 264.428 259.775 264.5 259.102 264.5ZM256.566 256.895C255.908 257.539 255.578 258.388 255.578 259.44C255.578 260.493 255.908 261.345 256.566 261.997C257.232 262.642 258.113 262.964 259.209 262.964C260.312 262.964 261.193 262.642 261.852 261.997C262.51 261.345 262.84 260.493 262.84 259.44C262.84 258.388 262.51 257.539 261.852 256.895C261.193 256.243 260.312 255.917 259.209 255.917C258.113 255.917 257.232 256.243 256.566 256.895Z" fill="#21242E"/>
<path d="M12 215C5.384 215 0 220.421 0 227.087C0 236.557 10.872 246.336 11.3347 246.747C11.5253 246.916 11.7627 247 12 247C12.2373 247 12.4747 246.916 12.6653 246.748C13.128 246.336 24 236.557 24 227.087C24 220.421 18.616 215 12 215ZM12 233.667C8.324 233.667 5.33333 230.676 5.33333 227C5.33333 223.324 8.324 220.333 12 220.333C15.676 220.333 18.6667 223.324 18.6667 227C18.6667 230.676 15.676 233.667 12 233.667Z" fill="#95B04C"/>
<path d="M19.8152 354.63C30.7614 354.63 39.6304 345.761 39.6304 334.815C39.6304 323.869 30.7614 315 19.8152 315C8.86895 315 0 323.869 0 334.815C0 345.761 8.86895 354.63 19.8152 354.63ZM9.0671 334.386L28.1722 327.02C29.059 326.699 29.8334 327.236 29.5461 328.577L29.5477 328.575L26.2948 343.9C26.0537 344.987 25.408 345.251 24.5048 344.739L19.551 341.088L17.1616 343.39C16.8974 343.654 16.6745 343.877 16.1626 343.877L16.5143 338.836L25.6953 330.542C26.095 330.19 25.6062 329.992 25.0794 330.342L13.7336 337.485L8.84253 335.96C7.78076 335.623 7.75765 334.898 9.0671 334.386V334.386Z" fill="#95B04C"/>
<path d="M81.4456 315C70.5036 315 61.6304 323.873 61.6304 334.815C61.6304 345.757 70.5036 354.63 81.4456 354.63C92.3875 354.63 101.261 345.757 101.261 334.815C101.261 323.873 92.3875 315 81.4456 315ZM81.8655 346.352C81.8652 346.352 81.8658 346.352 81.8655 346.352H81.8607C79.8757 346.351 77.9252 345.854 76.193 344.909L69.9062 346.558L71.5888 340.414C70.5508 338.616 70.0047 336.576 70.0056 334.487C70.0083 327.95 75.3286 322.632 81.8655 322.632C85.0378 322.633 88.0157 323.868 90.2547 326.109C92.4939 328.35 93.7263 331.328 93.7251 334.496C93.7224 341.033 88.4016 346.352 81.8655 346.352V346.352Z" fill="#95B04C"/>
<path d="M81.8694 324.634C76.4321 324.634 72.0102 329.054 72.0078 334.488C72.0071 336.35 72.5284 338.163 73.515 339.732L73.7493 340.105L72.7534 343.741L76.4841 342.763L76.8442 342.976C78.3575 343.874 80.0924 344.349 81.8612 344.35H81.8652C87.2982 344.35 91.7201 339.929 91.7226 334.496C91.7235 331.862 90.6991 329.387 88.8381 327.524C86.9771 325.662 84.502 324.635 81.8694 324.634V324.634ZM87.6674 338.724C87.4203 339.416 86.2366 340.048 85.6673 340.133C85.1566 340.209 84.5108 340.241 83.8008 340.016C83.3703 339.879 82.8185 339.697 82.1113 339.392C79.1388 338.108 77.1974 335.116 77.0492 334.919C76.9011 334.721 75.8392 333.312 75.8392 331.854C75.8392 330.396 76.6048 329.679 76.8763 329.383C77.1481 329.086 77.4692 329.012 77.6666 329.012C77.8641 329.012 78.0618 329.014 78.2345 329.022C78.4165 329.031 78.6608 328.953 78.9012 329.531C79.1482 330.124 79.7408 331.582 79.8149 331.73C79.889 331.879 79.9382 332.052 79.8397 332.249C79.7408 332.447 79.4124 332.874 79.0989 333.263C78.9674 333.426 78.7959 333.571 78.9689 333.867C79.1415 334.164 79.7366 335.134 80.6173 335.919C81.7494 336.929 82.7042 337.241 83.0005 337.39C83.2965 337.538 83.4695 337.513 83.6424 337.316C83.815 337.118 84.3832 336.451 84.5806 336.154C84.7781 335.857 84.9758 335.907 85.2473 336.006C85.5191 336.104 86.9759 336.821 87.2722 336.969C87.5685 337.118 87.7659 337.192 87.84 337.316C87.9144 337.439 87.9144 338.032 87.6674 338.724V338.724Z" fill="#95B04C"/>
<path d="M142.815 315C131.873 315 123 323.873 123 334.815C123 345.757 131.873 354.63 142.815 354.63C153.757 354.63 162.63 345.757 162.63 334.815C162.63 323.873 153.757 315 142.815 315Z" fill="#95B04C"/>
<path d="M154.616 341.751C154.586 341.687 154.558 341.633 154.532 341.59C154.102 340.817 153.282 339.868 152.071 338.742L152.045 338.717L152.032 338.704L152.019 338.691H152.006C151.457 338.167 151.109 337.815 150.963 337.634C150.696 337.291 150.636 336.943 150.782 336.59C150.885 336.324 151.272 335.762 151.942 334.903C152.294 334.447 152.573 334.083 152.779 333.808C154.265 331.832 154.91 330.569 154.712 330.02L154.635 329.891C154.584 329.814 154.45 329.743 154.236 329.678C154.021 329.614 153.746 329.603 153.411 329.646L149.7 329.672C149.64 329.651 149.555 329.653 149.443 329.678C149.331 329.704 149.275 329.717 149.275 329.717L149.211 329.749L149.159 329.788C149.116 329.814 149.069 329.859 149.017 329.923C148.966 329.988 148.923 330.063 148.889 330.149C148.485 331.188 148.026 332.155 147.51 333.048C147.192 333.581 146.9 334.042 146.634 334.433C146.368 334.824 146.144 335.112 145.964 335.296C145.784 335.481 145.621 335.629 145.474 335.741C145.328 335.852 145.217 335.9 145.139 335.882C145.062 335.865 144.989 335.848 144.92 335.831C144.8 335.753 144.703 335.648 144.63 335.515C144.557 335.382 144.508 335.214 144.482 335.013C144.457 334.811 144.441 334.637 144.437 334.491C144.433 334.345 144.435 334.138 144.444 333.872C144.453 333.606 144.457 333.426 144.457 333.331C144.457 333.005 144.463 332.65 144.476 332.268C144.489 331.886 144.499 331.583 144.508 331.36C144.517 331.137 144.521 330.9 144.521 330.651C144.521 330.402 144.506 330.207 144.476 330.065C144.446 329.923 144.401 329.786 144.341 329.652C144.281 329.519 144.192 329.416 144.077 329.343C143.961 329.27 143.817 329.212 143.645 329.169C143.19 329.066 142.61 329.01 141.905 329.002C140.308 328.985 139.281 329.088 138.826 329.311C138.646 329.406 138.482 329.534 138.336 329.698C138.182 329.887 138.16 329.99 138.272 330.007C138.787 330.084 139.152 330.269 139.367 330.561L139.444 330.715C139.505 330.827 139.565 331.025 139.625 331.308C139.685 331.592 139.724 331.905 139.741 332.249C139.784 332.876 139.784 333.413 139.741 333.859C139.698 334.306 139.657 334.654 139.618 334.903C139.58 335.152 139.522 335.354 139.444 335.508C139.367 335.663 139.316 335.757 139.29 335.792C139.264 335.826 139.242 335.848 139.225 335.856C139.114 335.899 138.998 335.921 138.877 335.921C138.757 335.921 138.611 335.861 138.439 335.74C138.268 335.62 138.09 335.455 137.905 335.244C137.72 335.034 137.512 334.739 137.28 334.362C137.048 333.984 136.807 333.537 136.558 333.022L136.352 332.648C136.223 332.407 136.047 332.057 135.824 331.598C135.601 331.138 135.403 330.694 135.231 330.264C135.163 330.084 135.06 329.946 134.922 329.852L134.858 329.813C134.815 329.779 134.746 329.742 134.652 329.704C134.557 329.665 134.458 329.637 134.355 329.62L130.825 329.646C130.464 329.646 130.219 329.727 130.09 329.891L130.039 329.968C130.013 330.011 130 330.079 130 330.174C130 330.269 130.026 330.384 130.077 330.522C130.593 331.733 131.153 332.901 131.759 334.026C132.364 335.152 132.89 336.058 133.337 336.745C133.784 337.432 134.239 338.081 134.703 338.69C135.167 339.3 135.474 339.691 135.624 339.863C135.774 340.035 135.893 340.164 135.978 340.249L136.301 340.559C136.507 340.765 136.809 341.012 137.209 341.3C137.608 341.587 138.051 341.871 138.536 342.15C139.021 342.429 139.586 342.657 140.23 342.833C140.875 343.009 141.502 343.08 142.112 343.046H143.593C143.894 343.02 144.122 342.925 144.276 342.762L144.328 342.698C144.362 342.646 144.394 342.567 144.424 342.459C144.454 342.352 144.469 342.234 144.469 342.105C144.46 341.736 144.488 341.403 144.553 341.107C144.617 340.81 144.69 340.587 144.772 340.437C144.854 340.286 144.946 340.16 145.049 340.057C145.152 339.954 145.225 339.891 145.268 339.87C145.311 339.848 145.345 339.834 145.371 339.825C145.577 339.756 145.82 339.823 146.099 340.025C146.378 340.227 146.64 340.476 146.885 340.772C147.13 341.068 147.424 341.401 147.768 341.77C148.112 342.14 148.412 342.414 148.67 342.595L148.927 342.75C149.099 342.853 149.323 342.947 149.598 343.033C149.872 343.119 150.112 343.141 150.319 343.098L153.617 343.046C153.943 343.046 154.197 342.992 154.377 342.885C154.558 342.778 154.665 342.659 154.7 342.531C154.734 342.402 154.736 342.256 154.706 342.092C154.676 341.929 154.645 341.816 154.616 341.751Z" fill="white"/>
</svg>
