<svg width="179" height="167" viewBox="0 0 179 167" fill="none" xmlns="http://www.w3.org/2000/svg">
<path d="M2.06888 76.6903C3.21352 61.7685 18.3546 51.6352 26.2494 40.1195C34.3958 28.2392 38.5982 10.555 51.5816 4.31482C64.168 -1.73378 80.4353 5.85178 95.3595 6.99411C110.281 8.13876 127.518 3.12633 139.031 11.0211C150.912 19.1675 152.37 37.2856 158.608 50.269C164.656 62.8554 178.074 75.1788 176.931 90.1006C175.787 105.023 160.646 115.156 152.751 126.671C144.604 138.552 140.4 156.236 127.416 162.476C114.832 168.522 98.5627 160.942 83.6408 159.797C68.7189 158.652 51.4823 163.665 39.9667 155.77C28.0864 147.624 26.6302 129.505 20.3901 116.522C14.3415 103.938 0.924234 91.6122 2.06888 76.6903V76.6903Z" stroke="#95B04C" stroke-width="2.88468" stroke-miterlimit="10" stroke-linecap="round" stroke-linejoin="round"/>
<path d="M11.8399 60.6377C15.703 47.4582 31.9726 41.6934 41.2475 32.8547C50.82 23.7368 57.5309 7.88722 70.3712 4.751C82.8192 1.7117 95.9664 12.4912 109.146 16.352C122.325 20.2152 139.211 18.2375 148.048 27.5146C157.168 37.0848 154.262 54.0491 157.396 66.8917C160.436 79.3396 171.021 92.9715 167.158 106.153C163.295 119.333 147.028 125.098 137.75 133.936C128.18 143.054 121.469 158.904 108.627 162.04C96.1787 165.079 83.0338 154.3 69.852 150.439C56.6725 146.576 39.789 148.554 30.9503 139.276C21.8324 129.708 24.7379 112.742 21.6016 99.8994C18.5623 87.4514 7.97903 73.8195 11.8399 60.6377V60.6377Z" stroke="#95B04C" stroke-width="2.88468" stroke-miterlimit="10" stroke-linecap="round" stroke-linejoin="round"/>
<path d="M130.28 78.4692C131.374 77.691 132 76.514 132 75.241V62.9066C132 60.7522 130.247 59 128.093 59H50.9066C48.7529 59 47 60.7522 47 62.9066V75.241C47 76.514 47.6264 77.6904 48.7198 78.4692C50.1426 79.4835 50.9922 81.1281 50.9922 82.8686C50.9922 84.6092 50.1426 86.2538 48.7198 87.2681C47.6264 88.0469 47 89.2233 47 90.4963V102.831C47 104.985 48.7529 106.737 50.9066 106.737H128.093C130.248 106.737 132 104.985 132 102.831V90.4963C132 89.2233 131.374 88.0469 130.28 87.2681C128.857 86.2538 128.008 84.6092 128.008 82.8686C128.008 81.1281 128.857 79.4835 130.28 78.4692ZM129.51 75.241C129.51 75.6982 129.264 76.1359 128.835 76.4414C126.758 77.9219 125.518 80.3246 125.518 82.8686C125.518 85.4127 126.758 87.8154 128.835 89.2959C129.264 89.6013 129.51 90.0391 129.51 90.4963V102.831C129.51 103.612 128.874 104.247 128.093 104.247H50.9066C50.1258 104.247 49.4902 103.612 49.4902 102.831V90.4963C49.4902 90.0391 49.736 89.6013 50.1647 89.2959C52.2425 87.8154 53.4824 85.4127 53.4824 82.8686C53.4824 80.3246 52.2425 77.9219 50.1647 76.4414C49.736 76.1359 49.4902 75.6988 49.4902 75.241V62.9066C49.4902 62.1258 50.1258 61.4902 50.9066 61.4902H128.093C128.874 61.4902 129.51 62.1258 129.51 62.9066V75.241Z" fill="#95B04C"/>
<path d="M89.4999 64.3228C88.8125 64.3228 88.2548 64.8805 88.2548 65.5679V68.23C88.2548 68.9174 88.8125 69.4751 89.4999 69.4751C90.1873 69.4751 90.7451 68.9174 90.7451 68.23V65.5679C90.7451 64.8805 90.1873 64.3228 89.4999 64.3228Z" fill="#95B04C"/>
<path d="M89.4999 96.2628C88.8125 96.2628 88.2548 96.8198 88.2548 97.5079V100.169C88.2548 100.857 88.8125 101.414 89.4999 101.414C90.1873 101.414 90.7451 100.857 90.7451 100.169V97.5079C90.7451 96.8198 90.1873 96.2628 89.4999 96.2628Z" fill="#95B04C"/>
<path d="M89.4999 80.2928C88.8125 80.2928 88.2548 80.8505 88.2548 81.5379V84.1993C88.2548 84.8874 88.8125 85.4445 89.4999 85.4445C90.1873 85.4445 90.7451 84.8874 90.7451 84.1993V81.5379C90.7451 80.8505 90.1873 80.2928 89.4999 80.2928Z" fill="#95B04C"/>
<path d="M89.4999 72.3079C88.8125 72.3079 88.2548 72.8656 88.2548 73.553V76.2144C88.2548 76.9025 88.8125 77.4595 89.4999 77.4595C90.1873 77.4595 90.7451 76.9025 90.7451 76.2144V73.553C90.7451 72.8656 90.1873 72.3079 89.4999 72.3079Z" fill="#95B04C"/>
<path d="M89.4999 88.2777C88.8125 88.2777 88.2548 88.8354 88.2548 89.5228V92.1843C88.2548 92.8717 88.8125 93.4294 89.4999 93.4294C90.1873 93.4294 90.7451 92.8717 90.7451 92.1843V89.5228C90.7451 88.8348 90.1873 88.2777 89.4999 88.2777Z" fill="#95B04C"/>
<path d="M119.542 69.909C118.999 69.4862 118.217 69.5841 117.795 70.1269L99.1639 94.0818C98.741 94.6246 98.839 95.4067 99.3818 95.8289C99.6094 96.0053 99.8785 96.0909 100.145 96.0909C100.517 96.0909 100.884 95.9262 101.129 95.6103L119.76 71.6554C120.182 71.1133 120.085 70.3312 119.542 69.909Z" fill="#21242E"/>
<path d="M102.808 80.1216C105.696 80.1216 108.046 77.772 108.046 74.8843C108.046 71.9959 105.696 69.6464 102.808 69.6464C99.9201 69.6464 97.5706 71.9959 97.5706 74.8843C97.5706 77.772 99.9201 80.1216 102.808 80.1216ZM102.808 72.1366C104.323 72.1366 105.556 73.3687 105.556 74.8836C105.556 76.3985 104.323 77.6313 102.808 77.6313C101.293 77.6313 100.061 76.3985 100.061 74.8836C100.061 73.3687 101.293 72.1366 102.808 72.1366Z" fill="#21242E"/>
<path d="M116.116 85.6157C113.228 85.6157 110.878 87.9659 110.878 90.8536C110.878 93.7414 113.228 96.0909 116.116 96.0909C119.004 96.0909 121.354 93.7414 121.354 90.8536C121.354 87.9659 119.004 85.6157 116.116 85.6157ZM116.116 93.6013C114.601 93.6013 113.369 92.3685 113.369 90.8536C113.369 89.3388 114.601 88.1066 116.116 88.1066C117.631 88.1066 118.863 89.3388 118.863 90.8536C118.863 92.3685 117.631 93.6013 116.116 93.6013Z" fill="#21242E"/>
<path d="M78.8536 76.3007H73.637C75.2304 75.4421 76.7939 74.4836 77.624 73.6542C79.1467 72.1308 79.1467 69.6523 77.624 68.1289C76.1 66.6056 73.6221 66.6063 72.0988 68.1289C71.2966 68.9311 70.3744 70.4194 69.5379 71.9577C68.702 70.4201 67.7792 68.9311 66.9776 68.1289C65.4536 66.6056 62.9757 66.6063 61.4524 68.1289C59.9291 69.6523 59.9291 72.1308 61.4524 73.6542C62.2818 74.4836 63.8454 75.4421 65.4387 76.3007H60.2222C58.802 76.3007 57.6464 77.4563 57.6464 78.8765V94.8464C57.6464 96.2666 58.802 97.4223 60.2222 97.4223H78.8536C80.2744 97.4223 81.4294 96.2666 81.4294 94.8464V78.8765C81.4294 77.4563 80.2738 76.3007 78.8536 76.3007ZM73.8595 69.8896C74.412 69.3377 75.3102 69.3377 75.8627 69.8896C76.4152 70.4421 76.4152 71.341 75.8627 71.8928C74.9963 72.7599 72.7797 73.9771 70.7875 74.9648C71.7752 72.9739 72.9924 70.7573 73.8595 69.8896ZM63.2131 69.8903C63.4893 69.614 63.8518 69.4759 64.2144 69.4759C64.5775 69.4759 64.94 69.614 65.2163 69.8903C66.0827 70.7567 67.2999 72.9726 68.2882 74.9648C66.296 73.9771 64.0795 72.7599 63.2131 71.8935C62.6606 71.341 62.6606 70.4421 63.2131 69.8903ZM78.8536 94.9314H60.2222C60.1749 94.9314 60.1366 94.8931 60.1366 94.8458V85.4445H72.1993C72.8867 85.4445 73.4444 84.8874 73.4444 84.1994C73.4444 83.512 72.8867 82.9543 72.1993 82.9543H60.1366V78.8765C60.1366 78.8292 60.1749 78.7909 60.2222 78.7909H78.8536C78.9009 78.7909 78.9392 78.8292 78.9392 78.8765V82.9543H77.5228C76.8348 82.9543 76.2777 83.512 76.2777 84.1994C76.2777 84.8874 76.8348 85.4445 77.5228 85.4445H78.9392V94.8458C78.9392 94.8931 78.9009 94.9314 78.8536 94.9314Z" fill="#21242E"/>
</svg>
