<svg width="179" height="167" viewBox="0 0 179 167" fill="none" xmlns="http://www.w3.org/2000/svg">
<path d="M2.06888 76.6903C3.21352 61.7685 18.3546 51.6352 26.2494 40.1195C34.3958 28.2392 38.5982 10.555 51.5816 4.31482C64.168 -1.73378 80.4353 5.85178 95.3595 6.99411C110.281 8.13876 127.518 3.12633 139.031 11.0211C150.912 19.1675 152.37 37.2856 158.608 50.269C164.656 62.8554 178.074 75.1788 176.931 90.1006C175.787 105.023 160.646 115.156 152.751 126.671C144.604 138.552 140.4 156.236 127.416 162.476C114.832 168.522 98.5627 160.942 83.6408 159.797C68.7189 158.652 51.4823 163.665 39.9667 155.77C28.0864 147.624 26.6302 129.505 20.3901 116.522C14.3415 103.938 0.924234 91.6122 2.06888 76.6903V76.6903Z" stroke="#95B04C" stroke-width="2.88468" stroke-miterlimit="10" stroke-linecap="round" stroke-linejoin="round"/>
<path d="M11.8399 60.6376C15.703 47.4581 31.9726 41.6933 41.2475 32.8547C50.82 23.7368 57.5309 7.88716 70.3712 4.75094C82.8192 1.71164 95.9664 12.4911 109.146 16.352C122.325 20.2151 139.211 18.2374 148.048 27.5145C157.168 37.0848 154.262 54.049 157.396 66.8916C160.436 79.3396 171.021 92.9714 167.158 106.153C163.295 119.333 147.028 125.098 137.75 133.936C128.18 143.054 121.469 158.904 108.627 162.04C96.1787 165.079 83.0338 154.3 69.852 150.439C56.6725 146.576 39.789 148.553 30.9503 139.276C21.8324 129.708 24.7379 112.742 21.6016 99.8993C18.5623 87.4513 7.97903 73.8195 11.8399 60.6376V60.6376Z" stroke="#95B04C" stroke-width="2.88468" stroke-miterlimit="10" stroke-linecap="round" stroke-linejoin="round"/>
<mask id="path-3-outside-1_3_4" maskUnits="userSpaceOnUse" x="62.9429" y="52.999" width="54" height="74" fill="black">
<rect fill="white" x="62.9429" y="52.999" width="54" height="74"/>
<path d="M112.344 66.44C111.995 65.874 111.254 65.6981 110.688 66.0469C110.122 66.3957 109.946 67.1374 110.295 67.7033C112.378 71.0831 113.568 74.932 113.773 78.901H107.763C107.204 76.5392 105.072 74.7731 102.548 74.7731C100.022 74.7731 97.8906 76.5392 97.3312 78.901H91.2865V71.8224C91.2865 71.1576 90.7476 70.6186 90.0826 70.6186C88.4555 70.6186 87.132 69.2948 87.132 67.6679C87.132 66.0409 88.4555 64.7172 90.0826 64.7172C90.7476 64.7172 91.2865 64.1782 91.2865 63.5134V56.4369C97.3575 56.7361 102.976 59.2953 107.216 63.7199C107.779 64.2021 108.346 64.2141 108.919 63.7562C109.398 63.2962 109.415 62.5341 108.955 62.0541C103.981 56.864 97.2851 54.0042 90.0992 53.9998C90.0936 53.9998 90.0883 53.999 90.0826 53.999C90.0772 53.999 90.072 53.9998 90.0666 53.9998C83.7159 54.0037 77.6021 56.2976 72.8498 60.4599C72.3496 60.898 72.2992 61.6586 72.7374 62.1586C73.1755 62.6589 73.9361 62.7092 74.4361 62.2712C78.4523 58.7534 83.5413 56.707 88.8788 56.4386V62.446C86.5019 62.9938 84.7243 65.1273 84.7243 67.668C84.7243 70.2088 86.5019 72.3423 88.8788 72.8901V78.9013H81.7734C81.1084 78.9013 80.5696 79.4403 80.5696 80.1051V80.1332C80.5696 81.7603 79.2454 83.0839 77.6175 83.0839C75.9904 83.0839 74.6668 81.7602 74.6668 80.1332V80.1051C74.6668 79.4403 74.1279 78.9013 73.4629 78.9013H66.3894C66.6267 74.184 68.2234 69.7261 71.0445 65.9425C71.4419 65.4095 71.332 64.6552 70.7991 64.2578C70.2663 63.8605 69.5118 63.9703 69.1144 64.5032C65.742 69.0258 63.9562 74.4206 63.9496 80.1054C63.709 90.0344 70.045 99.5612 78.9089 103.761C79.9173 104.239 80.569 105.278 80.569 106.408V108.808C78.0976 108.808 76.4131 110.132 76.4131 112.505C76.4131 114.876 78.0439 116.203 80.569 116.201V121.68C80.569 124.063 82.7071 126.19 85.0793 126.19H95.0856C97.458 126.19 99.596 124.063 99.596 121.68V116.201C102.415 116.204 103.753 114.705 103.752 112.505C103.751 110.21 102.308 108.808 99.596 108.808V106.408C99.596 105.278 100.251 104.237 101.266 103.756C110.385 99.4322 116.054 90.1297 116.215 80.1043C116.211 75.2651 114.872 70.5401 112.344 66.44ZM79.9399 101.585C72.0443 97.8439 66.8258 89.9723 66.3903 81.3085H72.389C72.9264 83.6995 75.0666 85.4911 77.6173 85.4911C80.1688 85.4911 82.3095 83.6995 82.8471 81.3085H88.8785V88.4418C88.8785 89.1066 89.4173 89.6456 90.0823 89.6456C91.7094 89.6456 93.033 90.9694 93.033 92.5963C93.033 94.2232 91.7094 95.547 90.0823 95.547C89.4173 95.547 88.8785 96.086 88.8785 96.7508V108.807H82.9765V106.408C82.9766 104.352 81.7847 102.459 79.9399 101.585ZM95.0856 123.782H85.0793C83.5493 123.782 82.9013 122.42 82.9766 121.214H97.1882C97.1909 122.498 96.7838 123.782 95.0856 123.782ZM100.053 113.793H92.6121C91.9471 113.793 91.4083 114.332 91.4083 114.997C91.4083 115 91.4086 115.002 91.4086 115.005C91.4086 115.008 91.4083 115.01 91.4083 115.013C91.4083 115.678 91.9471 116.217 92.6121 116.217H97.1883V118.806H82.9768V116.217H87.3668C88.0318 116.217 88.5706 115.678 88.5706 115.013C88.5706 115.01 88.5703 115.008 88.5703 115.005C88.5703 115.002 88.5706 115 88.5706 114.997C88.5706 114.332 88.0318 113.793 87.3668 113.793H80.1117C78.2048 113.822 78.1513 111.215 80.1117 111.215H100.054C101.72 111.215 101.96 113.795 100.053 113.793ZM100.235 101.58C98.384 102.457 97.1882 104.352 97.1882 106.408V108.808H91.2862V97.8186C93.663 97.2707 95.4407 95.1372 95.4407 92.5965C95.4407 90.0557 93.663 87.9222 91.2862 87.3744V81.3085H98.3915C99.0533 81.3085 99.5912 80.7741 99.5954 80.1123C99.6056 78.4958 100.93 77.1806 102.547 77.1806C104.164 77.1806 105.488 78.4958 105.498 80.1123C105.503 80.7741 106.04 81.3085 106.702 81.3085H113.774C113.339 89.9695 108.124 97.8393 100.235 101.58Z"/>
</mask>
<path d="M112.344 66.44C111.995 65.874 111.254 65.6981 110.688 66.0469C110.122 66.3957 109.946 67.1374 110.295 67.7033C112.378 71.0831 113.568 74.932 113.773 78.901H107.763C107.204 76.5392 105.072 74.7731 102.548 74.7731C100.022 74.7731 97.8906 76.5392 97.3312 78.901H91.2865V71.8224C91.2865 71.1576 90.7476 70.6186 90.0826 70.6186C88.4555 70.6186 87.132 69.2948 87.132 67.6679C87.132 66.0409 88.4555 64.7172 90.0826 64.7172C90.7476 64.7172 91.2865 64.1782 91.2865 63.5134V56.4369C97.3575 56.7361 102.976 59.2953 107.216 63.7199C107.779 64.2021 108.346 64.2141 108.919 63.7562C109.398 63.2962 109.415 62.5341 108.955 62.0541C103.981 56.864 97.2851 54.0042 90.0992 53.9998C90.0936 53.9998 90.0883 53.999 90.0826 53.999C90.0772 53.999 90.072 53.9998 90.0666 53.9998C83.7159 54.0037 77.6021 56.2976 72.8498 60.4599C72.3496 60.898 72.2992 61.6586 72.7374 62.1586C73.1755 62.6589 73.9361 62.7092 74.4361 62.2712C78.4523 58.7534 83.5413 56.707 88.8788 56.4386V62.446C86.5019 62.9938 84.7243 65.1273 84.7243 67.668C84.7243 70.2088 86.5019 72.3423 88.8788 72.8901V78.9013H81.7734C81.1084 78.9013 80.5696 79.4403 80.5696 80.1051V80.1332C80.5696 81.7603 79.2454 83.0839 77.6175 83.0839C75.9904 83.0839 74.6668 81.7602 74.6668 80.1332V80.1051C74.6668 79.4403 74.1279 78.9013 73.4629 78.9013H66.3894C66.6267 74.184 68.2234 69.7261 71.0445 65.9425C71.4419 65.4095 71.332 64.6552 70.7991 64.2578C70.2663 63.8605 69.5118 63.9703 69.1144 64.5032C65.742 69.0258 63.9562 74.4206 63.9496 80.1054C63.709 90.0344 70.045 99.5612 78.9089 103.761C79.9173 104.239 80.569 105.278 80.569 106.408V108.808C78.0976 108.808 76.4131 110.132 76.4131 112.505C76.4131 114.876 78.0439 116.203 80.569 116.201V121.68C80.569 124.063 82.7071 126.19 85.0793 126.19H95.0856C97.458 126.19 99.596 124.063 99.596 121.68V116.201C102.415 116.204 103.753 114.705 103.752 112.505C103.751 110.21 102.308 108.808 99.596 108.808V106.408C99.596 105.278 100.251 104.237 101.266 103.756C110.385 99.4322 116.054 90.1297 116.215 80.1043C116.211 75.2651 114.872 70.5401 112.344 66.44ZM79.9399 101.585C72.0443 97.8439 66.8258 89.9723 66.3903 81.3085H72.389C72.9264 83.6995 75.0666 85.4911 77.6173 85.4911C80.1688 85.4911 82.3095 83.6995 82.8471 81.3085H88.8785V88.4418C88.8785 89.1066 89.4173 89.6456 90.0823 89.6456C91.7094 89.6456 93.033 90.9694 93.033 92.5963C93.033 94.2232 91.7094 95.547 90.0823 95.547C89.4173 95.547 88.8785 96.086 88.8785 96.7508V108.807H82.9765V106.408C82.9766 104.352 81.7847 102.459 79.9399 101.585ZM95.0856 123.782H85.0793C83.5493 123.782 82.9013 122.42 82.9766 121.214H97.1882C97.1909 122.498 96.7838 123.782 95.0856 123.782ZM100.053 113.793H92.6121C91.9471 113.793 91.4083 114.332 91.4083 114.997C91.4083 115 91.4086 115.002 91.4086 115.005C91.4086 115.008 91.4083 115.01 91.4083 115.013C91.4083 115.678 91.9471 116.217 92.6121 116.217H97.1883V118.806H82.9768V116.217H87.3668C88.0318 116.217 88.5706 115.678 88.5706 115.013C88.5706 115.01 88.5703 115.008 88.5703 115.005C88.5703 115.002 88.5706 115 88.5706 114.997C88.5706 114.332 88.0318 113.793 87.3668 113.793H80.1117C78.2048 113.822 78.1513 111.215 80.1117 111.215H100.054C101.72 111.215 101.96 113.795 100.053 113.793ZM100.235 101.58C98.384 102.457 97.1882 104.352 97.1882 106.408V108.808H91.2862V97.8186C93.663 97.2707 95.4407 95.1372 95.4407 92.5965C95.4407 90.0557 93.663 87.9222 91.2862 87.3744V81.3085H98.3915C99.0533 81.3085 99.5912 80.7741 99.5954 80.1123C99.6056 78.4958 100.93 77.1806 102.547 77.1806C104.164 77.1806 105.488 78.4958 105.498 80.1123C105.503 80.7741 106.04 81.3085 106.702 81.3085H113.774C113.339 89.9695 108.124 97.8393 100.235 101.58Z" fill="#21242E"/>
<path d="M112.344 66.44C111.995 65.874 111.254 65.6981 110.688 66.0469C110.122 66.3957 109.946 67.1374 110.295 67.7033C112.378 71.0831 113.568 74.932 113.773 78.901H107.763C107.204 76.5392 105.072 74.7731 102.548 74.7731C100.022 74.7731 97.8906 76.5392 97.3312 78.901H91.2865V71.8224C91.2865 71.1576 90.7476 70.6186 90.0826 70.6186C88.4555 70.6186 87.132 69.2948 87.132 67.6679C87.132 66.0409 88.4555 64.7172 90.0826 64.7172C90.7476 64.7172 91.2865 64.1782 91.2865 63.5134V56.4369C97.3575 56.7361 102.976 59.2953 107.216 63.7199C107.779 64.2021 108.346 64.2141 108.919 63.7562C109.398 63.2962 109.415 62.5341 108.955 62.0541C103.981 56.864 97.2851 54.0042 90.0992 53.9998C90.0936 53.9998 90.0883 53.999 90.0826 53.999C90.0772 53.999 90.072 53.9998 90.0666 53.9998C83.7159 54.0037 77.6021 56.2976 72.8498 60.4599C72.3496 60.898 72.2992 61.6586 72.7374 62.1586C73.1755 62.6589 73.9361 62.7092 74.4361 62.2712C78.4523 58.7534 83.5413 56.707 88.8788 56.4386V62.446C86.5019 62.9938 84.7243 65.1273 84.7243 67.668C84.7243 70.2088 86.5019 72.3423 88.8788 72.8901V78.9013H81.7734C81.1084 78.9013 80.5696 79.4403 80.5696 80.1051V80.1332C80.5696 81.7603 79.2454 83.0839 77.6175 83.0839C75.9904 83.0839 74.6668 81.7602 74.6668 80.1332V80.1051C74.6668 79.4403 74.1279 78.9013 73.4629 78.9013H66.3894C66.6267 74.184 68.2234 69.7261 71.0445 65.9425C71.4419 65.4095 71.332 64.6552 70.7991 64.2578C70.2663 63.8605 69.5118 63.9703 69.1144 64.5032C65.742 69.0258 63.9562 74.4206 63.9496 80.1054C63.709 90.0344 70.045 99.5612 78.9089 103.761C79.9173 104.239 80.569 105.278 80.569 106.408V108.808C78.0976 108.808 76.4131 110.132 76.4131 112.505C76.4131 114.876 78.0439 116.203 80.569 116.201V121.68C80.569 124.063 82.7071 126.19 85.0793 126.19H95.0856C97.458 126.19 99.596 124.063 99.596 121.68V116.201C102.415 116.204 103.753 114.705 103.752 112.505C103.751 110.21 102.308 108.808 99.596 108.808V106.408C99.596 105.278 100.251 104.237 101.266 103.756C110.385 99.4322 116.054 90.1297 116.215 80.1043C116.211 75.2651 114.872 70.5401 112.344 66.44ZM79.9399 101.585C72.0443 97.8439 66.8258 89.9723 66.3903 81.3085H72.389C72.9264 83.6995 75.0666 85.4911 77.6173 85.4911C80.1688 85.4911 82.3095 83.6995 82.8471 81.3085H88.8785V88.4418C88.8785 89.1066 89.4173 89.6456 90.0823 89.6456C91.7094 89.6456 93.033 90.9694 93.033 92.5963C93.033 94.2232 91.7094 95.547 90.0823 95.547C89.4173 95.547 88.8785 96.086 88.8785 96.7508V108.807H82.9765V106.408C82.9766 104.352 81.7847 102.459 79.9399 101.585ZM95.0856 123.782H85.0793C83.5493 123.782 82.9013 122.42 82.9766 121.214H97.1882C97.1909 122.498 96.7838 123.782 95.0856 123.782ZM100.053 113.793H92.6121C91.9471 113.793 91.4083 114.332 91.4083 114.997C91.4083 115 91.4086 115.002 91.4086 115.005C91.4086 115.008 91.4083 115.01 91.4083 115.013C91.4083 115.678 91.9471 116.217 92.6121 116.217H97.1883V118.806H82.9768V116.217H87.3668C88.0318 116.217 88.5706 115.678 88.5706 115.013C88.5706 115.01 88.5703 115.008 88.5703 115.005C88.5703 115.002 88.5706 115 88.5706 114.997C88.5706 114.332 88.0318 113.793 87.3668 113.793H80.1117C78.2048 113.822 78.1513 111.215 80.1117 111.215H100.054C101.72 111.215 101.96 113.795 100.053 113.793ZM100.235 101.58C98.384 102.457 97.1882 104.352 97.1882 106.408V108.808H91.2862V97.8186C93.663 97.2707 95.4407 95.1372 95.4407 92.5965C95.4407 90.0557 93.663 87.9222 91.2862 87.3744V81.3085H98.3915C99.0533 81.3085 99.5912 80.7741 99.5954 80.1123C99.6056 78.4958 100.93 77.1806 102.547 77.1806C104.164 77.1806 105.488 78.4958 105.498 80.1123C105.503 80.7741 106.04 81.3085 106.702 81.3085H113.774C113.339 89.9695 108.124 97.8393 100.235 101.58Z" stroke="#21242E" stroke-width="0.4" mask="url(#path-3-outside-1_3_4)"/>
<path d="M88.6786 45.1898C88.6786 45.9651 89.307 46.5936 90.0825 46.5936C90.8579 46.5936 91.4863 45.9651 91.4863 45.1898V40.2038C91.4863 39.4286 90.8579 38.8 90.0825 38.8C89.307 38.8 88.6786 39.4286 88.6786 40.2038V45.1898Z" fill="#95B04C" stroke="#95B04C" stroke-width="0.4"/>
<path d="M106.828 51.0808L106.828 51.0808C107.216 51.3025 107.635 51.2822 107.977 51.1592C108.314 51.0384 108.605 50.8087 108.745 50.5665L111.237 46.2486C111.237 46.2486 111.237 46.2486 111.237 46.2486C111.625 45.5772 111.395 44.7186 110.724 44.3309C110.052 43.943 109.193 44.1734 108.806 44.8448L106.313 49.1627C105.926 49.8333 106.153 50.6957 106.828 51.0808Z" fill="#95B04C" stroke="#95B04C" stroke-width="0.4"/>
<path d="M119.599 61.4202C118.927 61.8078 118.697 62.6664 119.085 63.3378C119.222 63.5757 119.501 63.8143 119.837 63.9406C120.18 64.0695 120.599 64.0877 121.003 63.8513C121.003 63.8512 121.003 63.8511 121.004 63.851L125.32 61.3587C125.992 60.9711 126.222 60.1125 125.834 59.4411C125.447 58.7695 124.587 58.5396 123.916 58.9273C123.916 58.9273 123.916 58.9273 123.916 58.9273L119.599 61.4202Z" fill="#95B04C" stroke="#95B04C" stroke-width="0.4"/>
<path d="M54.3269 100.716C54.5019 101.051 54.7796 101.295 55.1236 101.396C55.4678 101.497 55.8566 101.448 56.2433 101.24L56.2433 101.24L56.2485 101.237L60.5663 98.7445C61.2377 98.3568 61.4678 97.4982 61.0801 96.8268L61.0801 96.8268C60.6923 96.1553 59.8336 95.9254 59.1625 96.313C59.1625 96.313 59.1624 96.313 59.1624 96.313L54.8447 98.8059C54.167 99.1972 53.974 100.042 54.3269 100.716ZM54.3269 100.716L54.5041 100.624M54.3269 100.716C54.3269 100.716 54.3269 100.716 54.3269 100.716L54.5041 100.624M54.5041 100.624C54.81 101.208 55.4521 101.439 56.1485 101.064L60.9069 96.9268C60.5743 96.3509 59.8379 96.1538 59.2625 96.4862L54.9447 98.9791C54.369 99.3115 54.1959 100.034 54.5041 100.624Z" fill="#95B04C" stroke="#95B04C" stroke-width="0.4"/>
<path d="M73.3448 51.0761L73.3448 51.0761C72.9535 51.3236 72.5296 51.3028 72.1848 51.1733C71.8465 51.0463 71.5583 50.8057 71.4203 50.5665L73.3448 51.0761ZM73.3448 51.0761C73.9884 50.669 74.2429 49.8402 73.8517 49.1626C73.8517 49.1626 73.8517 49.1626 73.8517 49.1626L71.3588 44.8447M73.3448 51.0761L71.3588 44.8447M71.3588 44.8447L71.3588 44.8447C70.9712 44.1732 70.1123 43.9431 69.4412 44.3309L71.3588 44.8447ZM68.9273 46.2486L71.4203 50.5665L69.4411 44.331C68.7697 44.7186 68.5397 45.5772 68.9273 46.2486C68.9273 46.2486 68.9273 46.2486 68.9273 46.2486Z" fill="#95B04C" stroke="#95B04C" stroke-width="0.4"/>
<path d="M59.1701 63.8564L59.1625 63.852L54.8447 61.359C54.1733 60.9714 53.9433 60.1129 54.3309 59.4415L59.1701 63.8564ZM59.1701 63.8564L59.1782 63.8601M59.1701 63.8564L59.1782 63.8601M59.1782 63.8601C59.5062 64.0126 59.8349 64.0774 60.1632 63.9985C60.4904 63.9198 60.7855 63.7058 61.0623 63.364L61.0623 63.364C61.3211 63.0445 61.3564 62.6447 61.2512 62.2899C61.1465 61.9373 60.8998 61.613 60.5663 61.4205L56.2485 58.9276L56.2485 58.9276M59.1782 63.8601L56.2485 58.9276M56.2485 58.9276C55.5767 58.5398 54.7184 58.7698 54.3309 59.4414L56.2485 58.9276Z" fill="#95B04C" stroke="#95B04C" stroke-width="0.4"/>
<path d="M123.915 101.237L119.599 98.7448C118.927 98.3572 118.697 97.4987 119.085 96.8273L123.915 101.237ZM123.915 101.237C124.301 101.466 124.674 101.524 125.015 101.416C125.35 101.311 125.621 101.057 125.829 100.732L125.661 100.624L125.829 100.732C126.256 100.066 125.984 99.1895 125.32 98.8063L121.003 96.3134C121.002 96.3134 121.002 96.3134 121.002 96.3134C120.331 95.9258 119.472 96.1556 119.085 96.8272L123.915 101.237Z" fill="#95B04C" stroke="#95B04C" stroke-width="0.4"/>
<path d="M50.2038 81.4863H55.1897C55.9651 81.4863 56.5936 80.8578 56.5936 80.0825C56.5936 79.3072 55.9653 78.6787 55.1898 78.6787H50.2038C49.4284 78.6787 48.8 79.3072 48.8 80.0825C48.8 80.8578 49.4284 81.4863 50.2038 81.4863Z" fill="#95B04C" stroke="#95B04C" stroke-width="0.4"/>
<path d="M124.975 81.4863H129.961C130.737 81.4863 131.365 80.8578 131.365 80.0825C131.365 79.3072 130.737 78.6787 129.961 78.6787H124.975C124.2 78.6787 123.571 79.3072 123.571 80.0825C123.571 80.8578 124.2 81.4863 124.975 81.4863Z" fill="#95B04C" stroke="#95B04C" stroke-width="0.4"/>
</svg>
