<svg width="179" height="167" viewBox="0 0 179 167" fill="none" xmlns="http://www.w3.org/2000/svg">
<path d="M2.06888 76.6903C3.21352 61.7685 18.3546 51.6352 26.2494 40.1195C34.3958 28.2392 38.5982 10.555 51.5816 4.31482C64.168 -1.73378 80.4353 5.85178 95.3595 6.99411C110.281 8.13876 127.518 3.12633 139.031 11.0211C150.912 19.1675 152.37 37.2856 158.608 50.269C164.656 62.8554 178.074 75.1788 176.931 90.1006C175.787 105.023 160.646 115.156 152.751 126.671C144.604 138.552 140.4 156.236 127.416 162.476C114.832 168.522 98.5627 160.942 83.6408 159.797C68.7189 158.652 51.4823 163.665 39.9667 155.77C28.0864 147.624 26.6302 129.505 20.3901 116.522C14.3415 103.938 0.924234 91.6122 2.06888 76.6903V76.6903Z" stroke="#95B04C" stroke-width="2.88468" stroke-miterlimit="10" stroke-linecap="round" stroke-linejoin="round"/>
<path d="M11.8399 60.6376C15.703 47.4581 31.9726 41.6933 41.2475 32.8547C50.82 23.7368 57.5309 7.88716 70.3712 4.75094C82.8192 1.71164 95.9664 12.4911 109.146 16.352C122.325 20.2151 139.211 18.2374 148.048 27.5145C157.168 37.0848 154.262 54.049 157.396 66.8916C160.436 79.3396 171.021 92.9714 167.158 106.153C163.295 119.333 147.028 125.098 137.75 133.936C128.18 143.054 121.469 158.904 108.627 162.04C96.1787 165.079 83.0338 154.3 69.852 150.439C56.6725 146.576 39.789 148.553 30.9503 139.276C21.8324 129.708 24.7379 112.742 21.6016 99.8993C18.5623 87.4513 7.97903 73.8195 11.8399 60.6376V60.6376Z" stroke="#95B04C" stroke-width="2.88468" stroke-miterlimit="10" stroke-linecap="round" stroke-linejoin="round"/>
<g clip-path="url(#clip0_19_183)">
<path d="M76.3138 42C91.9259 42 104.628 54.7014 104.628 70.3138C104.628 76.7377 102.476 82.6676 98.857 87.4238L104.593 93.1595C104.629 93.1959 104.662 93.2343 104.694 93.2737C105.163 93.1759 105.646 93.1245 106.136 93.1245C108.009 93.1245 109.77 93.854 111.095 95.1788L128.136 112.22C129.461 113.544 130.19 115.305 130.19 117.178C130.19 119.051 129.461 120.812 128.136 122.136C126.812 123.46 125.051 124.19 123.178 124.19C121.305 124.19 119.544 123.46 118.219 122.136L101.178 105.094C99.8536 103.77 99.1244 102.01 99.1244 100.136C99.1244 99.6456 99.1757 99.1629 99.2735 98.6934C99.2341 98.6622 99.1959 98.629 99.1595 98.5926L93.424 92.857C88.6676 96.4759 82.7377 98.6275 76.3138 98.6275C60.7016 98.6275 48 85.9261 48 70.3138C48 54.7014 60.7016 42 76.3138 42ZM120.102 120.253C120.924 121.075 122.016 121.527 123.178 121.527C124.34 121.527 125.432 121.075 126.254 120.253C127.075 119.432 127.527 118.34 127.527 117.178C127.527 116.016 127.075 114.924 126.253 114.103L110.863 98.7127L104.713 104.863L120.102 120.253ZM102.839 102.971L108.969 96.8417C108.156 96.143 107.148 95.7898 106.136 95.7898C105.023 95.7898 103.909 96.2139 103.061 97.0619C102.239 97.8829 101.787 98.9748 101.787 100.137C101.787 101.189 102.159 102.183 102.839 102.971ZM100.415 96.0829C100.642 95.764 100.896 95.461 101.178 95.1789C101.46 94.8965 101.764 94.6428 102.083 94.4158L97.1406 89.4736C96.6081 90.0521 96.0518 90.6084 95.4732 91.141L100.415 96.0829ZM76.3138 95.9648C90.4579 95.9648 101.965 84.4579 101.965 70.3138C101.965 56.1697 90.4579 44.6627 76.3138 44.6627C62.1697 44.6627 50.6627 56.1697 50.6627 70.3138C50.6627 84.4579 62.1697 95.9648 76.3138 95.9648Z" fill="#95B04C"/>
<path d="M76.3138 47.6805C88.7938 47.6805 98.947 57.8337 98.947 70.3138C98.947 82.7939 88.7938 92.9471 76.3138 92.9471C63.8337 92.9471 53.6805 82.7939 53.6805 70.3138C53.6805 57.8337 63.8337 47.6805 76.3138 47.6805ZM76.3138 90.2843C87.3254 90.2843 96.2843 81.3256 96.2843 70.3138C96.2843 59.302 87.3254 50.3433 76.3138 50.3433C65.3021 50.3433 56.3432 59.302 56.3432 70.3138C56.3432 81.3256 65.3021 90.2843 76.3138 90.2843Z" fill="#21242E"/>
<path d="M67.0689 56.1015C67.6849 55.6999 68.5096 55.8737 68.9112 56.4899C69.3127 57.1058 69.1387 57.9308 68.5227 58.3321C64.4534 60.9842 62.0239 65.4633 62.0239 70.3137C62.0239 73.6274 63.1838 76.857 65.29 79.4072C65.7583 79.974 65.6782 80.8133 65.1113 81.2815C64.8631 81.4866 64.5627 81.5863 64.2641 81.5863C63.8807 81.5863 63.5001 81.4214 63.2369 81.1028C60.7376 78.0767 59.3612 74.245 59.3612 70.3139C59.361 64.5599 62.2424 59.247 67.0689 56.1015Z" fill="#21242E"/>
<path d="M73.233 53.6405C74.2427 53.455 75.2792 53.361 76.3138 53.361C77.0492 53.361 77.6451 53.9571 77.6451 54.6923C77.6451 55.4276 77.0492 56.0237 76.3138 56.0237C75.44 56.0237 74.5654 56.103 73.7141 56.2594C73.6326 56.2744 73.5518 56.2816 73.4719 56.2816C72.8419 56.2816 72.282 55.8323 72.164 55.1906C72.0312 54.4674 72.5098 53.7735 73.233 53.6405Z" fill="#21242E"/>
</g>
<defs>
<clipPath id="clip0_19_183">
<rect width="82.19" height="82.19" fill="white" transform="matrix(-1 0 0 1 130.19 42)"/>
</clipPath>
</defs>
</svg>
