<svg width="511" height="46" viewBox="0 0 511 46" fill="none" xmlns="http://www.w3.org/2000/svg">
<path d="M4.49121 20.6396C3.95801 21.3604 3.69141 22.3799 3.69141 23.6982C3.69141 25.0166 3.95801 26.0361 4.49121 26.7568C5.02441 27.4775 5.65723 27.8379 6.38965 27.8379C7.12207 27.8379 7.75488 27.4775 8.28809 26.7568C8.82129 26.0361 9.08789 25.0166 9.08789 23.6982C9.08789 22.3799 8.82129 21.3604 8.28809 20.6396C7.75488 19.9189 7.12207 19.5586 6.38965 19.5586C5.65723 19.5586 5.02441 19.9189 4.49121 20.6396ZM10.2129 18.9434C11.2617 20.1445 11.7861 21.7295 11.7861 23.6982C11.7861 25.667 11.2617 27.2549 10.2129 28.4619C9.16406 29.6689 7.88965 30.2725 6.38965 30.2725C4.88965 30.2725 3.61523 29.6689 2.56641 28.4619C1.51758 27.2549 0.993164 25.667 0.993164 23.6982C0.993164 21.7295 1.51758 20.1445 2.56641 18.9434C3.61523 17.7363 4.88965 17.1328 6.38965 17.1328C7.88965 17.1328 9.16406 17.7363 10.2129 18.9434ZM16.8304 17.3965H19.0804V30H16.3821V20.8242H14.22V19.1104C14.6067 19.0635 14.9612 18.9727 15.2835 18.8379C15.6057 18.6973 15.8548 18.5479 16.0305 18.3896C16.2122 18.2314 16.3645 18.0791 16.4876 17.9326C16.6165 17.7803 16.7073 17.6514 16.76 17.5459L16.8304 17.3965ZM28.9849 17.2207L23.5884 33.7793H21.9625L27.3677 17.2207H28.9849ZM32.869 28.418C31.8436 27.2402 31.3309 25.667 31.3309 23.6982C31.3309 21.7295 31.8436 20.1592 32.869 18.9873C33.8944 17.8096 35.1512 17.2207 36.6395 17.2207C38.1278 17.2207 39.3846 17.8096 40.41 18.9873C41.4354 20.1592 41.9481 21.7295 41.9481 23.6982C41.9481 25.667 41.4354 27.2402 40.41 28.418C39.3846 29.5898 38.1278 30.1758 36.6395 30.1758C35.1512 30.1758 33.8944 29.5898 32.869 28.418ZM38.9862 27.1348C39.6424 26.2969 39.9705 25.1514 39.9705 23.6982C39.9705 22.2451 39.6424 21.1025 38.9862 20.2705C38.3358 19.4385 37.5536 19.0225 36.6395 19.0225C35.7254 19.0225 34.9403 19.4385 34.284 20.2705C33.6336 21.1025 33.3084 22.2451 33.3084 23.6982C33.3084 25.1514 33.6336 26.2969 34.284 27.1348C34.9403 27.9668 35.7254 28.3828 36.6395 28.3828C37.5536 28.3828 38.3358 27.9668 38.9862 27.1348ZM52.837 30H44.4698C44.4698 29.2207 44.587 28.5146 44.8214 27.8818C45.0558 27.2432 45.3605 26.7129 45.7355 26.291C46.1163 25.8691 46.5323 25.4824 46.9835 25.1309C47.4405 24.7793 47.8946 24.46 48.3458 24.1729C48.797 23.8799 49.2101 23.5928 49.5851 23.3115C49.9659 23.0303 50.2736 22.7021 50.5079 22.3271C50.7423 21.9463 50.8595 21.5332 50.8595 21.0879C50.8595 20.4492 50.6603 19.9453 50.2618 19.5762C49.8693 19.207 49.3185 19.0225 48.6095 19.0225C48.2638 19.0225 47.9386 19.0869 47.6339 19.2158C47.3351 19.3389 47.1007 19.4883 46.9308 19.6641C46.7667 19.834 46.6202 20.0068 46.4913 20.1826C46.3683 20.3584 46.2833 20.5107 46.2364 20.6396L46.1749 20.8242L44.5577 20.1035C44.5812 20.0215 44.6134 19.916 44.6544 19.7871C44.7013 19.6582 44.8243 19.4297 45.0236 19.1016C45.2286 18.7734 45.4659 18.4834 45.7355 18.2314C46.005 17.9795 46.3946 17.748 46.9044 17.5371C47.4142 17.3262 47.9825 17.2207 48.6095 17.2207C49.8458 17.2207 50.8595 17.5928 51.6505 18.3369C52.4415 19.0811 52.837 19.998 52.837 21.0879C52.837 21.6621 52.7198 22.1953 52.4855 22.6875C52.2511 23.1797 51.9523 23.5928 51.589 23.9268C51.2316 24.2549 50.8185 24.5947 50.3497 24.9463C49.8868 25.292 49.4357 25.6084 48.9962 25.8955C48.5568 26.1826 48.1232 26.5283 47.6954 26.9326C47.2736 27.3311 46.9484 27.7529 46.7198 28.1982H52.837V30Z" fill="#21242E"/>
<rect x="94" y="20" width="121.236" height="6" rx="3" fill="#21242E"/>
<rect x="232.764" y="20" width="121.236" height="6" rx="3" fill="#E6E6E6"/>
<circle cx="487.278" cy="23" r="23" fill="#21242E"/>
<path d="M493.294 23.9174C493.473 23.7378 493.574 23.4942 493.575 23.2401L493.575 22.7546C493.572 22.501 493.471 22.2584 493.294 22.0774L486.726 15.5224C486.606 15.4014 486.443 15.3334 486.272 15.3334C486.102 15.3334 485.939 15.4014 485.819 15.5224L484.911 16.4296C484.791 16.5473 484.723 16.7085 484.723 16.8768C484.723 17.0451 484.791 17.2063 484.911 17.324L490.597 22.9974L484.911 28.6707C484.79 28.7907 484.722 28.9539 484.722 29.1243C484.722 29.2947 484.79 29.458 484.911 29.5779L485.819 30.4724C485.939 30.5933 486.102 30.6613 486.272 30.6613C486.443 30.6613 486.606 30.5933 486.726 30.4724L493.294 23.9174Z" fill="#E6E6E6"/>
<circle cx="417" cy="23" r="23" fill="#21242E"/>
<path d="M412.17 22.0774C411.99 22.2569 411.889 22.5005 411.889 22.7546L411.889 23.2402C411.892 23.4937 411.993 23.7363 412.17 23.9174L418.738 30.4724C418.858 30.5933 419.021 30.6614 419.191 30.6614C419.362 30.6614 419.525 30.5933 419.645 30.4724L420.552 29.5652C420.672 29.4474 420.74 29.2862 420.74 29.118C420.74 28.9497 420.672 28.7885 420.552 28.6707L414.866 22.9974L420.552 17.3241C420.673 17.2041 420.741 17.0408 420.741 16.8705C420.741 16.7001 420.673 16.5368 420.552 16.4168L419.645 15.5224C419.525 15.4014 419.362 15.3334 419.191 15.3334C419.021 15.3334 418.858 15.4014 418.738 15.5224L412.17 22.0774Z" fill="#E6E6E6"/>
</svg>
