<svg width="25" height="24" viewBox="0 0 25 24" fill="none" xmlns="http://www.w3.org/2000/svg">
<path d="M7.02976 0H0.576547C0.576547 0 -0.134014 5.48667 0.576547 8.88157C1.45925 13.0989 2.46401 15.7032 5.51076 18.75C8.5575 21.7967 11.1618 22.8015 15.3792 23.6842C18.7741 24.3948 24.2607 23.6842 24.2607 23.6842V17.231C24.2607 16.3701 23.7099 15.6058 22.8932 15.3336L19.2795 14.1291C18.7193 13.9423 18.1025 14.1381 17.7525 14.6137C16.4694 16.3574 13.9059 16.4758 12.4676 14.8577L9.59127 11.6218C8.28864 10.1564 8.373 7.92451 9.78254 6.56157C10.1874 6.17013 10.3316 5.58111 10.1536 5.04689L8.92713 1.36754C8.6549 0.55086 7.89062 0 7.02976 0Z" fill="#95B04C"/>
</svg>
