<svg width="40" height="40" viewBox="0 0 40 40" fill="none" xmlns="http://www.w3.org/2000/svg">
<path d="M19.8152 39.6304C30.7614 39.6304 39.6304 30.7614 39.6304 19.8152C39.6304 8.86895 30.7614 0 19.8152 0C8.86895 0 0 8.86895 0 19.8152C0 30.7614 8.86895 39.6304 19.8152 39.6304ZM9.0671 19.3859L28.1722 12.0196C29.059 11.6992 29.8334 12.2359 29.5461 13.5767L29.5477 13.5751L26.2948 28.9005C26.0537 29.987 25.408 30.2512 24.5048 29.7393L19.551 26.0883L17.1616 28.3902C16.8974 28.6544 16.6745 28.8773 16.1626 28.8773L16.5143 23.836L25.6953 15.5417C26.0949 15.19 25.6062 14.9918 25.0794 15.3419L13.7336 22.4853L8.84253 20.9595C7.78076 20.6227 7.75765 19.8978 9.0671 19.3859Z" fill="#95B04C"/>
</svg>
