<svg width="179" height="167" viewBox="0 0 179 167" fill="none" xmlns="http://www.w3.org/2000/svg">
<path d="M2.06888 76.6903C3.21352 61.7685 18.3546 51.6352 26.2494 40.1195C34.3958 28.2392 38.5982 10.555 51.5816 4.31482C64.168 -1.73378 80.4353 5.85178 95.3595 6.99411C110.281 8.13876 127.518 3.12633 139.031 11.0211C150.912 19.1675 152.37 37.2856 158.608 50.269C164.656 62.8554 178.074 75.1788 176.931 90.1006C175.787 105.023 160.646 115.156 152.751 126.671C144.604 138.552 140.4 156.236 127.416 162.476C114.832 168.522 98.5627 160.942 83.6408 159.797C68.7189 158.652 51.4823 163.665 39.9667 155.77C28.0864 147.624 26.6302 129.505 20.3901 116.522C14.3415 103.938 0.924234 91.6122 2.06888 76.6903V76.6903Z" stroke="#95B04C" stroke-width="2.88468" stroke-miterlimit="10" stroke-linecap="round" stroke-linejoin="round"/>
<path d="M11.8399 60.6376C15.703 47.4581 31.9726 41.6933 41.2475 32.8547C50.82 23.7368 57.5309 7.88716 70.3712 4.75094C82.8192 1.71164 95.9664 12.4911 109.146 16.352C122.325 20.2151 139.211 18.2374 148.048 27.5145C157.168 37.0848 154.262 54.049 157.396 66.8916C160.436 79.3396 171.021 92.9714 167.158 106.153C163.295 119.333 147.028 125.098 137.75 133.936C128.18 143.054 121.469 158.904 108.627 162.04C96.1787 165.079 83.0338 154.3 69.852 150.439C56.6725 146.576 39.789 148.553 30.9503 139.276C21.8324 129.708 24.7379 112.742 21.6016 99.8993C18.5623 87.4513 7.97903 73.8195 11.8399 60.6376V60.6376Z" stroke="#95B04C" stroke-width="2.88468" stroke-miterlimit="10" stroke-linecap="round" stroke-linejoin="round"/>
<path d="M121.825 58.023H124.363C125.249 58.023 125.967 57.303 125.967 56.4191C125.967 55.5329 125.249 54.8152 124.363 54.8152H118.268C117.382 54.8152 116.665 55.5329 116.665 56.4191V62.5139C116.665 63.4 117.382 64.1177 118.268 64.1177C119.155 64.1177 119.872 63.4 119.872 62.5139V60.7484C124.739 67.2655 127.384 75.1718 127.384 83.3943C127.384 104.286 110.39 121.281 89.5001 121.281C68.6081 121.281 51.6139 104.286 51.6139 83.3943C51.6139 62.5046 68.6081 45.5104 89.5001 45.5104C91.044 45.5104 92.5994 45.6027 94.1202 45.7896C94.9995 45.8958 95.8003 45.2704 95.9064 44.3888C96.0149 43.5096 95.3872 42.7111 94.5079 42.6026C92.8579 42.4042 91.1732 42.3003 89.5001 42.3003C78.5222 42.3003 68.2043 46.5766 60.441 54.3375C52.68 62.0985 48.4061 72.4187 48.4061 83.3943C48.4061 94.3723 52.68 104.693 60.441 112.453C68.2043 120.214 78.5222 124.488 89.5001 124.488C100.476 124.488 110.796 120.214 118.557 112.453C126.318 104.693 130.594 94.3723 130.594 83.3943C130.594 74.1334 127.499 65.2393 121.825 58.023V58.023Z" fill="#95B04C"/>
<path d="M65.8065 66.527C65.0588 66.0539 64.0664 66.2755 63.5933 67.0232C59.931 72.8087 58.3086 79.7643 59.0286 86.6113C59.7579 93.56 62.8849 100.112 67.835 105.062C73.8074 111.034 81.6537 114.02 89.5001 114.02C97.3464 114.02 105.193 111.034 111.165 105.062C123.112 93.1146 123.112 73.6764 111.165 61.7292C106.224 56.7884 99.6819 53.6614 92.7448 52.9275C85.9115 52.2029 78.9629 53.8114 73.1797 57.4553C72.432 57.9284 72.2059 58.9184 72.6789 59.6684C73.152 60.4184 74.142 60.6423 74.8921 60.1692C85.7892 53.3013 99.7719 54.8752 108.897 63.9977C119.591 74.6941 119.591 92.0968 108.897 102.793C98.2003 113.487 80.7976 113.487 70.1035 102.793C61.1056 93.7953 59.5063 79.4735 66.3026 68.7402C66.778 67.9925 66.5542 67.0001 65.8065 66.527Z" fill="#21242E"/>
<path d="M110.353 85.0259H112.333C113.217 85.0259 113.937 84.3082 113.937 83.422C113.937 82.5358 113.217 81.8181 112.333 81.8181H110.353C109.469 81.8181 108.749 82.5358 108.749 83.422C108.749 84.3082 109.467 85.0259 110.353 85.0259Z" fill="#21242E"/>
<path d="M65.0634 83.369C65.0634 84.2552 65.7811 84.9729 66.6672 84.9729H68.645C69.5311 84.9729 70.2489 84.2552 70.2489 83.369C70.2489 82.4829 69.5311 81.7651 68.645 81.7651H66.6672C65.7811 81.7651 65.0634 82.4829 65.0634 83.369Z" fill="#21242E"/>
<path d="M91.1294 62.5416V60.5615C91.1294 59.6776 90.4117 58.9576 89.5255 58.9576C88.6393 58.9576 87.9216 59.6776 87.9216 60.5615V62.5416C87.9216 63.4278 88.6393 64.1454 89.5255 64.1454C90.4117 64.1454 91.1294 63.4278 91.1294 62.5416Z" fill="#21242E"/>
<path d="M87.8685 104.249V106.227C87.8685 107.113 88.5885 107.831 89.4747 107.831C90.3586 107.831 91.0786 107.113 91.0786 106.227V104.249C91.0786 103.363 90.3586 102.646 89.4747 102.646C88.5885 102.646 87.8685 103.363 87.8685 104.249Z" fill="#21242E"/>
<path d="M81.4576 73.0857C80.8322 72.4603 79.8168 72.4603 79.1891 73.0857C78.5637 73.7134 78.5637 74.7288 79.1891 75.3542L84.6261 80.7912C84.2107 81.5666 83.973 82.4551 83.973 83.3944C83.973 86.4429 86.4515 88.9214 89.5001 88.9214C92.5463 88.9214 95.0248 86.4429 95.0248 83.3944C95.0248 82.4551 94.7894 81.5666 94.3717 80.7912L105.343 69.8225C105.968 69.1948 105.968 68.1794 105.343 67.5517C104.715 66.9263 103.7 66.9263 103.074 67.5517L92.1032 78.5227C91.3278 78.105 90.4393 77.8696 89.5001 77.8696C88.5585 77.8696 87.6724 78.105 86.8946 78.5227L81.4576 73.0857V73.0857ZM91.8171 83.3944C91.8171 84.6729 90.7786 85.7136 89.5001 85.7136C88.2216 85.7136 87.1808 84.6729 87.1808 83.3944C87.1808 82.1182 88.2216 81.0774 89.5001 81.0774C90.7786 81.0774 91.8171 82.1182 91.8171 83.3944Z" fill="#21242E"/>
<path d="M70.1012 63.9977C70.4012 63.7 70.5743 63.2846 70.5743 62.8623C70.5743 62.4423 70.4012 62.0292 70.1012 61.7292C69.8035 61.4315 69.3904 61.2584 68.9681 61.2584C68.5458 61.2584 68.1327 61.4315 67.8327 61.7292C67.535 62.0269 67.3642 62.4423 67.3642 62.8623C67.3642 63.2869 67.535 63.7 67.8327 63.9977C68.1327 64.2954 68.5458 64.4685 68.9681 64.4685C69.3904 64.4685 69.8035 64.2954 70.1012 63.9977Z" fill="#21242E"/>
<path d="M100.612 47.0935C101.034 47.0935 101.45 46.925 101.747 46.625C102.045 46.325 102.218 45.9143 102.218 45.4896C102.218 45.0673 102.045 44.6542 101.747 44.3565C101.45 44.0588 101.034 43.8857 100.612 43.8857C100.19 43.8857 99.7765 44.0565 99.4765 44.3565C99.1788 44.6542 99.008 45.0673 99.008 45.4896C99.008 45.9143 99.1788 46.325 99.4765 46.625C99.7765 46.925 100.19 47.0935 100.612 47.0935Z" fill="#95B04C"/>
</svg>
