<svg width="209" height="209" viewBox="0 0 209 209" fill="none" xmlns="http://www.w3.org/2000/svg">
<circle cx="104.72" cy="103.767" r="14" fill="#95B04C"/>
<path d="M109.23 163.531C109.178 163.543 109.141 163.497 109.117 163.393C109.094 163.29 109.108 163.232 109.16 163.22C109.765 163.083 110.251 162.983 110.617 162.918L112.619 162.493L114.946 161.939C115.253 161.852 115.675 161.747 116.21 161.626C116.262 161.614 116.3 161.66 116.323 161.764C116.347 161.868 116.333 161.925 116.281 161.937C115.641 162.082 115.185 162.23 114.91 162.383C114.636 162.536 114.475 162.745 114.426 163.011C114.377 163.276 114.413 163.676 114.534 164.212L116.755 174.036L122.865 163.582L122.595 162.39C122.478 161.871 122.338 161.494 122.176 161.258C122.017 161.04 121.782 160.921 121.468 160.901C121.155 160.881 120.679 160.943 120.039 161.087C120.005 161.095 119.976 161.047 119.952 160.944C119.929 160.84 119.934 160.784 119.969 160.776C120.574 160.64 121.06 160.539 121.426 160.474L123.687 159.99L125.626 159.525C125.967 159.429 126.441 159.313 127.045 159.176C127.08 159.169 127.109 159.217 127.132 159.32C127.156 159.424 127.15 159.48 127.116 159.487C126.511 159.624 126.08 159.767 125.823 159.916C125.566 160.065 125.413 160.272 125.364 160.537C125.319 160.82 125.355 161.221 125.472 161.739L128.186 173.74C128.303 174.259 128.441 174.627 128.599 174.846C128.757 175.064 128.985 175.185 129.281 175.209C129.563 175.254 129.998 175.21 130.586 175.078C130.638 175.066 130.675 175.112 130.699 175.216C130.722 175.319 130.708 175.377 130.656 175.389L129.251 175.679C128.448 175.824 127.805 175.952 127.321 176.061C126.664 176.209 125.908 176.399 125.052 176.629L123.632 176.977C123.597 176.985 123.568 176.937 123.545 176.833C123.521 176.729 123.527 176.674 123.561 176.666C124.184 176.525 124.63 176.37 124.9 176.2C125.17 176.03 125.337 175.801 125.399 175.515C125.448 175.249 125.414 174.857 125.297 174.339L123.105 164.645L116.989 175.073L117.235 176.162C117.353 176.68 117.49 177.048 117.649 177.267C117.811 177.503 118.051 177.639 118.368 177.676C118.685 177.714 119.164 177.66 119.803 177.516C119.855 177.504 119.892 177.55 119.916 177.653C119.939 177.757 119.925 177.815 119.873 177.827L118.597 178.088C117.725 178.249 116.944 178.407 116.253 178.563C115.786 178.669 115.125 178.837 114.268 179.067L112.823 179.421C112.771 179.432 112.733 179.386 112.71 179.283C112.686 179.179 112.701 179.121 112.752 179.11C113.34 178.977 113.76 178.827 114.013 178.661C114.27 178.512 114.423 178.305 114.472 178.04C114.521 177.774 114.487 177.382 114.37 176.864L111.657 164.863C111.539 164.344 111.4 163.967 111.237 163.731C111.079 163.513 110.852 163.392 110.556 163.368C110.26 163.344 109.818 163.398 109.23 163.531Z" fill="#21242E"/>
<path d="M89.3299 161.847C89.2771 161.841 89.2567 161.785 89.2686 161.679C89.2806 161.574 89.313 161.524 89.3658 161.53C89.9819 161.599 90.4739 161.664 90.8416 161.723L92.8719 161.98L95.2514 162.222C95.5703 162.241 96.0026 162.281 96.5483 162.342C96.6012 162.348 96.6216 162.404 96.6096 162.51C96.5977 162.615 96.5653 162.665 96.5125 162.659C95.8611 162.586 95.3808 162.576 95.0716 162.63C94.7624 162.684 94.541 162.829 94.4075 163.063C94.274 163.298 94.1763 163.688 94.1146 164.233L93.4274 170.307L101.957 171.272L102.644 165.198C102.704 164.67 102.696 164.268 102.62 163.992C102.542 163.734 102.359 163.544 102.069 163.422C101.78 163.3 101.31 163.202 100.658 163.128C100.623 163.124 100.611 163.07 100.623 162.964C100.635 162.858 100.659 162.808 100.694 162.812C101.31 162.881 101.802 162.946 102.17 163.005L104.464 163.292L106.448 163.489C106.802 163.512 107.287 163.558 107.903 163.627C107.938 163.631 107.95 163.686 107.938 163.792C107.926 163.897 107.902 163.948 107.867 163.944C107.251 163.874 106.797 163.868 106.506 163.924C106.214 163.98 106.001 164.125 105.868 164.36C105.732 164.612 105.635 165.002 105.575 165.53L104.192 177.756C104.132 178.284 104.141 178.678 104.219 178.936C104.296 179.195 104.471 179.384 104.743 179.504C104.995 179.639 105.42 179.741 106.019 179.808C106.072 179.814 106.092 179.87 106.08 179.976C106.068 180.081 106.036 180.131 105.983 180.125L104.56 179.938C103.754 179.811 103.105 179.719 102.612 179.664C101.943 179.588 101.166 179.518 100.282 179.454L98.8267 179.316C98.7915 179.312 98.7799 179.257 98.7918 179.151C98.8038 179.046 98.8274 178.995 98.8626 178.999C99.4963 179.07 99.9688 179.07 100.28 178.999C100.591 178.927 100.823 178.766 100.977 178.516C101.11 178.281 101.207 177.9 101.266 177.372L101.873 172.011L93.3437 171.046L92.7371 176.407C92.6774 176.935 92.6864 177.328 92.7641 177.587C92.8399 177.863 93.0214 178.07 93.3087 178.21C93.596 178.349 94.0654 178.456 94.7167 178.53C94.7696 178.536 94.79 178.591 94.778 178.697C94.7661 178.803 94.7337 178.852 94.6809 178.847L93.39 178.674C92.5137 178.539 91.7235 178.432 91.0194 178.352C90.544 178.298 89.8643 178.239 88.9801 178.175L87.4983 178.034C87.4455 178.028 87.4251 177.972 87.437 177.866C87.449 177.761 87.4814 177.711 87.5342 177.717C88.1327 177.785 88.5876 177.783 88.8988 177.711C89.1905 177.655 89.403 177.509 89.5366 177.275C89.6525 177.038 89.7403 176.656 89.8001 176.128L91.1835 163.902C91.2432 163.374 91.244 162.973 91.1859 162.698C91.1082 162.44 90.9334 162.251 90.6617 162.131C90.39 162.011 89.9461 161.916 89.3299 161.847Z" fill="#21242E"/>
<path d="M77.2001 173.82C79.1256 174.679 81.0683 174.042 83.0282 171.909C83.0661 171.868 83.1254 171.865 83.2063 171.901C83.28 171.954 83.306 172.004 83.2844 172.053C82.931 172.671 82.4865 173.472 81.951 174.455C81.4082 175.454 81.0214 176.213 80.7905 176.731C80.7544 176.812 80.6959 176.834 80.615 176.798C80.5179 176.755 80.4874 176.693 80.5235 176.612C80.6823 176.256 80.3005 175.872 79.3782 175.461C78.0084 174.792 76.3931 174.042 74.5323 173.212C73.5777 172.786 72.5592 172.352 71.4769 171.908L69.8157 171.196C69.2008 170.922 68.7378 170.764 68.4267 170.722C68.0993 170.673 67.8411 170.752 67.652 170.958C67.6069 171.016 67.5439 171.026 67.463 170.99C67.3659 170.947 67.3318 170.893 67.3607 170.828C67.6257 170.365 68.0288 169.613 68.5698 168.574C69.0946 167.528 69.5014 166.681 69.79 166.034C69.8117 165.985 69.8629 165.979 69.9438 166.015C70.0247 166.051 70.0625 166.097 70.057 166.153C69.744 167.507 69.7821 168.64 70.1713 169.55C70.5532 170.477 71.2296 171.157 72.2004 171.59C72.6697 171.799 73.0321 171.835 73.2877 171.697C73.5199 171.568 73.7623 171.22 74.0149 170.654L79.0051 159.465C79.2288 158.963 79.3427 158.578 79.3466 158.308C79.3506 158.038 79.233 157.801 78.9941 157.598C78.7551 157.394 78.3363 157.159 77.7376 156.892C77.689 156.87 77.6864 156.811 77.7297 156.714C77.773 156.617 77.8189 156.579 77.8675 156.6C78.45 156.86 78.9075 157.074 79.2401 157.242L81.2437 158.164L83.2204 159.017C83.5674 159.152 84.0403 159.354 84.6389 159.621C84.6875 159.642 84.6901 159.702 84.6468 159.799C84.6035 159.896 84.5576 159.933 84.509 159.912C83.9266 159.652 83.4797 159.501 83.1686 159.459C82.8413 159.41 82.5785 159.478 82.3804 159.661C82.1589 159.853 81.9399 160.192 81.7234 160.677L76.7115 171.914C76.4662 172.465 76.373 172.869 76.432 173.128C76.4911 173.387 76.7471 173.618 77.2001 173.82Z" fill="#21242E"/>
<path d="M50.0589 156.895C50.0181 156.861 50.0319 156.803 50.1002 156.722C50.1685 156.64 50.223 156.617 50.2637 156.651C50.6575 156.981 51.2253 157.144 51.9671 157.142C52.6839 157.142 53.3978 156.965 54.1087 156.614L65.3969 150.921C66.2873 150.465 67.0218 150.237 67.6002 150.236C68.1787 150.235 68.7531 150.474 69.3234 150.952C69.8802 151.418 70.2259 151.916 70.3606 152.445C70.4952 152.974 70.3976 153.435 70.0676 153.829C69.8287 154.114 69.5288 154.279 69.168 154.323C68.7958 154.381 68.44 154.268 68.1005 153.984C67.7746 153.711 67.6109 153.423 67.6094 153.122C67.5966 152.833 67.661 152.494 67.8027 152.105C67.8806 151.846 67.931 151.634 67.9542 151.469C67.9523 151.305 67.8903 151.173 67.7681 151.07C67.6323 150.956 67.4339 150.917 67.173 150.953C66.9006 151.002 66.5112 151.15 66.0047 151.395L65.1018 151.852L62.2917 164.268C62.1217 165.05 62.0668 165.639 62.127 166.037C62.1622 166.436 62.3767 166.801 62.7705 167.131C62.7977 167.153 62.7771 167.205 62.7088 167.287C62.6406 167.368 62.5929 167.398 62.5657 167.375C62.2669 167.125 62.0621 166.941 61.9513 166.826C61.5667 166.457 61.0485 166 60.3966 165.453C59.4325 164.646 58.6267 163.993 57.9793 163.497C57.7914 163.363 57.5752 163.193 57.3308 162.988C57.3036 162.966 57.3242 162.914 57.3924 162.832C57.4607 162.751 57.5084 162.721 57.5356 162.744C58.3775 163.45 58.9748 163.592 59.3276 163.171C59.4641 163.008 59.5737 162.753 59.6563 162.406L61.8512 153.497L54.7198 157.126C54.3586 157.308 54.0756 157.522 53.8708 157.766C53.5864 158.106 53.4878 158.486 53.5751 158.905C53.6489 159.314 53.9098 159.706 54.3579 160.081C54.3851 160.104 54.3645 160.156 54.2963 160.238C54.228 160.319 54.1803 160.349 54.1531 160.326L53.2536 159.537C52.7603 159.078 52.31 158.677 51.9026 158.336C51.6038 158.086 51.2801 157.838 50.9315 157.592L50.0589 156.895Z" fill="#21242E"/>
<path d="M50.4072 129.317C50.3784 129.273 50.4087 129.221 50.498 129.164C50.5874 129.106 50.6465 129.1 50.6752 129.144C51.0112 129.666 51.2725 130.087 51.4591 130.41L52.5454 132.144L53.8634 134.14C54.0511 134.399 54.2937 134.759 54.5912 135.22C54.62 135.265 54.5897 135.316 54.5004 135.374C54.411 135.431 54.3519 135.438 54.3231 135.393C53.968 134.842 53.6716 134.464 53.434 134.259C53.1964 134.054 52.9446 133.973 52.6785 134.019C52.4124 134.064 52.0486 134.235 51.5869 134.532L43.121 139.989L55.0368 142.142L56.0643 141.479C56.5111 141.191 56.8173 140.931 56.9831 140.697C57.134 140.474 57.1651 140.211 57.0764 139.91C56.9877 139.609 56.7658 139.183 56.4107 138.632C56.3915 138.602 56.4266 138.558 56.5159 138.501C56.6053 138.443 56.6595 138.429 56.6787 138.459C57.0147 138.98 57.2759 139.402 57.4626 139.724L58.6928 141.682L59.7949 143.343C60.0017 143.631 60.2731 144.036 60.6091 144.557C60.6283 144.587 60.5932 144.631 60.5038 144.688C60.4145 144.746 60.3602 144.76 60.341 144.73C60.0051 144.209 59.7231 143.853 59.4951 143.663C59.2671 143.473 59.02 143.4 58.7539 143.445C58.473 143.5 58.1091 143.671 57.6624 143.959L47.3201 150.624C46.8734 150.912 46.5746 151.168 46.4237 151.392C46.2728 151.616 46.2369 151.871 46.316 152.157C46.3706 152.438 46.5611 152.832 46.8874 153.338C46.9162 153.383 46.8859 153.434 46.7966 153.491C46.7072 153.549 46.6482 153.555 46.6194 153.511L45.8643 152.29C45.4525 151.586 45.1123 151.025 44.8436 150.608C44.4789 150.042 44.0417 149.397 43.532 148.671L42.7178 147.457C42.6986 147.427 42.7337 147.384 42.823 147.326C42.9124 147.269 42.9667 147.255 42.9859 147.284C43.3314 147.82 43.6304 148.186 43.8829 148.382C44.1354 148.577 44.407 148.655 44.6975 148.616C44.9636 148.571 45.32 148.404 45.7668 148.116L54.121 142.732L42.2275 140.565L41.2893 141.169C40.8426 141.457 40.5438 141.713 40.3929 141.937C40.2271 142.17 40.1811 142.442 40.2549 142.753C40.3287 143.064 40.5432 143.494 40.8983 144.045C40.9271 144.09 40.8968 144.141 40.8075 144.199C40.7181 144.256 40.6591 144.263 40.6303 144.218L39.9472 143.109C39.4971 142.346 39.08 141.666 38.6961 141.07C38.437 140.668 38.0526 140.104 37.5429 139.379L36.7143 138.142C36.6855 138.098 36.7158 138.047 36.8052 137.989C36.8945 137.931 36.9536 137.925 36.9824 137.97C37.3087 138.476 37.5933 138.819 37.8363 139C38.0643 139.19 38.3113 139.263 38.5774 139.218C38.8435 139.173 39.1999 139.007 39.6466 138.719L49.9889 132.053C50.4356 131.765 50.7419 131.504 50.9077 131.271C51.0586 131.047 51.0945 130.792 51.0154 130.506C50.9362 130.22 50.7335 129.824 50.4072 129.317Z" fill="#21242E"/>
<path d="M33.2139 126.932C33.7574 128.969 35.4745 130.078 38.3652 130.26C38.4211 130.264 38.4605 130.308 38.4834 130.394C38.4891 130.484 38.4663 130.536 38.4149 130.55C37.7119 130.664 36.8098 130.822 35.7085 131.024C34.5901 131.231 33.7571 131.407 33.2093 131.553C33.1237 131.576 33.0695 131.545 33.0467 131.459C33.0193 131.357 33.0484 131.294 33.1339 131.271C33.5105 131.171 33.5687 130.632 33.3084 129.657C32.967 128.171 32.5337 126.444 32.0085 124.475C31.739 123.465 31.4365 122.4 31.1008 121.279L30.6093 119.54C30.4358 118.89 30.2674 118.43 30.1041 118.162C29.9363 117.877 29.7126 117.726 29.433 117.709C29.36 117.71 29.3121 117.667 29.2892 117.582C29.2618 117.479 29.2824 117.419 29.3508 117.4C29.8781 117.315 30.7157 117.155 31.8638 116.923C33.0073 116.672 33.9214 116.456 34.6061 116.273C34.6574 116.26 34.6945 116.296 34.7174 116.381C34.7402 116.467 34.7282 116.525 34.6814 116.556C33.4319 117.164 32.5754 117.906 32.1122 118.782C31.6319 119.661 31.5287 120.615 31.8027 121.642C31.9351 122.138 32.1355 122.443 32.4037 122.554C32.6502 122.654 33.073 122.623 33.6721 122.464L45.5092 119.306C46.0398 119.164 46.4113 119.01 46.6235 118.843C46.8358 118.677 46.9459 118.436 46.9538 118.122C46.9618 117.809 46.8813 117.335 46.7123 116.702C46.6986 116.65 46.7431 116.611 46.8458 116.584C46.9485 116.556 47.0067 116.568 47.0204 116.619C47.1848 117.236 47.3064 117.726 47.3852 118.09L47.9281 120.228L48.5087 122.301C48.6217 122.656 48.7627 123.15 48.9317 123.783C48.9454 123.835 48.9009 123.874 48.7982 123.901C48.6955 123.929 48.6373 123.917 48.6236 123.865C48.4592 123.249 48.2953 122.807 48.1321 122.539C47.9643 122.254 47.7469 122.092 47.4798 122.053C47.1911 122.001 46.79 122.044 46.2764 122.181L34.388 125.353C33.806 125.508 33.4329 125.69 33.2685 125.899C33.1042 126.108 33.086 126.452 33.2139 126.932Z" fill="#21242E"/>
<path d="M45.9045 93.3358C45.907 93.2827 45.9613 93.2586 46.0675 93.2635C46.1737 93.2683 46.2255 93.2973 46.2231 93.3504C46.1946 93.9699 46.163 94.465 46.1282 94.8358L46.0077 96.8787L45.9244 99.2692C45.9275 99.5886 45.9164 100.023 45.8912 100.571C45.8888 100.624 45.8344 100.648 45.7283 100.644C45.6221 100.639 45.5702 100.61 45.5726 100.557C45.6027 99.9017 45.5804 99.4219 45.5058 99.1169C45.4311 98.812 45.2724 98.6007 45.0295 98.4832C44.7866 98.3656 44.3908 98.2942 43.8422 98.269L33.7809 97.8065L42.2415 106.469L43.4627 106.525C43.9936 106.549 44.3943 106.515 44.6646 106.421C44.9173 106.326 45.0948 106.13 45.1971 105.833C45.2994 105.537 45.3656 105.061 45.3957 104.406C45.3973 104.37 45.4512 104.355 45.5574 104.36C45.6636 104.365 45.7159 104.385 45.7143 104.421C45.6858 105.04 45.6542 105.535 45.6194 105.906L45.4867 108.214L45.4217 110.207C45.4231 110.561 45.4096 111.048 45.3811 111.668C45.3795 111.703 45.3256 111.718 45.2194 111.714C45.1132 111.709 45.0609 111.689 45.0626 111.653C45.091 111.034 45.0675 110.58 44.9921 110.293C44.9166 110.006 44.7574 109.804 44.5145 109.686C44.2539 109.568 43.8582 109.496 43.3272 109.472L31.036 108.907C30.505 108.882 30.1132 108.918 29.8606 109.012C29.6079 109.107 29.4309 109.294 29.3294 109.573C29.211 109.834 29.1379 110.265 29.1103 110.867C29.1078 110.92 29.0535 110.944 28.9473 110.939C28.8412 110.934 28.7893 110.905 28.7917 110.852L28.8842 109.42C28.957 108.607 29.0048 107.953 29.0276 107.458C29.0585 106.785 29.0766 106.006 29.0818 105.119L29.1224 103.658C29.124 103.622 29.1779 103.607 29.2841 103.612C29.3903 103.617 29.4426 103.637 29.441 103.673C29.4117 104.31 29.4432 104.781 29.5356 105.087C29.6279 105.393 29.804 105.613 30.0638 105.75C30.3067 105.867 30.6936 105.938 31.2245 105.963L41.1531 106.419L32.719 97.7577L31.604 97.7064C31.0731 97.682 30.6813 97.7172 30.4286 97.812C30.1583 97.906 29.9631 98.101 29.8431 98.397C29.7231 98.693 29.648 99.1684 29.6179 99.8232C29.6155 99.8763 29.5611 99.9004 29.455 99.8955C29.3488 99.8906 29.2969 99.8617 29.2993 99.8086L29.3857 98.509C29.4617 97.6257 29.516 96.8301 29.5486 96.1222C29.5706 95.6443 29.5842 94.9622 29.5895 94.0756L29.6312 92.5878C29.6337 92.5347 29.688 92.5106 29.7942 92.5155C29.9004 92.5203 29.9522 92.5493 29.9498 92.6024C29.9221 93.2042 29.9549 93.649 30.0481 93.9371C30.1235 94.2243 30.2827 94.4267 30.5256 94.5443C30.7685 94.6619 31.1554 94.7329 31.6864 94.7573L43.9776 95.3222C44.5086 95.3467 44.9092 95.3119 45.1795 95.2179C45.4322 95.1231 45.6093 94.9361 45.7108 94.657C45.8123 94.3779 45.8769 93.9375 45.9045 93.3358Z" fill="#21242E"/>
<path d="M40.7346 80.6255C41.3973 79.2813 42.2575 78.3357 43.3151 77.7886C44.3786 77.2248 45.4783 77.1435 46.6142 77.5448C47.4829 77.8517 48.1795 78.3796 48.7041 79.1286C49.2286 79.8776 49.5433 80.7686 49.6482 81.8015C49.7363 82.8285 49.5886 83.8849 49.2051 84.9707C49.0398 85.4384 48.8259 85.9641 48.5634 86.5478C48.464 86.7758 48.3441 87.0622 48.2034 87.4071C48.0687 87.7353 47.9276 88.1082 47.78 88.5258L47.1589 90.3639C47.0576 90.7039 46.9066 91.1579 46.706 91.7258C46.6883 91.776 46.6293 91.7833 46.5291 91.7479C46.4288 91.7125 46.3876 91.6697 46.4053 91.6196C46.5764 91.1352 46.6645 90.7529 46.6695 90.4728C46.6578 90.1869 46.5527 89.9524 46.3542 89.7696C46.1449 89.5641 45.7981 89.3758 45.3136 89.2047L33.7121 85.1063C33.0104 84.8584 32.5098 84.8131 32.21 84.9702C31.8935 85.1215 31.6084 85.5563 31.3546 86.2746C31.3428 86.308 31.2868 86.307 31.1866 86.2716C31.0863 86.2362 31.0421 86.2018 31.0539 86.1684L31.5481 84.8492C31.853 84.0925 32.0851 83.4887 32.2444 83.0377C32.4097 82.5699 32.5557 82.0766 32.6827 81.5578C32.725 81.3848 32.7968 81.1284 32.8981 80.7884C32.9994 80.4484 33.0943 80.1531 33.1829 79.9025C33.7199 78.3824 34.4116 77.302 35.2579 76.6615C36.1042 76.021 37.0536 75.8867 38.106 76.2584C38.9078 76.5417 39.5401 77.0657 40.0027 77.8304C40.4713 78.5784 40.7152 79.5101 40.7346 80.6255ZM33.6014 80.4731C33.4302 80.9576 33.4291 81.333 33.5981 81.5993C33.7503 81.8598 34.1355 82.0992 34.7536 82.3176L39.5145 83.9994L39.8936 83.006C40.2005 82.1373 40.1108 81.354 39.6245 80.6562C39.1383 79.9583 38.3856 79.4293 37.3666 79.0694C36.4145 78.733 35.6224 78.688 34.9904 78.9345C34.3417 79.1751 33.8787 79.688 33.6014 80.4731ZM48.4281 85.1754C49.2012 82.987 48.4518 81.4916 46.1799 80.689C44.8936 80.2346 43.7655 80.1837 42.7954 80.5362C41.8253 80.8887 41.119 81.6914 40.6764 82.9443C40.5053 83.4287 40.3685 83.869 40.2662 84.265L46.3051 86.3983C46.8563 86.593 47.2872 86.6231 47.5978 86.4886C47.8917 86.3481 48.1685 85.9104 48.4281 85.1754Z" fill="#21242E"/>
<path d="M61.8905 62.6565C61.9219 62.6136 61.9804 62.6235 62.0663 62.6862C62.1521 62.7489 62.1793 62.8017 62.148 62.8446C61.7821 63.3453 61.4822 63.7406 61.2484 64.0305L60.0196 65.6669L58.6298 67.6136C58.4559 67.8815 58.207 68.2372 57.8829 68.6806C57.8515 68.7235 57.7929 68.7136 57.7071 68.6509C57.6213 68.5882 57.5941 68.5354 57.6254 68.4925C58.0122 67.9632 58.2587 67.5509 58.3649 67.2554C58.4711 66.96 58.4554 66.6962 58.3179 66.464C58.1803 66.2319 57.8899 65.9537 57.4464 65.6297L52.5116 62.0232L47.4468 68.9534L52.3817 72.5599C52.8108 72.8735 53.164 73.0658 53.4413 73.1368C53.7042 73.1973 53.9603 73.1322 54.2096 72.9413C54.4588 72.7504 54.7768 72.3903 55.1636 71.861C55.1845 71.8324 55.2379 71.8495 55.3237 71.9122C55.4095 71.9749 55.442 72.0206 55.4211 72.0492C55.0552 72.5498 54.7553 72.9451 54.5215 73.2351L53.1359 75.086L51.9813 76.7109C51.7865 77.0074 51.5062 77.406 51.1403 77.9067C51.1194 77.9353 51.066 77.9182 50.9802 77.8555C50.8944 77.7928 50.8619 77.7471 50.8828 77.7185C51.2487 77.2179 51.4795 76.827 51.5753 76.5458C51.671 76.2647 51.6501 76.0081 51.5126 75.7759C51.3607 75.5333 51.0703 75.2551 50.6411 74.9415L40.7071 67.6815C40.2779 67.3679 39.9319 67.1808 39.6689 67.1203C39.4059 67.0598 39.1551 67.1178 38.9163 67.2944C38.6737 67.4462 38.3746 67.7653 38.0192 68.2517C37.9879 68.2946 37.9293 68.2847 37.8434 68.2219C37.7576 68.1592 37.7304 68.1064 37.7617 68.0635L38.6299 66.9206C39.1394 66.2835 39.5405 65.7647 39.8332 65.3642C40.2304 64.8206 40.6761 64.1808 41.1702 63.4447L42.0111 62.249C42.032 62.2203 42.0854 62.2374 42.1712 62.3001C42.2571 62.3628 42.2895 62.4085 42.2686 62.4371C41.8923 62.9521 41.6582 63.3625 41.5663 63.6684C41.4744 63.9742 41.4991 64.2557 41.6405 64.5126C41.7781 64.7448 42.0614 65.0177 42.4905 65.3313L46.846 68.5144L51.9108 61.5841L47.5553 58.401C47.1262 58.0874 46.7801 57.9003 46.5171 57.8398C46.2399 57.7688 45.9694 57.8236 45.7059 58.004C45.4424 58.1844 45.1172 58.5393 44.7304 59.0685C44.6991 59.1115 44.6405 59.1015 44.5547 59.0388C44.4688 58.9761 44.4416 58.9233 44.473 58.8804L45.2628 57.8447C45.814 57.1504 46.2988 56.5172 46.7169 55.945C46.9992 55.5588 47.3873 54.9977 47.8814 54.2616L48.738 53.0444C48.7694 53.0015 48.828 53.0114 48.9138 53.0741C48.9996 53.1368 49.0269 53.1896 48.9955 53.2325C48.6401 53.7189 48.4164 54.115 48.3245 54.4209C48.2288 54.702 48.2497 54.9587 48.3872 55.1908C48.5352 55.4087 48.8238 55.6744 49.2529 55.988L59.187 63.2481C59.6161 63.5617 59.9641 63.7611 60.2309 63.8464C60.4939 63.9069 60.7447 63.8489 60.9835 63.6723C61.2223 63.4957 61.5246 63.1571 61.8905 62.6565Z" fill="#21242E"/>
<path d="M63.6123 49.8389C65.179 48.8035 66.5814 48.3227 67.8194 48.3965C69.0476 48.4555 70.0573 49.0836 70.8485 50.2808C71.415 51.1381 71.6989 52.0335 71.7 52.9672C71.6914 53.886 71.42 54.7767 70.8858 55.6394C70.3664 56.4923 69.6264 57.2362 68.6656 57.8711C68.2813 58.1251 67.8159 58.4009 67.2693 58.6984C67.0771 58.8254 66.7618 59.0231 66.3234 59.2916C65.8752 59.5453 65.4886 59.7796 65.1634 59.9945L63.7591 60.9544C63.4585 61.1743 63.0347 61.465 62.4878 61.8264C62.4435 61.8557 62.392 61.826 62.3334 61.7373C62.2748 61.6486 62.2677 61.5896 62.312 61.5603C62.795 61.1987 63.1179 60.9322 63.2808 60.7608C63.4487 60.565 63.506 60.3465 63.453 60.1055C63.4049 59.84 63.2197 59.4634 62.8973 58.9756L56.1135 48.7104C55.7912 48.2227 55.5296 47.9071 55.3287 47.7638C55.1278 47.6205 54.9043 47.5877 54.6583 47.6653C54.4271 47.7332 54.0505 47.9184 53.5284 48.2209C53.4988 48.2404 53.4548 48.2059 53.3961 48.1172C53.3375 48.0285 53.323 47.9744 53.3526 47.9549L54.4758 47.2444C55.1161 46.8637 55.6875 46.5073 56.1901 46.1752C56.6778 45.8529 57.2815 45.4327 58.001 44.9148L59.2501 44.0575C59.2796 44.0379 59.3237 44.0725 59.3823 44.1612C59.4409 44.2499 59.4554 44.304 59.4259 44.3235C58.869 44.734 58.4992 45.0421 58.3166 45.2477C58.1339 45.4534 58.0592 45.6938 58.0925 45.9692C58.1258 46.2445 58.3036 46.626 58.626 47.1138L61.5124 51.4814C62.262 50.8162 62.9619 50.2687 63.6123 49.8389ZM80.071 49.8242C80.1153 49.7949 80.1668 49.8245 80.2254 49.9132C80.284 50.0019 80.2911 50.0609 80.2468 50.0902C79.759 50.4126 79.3699 50.6591 79.0793 50.8299L77.3796 51.9213L75.7536 53.0277C75.4678 53.2379 75.0736 53.509 74.571 53.8411C74.5415 53.8606 74.4974 53.8261 74.4388 53.7374C74.3802 53.6487 74.3656 53.5946 74.3952 53.575C74.8682 53.2625 75.1911 52.996 75.364 52.7756C75.5369 52.5551 75.5919 52.317 75.529 52.0613C75.4712 51.7809 75.2957 51.4191 75.0027 50.9757L68.2189 40.7105C67.9258 40.2671 67.6666 39.9712 67.4412 39.8229C67.2305 39.6648 66.9899 39.6221 66.7194 39.6947C66.439 39.7525 66.0624 39.9377 65.5894 40.2503C65.5599 40.2698 65.5158 40.2352 65.4572 40.1466C65.3986 40.0579 65.384 40.0038 65.4136 39.9842L66.6255 39.2152C67.3249 38.7954 67.8816 38.4488 68.2954 38.1753C68.7536 37.8725 69.3129 37.4816 69.9733 37.0028L71.0894 36.2333C71.1337 36.204 71.1852 36.2337 71.2438 36.3224C71.3024 36.4111 71.3095 36.4701 71.2652 36.4994C70.807 36.8022 70.4963 37.0712 70.3332 37.3064C70.1701 37.5416 70.1249 37.7945 70.1975 38.065C70.2604 38.3208 70.4383 38.6704 70.7313 39.1138L77.4859 49.3346C77.7887 49.7928 78.0454 50.101 78.256 50.2591C78.4667 50.4172 78.6999 50.4648 78.9557 50.4019C79.2262 50.3293 79.598 50.1367 80.071 49.8242ZM67.9003 57.5806C68.9201 56.9066 69.4686 56.1619 69.5456 55.3466C69.6128 54.5164 69.2654 53.5249 68.5035 52.372C67.7221 51.1895 66.9265 50.4837 66.1166 50.2544C65.3118 50.0005 64.3625 50.235 63.2687 50.9578C62.8844 51.2118 62.4211 51.5711 61.8787 52.0357L65.3805 57.3346C65.6735 57.778 65.9968 58.0422 66.3502 58.1271C66.7185 58.2023 67.2351 58.0202 67.9003 57.5806Z" fill="#21242E"/>
<path d="M85.9952 30.2939C85.3397 30.4474 84.6925 30.4807 84.0534 30.3938C83.4144 30.3069 82.8714 30.1247 82.4243 29.8473C81.9732 29.5526 81.6992 29.1983 81.6022 28.7843C81.5295 28.4738 81.5658 28.2014 81.7111 27.9672C81.8737 27.729 82.1361 27.5675 82.4984 27.4827C82.8951 27.3898 83.1994 27.4459 83.4112 27.651C83.619 27.8389 83.8504 28.1668 84.1055 28.6348C84.386 29.1332 84.6428 29.4915 84.8759 29.7099C85.1222 29.907 85.4523 29.957 85.8663 29.8601C86.2976 29.7591 86.5778 29.557 86.707 29.2538C86.8493 28.9294 86.9462 28.4882 86.9975 27.9303C87.0397 27.4109 87.1121 27.021 87.2148 26.7604C87.3308 26.4785 87.5699 26.2951 87.9321 26.2103C88.2944 26.1255 88.5926 26.1557 88.8268 26.301C89.061 26.4463 89.2144 26.6742 89.2871 26.9847C89.3881 27.416 89.3019 27.8638 89.0285 28.3281C88.7511 28.7752 88.3454 29.1795 87.8114 29.5411C87.2734 29.8854 86.668 30.1364 85.9952 30.2939ZM98.845 45.1898C98.8968 45.1776 98.9348 45.2233 98.959 45.3268C98.9832 45.4303 98.9695 45.4881 98.9177 45.5003C98.314 45.6416 97.829 45.7461 97.4627 45.8137L95.4642 46.2543L93.1415 46.8255C92.8351 46.9155 92.4145 47.0231 91.8797 47.1483C91.828 47.1604 91.79 47.1147 91.7657 47.0112C91.7415 46.9077 91.7553 46.8499 91.807 46.8378C92.4453 46.6883 92.9009 46.5361 93.174 46.3812C93.447 46.2263 93.607 46.016 93.654 45.7502C93.7009 45.4845 93.6618 45.0843 93.5366 44.5495L91.2402 34.7429L85.2107 45.2436L85.4894 46.4338C85.6106 46.9513 85.7532 47.3274 85.9173 47.5619C86.0774 47.7791 86.3141 47.8966 86.6276 47.9141C86.941 47.9317 87.4169 47.8658 88.0551 47.7163C88.0896 47.7083 88.119 47.756 88.1432 47.8595C88.1675 47.963 88.1623 48.0188 88.1278 48.0268C87.5241 48.1682 87.0391 48.2727 86.6728 48.3403L84.4156 48.8415L82.481 49.3218C82.14 49.4198 81.6677 49.5395 81.0639 49.6809C81.0294 49.689 81.0001 49.6413 80.9758 49.5378C80.9516 49.4343 80.9567 49.3785 80.9912 49.3704C81.595 49.229 82.0248 49.0829 82.2806 48.932C82.5364 48.7812 82.6877 48.5729 82.7347 48.3071C82.7776 48.0241 82.7385 47.6239 82.6173 47.1064L79.812 35.1262C79.6908 34.6087 79.5502 34.2413 79.3902 34.0241C79.2301 33.8068 79.002 33.6874 78.7058 33.6657C78.4228 33.6228 77.9881 33.67 77.4016 33.8074C77.3498 33.8195 77.3118 33.7738 77.2876 33.6703C77.2633 33.5668 77.2771 33.509 77.3288 33.4969L78.7322 33.1956C79.5337 33.0443 80.176 32.9121 80.659 32.799C81.3145 32.6455 82.0695 32.4505 82.9239 32.214L84.341 31.8549C84.3755 31.8468 84.4049 31.8945 84.4291 31.998C84.4533 32.1015 84.4482 32.1573 84.4137 32.1654C83.7927 32.3108 83.3477 32.4696 83.0787 32.6418C82.8097 32.8139 82.6451 33.0435 82.5849 33.3306C82.538 33.5963 82.5751 33.9879 82.6963 34.5054L84.9623 44.1827L90.9979 33.7079L90.7434 32.6211C90.6222 32.1036 90.4816 31.7362 90.3216 31.5189C90.1575 31.2844 89.9167 31.1498 89.5992 31.1149C89.2817 31.0801 88.8038 31.1374 88.1656 31.2869C88.1138 31.299 88.0758 31.2533 88.0516 31.1498C88.0274 31.0463 88.0411 30.9885 88.0929 30.9764L89.3668 30.7053C90.2374 30.5379 91.0177 30.3734 91.7077 30.2118C92.1734 30.1027 92.8335 29.93 93.688 29.6935L95.1309 29.3283C95.1827 29.3162 95.2206 29.3619 95.2449 29.4654C95.2691 29.5689 95.2554 29.6267 95.2036 29.6388C94.6171 29.7762 94.198 29.9289 93.9462 30.097C93.6904 30.2479 93.539 30.4562 93.4921 30.722C93.4451 30.9877 93.4822 31.3793 93.6034 31.8968L96.4087 43.877C96.5299 44.3945 96.6725 44.7705 96.8366 45.005C96.9967 45.2223 97.2248 45.3417 97.521 45.3633C97.8172 45.3849 98.2585 45.3271 98.845 45.1898Z" fill="#21242E"/>
<path d="M140.207 56.6888C140.239 56.7051 140.23 56.7605 140.181 56.8549C140.132 56.9493 140.092 56.9883 140.061 56.972C139.526 56.6951 139.105 56.4673 138.799 56.2887L137.064 55.361L135.282 54.4683C134.975 54.3293 134.562 54.1254 134.043 53.8566C133.996 53.8322 133.996 53.7727 134.045 53.6783C134.094 53.5839 134.142 53.549 134.189 53.5734C134.85 53.9155 135.339 54.0689 135.657 54.0338C135.974 53.9986 136.263 53.7293 136.524 53.2258L136.708 52.8124L141.209 42.9034L130.447 51.7855C130.383 51.8321 130.303 51.831 130.209 51.7822C130.115 51.7333 130.068 51.6692 130.069 51.59L129.975 37.1474L125.375 45.5693C124.92 46.4107 124.739 47.1649 124.833 47.8319C124.95 48.4912 125.331 48.9878 125.976 49.3218C126.024 49.3462 126.023 49.4056 125.974 49.5C125.925 49.5944 125.877 49.6294 125.83 49.605C125.405 49.3851 125.079 49.2061 124.851 49.0682L123.565 48.3727L122.066 47.6266C121.806 47.512 121.464 47.3448 121.039 47.1249C120.992 47.1004 120.993 47.041 121.042 46.9466C121.09 46.8522 121.138 46.8172 121.186 46.8416C121.831 47.1756 122.468 47.1964 123.098 46.9042C123.728 46.6119 124.267 46.0529 124.715 45.2272L129.985 35.5667L129.974 35.5309C129.96 34.7858 129.85 34.19 129.642 33.7433C129.45 33.3048 129.134 32.9715 128.693 32.7435C128.646 32.719 128.647 32.6596 128.696 32.5652C128.745 32.4708 128.793 32.4358 128.84 32.4603L129.937 33.0581C130.149 33.1879 130.428 33.3423 130.774 33.5215L132.037 34.1454C132.187 34.203 132.372 34.2888 132.592 34.4028C132.797 34.5087 132.918 34.661 132.955 34.8596C132.991 35.0582 133.021 35.5023 133.043 36.192L133.191 48.5079L143.002 40.5395C143.21 40.3681 143.382 40.2675 143.517 40.2377C143.676 40.2003 143.842 40.2264 144.015 40.316C144.157 40.3893 144.31 40.4786 144.475 40.584C144.655 40.6974 144.864 40.8153 145.1 40.9374L146.504 41.6347C146.733 41.733 147.052 41.888 147.461 42.0997C147.508 42.1242 147.507 42.1836 147.458 42.278C147.409 42.3724 147.361 42.4074 147.314 42.3829C146.574 42.0001 145.962 41.8727 145.477 42.0006C144.992 42.1285 144.602 42.5152 144.308 43.1609L139.328 54.1685C139.107 54.6726 138.978 55.0551 138.943 55.3161C138.923 55.5852 139.003 55.8161 139.183 56.0088C139.378 56.2097 139.72 56.4363 140.207 56.6888Z" fill="#21242E"/>
<path d="M152.907 70.1446C152.967 70.2092 152.959 70.2779 152.882 70.3507C152.804 70.4234 152.735 70.4276 152.674 70.363C152.432 70.1048 152.069 69.6924 151.585 69.1258C151.077 68.5334 150.708 68.1146 150.477 67.8693C150.174 67.5465 149.791 67.1648 149.328 66.7243C148.89 66.3095 148.55 65.9731 148.307 65.7148C148.258 65.6632 148.273 65.601 148.35 65.5282C148.428 65.4554 148.491 65.4448 148.539 65.4965C148.855 65.8322 149.112 66.0407 149.31 66.1221C149.533 66.2042 149.735 66.1604 149.915 65.9905C150.135 65.7843 150.381 65.3094 150.655 64.5659L152.733 58.8213L149.494 55.3739L145.161 56.8558C144.629 57.0398 144.202 57.2834 143.879 57.5867C143.414 58.0234 143.204 58.5245 143.249 59.0899C143.306 59.6682 143.596 60.235 144.118 60.7902C144.178 60.8547 144.17 60.9234 144.092 60.9962C144.015 61.069 143.946 61.0731 143.885 61.0085C143.667 60.7761 143.364 60.4283 142.978 59.965C142.542 59.4501 142.155 59.0119 141.815 58.6504C141.488 58.3018 141.081 57.8943 140.594 57.4279C140.155 57.0132 139.809 56.6702 139.554 56.3991C139.506 56.3475 139.52 56.2852 139.598 56.2124C139.675 56.1397 139.738 56.1291 139.787 56.1807C140.126 56.5423 140.482 56.779 140.855 56.8908C141.24 56.9906 141.736 56.9872 142.34 56.8807C142.958 56.7621 143.799 56.5188 144.864 56.1509L158.051 51.6736C158.114 51.663 158.188 51.7029 158.273 51.7933C158.37 51.8966 158.405 51.9729 158.378 52.0222L153.399 65.817C152.907 67.1303 152.626 68.0992 152.556 68.7237C152.487 69.3482 152.603 69.8218 152.907 70.1446ZM150.273 55.1162L153.021 58.0407L154.625 53.6161L150.273 55.1162Z" fill="#21242E"/>
<path d="M172.896 72.9911C173.235 73.6932 173.525 74.4579 173.767 75.2854C174.025 76.1052 174.162 76.7767 174.179 77.2999C174.2 77.4666 174.179 77.5852 174.114 77.6556C174.074 77.7343 173.973 77.8319 173.813 77.9485L170.625 79.8412C170.577 79.8643 170.526 79.8398 170.471 79.7677C170.417 79.6956 170.418 79.6362 170.474 79.5895C171.473 78.4387 172.096 77.243 172.343 76.0024C172.59 74.7618 172.425 73.5431 171.847 72.3465C171.085 70.7668 169.914 69.8273 168.333 69.5278C166.752 69.2283 164.981 69.5521 163.018 70.4992C161.55 71.2076 160.322 72.0858 159.332 73.1337C158.351 74.1976 157.705 75.3256 157.395 76.5178C157.109 77.7182 157.227 78.8609 157.751 79.9459C158.244 80.9671 159.018 81.7148 160.073 82.1892C161.152 82.6719 162.539 82.8973 164.235 82.8657C164.307 82.8508 164.354 82.8871 164.377 82.9746C164.407 83.0781 164.398 83.1413 164.35 83.1644L160.922 84.3762C160.715 84.4367 160.568 84.4584 160.481 84.4414C160.418 84.4326 160.32 84.3718 160.187 84.259C158.975 83.093 158.007 81.7601 157.283 80.2602C156.344 78.3136 155.941 76.5013 156.076 74.8233C156.226 73.1377 156.742 71.6988 157.622 70.5067C158.526 69.3229 159.624 68.4191 160.917 67.7954C162.433 67.0639 163.969 66.8239 165.527 67.0756C167.092 67.3432 168.521 68.0011 169.814 69.0493C171.114 70.1135 172.142 71.4275 172.896 72.9911Z" fill="#21242E"/>
<path d="M178.936 93.4379C179.065 94.2068 179.129 95.0223 179.128 95.8845C179.146 96.7437 179.089 97.4267 178.958 97.9335C178.932 98.0995 178.878 98.2072 178.796 98.2567C178.735 98.3208 178.611 98.3863 178.425 98.4533L174.833 99.3747C174.781 99.3834 174.739 99.3456 174.707 99.2611C174.675 99.1766 174.692 99.1198 174.759 99.0907C176.041 98.2666 176.974 97.2939 177.56 96.1726C178.146 95.0513 178.329 93.8354 178.111 92.5247C177.823 90.7945 176.962 89.5639 175.529 88.8326C174.096 88.1014 172.305 87.9148 170.156 88.2728C168.548 88.5405 167.122 89.0384 165.878 89.7664C164.637 90.5119 163.701 91.4132 163.069 92.4704C162.457 93.5422 162.25 94.6722 162.448 95.8606C162.634 96.9791 163.167 97.9141 164.047 98.6656C164.947 99.4318 166.215 100.038 167.852 100.484C167.925 100.489 167.959 100.537 167.957 100.628C167.957 100.736 167.93 100.794 167.878 100.802L164.247 101.003C164.032 101.003 163.885 100.983 163.806 100.942C163.748 100.916 163.671 100.83 163.575 100.684C162.739 99.2247 162.184 97.6737 161.911 96.0309C161.555 93.8989 161.678 92.0465 162.278 90.4737C162.896 88.8981 163.795 87.6618 164.974 86.7649C166.174 85.8825 167.482 85.3234 168.898 85.0877C170.558 84.8112 172.1 85.0123 173.524 85.6911C174.951 86.3874 176.138 87.4201 177.085 88.7891C178.034 90.1756 178.651 91.7252 178.936 93.4379Z" fill="#21242E"/>
<path d="M161.412 120.715C161.399 120.802 161.341 120.839 161.235 120.824C161.13 120.81 161.083 120.758 161.096 120.671C161.145 120.32 161.238 119.778 161.376 119.046C161.519 118.279 161.613 117.729 161.66 117.395C161.721 116.957 161.778 116.419 161.831 115.782C161.879 115.181 161.927 114.705 161.976 114.354C161.986 114.284 162.044 114.256 162.149 114.27C162.254 114.285 162.302 114.328 162.292 114.398C162.228 114.854 162.227 115.185 162.288 115.39C162.364 115.615 162.525 115.745 162.77 115.779C163.069 115.821 163.593 115.715 164.344 115.462L170.121 113.477L170.774 108.792L166.902 106.347C166.425 106.048 165.967 105.868 165.529 105.807C164.897 105.718 164.375 105.869 163.963 106.259C163.549 106.666 163.289 107.247 163.184 108.002C163.171 108.09 163.113 108.126 163.007 108.111C162.902 108.097 162.856 108.046 162.868 107.958C162.912 107.642 162.993 107.188 163.111 106.596C163.239 105.935 163.337 105.358 163.406 104.867C163.472 104.393 163.534 103.82 163.592 103.148C163.64 102.547 163.69 102.062 163.741 101.694C163.751 101.623 163.808 101.596 163.914 101.61C164.019 101.625 164.067 101.667 164.057 101.738C163.988 102.229 164.027 102.655 164.174 103.015C164.338 103.378 164.651 103.761 165.114 104.166C165.594 104.572 166.311 105.075 167.265 105.673L179.023 113.134C179.071 113.177 179.087 113.26 179.069 113.382C179.05 113.523 179.012 113.598 178.957 113.608L165.09 118.383C163.759 118.824 162.828 119.213 162.298 119.55C161.768 119.888 161.473 120.276 161.412 120.715ZM171.464 109.236L170.91 113.211L175.362 111.685L171.464 109.236Z" fill="#21242E"/>
<path d="M149.283 144.292C149.257 144.338 149.197 144.335 149.105 144.283C149.012 144.23 148.979 144.181 149.005 144.135L151.018 140.571C151.122 140.386 151.28 140.251 151.49 140.167C151.692 140.098 152.164 140.018 152.907 139.929C153.656 139.864 154.901 139.784 156.643 139.689C158.067 139.618 159.107 139.524 159.763 139.406C160.42 139.289 160.925 139.096 161.28 138.829C161.65 138.57 162.001 138.147 162.332 137.561L156.917 134.503C156.454 134.241 156.085 134.084 155.81 134.03C155.542 134.001 155.3 134.088 155.083 134.291C154.867 134.495 154.606 134.866 154.301 135.406C154.284 135.437 154.229 135.426 154.136 135.374C154.044 135.322 154.006 135.28 154.023 135.249C154.346 134.678 154.606 134.235 154.804 133.92L155.873 132.082L156.804 130.38C156.954 130.078 157.182 129.657 157.486 129.117C157.504 129.086 157.559 129.097 157.651 129.149C157.744 129.202 157.782 129.243 157.764 129.274C157.459 129.814 157.276 130.229 157.213 130.519C157.151 130.81 157.202 131.062 157.366 131.277C157.545 131.5 157.866 131.742 158.328 132.004L163.743 135.062C164.074 134.475 164.255 133.957 164.286 133.506C164.332 133.064 164.236 132.532 163.997 131.909C163.759 131.286 163.303 130.347 162.628 129.091C161.81 127.55 161.239 126.435 160.917 125.744C160.602 125.078 160.426 124.633 160.39 124.409C160.345 124.2 160.375 124.003 160.479 123.818L162.492 120.255C162.518 120.208 162.577 120.211 162.67 120.264C162.762 120.316 162.795 120.365 162.769 120.411C162.549 120.837 162.47 121.301 162.532 121.804C162.594 122.307 162.745 122.85 162.986 123.433C163.241 124.025 163.657 124.911 164.232 126.09L164.568 126.738C165.094 127.788 165.472 128.632 165.702 129.27C165.922 129.924 166.024 130.5 166.007 130.999C165.99 131.498 165.859 132.035 165.616 132.61L171.353 131.638C172.594 131.423 173.644 131.059 174.502 130.548C175.368 130.06 176.019 129.43 176.454 128.659C176.472 128.628 176.527 128.639 176.619 128.691C176.712 128.743 176.749 128.785 176.732 128.816L176.147 129.798C175.75 130.428 175.382 131.044 175.042 131.646C174.781 132.109 174.439 132.75 174.017 133.569L173.177 135.11C173.16 135.14 173.105 135.13 173.012 135.078C172.92 135.025 172.882 134.984 172.9 134.953C173.152 134.505 173.244 134.109 173.174 133.765C173.111 133.444 172.909 133.188 172.57 132.996C171.968 132.657 170.978 132.555 169.599 132.692L165.362 133.168L165.048 133.723C164.691 134.356 164.387 134.876 164.137 135.284L169.042 138.054C169.505 138.316 169.87 138.461 170.139 138.49C170.407 138.52 170.649 138.433 170.866 138.23C171.098 138.035 171.362 137.676 171.658 137.151C171.676 137.12 171.731 137.131 171.823 137.183C171.916 137.236 171.953 137.277 171.936 137.308L171.194 138.568C170.78 139.229 170.455 139.768 170.22 140.184C169.95 140.663 169.612 141.296 169.208 142.085L168.486 143.417C168.468 143.448 168.413 143.437 168.321 143.385C168.228 143.332 168.191 143.291 168.208 143.26C168.504 142.736 168.676 142.324 168.723 142.025C168.77 141.726 168.703 141.464 168.524 141.241C168.361 141.027 168.047 140.789 167.585 140.527L162.725 137.783C162.514 138.193 162.226 138.722 161.86 139.37L161.546 139.925L163.249 143.664C163.843 144.955 164.471 145.788 165.134 146.163C165.474 146.355 165.797 146.395 166.104 146.283C166.426 146.181 166.71 145.913 166.954 145.481C166.98 145.435 167.039 145.438 167.132 145.49C167.224 145.543 167.257 145.592 167.231 145.638L166.359 147.129C165.875 147.914 165.502 148.538 165.241 149.001C164.901 149.602 164.564 150.236 164.229 150.901L163.69 151.909C163.672 151.94 163.617 151.929 163.525 151.877C163.432 151.825 163.395 151.783 163.412 151.752C163.848 150.981 164.055 150.091 164.035 149.083C164.021 148.098 163.786 147.019 163.33 145.846L161.199 140.431C160.824 140.951 160.431 141.34 160.022 141.597C159.603 141.87 159.062 142.072 158.396 142.205C157.747 142.347 156.824 142.467 155.629 142.565L154.901 142.612C153.594 142.728 152.621 142.83 151.982 142.917C151.359 143.012 150.815 143.163 150.353 143.37C149.89 143.577 149.534 143.884 149.283 144.292Z" fill="#21242E"/>
</svg>
