<svg width="650" height="46" viewBox="0 0 650 46" fill="none" xmlns="http://www.w3.org/2000/svg">
<circle cx="626.514" cy="23" r="23" fill="#21242E"/>
<path d="M632.53 23.9172C632.709 23.7377 632.81 23.4941 632.811 23.24L632.811 22.7545C632.808 22.5009 632.707 22.2583 632.53 22.0772L625.962 15.5222C625.842 15.4013 625.679 15.3333 625.508 15.3333C625.338 15.3333 625.175 15.4013 625.055 15.5222L624.147 16.4295C624.027 16.5472 623.959 16.7084 623.959 16.8767C623.959 17.0449 624.027 17.2061 624.147 17.3239L629.833 22.9972L624.147 28.6706C624.026 28.7905 623.958 28.9538 623.958 29.1242C623.958 29.2945 624.026 29.4578 624.147 29.5778L625.055 30.4722C625.175 30.5932 625.338 30.6612 625.508 30.6612C625.679 30.6612 625.842 30.5932 625.962 30.4722L632.53 23.9172Z" fill="#E6E6E6"/>
<circle cx="556.236" cy="23" r="23" fill="#21242E"/>
<path d="M551.406 22.0774C551.226 22.2569 551.125 22.5005 551.125 22.7546L551.125 23.2402C551.128 23.4937 551.229 23.7363 551.406 23.9174L557.974 30.4724C558.094 30.5933 558.257 30.6614 558.427 30.6614C558.598 30.6614 558.761 30.5933 558.881 30.4724L559.788 29.5652C559.908 29.4474 559.976 29.2862 559.976 29.118C559.976 28.9497 559.908 28.7885 559.788 28.6707L554.102 22.9974L559.788 17.3241C559.909 17.2041 559.977 17.0408 559.977 16.8705C559.977 16.7001 559.909 16.5368 559.788 16.4168L558.881 15.5224C558.761 15.4014 558.598 15.3334 558.427 15.3334C558.257 15.3334 558.094 15.4014 557.974 15.5224L551.406 22.0774Z" fill="#E6E6E6"/>
<path d="M4.49121 20.6396C3.95801 21.3604 3.69141 22.3799 3.69141 23.6982C3.69141 25.0166 3.95801 26.0361 4.49121 26.7568C5.02441 27.4775 5.65723 27.8379 6.38965 27.8379C7.12207 27.8379 7.75488 27.4775 8.28809 26.7568C8.82129 26.0361 9.08789 25.0166 9.08789 23.6982C9.08789 22.3799 8.82129 21.3604 8.28809 20.6396C7.75488 19.9189 7.12207 19.5586 6.38965 19.5586C5.65723 19.5586 5.02441 19.9189 4.49121 20.6396ZM10.2129 18.9434C11.2617 20.1445 11.7861 21.7295 11.7861 23.6982C11.7861 25.667 11.2617 27.2549 10.2129 28.4619C9.16406 29.6689 7.88965 30.2725 6.38965 30.2725C4.88965 30.2725 3.61523 29.6689 2.56641 28.4619C1.51758 27.2549 0.993164 25.667 0.993164 23.6982C0.993164 21.7295 1.51758 20.1445 2.56641 18.9434C3.61523 17.7363 4.88965 17.1328 6.38965 17.1328C7.88965 17.1328 9.16406 17.7363 10.2129 18.9434ZM16.8304 17.3965H19.0804V30H16.3821V20.8242H14.22V19.1104C14.6067 19.0635 14.9612 18.9727 15.2835 18.8379C15.6057 18.6973 15.8548 18.5479 16.0305 18.3896C16.2122 18.2314 16.3645 18.0791 16.4876 17.9326C16.6165 17.7803 16.7073 17.6514 16.76 17.5459L16.8304 17.3965ZM28.9849 17.2207L23.5884 33.7793H21.9625L27.3677 17.2207H28.9849ZM32.869 28.418C31.8436 27.2402 31.3309 25.667 31.3309 23.6982C31.3309 21.7295 31.8436 20.1592 32.869 18.9873C33.8944 17.8096 35.1512 17.2207 36.6395 17.2207C38.1278 17.2207 39.3846 17.8096 40.41 18.9873C41.4354 20.1592 41.9481 21.7295 41.9481 23.6982C41.9481 25.667 41.4354 27.2402 40.41 28.418C39.3846 29.5898 38.1278 30.1758 36.6395 30.1758C35.1512 30.1758 33.8944 29.5898 32.869 28.418ZM38.9862 27.1348C39.6424 26.2969 39.9705 25.1514 39.9705 23.6982C39.9705 22.2451 39.6424 21.1025 38.9862 20.2705C38.3358 19.4385 37.5536 19.0225 36.6395 19.0225C35.7254 19.0225 34.9403 19.4385 34.284 20.2705C33.6336 21.1025 33.3084 22.2451 33.3084 23.6982C33.3084 25.1514 33.6336 26.2969 34.284 27.1348C34.9403 27.9668 35.7254 28.3828 36.6395 28.3828C37.5536 28.3828 38.3358 27.9668 38.9862 27.1348ZM50.8595 23.3379C50.9181 23.3613 50.9972 23.3965 51.0968 23.4434C51.2023 23.4844 51.3839 23.5898 51.6417 23.7598C51.8995 23.9238 52.128 24.1143 52.3273 24.3311C52.5265 24.5479 52.7052 24.8496 52.8634 25.2363C53.0275 25.6172 53.1095 26.0361 53.1095 26.4932C53.1095 27.5244 52.6964 28.3975 51.8702 29.1123C51.0499 29.8213 49.963 30.1758 48.6095 30.1758C48.0353 30.1758 47.4904 30.1084 46.9747 29.9736C46.4591 29.833 46.0314 29.6689 45.6915 29.4814C45.3575 29.2881 45.0675 29.0947 44.8214 28.9014C44.5753 28.708 44.3966 28.5469 44.2853 28.418L44.1095 28.1982L45.3663 26.9414C45.3898 26.9766 45.4308 27.0293 45.4894 27.0996C45.5538 27.1641 45.6886 27.2812 45.8937 27.4512C46.0988 27.6152 46.3126 27.7617 46.5353 27.8906C46.7638 28.0137 47.0626 28.1279 47.4318 28.2334C47.8068 28.333 48.1993 28.3828 48.6095 28.3828C49.3888 28.3828 50.004 28.1953 50.4552 27.8203C50.9064 27.4395 51.132 26.9678 51.132 26.4053C51.132 25.8369 50.9064 25.3652 50.4552 24.9902C50.004 24.6094 49.3888 24.4189 48.6095 24.4189H47.3527V22.6172H48.6095C49.2306 22.6172 49.714 22.4561 50.0597 22.1338C50.4113 21.8115 50.587 21.375 50.587 20.8242C50.587 20.2676 50.4113 19.8281 50.0597 19.5059C49.714 19.1836 49.2306 19.0225 48.6095 19.0225C48.0821 19.0225 47.5841 19.1367 47.1154 19.3652C46.6466 19.5938 46.3155 19.8135 46.1222 20.0244L45.8234 20.3672L44.5577 19.1104C44.5929 19.0635 44.6456 18.999 44.7159 18.917C44.7921 18.8291 44.9562 18.6738 45.2081 18.4512C45.4601 18.2285 45.7296 18.0381 46.0167 17.8799C46.3038 17.7158 46.6818 17.5664 47.1505 17.4316C47.6193 17.291 48.1056 17.2207 48.6095 17.2207C49.8458 17.2207 50.8155 17.54 51.5187 18.1787C52.2218 18.8115 52.5734 19.6318 52.5734 20.6396C52.5734 20.9854 52.5118 21.3193 52.3888 21.6416C52.2716 21.958 52.128 22.2158 51.9581 22.415C51.7882 22.6143 51.6212 22.7871 51.4571 22.9336C51.2989 23.0742 51.1583 23.1738 51.0353 23.2324L50.8595 23.3379Z" fill="#21242E"/>
<rect x="94" y="20" width="121.236" height="6" rx="3" fill="#21242E"/>
<rect x="232.764" y="20" width="121.236" height="6" rx="3" fill="#E6E6E6"/>
<rect x="372" y="20" width="121.236" height="6" rx="3" fill="#E6E6E6"/>
</svg>
