<svg width="41" height="40" viewBox="0 0 41 40" fill="none" xmlns="http://www.w3.org/2000/svg">
<path d="M20.4456 0C9.50361 0 0.630371 8.87323 0.630371 19.8152C0.630371 30.7571 9.50361 39.6304 20.4456 39.6304C31.3875 39.6304 40.2607 30.7571 40.2607 19.8152C40.2607 8.87323 31.3875 0 20.4456 0ZM20.8655 31.3522C20.8652 31.3522 20.8658 31.3522 20.8655 31.3522H20.8607C18.8757 31.3513 16.9252 30.8536 15.193 29.909L8.90615 31.5578L10.5888 25.4139C9.55077 23.6161 9.00472 21.5764 9.00563 19.4868C9.00835 12.9499 14.3286 7.63176 20.8655 7.63176C24.0378 7.63297 27.0157 8.86779 29.2547 11.1086C31.4939 13.3496 32.7263 16.3284 32.7251 19.4962C32.7224 26.0334 27.4016 31.3522 20.8655 31.3522Z" fill="#95B04C"/>
<path d="M20.8694 9.63425C15.4321 9.63425 11.0102 14.0544 11.0078 19.4877C11.0071 21.3496 11.5284 23.1629 12.515 24.7318L12.7493 25.1046L11.7534 28.741L15.4841 27.7626L15.8442 27.9761C17.3575 28.8741 19.0924 29.3491 20.8612 29.3497H20.8652C26.2982 29.3497 30.7201 24.9292 30.7226 19.4956C30.7235 16.8624 29.6991 14.3867 27.8381 12.5242C25.9771 10.6617 23.502 9.63515 20.8694 9.63425ZM26.6674 23.7243C26.4203 24.4161 25.2366 25.0477 24.6673 25.133C24.1566 25.2092 23.5108 25.2409 22.8008 25.0157C22.3703 24.879 21.8185 24.6967 21.1113 24.3916C18.1388 23.1084 16.1974 20.1163 16.0492 19.9186C15.9011 19.7208 14.8392 18.3122 14.8392 16.8539C14.8392 15.3959 15.6048 14.6791 15.8763 14.3827C16.1481 14.0861 16.4692 14.0121 16.6666 14.0121C16.8641 14.0121 17.0618 14.0139 17.2345 14.0223C17.4165 14.0314 17.6608 13.9531 17.9012 14.5309C18.1482 15.1241 18.7408 16.5821 18.8149 16.7302C18.889 16.8787 18.9382 17.0516 18.8397 17.2494C18.7408 17.4471 18.4124 17.8737 18.0989 18.2626C17.9674 18.4255 17.7959 18.5707 17.9689 18.8673C18.1415 19.1636 18.7366 20.1339 19.6173 20.9194C20.7494 21.9286 21.7042 22.2413 22.0005 22.3897C22.2965 22.5379 22.4695 22.5131 22.6424 22.3157C22.815 22.1179 23.3832 21.4506 23.5806 21.154C23.7781 20.8574 23.9758 20.907 24.2473 21.0058C24.5191 21.1044 25.9759 21.8213 26.2722 21.9695C26.5685 22.1179 26.7659 22.192 26.84 22.3157C26.9144 22.4393 26.9144 23.0322 26.6674 23.7243Z" fill="#95B04C"/>
</svg>
