<svg width="17" height="29" viewBox="0 0 17 29" fill="none" xmlns="http://www.w3.org/2000/svg">
<path d="M1.08593 13.3464L1.08593 13.3464L13.5859 1.07404C14.2297 0.441987 15.2704 0.441986 15.9141 1.07404C16.5619 1.71002 16.562 2.74441 15.9141 3.3805L15.6339 3.09508L15.9141 3.38051L4.58878 14.4997L15.9141 25.6195C16.2372 25.9366 16.4 26.3546 16.4 26.7728C16.4 27.1909 16.2371 27.6089 15.914 27.9261C15.2703 28.558 14.2296 28.558 13.5858 27.9259L13.8661 27.6405L13.5858 27.9259L1.0859 15.6529C1.08588 15.6529 1.08586 15.6529 1.08584 15.6529C0.775568 15.3483 0.599999 14.9336 0.599999 14.4997C0.599999 14.0656 0.775739 13.651 1.08593 13.3464Z" fill="#9D9D9D" stroke="#9D9D9D" stroke-width="0.8"/>
</svg>
