<svg width="68" height="68" viewBox="0 0 68 68" fill="none" xmlns="http://www.w3.org/2000/svg">
<circle cx="34" cy="34" r="34" fill="#7361EF"/>
<path d="M34.5 18C25.3872 18 18 25.3874 18 34.5C18 43.6131 25.3872 51 34.5 51C43.6128 51 51 43.6131 51 34.5C51 25.3874 43.6128 18 34.5 18ZM34.5 42.75C33.3609 42.75 32.4375 41.827 32.4375 40.6875C32.4375 39.5485 33.3609 38.625 34.5 38.625C35.6391 38.625 36.5625 39.5485 36.5625 40.6875C36.5625 41.827 35.6391 42.75 34.5 42.75ZM36.0751 34.1888C35.7498 34.3228 35.5312 34.6883 35.5312 35.0982V35.5312C35.5312 36.1013 35.07 36.5625 34.5 36.5625C33.93 36.5625 33.4688 36.1013 33.4688 35.5312V35.0982C33.4688 33.8444 34.1828 32.7386 35.2876 32.2824C36.1899 31.9087 36.7005 30.9681 36.5283 29.9932C36.3863 29.1815 35.6934 28.4886 34.8827 28.3467C34.2543 28.2359 33.649 28.396 33.1747 28.7948C32.7064 29.1887 32.4375 29.7647 32.4375 30.375C32.4375 30.945 31.9763 31.4062 31.4062 31.4062C30.8362 31.4062 30.375 30.945 30.375 30.375C30.375 29.1534 30.9118 28.0013 31.8483 27.2148C32.7839 26.4292 34.0176 26.102 35.2391 26.3155C36.9029 26.6075 38.2684 27.9732 38.5605 29.6368C38.9 31.5704 37.8788 33.4426 36.0751 34.1888Z" fill="white"/>
</svg>
