<svg width="68" height="68" viewBox="0 0 68 68" fill="none" xmlns="http://www.w3.org/2000/svg">
<circle cx="34" cy="34" r="34" fill="#7361EF"/>
<path d="M45.6154 42.4799H39.173V49L45.6154 42.4799Z" fill="white"/>
<path d="M45.6152 21.8125C45.6152 20.8106 44.8046 20 43.8028 20H23.8125C22.8116 20 22 20.8106 22 21.8125V47.1875C22 48.1894 22.8115 49 23.8125 49H37.3292V41.3425C37.3292 40.8416 37.7345 40.4363 38.2355 40.4363H45.6152V21.8125ZM24.7248 24.5414H33.8076V26.585H24.7248V24.5414V24.5414ZM24.7248 30.2181H33.8076V32.2617H24.7248V30.2181V30.2181ZM33.8076 43.6152H24.7248V41.5716H33.8076V43.6152ZM42.4363 37.9385H24.7248V35.8949H42.4363V37.9385ZM42.4363 32.2618H36.7596V24.5414H42.4363V32.2618Z" fill="white"/>
</svg>
