<svg width="68" height="68" viewBox="0 0 68 68" fill="none" xmlns="http://www.w3.org/2000/svg">
<circle cx="34" cy="34" r="34" fill="#7361EF"/>
<path d="M47.1472 30.4268H46.0519C45.7772 29.3911 45.367 28.4107 44.8412 27.5055L45.6165 26.7302C46.3399 26.0067 46.3399 24.8337 45.6165 24.1103L43.89 22.3838C43.1666 21.6604 41.9936 21.6604 41.2701 22.3838L40.4948 23.1591C39.5896 22.6333 38.6092 22.2232 37.5735 21.9484V20.8527C37.5735 19.8295 36.7441 19 35.7209 19H33.2793C32.2561 19 31.4267 19.8295 31.4267 20.8527V21.9484C30.3911 22.2231 29.4105 22.6333 28.5055 23.159L27.7301 22.3837C27.0066 21.6602 25.8336 21.6602 25.1102 22.3838L23.3838 24.1103C22.6604 24.8337 22.6604 26.0067 23.3838 26.7302L24.159 27.5054C23.6332 28.4105 23.223 29.3911 22.9483 30.4268H21.8526C20.8295 30.4268 20 31.2562 20 32.2794V34.7209C20 35.7441 20.8295 36.5735 21.8526 36.5735H22.9483C23.2231 37.6092 23.6333 38.5898 24.1591 39.4949L23.3838 40.2702C22.6604 40.9937 22.6604 42.1667 23.3838 42.8901L25.1103 44.6166C25.8337 45.3401 27.0067 45.3401 27.7302 44.6166L28.5056 43.8412C29.4107 44.367 30.3912 44.7772 31.4268 45.0519V46.1475C31.4268 47.1707 32.2562 48.0002 33.2794 48.0002H35.721C36.7442 48.0002 37.5736 47.1707 37.5736 46.1475V45.0519C38.6093 44.7771 39.5898 44.3669 40.4949 43.8411L41.2703 44.6166C41.9938 45.3401 43.1668 45.3401 43.8902 44.6166L45.6167 42.8901C45.9643 42.5427 46.1594 42.0715 46.1594 41.5801C46.1594 41.0888 45.9642 40.6176 45.6167 40.2701L44.8413 39.4947C45.3671 38.5896 45.7772 37.609 46.052 36.5734H47.1473C48.1705 36.5734 49 35.744 49 34.7207V32.2793C48.9999 31.2562 48.1704 30.4268 47.1472 30.4268ZM34.5 40.131C30.8437 40.131 27.869 37.1563 27.869 33.5C27.869 29.8437 30.8437 26.869 34.5 26.869C38.1564 26.869 41.1311 29.8437 41.1311 33.5C41.1311 37.1563 38.1564 40.131 34.5 40.131Z" fill="white"/>
<path d="M34.4997 30.1846C32.6715 30.1846 31.1842 31.6719 31.1842 33.5C31.1842 35.3281 32.6715 36.8154 34.4997 36.8154C36.3278 36.8154 37.8151 35.3281 37.8151 33.5C37.8151 31.6719 36.3278 30.1846 34.4997 30.1846Z" fill="white"/>
</svg>
