<svg width="107" height="75" viewBox="0 0 107 75" fill="none" xmlns="http://www.w3.org/2000/svg">
<path d="M101.562 26.7267C102.295 26.7339 103.026 26.8081 103.746 26.9485C104.132 27.0175 104.529 27.0018 104.908 26.9027C105.287 26.8036 105.641 26.6234 105.944 26.3745C106.245 26.124 106.488 25.8102 106.654 25.4553C106.821 25.1004 106.907 24.7133 106.907 24.3213V13.3634C106.903 9.82048 105.493 6.42392 102.988 3.91872C100.483 1.41353 97.0864 0.00424382 93.5435 0H13.3634C9.82048 0.00424382 6.42392 1.41353 3.91872 3.91872C1.41353 6.42392 0.0042439 9.82048 7.87749e-08 13.3634V24.3213C-8.33858e-05 24.7137 0.0862269 25.1013 0.252802 25.4565C0.419377 25.8118 0.662132 26.126 0.963824 26.3769C1.26552 26.6277 1.61874 26.8091 1.99843 26.9081C2.37811 27.0071 2.77493 27.0213 3.1607 26.9496C3.88059 26.8088 4.61185 26.7342 5.34534 26.7267C8.18069 26.7267 10.8999 27.8531 12.9048 29.8579C14.9097 31.8628 16.036 34.5821 16.036 37.4174C16.036 40.2527 14.9097 42.972 12.9048 44.9769C10.8999 46.9818 8.18069 48.1081 5.34534 48.1081C4.61189 48.1009 3.88062 48.0267 3.1607 47.8863C2.77469 47.8174 2.37834 47.833 1.99897 47.9322C1.61959 48.0313 1.26623 48.2115 0.963231 48.4603C0.661736 48.7108 0.419123 49.0246 0.252643 49.3795C0.0861632 49.7344 -9.51571e-05 50.1215 7.87749e-08 50.5135V61.4714C0.0042439 65.0143 1.41353 68.4109 3.91872 70.9161C6.42392 73.4213 9.82048 74.8306 13.3634 74.8348H93.5435C97.0864 74.8306 100.483 73.4213 102.988 70.9161C105.493 68.4109 106.903 65.0143 106.907 61.4714V50.5135C106.907 50.1214 106.821 49.7341 106.655 49.3791C106.489 49.024 106.246 48.71 105.945 48.4593C105.642 48.2106 105.288 48.0306 104.909 47.9315C104.53 47.8324 104.133 47.8166 103.747 47.8852C103.027 48.026 102.295 48.1007 101.562 48.1081C98.7262 48.1081 96.007 46.9818 94.0021 44.9769C91.9972 42.972 90.8708 40.2527 90.8708 37.4174C90.8708 34.5821 91.9972 31.8628 94.0021 29.8579C96.007 27.8531 98.7262 26.7267 101.562 26.7267ZM101.562 53.4534V61.4714C101.559 63.5972 100.714 65.6352 99.2104 67.1384C97.7073 68.6415 95.6693 69.4871 93.5435 69.4895H13.3634C11.2376 69.4871 9.19957 68.6415 7.69642 67.1384C6.19327 65.6352 5.34775 63.5972 5.34534 61.4714V53.4534C9.59836 53.4534 13.6772 51.7639 16.6845 48.7566C19.6919 45.7492 21.3814 41.6704 21.3814 37.4174C21.3814 33.1644 19.6919 29.0856 16.6845 26.0782C13.6772 23.0709 9.59836 21.3814 5.34534 21.3814V13.3634C5.34775 11.2376 6.19327 9.19957 7.69642 7.69642C9.19957 6.19327 11.2376 5.34775 13.3634 5.34534H93.5435C95.6693 5.34775 97.7073 6.19327 99.2104 7.69642C100.714 9.19957 101.559 11.2376 101.562 13.3634V21.3814C97.3085 21.3814 93.2297 23.0709 90.2223 26.0782C87.215 29.0856 85.5255 33.1644 85.5255 37.4174C85.5255 41.6704 87.215 45.7492 90.2223 48.7566C93.2297 51.7639 97.3085 53.4534 101.562 53.4534Z" fill="white"/>
<path d="M56.1261 21.3814V26.7267C56.1261 27.4356 55.8445 28.1154 55.3433 28.6166C54.8421 29.1178 54.1623 29.3994 53.4534 29.3994C52.7446 29.3994 52.0648 29.1178 51.5636 28.6166C51.0623 28.1154 50.7808 27.4356 50.7808 26.7267V21.3814C50.7808 20.6725 51.0623 19.9927 51.5636 19.4915C52.0648 18.9903 52.7446 18.7087 53.4534 18.7087C54.1623 18.7087 54.8421 18.9903 55.3433 19.4915C55.8445 19.9927 56.1261 20.6725 56.1261 21.3814Z" fill="white"/>
<path d="M56.1261 48.1081V53.4534C56.1261 54.1623 55.8445 54.8421 55.3433 55.3433C54.8421 55.8445 54.1623 56.1261 53.4534 56.1261C52.7446 56.1261 52.0648 55.8445 51.5636 55.3433C51.0623 54.8421 50.7808 54.1623 50.7808 53.4534V48.1081C50.7808 47.3993 51.0623 46.7195 51.5636 46.2182C52.0648 45.717 52.7446 45.4354 53.4534 45.4354C54.1623 45.4354 54.8421 45.717 55.3433 46.2182C55.8445 46.7195 56.1261 47.3993 56.1261 48.1081Z" fill="white"/>
</svg>
