<svg width="42" height="42" viewBox="0 0 42 42" fill="none" xmlns="http://www.w3.org/2000/svg">
<circle cx="21" cy="21" r="21" fill="#7361EF" fill-opacity="0.56"/>
<path d="M21.4449 11.0172C22.5748 11 23.696 11.0086 24.8173 11C24.8862 12.3196 25.3606 13.6651 26.3266 14.5965C27.2926 15.5539 28.6553 15.9938 29.9835 16.1404V19.6162C28.7415 19.5731 27.4909 19.3143 26.3611 18.7796C25.8695 18.5553 25.4124 18.2707 24.9639 17.9775C24.9552 20.4959 24.9725 23.0144 24.9466 25.5242C24.8776 26.7317 24.4809 27.9305 23.7823 28.9224C22.6524 30.5783 20.6946 31.6564 18.685 31.6909C17.4517 31.7599 16.2183 31.4236 15.1661 30.8026C13.4239 29.7762 12.1991 27.896 12.018 25.8778C12.0008 25.4466 11.9922 25.0153 12.0094 24.5927C12.1646 22.954 12.9754 21.3843 14.2346 20.3148C15.6663 19.0728 17.6673 18.4777 19.5389 18.8313C19.5561 20.1078 19.5044 21.3843 19.5044 22.6607C18.6505 22.3848 17.65 22.4624 16.8997 22.9799C16.3563 23.3335 15.9423 23.8768 15.7267 24.4892C15.5456 24.9291 15.5973 25.4121 15.606 25.8778C15.8129 27.2923 17.1757 28.4825 18.6246 28.3531C19.5906 28.3445 20.5135 27.7839 21.0137 26.9645C21.1776 26.6799 21.3587 26.3867 21.3673 26.0503C21.4536 24.5065 21.4191 22.9712 21.4277 21.4274C21.4363 17.9516 21.4191 14.4844 21.4449 11.0172Z" fill="#F2F2F2"/>
</svg>
