<svg width="36" height="11" viewBox="0 0 36 11" fill="none" xmlns="http://www.w3.org/2000/svg">
<path d="M0.1 5.65874C0.1 2.86545 2.37265 0.59292 5.16595 0.59292C7.95912 0.59292 10.2318 2.86544 10.2318 5.65874C10.2318 8.45204 7.95925 10.7246 5.16595 10.7246C2.37265 10.7246 0.1 8.45204 0.1 5.65874ZM2.18542 5.65861C2.18542 7.30209 3.52235 8.63901 5.16595 8.63901C6.80929 8.63901 8.14634 7.30209 8.14634 5.65861C8.14634 4.01514 6.80942 2.67822 5.16595 2.67822C3.52235 2.67822 2.18542 4.01514 2.18542 5.65861Z" fill="black" stroke="white" stroke-width="0.2"/>
<path d="M12.9342 5.65874C12.9342 2.86544 15.2067 0.59292 18 0.59292C20.7932 0.59292 23.0658 2.86544 23.0658 5.65874C23.0658 8.45204 20.7933 10.7246 18 10.7246C15.2067 10.7246 12.9342 8.45204 12.9342 5.65874ZM15.0196 5.65861C15.0196 7.30208 16.3565 8.63901 18 8.63901C19.6433 8.63901 20.9804 7.30209 20.9804 5.65861C20.9804 4.01514 19.6435 2.67822 18 2.67822C16.3565 2.67822 15.0196 4.01514 15.0196 5.65861Z" fill="black" stroke="white" stroke-width="0.2"/>
<path d="M25.7682 5.65874C25.7682 2.86544 28.0408 0.59292 30.834 0.59292C33.6272 0.59292 35.9 2.86545 35.9 5.65874C35.9 8.45204 33.6273 10.7246 30.834 10.7246C28.0408 10.7246 25.7682 8.45204 25.7682 5.65874ZM27.8537 5.65861C27.8537 7.30208 29.1906 8.63901 30.834 8.63901C32.4775 8.63901 33.8146 7.30209 33.8146 5.65861C33.8146 4.01514 32.4776 2.67822 30.834 2.67822C29.1906 2.67822 27.8537 4.01514 27.8537 5.65861Z" fill="black" stroke="white" stroke-width="0.2"/>
</svg>
