<svg width="83" height="82" viewBox="0 0 83 82" fill="none" xmlns="http://www.w3.org/2000/svg">
<path d="M77.4763 32.2255H74.3875C73.6126 29.3047 72.4559 26.5397 70.9729 23.987L73.1594 21.8005C75.1997 19.7602 75.1997 16.4522 73.1594 14.4119L68.2905 9.54299C66.2502 7.50267 62.9422 7.50267 60.9019 9.54299L58.7154 11.7295C56.1627 10.2465 53.3977 9.0901 50.4768 8.31493V5.22485C50.4768 2.33923 48.1376 0 45.252 0H38.3665C35.4809 0 33.1416 2.33923 33.1416 5.22485V8.31493C30.2211 9.08979 27.4558 10.2465 24.9034 11.7292L22.7166 9.54268C20.6762 7.50236 17.3683 7.50236 15.328 9.54299L10.4594 14.4119C8.41907 16.4522 8.41907 19.7602 10.4594 21.8005L12.6456 23.9867C11.1626 26.5394 10.0059 29.3047 9.23102 32.2255H6.14093C3.25562 32.2255 0.916397 34.5648 0.916397 37.4504V44.3356C0.916397 47.2212 3.25562 49.5604 6.14093 49.5604H9.23102C10.0062 52.4813 11.1629 55.2466 12.6459 57.7993L10.4594 59.9858C8.41907 62.0261 8.41907 65.3341 10.4594 67.3744L15.3283 72.2433C17.3686 74.2836 20.6766 74.2836 22.7169 72.2433L24.9037 70.0565C27.4561 71.5395 30.2214 72.6962 33.1419 73.4711V76.5608C33.1419 79.4465 35.4812 81.7857 38.3668 81.7857H45.2523C48.1379 81.7857 50.4772 79.4465 50.4772 76.5608V73.4711C53.398 72.6959 56.163 71.5392 58.7157 70.0562L60.9025 72.2433C62.9429 74.2836 66.2508 74.2836 68.2911 72.2433L73.16 67.3744C74.1403 66.3945 74.6904 65.0657 74.6904 63.68C74.6904 62.2942 74.14 60.9655 73.16 59.9855L70.9732 57.7987C72.4562 55.2463 73.6126 52.4807 74.3878 49.5601H77.4766C80.3622 49.5601 82.7015 47.2209 82.7015 44.3353V37.4501C82.7012 34.5648 80.3619 32.2255 77.4763 32.2255ZM41.8091 59.5931C31.4975 59.5931 23.1084 51.204 23.1084 40.8927C23.1084 30.5811 31.4975 22.192 41.8091 22.192C52.1207 22.192 60.5098 30.5811 60.5098 40.8927C60.5098 51.204 52.1207 59.5931 41.8091 59.5931Z" fill="white" fill-opacity="0.24"/>
</svg>
