<svg width="68" height="74" viewBox="0 0 68 74" fill="none" xmlns="http://www.w3.org/2000/svg">
<path d="M17.4922 2.5197C15.9091 0.961688 13.7376 0 11.3408 0C6.49654 0 2.5697 3.92699 2.5697 8.7711C2.5697 13.6152 6.49669 17.5422 11.3408 17.5422H22.7213V12.2644C22.7213 10.8985 22.969 9.58965 23.4199 8.37909L17.4922 2.5197Z" fill="white" fill-opacity="0.24"/>
<path d="M56.4283 0C54.0316 0 51.86 0.961688 50.2766 2.5197L44.3491 8.3788C44.8001 9.58965 45.0477 10.8985 45.0477 12.2642V17.5422H56.4282C61.2724 17.5422 65.1993 13.6152 65.1993 8.7711C65.1993 3.92699 61.2726 0 56.4283 0Z" fill="white" fill-opacity="0.24"/>
<path d="M33.8846 5.88544C30.3616 5.88544 27.5055 8.74141 27.5055 12.2645V18.4266H40.2635V12.2645C40.2636 8.74141 37.4075 5.88544 33.8846 5.88544Z" fill="white" fill-opacity="0.24"/>
<path d="M45.0479 39.869V57.0994L33.8846 48.7269L22.7213 57.0994V39.869H5.17897V73.3588H62.5902V39.869H45.0479Z" fill="white" fill-opacity="0.24"/>
<path d="M67.3744 22.3265H45.0479V35.0845H67.3744V22.3265Z" fill="white" fill-opacity="0.24"/>
<path d="M22.7213 22.3265H0.39473V35.0845H22.7213V22.3265Z" fill="white" fill-opacity="0.24"/>
<path d="M27.5055 22.3265V47.5309L33.8846 42.7466L40.2636 47.5309V22.3265H27.5055Z" fill="white" fill-opacity="0.24"/>
</svg>
