<svg width="107" height="113" viewBox="0 0 107 113" fill="none" xmlns="http://www.w3.org/2000/svg">
<path d="M73.6183 20.9533L72.644 21.8258H73.9519H103.46C105.087 21.8258 106.407 23.145 106.407 24.7723V46.6238C106.407 48.2511 105.088 49.5703 103.46 49.5703H102.547H102.047V50.0703V108.936C102.047 110.564 100.728 111.883 99.1008 111.883H7.80606C6.17874 111.883 4.85956 110.564 4.85956 108.936V50.0703V49.5703H4.35956H3.4465C1.81918 49.5703 0.5 48.2511 0.5 46.6238V24.7719C0.5 23.1446 1.81918 21.8254 3.4465 21.8254H32.9543H34.2622L33.2878 20.9529L30.7062 18.6412C30.5447 18.4964 30.3992 18.3339 30.2726 18.1566C26.6602 13.0912 27.8427 6.02988 32.9082 2.41707L32.6182 2.0105L32.9082 2.41706C35.3137 0.701195 38.345 0.0988782 41.2246 0.765604L41.2247 0.765624C44.1035 1.43162 46.5622 3.30446 47.9698 5.90265L53.0134 15.2131L53.453 16.0246L53.8927 15.2131L58.9363 5.90269C60.3439 3.30486 62.8022 1.43236 65.6815 0.76599L65.6816 0.76596C68.5603 0.098915 71.5916 0.701518 73.9979 2.41747C79.0641 6.03026 80.2463 13.0916 76.6335 18.157C76.5072 18.3341 76.3621 18.4964 76.2003 18.6413L76.2002 18.6414L73.6183 20.9533ZM72.7634 10.7146L72.7634 10.7145C72.5256 9.29451 71.7484 8.0507 70.5764 7.21495C69.8161 6.67262 68.9343 6.38991 68.0245 6.38991C67.6874 6.38991 67.3481 6.42846 67.0103 6.50678C65.7595 6.79625 64.7292 7.58069 64.118 8.70964L57.4128 21.0876L57.0129 21.8258H57.8524H63.618H63.8091L63.9515 21.6983L71.9464 14.5399L72.0004 14.4915L72.0385 14.4298C72.7234 13.3189 72.9804 12.0126 72.7634 10.7146ZM49.0541 21.8258H49.8936L49.4937 21.0876L42.7884 8.70989C42.1769 7.58118 41.1467 6.79624 39.896 6.50713C38.6443 6.21729 37.3751 6.46992 36.33 7.21533C35.1577 8.05111 34.3801 9.29567 34.1427 10.715C33.9257 12.0122 34.1826 13.3193 34.8677 14.4299L34.9057 14.4915L34.9597 14.5399L42.955 21.6983L43.0974 21.8258H43.2885H49.0541ZM40.6274 105.99H41.1274V105.49V50.0707V49.5707H40.6274H11.2522H10.7522V50.0707V105.49V105.99H11.2522H40.6274ZM59.3857 105.99H59.8857V105.49V50.0707V49.5707H59.3857H47.5204H47.0204V50.0707V105.49V105.99H47.5204H59.3857ZM95.6543 105.99H96.1543V105.49V50.0707V49.5707H95.6543H66.2791H65.7791V50.0707V105.49V105.99H66.2791H95.6543ZM6.39263 43.1777V43.6777H6.89263H99.5135H100.013H100.014L100.013 43.1777H100.513V28.2188V27.7188H100.013H6.89263H6.39263V28.2188V43.1777Z" fill="white" stroke="#0EACEE"/>
</svg>
