<svg width="113" height="113" viewBox="0 0 113 113" fill="none" xmlns="http://www.w3.org/2000/svg">
<path d="M56.4534 109.907C85.9749 109.907 109.907 85.9749 109.907 56.4534C109.907 26.9319 85.9749 3 56.4534 3C26.9319 3 3 26.9319 3 56.4534C3 85.9749 26.9319 109.907 56.4534 109.907Z" stroke="white" stroke-width="5.41301" stroke-linecap="round" stroke-linejoin="round"/>
<path d="M40.8983 40.4174C42.155 36.8449 44.6355 33.8325 47.9005 31.9136C51.1654 29.9948 55.0041 29.2934 58.7367 29.9336C62.4692 30.5738 65.8547 32.5144 68.2936 35.4116C70.7325 38.3088 72.0673 41.9757 72.0617 45.7627C72.0617 56.4534 56.0256 61.7987 56.0256 61.7987" stroke="white" stroke-width="5.41301" stroke-linecap="round" stroke-linejoin="round"/>
<path d="M56.4534 83.1801H56.5069" stroke="white" stroke-width="5.41301" stroke-linecap="round" stroke-linejoin="round"/>
</svg>
