<svg width="29" height="29" viewBox="0 0 29 29" fill="none" xmlns="http://www.w3.org/2000/svg">
<path d="M14.055 0.382935C6.29269 0.382935 0 6.67562 0 14.4379C0 22.2007 6.29269 28.4929 14.055 28.4929C21.8178 28.4929 28.11 22.2007 28.11 14.4379C28.11 6.67562 21.8178 0.382935 14.055 0.382935ZM14.055 26.7637C7.2739 26.7637 1.75688 21.219 1.75688 14.4379C1.75688 7.65678 7.2739 2.13975 14.055 2.13975C20.8361 2.13975 26.3531 7.65681 26.3531 14.4379C26.3531 21.219 20.8361 26.7637 14.055 26.7637ZM20.2041 13.5595H14.9334V8.28887C14.9334 7.80397 14.5399 7.41043 14.055 7.41043C13.5701 7.41043 13.1766 7.80397 13.1766 8.28887V13.5595H7.90594C7.42104 13.5595 7.0275 13.953 7.0275 14.4379C7.0275 14.9228 7.42104 15.3164 7.90594 15.3164H13.1766V20.587C13.1766 21.0719 13.5701 21.4654 14.055 21.4654C14.5399 21.4654 14.9334 21.0719 14.9334 20.587V15.3164H20.2041C20.689 15.3164 21.0825 14.9228 21.0825 14.4379C21.0825 13.953 20.689 13.5595 20.2041 13.5595Z" fill="black"/>
</svg>
