<svg width="32" height="28" viewBox="0 0 32 28" fill="none" xmlns="http://www.w3.org/2000/svg">
<path d="M28.7032 7.02093H24.1387L19.3615 0.467974C19.0789 0.0804811 18.5355 -0.0047311 18.1479 0.277787C17.7602 0.560412 17.675 1.10377 17.9576 1.49137L21.9888 7.02104H10.0115L14.0428 1.49137C14.3254 1.10377 14.2402 0.560305 13.8525 0.277787C13.465 -0.00451861 12.9216 0.0801624 12.6389 0.467974L7.86164 7.02093H3.29725C1.479 7.02093 0 8.50014 0 10.3183V11.2108C0 12.9317 1.32536 14.348 3.00889 14.4947L5.19806 26.5593C5.27297 26.9724 5.63283 27.2729 6.05273 27.2729H25.9473C26.3672 27.2729 26.7269 26.9725 26.8019 26.5593L28.991 14.4947C30.6745 14.348 32 12.9317 32 11.2108V10.3183C32.0004 8.50014 30.5213 7.02093 28.7032 7.02093ZM25.2223 25.5355H6.77799L4.77699 14.5079H27.2233L25.2223 25.5355ZM30.2632 11.2107C30.2632 12.0709 29.5634 12.7707 28.7032 12.7707C28.03 12.7707 4.81545 12.7707 3.29736 12.7707C2.43716 12.7707 1.73729 12.0709 1.73729 11.2107V10.3182C1.73729 9.45788 2.43716 8.75812 3.29736 8.75812C4.2722 8.75812 27.5409 8.75812 28.7032 8.75812C29.5634 8.75812 30.2632 9.45798 30.2632 10.3182V11.2107Z" fill="black"/>
</svg>
