<svg width="213" height="30" viewBox="0 0 213 30" fill="none" xmlns="http://www.w3.org/2000/svg">
<path d="M8.15958 8.67263H0.143151V3.94866H21.9736V8.67263H13.9572V29H8.15958V8.67263ZM24.2799 9.74625H29.8628V29H24.2799V9.74625ZM27.0714 7.06218C26.0455 7.06218 25.2104 6.76395 24.5662 6.16749C23.9221 5.57103 23.6 4.83142 23.6 3.94866C23.6 3.0659 23.9221 2.32629 24.5662 1.72983C25.2104 1.13337 26.0455 0.835134 27.0714 0.835134C28.0973 0.835134 28.9323 1.12144 29.5765 1.69404C30.2207 2.26664 30.5428 2.98239 30.5428 3.8413C30.5428 4.77177 30.2207 5.54717 29.5765 6.16749C28.9323 6.76395 28.0973 7.06218 27.0714 7.06218ZM43.3111 21.4488L40.6271 24.0971V29H35.0442V2.44558H40.6271V17.4764L48.7866 9.74625H55.4431L47.4267 17.9058L56.1589 29H49.395L43.3111 21.4488ZM63.938 8.67263H55.9215V3.94866H77.752V8.67263H69.7355V29H63.938V8.67263ZM87.6822 29.2863C85.6542 29.2863 83.8291 28.8688 82.2067 28.0337C80.6082 27.1748 79.3556 25.9938 78.449 24.4908C77.5424 22.9877 77.0891 21.2818 77.0891 19.3731C77.0891 17.4645 77.5424 15.7586 78.449 14.2555C79.3556 12.7524 80.6082 11.5834 82.2067 10.7483C83.8291 9.88941 85.6542 9.45995 87.6822 9.45995C89.7102 9.45995 91.5234 9.88941 93.1219 10.7483C94.7204 11.5834 95.973 12.7524 96.8796 14.2555C97.7862 15.7586 98.2396 17.4645 98.2396 19.3731C98.2396 21.2818 97.7862 22.9877 96.8796 24.4908C95.973 25.9938 94.7204 27.1748 93.1219 28.0337C91.5234 28.8688 89.7102 29.2863 87.6822 29.2863ZM87.6822 24.7055C89.1137 24.7055 90.2828 24.2283 91.1894 23.274C92.1199 22.2958 92.5851 20.9955 92.5851 19.3731C92.5851 17.7508 92.1199 16.4624 91.1894 15.5081C90.2828 14.5299 89.1137 14.0408 87.6822 14.0408C86.2507 14.0408 85.0697 14.5299 84.1392 15.5081C83.2088 16.4624 82.7435 17.7508 82.7435 19.3731C82.7435 20.9955 83.2088 22.2958 84.1392 23.274C85.0697 24.2283 86.2507 24.7055 87.6822 24.7055ZM110.238 21.4488L107.554 24.0971V29H101.971V2.44558H107.554V17.4764L115.714 9.74625H122.37L114.354 17.9058L123.086 29H116.322L110.238 21.4488Z" fill="#212121"/>
<path d="M137.979 29.4295C135.426 29.4295 133.112 28.8807 131.036 27.7832C128.985 26.6619 127.362 25.123 126.169 23.1666C125 21.1864 124.416 18.9556 124.416 16.4743C124.416 13.9931 125 11.7742 126.169 9.81783C127.362 7.83758 128.985 6.29871 131.036 5.20123C133.112 4.07988 135.438 3.51921 138.015 3.51921C140.186 3.51921 142.142 3.90094 143.884 4.66441C145.65 5.42788 147.129 6.52537 148.322 7.95687L144.6 11.3925C142.906 9.4361 140.806 8.4579 138.301 8.4579C136.75 8.4579 135.367 8.80385 134.15 9.49574C132.933 10.1638 131.979 11.1062 131.287 12.323C130.619 13.5397 130.285 14.9235 130.285 16.4743C130.285 18.0251 130.619 19.4089 131.287 20.6257C131.979 21.8425 132.933 22.7968 134.15 23.4887C135.367 24.1567 136.75 24.4908 138.301 24.4908C140.806 24.4908 142.906 23.5006 144.6 21.5204L148.322 24.956C147.129 26.4114 145.65 27.5208 143.884 28.2842C142.119 29.0477 140.15 29.4295 137.979 29.4295ZM159.469 9.45995C162.452 9.45995 164.742 10.1757 166.341 11.6072C167.939 13.0149 168.738 15.1502 168.738 18.0132V29H163.513V26.6022C162.464 28.3916 160.507 29.2863 157.644 29.2863C156.165 29.2863 154.877 29.0358 153.779 28.5348C152.706 28.0337 151.882 27.3418 151.31 26.4591C150.737 25.5763 150.451 24.5743 150.451 23.4529C150.451 21.6635 151.119 20.2559 152.455 19.23C153.815 18.2041 155.903 17.6911 158.718 17.6911H163.156C163.156 16.4743 162.786 15.5439 162.046 14.8997C161.306 14.2316 160.197 13.8976 158.718 13.8976C157.692 13.8976 156.678 14.0646 155.676 14.3986C154.698 14.7088 153.863 15.1383 153.171 15.687L151.167 11.7861C152.216 11.0465 153.469 10.4739 154.924 10.0683C156.404 9.66275 157.919 9.45995 159.469 9.45995ZM159.04 25.5286C159.994 25.5286 160.841 25.3139 161.581 24.8844C162.32 24.4311 162.845 23.775 163.156 22.9161V20.9478H159.326C157.036 20.9478 155.891 21.6993 155.891 23.2024C155.891 23.9182 156.165 24.4908 156.714 24.9202C157.286 25.3258 158.062 25.5286 159.04 25.5286ZM180.269 29.2863C178.67 29.2863 177.107 29.0954 175.581 28.7137C174.054 28.3081 172.837 27.8071 171.93 27.2106L173.791 23.2024C174.65 23.7511 175.688 24.2045 176.905 24.5623C178.121 24.8964 179.314 25.0634 180.483 25.0634C182.845 25.0634 184.026 24.4788 184.026 23.3098C184.026 22.761 183.704 22.3674 183.06 22.1288C182.416 21.8902 181.426 21.6874 180.09 21.5204C178.515 21.2818 177.215 21.0074 176.189 20.6973C175.163 20.3871 174.268 19.8384 173.505 19.051C172.765 18.2637 172.395 17.1424 172.395 15.687C172.395 14.4702 172.741 13.3966 173.433 12.4661C174.149 11.5118 175.175 10.7722 176.511 10.2473C177.871 9.7224 179.469 9.45995 181.307 9.45995C182.666 9.45995 184.014 9.61503 185.351 9.92519C186.71 10.2115 187.832 10.6171 188.715 11.142L186.854 15.1144C185.16 14.1601 183.311 13.6829 181.307 13.6829C180.114 13.6829 179.219 13.8499 178.622 14.1839C178.026 14.5179 177.728 14.9474 177.728 15.4723C177.728 16.0687 178.05 16.4863 178.694 16.7248C179.338 16.9634 180.364 17.1901 181.772 17.4048C183.346 17.6673 184.635 17.9536 185.637 18.2637C186.639 18.55 187.51 19.0868 188.249 19.8742C188.989 20.6615 189.359 21.759 189.359 23.1666C189.359 24.3595 189.001 25.4212 188.285 26.3517C187.569 27.2822 186.52 28.0099 185.136 28.5348C183.776 29.0358 182.154 29.2863 180.269 29.2863ZM204.506 9.45995C206.892 9.45995 208.812 10.1757 210.268 11.6072C211.747 13.0387 212.487 15.1621 212.487 17.9774V29H206.904V18.8363C206.904 17.3094 206.57 16.1761 205.902 15.4365C205.234 14.673 204.267 14.2913 203.003 14.2913C201.595 14.2913 200.474 14.7327 199.639 15.6154C198.804 16.4743 198.386 17.7627 198.386 19.4805V29H192.803V2.44558H198.386V11.7504C199.126 11.0108 200.021 10.4501 201.07 10.0683C202.12 9.66275 203.265 9.45995 204.506 9.45995Z" fill="#7361EF"/>
</svg>
