<svg width="19" height="22" viewBox="0 0 19 22" fill="none" xmlns="http://www.w3.org/2000/svg">
<path d="M10.3792 0.828918C11.509 0.811668 12.6303 0.820293 13.7515 0.811668C13.8205 2.13126 14.2948 3.47674 15.2608 4.40822C16.2268 5.36557 17.5895 5.80544 18.9177 5.95206V9.42786C17.6758 9.38473 16.4252 9.12599 15.2953 8.59125C14.8037 8.36701 14.3466 8.08239 13.8981 7.78914C13.8895 10.3076 13.9067 12.826 13.8809 15.3359C13.8119 16.5433 13.4151 17.7422 12.7165 18.734C11.5867 20.39 9.62882 21.4681 7.61924 21.5026C6.38589 21.5716 5.15255 21.2352 4.10032 20.6142C2.35811 19.5879 1.13338 17.7077 0.952262 15.6895C0.935012 15.2582 0.926388 14.827 0.943637 14.4044C1.09888 12.7657 1.90962 11.1959 3.16884 10.1265C4.60056 8.88449 6.60151 8.28938 8.4731 8.643C8.49035 9.91947 8.4386 11.1959 8.4386 12.4724C7.58474 12.1964 6.58427 12.274 5.83391 12.7915C5.29054 13.1452 4.87655 13.6885 4.66093 14.3009C4.47981 14.7407 4.53156 15.2237 4.54018 15.6895C4.74718 17.1039 6.1099 18.2942 7.55887 18.1648C8.52485 18.1562 9.4477 17.5956 9.94794 16.7762C10.1118 16.4916 10.2929 16.1983 10.3016 15.862C10.3878 14.3181 10.3533 12.7829 10.3619 11.2391C10.3706 7.76327 10.3533 4.29609 10.3792 0.828918Z" fill="#7361EF"/>
</svg>
