<svg width="31" height="29" viewBox="0 0 31 29" fill="none" xmlns="http://www.w3.org/2000/svg">
<path d="M23.5518 12.3868C23.3805 11.6765 23.0278 11.037 22.5454 10.5201L27.7906 10.5198C29.3645 10.5198 30.6405 11.7957 30.6405 13.3697V20.0777C30.6405 23.2394 28.0774 25.8025 24.9157 25.8025C24.1123 25.8025 23.3477 25.637 22.654 25.3384L22.7119 25.2331L22.7121 25.2327C22.982 24.7205 23.2001 24.1768 23.3595 23.6085C23.8343 23.819 24.3614 23.9359 24.9157 23.9359C27.0465 23.9359 28.7739 22.2085 28.7739 20.0777V13.3697C28.7739 12.8266 28.3336 12.3864 27.7906 12.3864L23.5518 12.3868ZM19.4905 10.5198C21.0644 10.5198 22.3404 11.7957 22.3404 13.3697V21.3541C22.3404 25.2222 19.2046 28.3579 15.3365 28.3579C11.4684 28.3579 8.33269 25.2222 8.33269 21.3541V13.3697C8.33269 11.7957 9.60863 10.5198 11.1826 10.5198H19.4905ZM19.4905 12.3864H11.1826C10.6395 12.3864 10.1993 12.8266 10.1993 13.3697V21.3541C10.1993 24.1913 12.4993 26.4914 15.3365 26.4914C18.1738 26.4914 20.4738 24.1913 20.4738 21.3541V13.3697C20.4738 12.8266 20.0335 12.3864 19.4905 12.3864ZM2.87488 10.5198L8.12763 10.5201C7.64527 11.037 7.29252 11.6765 7.12124 12.3868L2.87489 12.3864C2.33183 12.3864 1.89159 12.8266 1.89159 13.3697V20.0761C1.89159 22.2078 3.61967 23.9359 5.75136 23.9359C6.30791 23.9359 6.83701 23.8181 7.31503 23.606C7.48319 24.214 7.72071 24.794 8.01698 25.3372C7.32264 25.6364 6.55643 25.8025 5.75136 25.8025C2.58878 25.8025 0.025 23.2387 0.025 20.0761V13.3697C0.025 11.7957 1.30094 10.5198 2.87488 10.5198ZM15.3327 0.297949C17.7888 0.297949 19.7798 2.28896 19.7798 4.74499C19.7798 7.20103 17.7888 9.19204 15.3327 9.19204C12.8767 9.19204 10.8857 7.20103 10.8857 4.74499C10.8857 2.28896 12.8767 0.297949 15.3327 0.297949ZM25.5584 1.57568C27.6616 1.57568 29.3665 3.28066 29.3665 5.38386C29.3665 7.48706 27.6616 9.19204 25.5584 9.19204C23.4552 9.19204 21.7502 7.48706 21.7502 5.38386C21.7502 3.28066 23.4552 1.57568 25.5584 1.57568ZM5.1071 1.57568C7.2103 1.57568 8.91528 3.28066 8.91528 5.38386C8.91528 7.48706 7.2103 9.19204 5.1071 9.19204C3.0039 9.19204 1.29891 7.48706 1.29891 5.38386C1.29891 3.28066 3.0039 1.57568 5.1071 1.57568ZM15.3327 2.16454C13.9076 2.16454 12.7523 3.31985 12.7523 4.74499C12.7523 6.17014 13.9076 7.32545 15.3327 7.32545C16.7579 7.32545 17.9132 6.17014 17.9132 4.74499C17.9132 3.31985 16.7579 2.16454 15.3327 2.16454ZM25.5584 3.44227C24.486 3.44227 23.6168 4.31155 23.6168 5.38386C23.6168 6.45617 24.486 7.32545 25.5584 7.32545C26.6307 7.32545 27.4999 6.45617 27.4999 5.38386C27.4999 4.31155 26.6307 3.44227 25.5584 3.44227ZM5.1071 3.44227C4.03478 3.44227 3.16551 4.31155 3.16551 5.38386C3.16551 6.45617 4.03478 7.32545 5.1071 7.32545C6.17941 7.32545 7.04869 6.45617 7.04869 5.38386C7.04869 4.31155 6.17941 3.44227 5.1071 3.44227Z" fill="#212121" stroke="white" stroke-width="0.05"/>
</svg>
