<svg width="31" height="27" viewBox="0 0 31 27" fill="none" xmlns="http://www.w3.org/2000/svg">
<path d="M28.5451 11.748H27.9768V7.71169C27.9768 5.936 26.5227 4.49841 24.7442 4.49841H24.2306L24.2361 3.08035V3.07985C24.2361 1.86013 23.2392 0.870628 22.0139 0.870628H3.40648C1.94742 0.870628 0.752167 2.0382 0.733188 3.49054H0.733177V3.49223V3.4923V3.49237V3.49244V3.49251V3.49258V3.49265V3.49272V3.49279V3.49286V3.49293V3.493V3.49307V3.49314V3.49321V3.49328V3.49335V3.49342V3.49349V3.49356V3.49363V3.4937V3.49377V3.49384V3.49391V3.49398V3.49405V3.49412V3.49419V3.49426V3.49433V3.4944V3.49447V3.49454V3.49461V3.49468V3.49475V3.49482V3.49489V3.49496V3.49503V3.4951V3.49517V3.49524V3.49531V3.49538V3.49545V3.49552V3.49559V3.49566V3.49573V3.4958V3.49587V3.49594V3.49601V3.49608V3.49615V3.49622V3.49629V3.49636V3.49643V3.4965V3.49657V3.49664V3.49671V3.49678V3.49685V3.49692V3.49699V3.49706V3.49713V3.4972V3.49727V3.49734V3.49741V3.49748V3.49755V3.49762V3.49769V3.49776V3.49783V3.4979V3.49797V3.49804V3.49811V3.49818V3.49825V3.49832V3.49839V3.49846V3.49853V3.4986V3.49867V3.49874V3.49881V3.49888V3.49895V3.49902V3.49909V3.49916V3.49923V3.49931V3.49937V3.49944V3.49952V3.49959V3.49966V3.49973V3.4998V3.49987V3.49994V3.50001V3.50008V3.50015V3.50022V3.50029V3.50036V3.50043V3.5005V3.50057V3.50064V3.50071V3.50078V3.50085V3.50092V3.50099V3.50106V3.50113V3.5012V3.50127V3.50134V3.50141V3.50148V3.50155V3.50162V3.50169V3.50176V3.50183V3.5019V3.50197V3.50204V3.50211V3.50218V3.50225V3.50232V3.50239V3.50246V3.50253V3.5026V3.50267V3.50274V3.50281V3.50288V3.50295V3.50302V3.50309V3.50316V3.50323V3.5033V3.50337V3.50344V3.50351V3.50358V3.50365V3.50372V3.50379V3.50386V3.50393V3.504V3.50407V3.50414V3.50421V3.50428V3.50435V3.50442V3.50449V3.50456V3.50463V3.5047V3.50477V3.50484V3.50491V3.50498V3.50505V3.50512V3.50519V3.50526V3.50533V3.5054V3.50547V3.50554V3.50561V3.50568V3.50575V3.50582V3.50589V3.50596V3.50603V3.5061V3.50617V3.50624V3.50631V3.50638V3.50645V3.50652V3.50659V3.50666V3.50673V3.5068V3.50687V3.50694V3.50701V3.50708V3.50715V3.50722V3.50729V3.50736V3.50743V3.5075V3.50757V3.50764V3.50771V3.50778V3.50785V3.50792V3.50799V3.50806V3.50813V3.5082V3.50827V3.50834V3.50841V3.50848V3.50855V3.50862V3.50869V3.50876V3.50883V3.5089V3.50897V3.50904V3.50911V3.50918V3.50925V3.50932V3.50939V3.50946V3.50953V3.5096V3.50967V3.50974V3.50981V3.50988V3.50995V3.51002V3.51009V3.51016V3.51023V3.5103V3.51037V3.51044V3.51051V3.51058V3.51065V3.51072V3.51079V3.51086V3.51093V3.511V3.51107V3.51114V3.51121V3.51128V3.51135V3.51142V3.51149V3.51156V3.51163V3.5117V3.51177V3.51184V3.51191V3.51198V3.51205V3.51212V3.51219V3.51226V3.51233V3.5124V3.51247V3.51254V3.51261V3.51268V3.51275V3.51282V3.51289V3.51296V3.51303V3.5131V3.51317V3.51324V3.51331V3.51338V3.51345V3.51352V3.51359V3.51366V3.51373V3.5138V3.51387V3.51394V3.51401V3.51408V3.51415V3.51422V3.51429V3.51436V3.51443V3.5145V3.51457V3.51464V3.51471V3.51478V3.51485V3.51492V3.51499V3.51506V3.51513V3.5152V3.51527V3.51534V3.51541V3.51548V3.51555V3.51562V3.51569V3.51576V3.51583V3.5159V3.51597V3.51604V3.51611V3.51618V3.51625V3.51632V3.51639V3.51646V3.51653V3.5166V3.51667V3.51674V3.51681V3.51688V3.51695V3.51702V3.51709V3.51716V3.51723V3.5173V3.51737V3.51744V3.51751V3.51758V3.51765V3.51772V3.51779V3.51786V3.51794V3.51801V3.51807V3.51815V3.51822V3.51829V3.51836V3.51843V3.5185V3.51857V3.51864V3.51871V3.51878V3.51885V3.51892V3.51899V3.51906V3.51913V3.5192V3.51927V3.51934V3.51941V3.51948V3.51955V3.51962V3.51969V3.51976V3.51983V3.5199V3.51997V3.52004V3.52011V3.52018V3.52025V3.52032V3.52039V3.52046V3.52053V3.5206V3.52067V3.52074V3.52081V3.52088V3.52095V3.52102V3.52109V3.52116V3.52123V3.5213V3.52137V3.52144V3.52151V3.52158V3.52165V3.52172V3.52179V3.52186V3.52193V3.522V3.52207V3.52214V3.52221V3.52228V3.52235V3.52242V3.52249V3.52256V3.52263V3.5227V3.52277V3.52284V3.52291V3.52298V3.52305V3.52312V3.52319V3.52326V3.52333V3.5234V3.52347V3.52354V3.52361V3.52368V3.52375V3.52382V3.52389V3.52396V3.52403V3.5241V3.52417V3.52424V3.52431V3.52438V3.52445V3.52452V3.52459V3.52466V3.52473V3.5248V3.52487V3.52494V3.52501V3.52508V3.52515V3.52522V3.52529V3.52536V3.52543V3.5255V3.52557V3.52564V3.52571V3.52578V3.52585V3.52592V3.52599V3.52606V3.52613V3.5262V3.52627V3.52634V3.52641V3.52648V3.52655V3.52662V3.52669V3.52676V3.52683V3.5269V3.52697V3.52704V3.52711V3.52718V3.52725V3.52732V3.52739V3.52746V3.52753V3.5276V3.52767V3.52774V3.52781V3.52788V3.52795V3.52802V3.52809V23.9321C0.733177 25.1518 1.73005 26.1413 2.95543 26.1413H24.7502C26.5351 26.1413 27.9828 24.6974 27.9828 22.928V18.8858H28.5511C29.5239 18.8858 30.3163 18.0995 30.3163 17.1308L30.3163 13.503L30.3163 13.5021C30.3098 12.5343 29.518 11.748 28.5451 11.748ZM3.40648 2.56375H22.0139C22.2994 2.56375 22.5338 2.79477 22.534 3.07342C22.534 3.07357 22.534 3.07372 22.534 3.07387L22.5285 4.49841H3.40648C2.86975 4.49841 2.43529 4.06549 2.43529 3.53407C2.43529 3.00173 2.87067 2.56375 3.40648 2.56375ZM26.2747 22.9221C26.2747 23.7583 25.5877 24.4422 24.7442 24.4422H2.94941C2.66449 24.4422 2.42927 24.2117 2.42927 23.9261V6.00827C2.7329 6.12686 3.06116 6.19153 3.40648 6.19153H24.7442C25.5877 6.19153 26.2747 6.87546 26.2747 7.71169V11.748H21.4786C20.5058 11.748 19.7134 12.5343 19.7134 13.503V17.1308C19.7134 18.0995 20.5058 18.8858 21.4786 18.8858H26.2747V22.9221ZM28.6082 17.1308C28.6082 17.1661 28.5827 17.1926 28.5451 17.1926H21.4846C21.4471 17.1926 21.4215 17.1661 21.4215 17.1308V13.503C21.4215 13.471 21.4497 13.4411 21.4846 13.4411H28.5451C28.5793 13.4411 28.6082 13.4702 28.6082 13.503V17.1308Z" fill="black" stroke="black" stroke-width="0.258744"/>
</svg>
