<svg width="35" height="35" viewBox="0 0 35 35" fill="none" xmlns="http://www.w3.org/2000/svg">
<path fill-rule="evenodd" clip-rule="evenodd" d="M1.87556 13.0261C1.87556 11.2379 5.50766 11.3987 5.67337 7.89318C5.78238 5.58753 5.66067 4.78965 8.55687 4.79933C12.1487 4.81115 12.1993 1.00114 13.8301 1.00114C15.8601 1.00114 16.5307 3.44886 20.0185 1.70435C21.8051 0.810782 22.3446 0.530278 23.5355 2.33627C24.4032 3.65204 25.0068 4.70239 27.0501 4.79895C27.9724 4.84258 29.0751 4.83378 29.5959 5.27698C30.4845 6.03312 29.6814 8.487 30.8461 10.0041C31.3053 10.6019 31.8709 10.9362 32.5221 11.3518C34.4203 12.5633 34.1345 13.1339 33.2623 14.8779C32.3964 16.6094 32.3703 17.4077 33.2388 19.144C34.1325 20.9307 34.413 21.4702 32.607 22.6611C31.2948 23.5264 30.2376 24.1348 30.1443 26.1758C30.0382 28.4999 30.1367 29.279 27.2608 29.2695C25.2118 29.2627 24.4686 30.2734 23.5913 31.6478C22.3799 33.5458 21.8094 33.26 20.0654 32.3879C18.3337 31.522 17.5355 31.496 15.7992 32.3645C14.0124 33.258 13.4731 33.5385 12.2821 31.7325C11.4145 30.4168 10.8107 29.3664 8.76747 29.2699C6.46195 29.1609 5.66407 29.2826 5.67363 26.3864C5.68054 24.3214 4.65571 23.5852 3.29544 22.717C1.39728 21.5055 1.68319 20.9349 2.55526 19.1909C3.35113 17.5997 3.50704 16.5737 2.58279 14.9208C2.36578 14.5325 1.87556 13.5781 1.87556 13.0261ZM0.891092 12.7449C0.891092 13.9035 1.01116 14.04 1.5474 15.1122C2.42714 16.8715 2.44902 17.1535 1.57079 18.9097C0.297268 21.4562 0.730656 22.2712 3.12796 23.7987C4.46246 24.649 4.67218 25.3179 4.68576 27.0227C4.71581 30.7998 7.6227 30.0579 9.27894 30.3758C10.5495 30.6196 10.9347 31.5188 11.7338 32.7027C12.2625 33.4859 12.8875 34.0521 13.9005 34.0521C15.467 34.0521 16.7189 32.716 17.9088 32.716C18.9994 32.716 20.5982 34.0521 21.7061 34.0521C22.4863 34.0521 23.1234 33.9267 23.686 33.2192C24.7197 31.9195 25.0913 30.6892 26.4212 30.3989C27.6514 30.1304 29.3498 30.4588 30.3414 29.4671C31.6834 28.1252 30.5982 25.9907 31.7599 24.5566C31.9328 24.3432 32.3642 24.0123 32.6048 23.8545L33.5771 23.2094C36.6373 21.1438 33.5904 18.7689 33.5904 17.0344C33.5904 15.9438 34.9266 14.345 34.9266 13.2371C34.9266 12.0784 34.7082 11.7101 33.6214 10.8856C31.8952 9.57583 31.1534 9.77234 31.1318 7.04613C31.1017 3.27233 28.2021 4.00911 26.538 3.69378C25.922 3.57698 25.8158 3.495 25.431 3.18319C24.5896 2.5016 23.718 0.016669 22.1984 0.016669C21.076 0.016669 20.8889 0.143908 19.8309 0.672981C18.073 1.55209 17.7896 1.57522 16.0336 0.696365C13.5017 -0.57062 12.6607 -0.141501 11.1444 2.25341C10.6914 2.96882 10.2345 3.48695 9.39638 3.66989C7.66067 4.04872 4.78496 3.20733 4.68614 6.97623C4.61963 9.51548 4.23451 9.51372 2.23993 10.8589C1.72632 11.2052 0.891092 11.938 0.891092 12.7449Z" fill="black"/>
<path fill-rule="evenodd" clip-rule="evenodd" d="M10.947 23.2228C10.947 24.6947 12.3111 23.1834 12.3127 23.182C12.8442 22.7718 14.188 21.303 14.8313 20.7078L17.3286 18.2826C17.6383 17.9711 17.898 17.7856 18.2077 17.474L21.548 14.204C22.0825 13.6695 22.63 13.0328 23.2236 12.5745C23.4522 12.398 24.8707 11.0416 24.8707 10.8461C24.8707 9.37419 23.5065 10.8855 23.5049 10.8869C22.965 11.3037 21.4903 12.8965 20.564 13.7123C20.0165 14.1944 18.4927 15.8558 18.06 16.2011C17.5187 16.6327 16.4978 17.7071 15.9574 18.2475L14.2697 19.8649C13.756 20.3785 13.1502 21.066 12.614 21.5142C12.3083 21.7697 10.947 22.9879 10.947 23.2228Z" fill="black"/>
<path fill-rule="evenodd" clip-rule="evenodd" d="M12.2127 13.0261C12.2127 11.4019 14.1744 10.5863 15.3277 11.7395C16.4827 12.8946 15.6023 14.8374 14.0411 14.8374C13.076 14.8374 12.2127 14.0382 12.2127 13.0261ZM11.2283 12.8151V13.2371C11.2283 15.4302 14.2313 16.7833 15.9946 15.0499C17.8709 13.2054 16.4072 10.2133 14.2521 10.2133C13.3869 10.2133 12.6121 10.356 11.9832 11.0384C11.6461 11.4043 11.2283 12.1394 11.2283 12.8151Z" fill="black"/>
<path fill-rule="evenodd" clip-rule="evenodd" d="M23.6048 20.9725C23.6048 22.0361 22.8129 22.8712 21.8469 22.8712C20.1559 22.8712 19.4075 20.9568 20.4587 19.7954C21.5077 18.6365 23.6048 19.4308 23.6048 20.9725ZM18.9636 20.9023C18.9636 22.6112 20.1975 23.8557 21.5655 23.8557H21.9874C23.3097 23.8557 24.5893 22.5776 24.5893 21.2538V20.8318C24.5893 19.4584 23.3429 18.23 21.6359 18.23C20.2868 18.23 18.9636 19.5532 18.9636 20.9023Z" fill="black"/>
</svg>
