<svg width="33" height="35" viewBox="0 0 33 35" fill="none" xmlns="http://www.w3.org/2000/svg">
<path d="M28.446 0.999023H4.19067" stroke="#221E1F" stroke-miterlimit="10" stroke-linecap="round" stroke-linejoin="round"/>
<path d="M4.19071 0.999023C2.30377 0.999023 0.77417 2.52818 0.77417 4.41444" stroke="#221E1F" stroke-miterlimit="10" stroke-linecap="round" stroke-linejoin="round"/>
<path d="M0.77417 4.41449V33.9677H31.8627V4.41449" stroke="#221E1F" stroke-miterlimit="10" stroke-linecap="round" stroke-linejoin="round"/>
<path d="M31.8627 4.41444C31.8627 2.52818 30.333 0.999023 28.446 0.999023" stroke="#221E1F" stroke-miterlimit="10" stroke-linecap="round" stroke-linejoin="round"/>
<path d="M0.77417 12.9548H31.8627" stroke="#221E1F" stroke-miterlimit="10" stroke-linecap="round" stroke-linejoin="round"/>
<path d="M16.3185 12.9548V33.9677" stroke="#221E1F" stroke-miterlimit="10" stroke-linecap="round" stroke-linejoin="round"/>
<path d="M18.1575 21.7104V24.0156" stroke="#221E1F" stroke-miterlimit="10" stroke-linecap="round" stroke-linejoin="round"/>
<path d="M0.77417 21.1036H16.3184" stroke="#221E1F" stroke-miterlimit="10" stroke-linecap="round" stroke-linejoin="round"/>
<path d="M7.28918 23.1055H9.8033" stroke="#221E1F" stroke-miterlimit="10" stroke-linecap="round" stroke-linejoin="round"/>
<path d="M7.28918 29.4548H9.8033" stroke="#221E1F" stroke-miterlimit="10" stroke-linecap="round" stroke-linejoin="round"/>
<path d="M0.77417 27.5137H16.3184" stroke="#221E1F" stroke-miterlimit="10" stroke-linecap="round" stroke-linejoin="round"/>
<path d="M14.6176 14.6129V21.1037H16.3184V14.6129H14.6176Z" stroke="#221E1F" stroke-miterlimit="10" stroke-linecap="round" stroke-linejoin="round"/>
<path d="M12.9167 14.6129V21.1037H14.6175V14.6129H12.9167Z" stroke="#221E1F" stroke-miterlimit="10" stroke-linecap="round" stroke-linejoin="round"/>
<path d="M11.2158 14.6129V21.1037H12.9167V14.6129H11.2158Z" stroke="#221E1F" stroke-miterlimit="10" stroke-linecap="round" stroke-linejoin="round"/>
<path d="M9.51514 14.6129V21.1037H11.2159V14.6129H9.51514Z" stroke="#221E1F" stroke-miterlimit="10" stroke-linecap="round" stroke-linejoin="round"/>
<path d="M7.94387 14.6236L4.69153 20.2414L6.16368 21.093L9.41602 15.4752L7.94387 14.6236Z" stroke="#221E1F" stroke-miterlimit="10" stroke-linecap="round" stroke-linejoin="round"/>
<path d="M14.4154 10.9328H5.19141V3.3299H14.4154V10.9328Z" stroke="#221E1F" stroke-miterlimit="10" stroke-linecap="round" stroke-linejoin="round"/>
<path d="M6.5929 10.9327L5.61621 12.9548" stroke="#221E1F" stroke-miterlimit="10" stroke-linecap="round" stroke-linejoin="round"/>
<path d="M13.0138 10.9327L13.9905 12.9548" stroke="#221E1F" stroke-miterlimit="10" stroke-linecap="round" stroke-linejoin="round"/>
<path d="M28.6558 10.0632C28.4154 8.42536 27.5224 5.75626 28.152 3.8454" stroke="#221E1F" stroke-miterlimit="10" stroke-linecap="round" stroke-linejoin="round"/>
<path d="M28.152 3.8454H26.7096H25.2671" stroke="#221E1F" stroke-miterlimit="10" stroke-linecap="round" stroke-linejoin="round"/>
<path d="M25.2671 3.8454C25.8968 5.75626 25.0038 8.42536 24.7634 10.0632C24.5229 11.7011 25.1297 12.9548 25.1297 12.9548" stroke="#221E1F" stroke-miterlimit="10" stroke-linecap="round" stroke-linejoin="round"/>
<path d="M25.1296 12.9548H26.7095H28.2894" stroke="#221E1F" stroke-miterlimit="10" stroke-linecap="round" stroke-linejoin="round"/>
<path d="M28.2893 12.9548C28.2893 12.9548 28.8961 11.7012 28.6557 10.0633" stroke="#221E1F" stroke-miterlimit="10" stroke-linecap="round" stroke-linejoin="round"/>
<path d="M22.1063 10.0632C21.866 8.42536 20.9729 5.75626 21.6026 3.8454" stroke="#221E1F" stroke-miterlimit="10" stroke-linecap="round" stroke-linejoin="round"/>
<path d="M21.6025 3.8454H20.16H18.7175" stroke="#221E1F" stroke-miterlimit="10" stroke-linecap="round" stroke-linejoin="round"/>
<path d="M18.7175 3.8454C19.3472 5.75626 18.4542 8.42536 18.2138 10.0632C17.9734 11.7011 18.5801 12.9548 18.5801 12.9548" stroke="#221E1F" stroke-miterlimit="10" stroke-linecap="round" stroke-linejoin="round"/>
<path d="M18.5801 12.9548H20.16H21.7398" stroke="#221E1F" stroke-miterlimit="10" stroke-linecap="round" stroke-linejoin="round"/>
<path d="M21.7399 12.9548C21.7399 12.9548 22.3467 11.7012 22.1062 10.0633" stroke="#221E1F" stroke-miterlimit="10" stroke-linecap="round" stroke-linejoin="round"/>
</svg>
