<svg width="43" height="21" viewBox="0 0 43 21" fill="none" xmlns="http://www.w3.org/2000/svg">
<path d="M5.81422 15.9058L4.01392 20.3353H5.52378L8.83395 15.9058H5.81422Z" stroke="#221E1F" stroke-miterlimit="22.9256" stroke-linejoin="round"/>
<path d="M36.7279 15.9058L38.5282 20.3353H37.0183L33.7081 15.9058H36.7279Z" stroke="#221E1F" stroke-miterlimit="22.9256" stroke-linejoin="round"/>
<path d="M36.7145 0.741821H21.2712H21.271H5.82775C4.37205 0.741821 3.30087 2.10486 3.64547 3.51861L6.23036 14.1238H21.271H21.2712H36.3119L38.8967 3.51861C39.2413 2.10486 38.1703 0.741821 36.7145 0.741821Z" stroke="#221E1F" stroke-miterlimit="22.9256" stroke-linejoin="round"/>
<path d="M40.2227 5.70392C39.2694 5.46552 38.3002 6.04669 38.0617 7.00162L36.9475 11.4667C36.8191 11.9821 36.358 12.3421 35.8268 12.3421H21.2709H6.71523C6.18398 12.3421 5.72296 11.9821 5.59452 11.4667L4.48028 7.00162C4.24179 6.04669 3.27257 5.46552 2.31932 5.70392C1.36404 5.94233 0.782979 6.90948 1.02117 7.86411L2.1353 12.3291C2.66089 14.435 4.54415 15.9057 6.71523 15.9057H21.2709H35.8268C37.9979 15.9057 39.8811 14.435 40.4066 12.3291L41.521 7.86411C41.7591 6.90948 41.178 5.94233 40.2227 5.70392Z" stroke="#221E1F" stroke-miterlimit="22.9256" stroke-linejoin="round"/>
<path d="M17.777 12.3421H8.60156V7.91223H17.777V12.3421Z" stroke="#221E1F" stroke-miterlimit="22.9256" stroke-linejoin="round"/>
<path d="M24.7649 12.3421H33.9404V7.91223H24.7649V12.3421Z" stroke="#221E1F" stroke-miterlimit="22.9256" stroke-linejoin="round"/>
</svg>
