<svg width="36" height="29" viewBox="0 0 36 29" fill="none" xmlns="http://www.w3.org/2000/svg">
<path d="M27.5826 0.967529H8.229" stroke="#221E1F" stroke-width="1.1" stroke-miterlimit="10" stroke-linecap="round" stroke-linejoin="round"/>
<path d="M8.22906 0.967529C6.92852 0.967529 5.87427 2.02142 5.87427 3.3215" stroke="#221E1F" stroke-width="1.1" stroke-miterlimit="10" stroke-linecap="round" stroke-linejoin="round"/>
<path d="M5.87427 3.32144V9.03029H29.9373V3.32144" stroke="#221E1F" stroke-width="1.1" stroke-miterlimit="10" stroke-linecap="round" stroke-linejoin="round"/>
<path d="M29.9372 3.3215C29.9372 2.02142 28.883 0.967529 27.5825 0.967529" stroke="#221E1F" stroke-width="1.1" stroke-miterlimit="10" stroke-linecap="round" stroke-linejoin="round"/>
<path d="M29.9373 9.0303H17.9057H5.87422L0.870972 19.278H17.9057H34.9406L29.9373 9.0303Z" stroke="#221E1F" stroke-width="1.1" stroke-miterlimit="10" stroke-linecap="round" stroke-linejoin="round"/>
<path d="M34.9406 26.5639H0.870972V19.278H34.9406V26.5639Z" stroke="#221E1F" stroke-width="1.1" stroke-miterlimit="10" stroke-linecap="round" stroke-linejoin="round"/>
<path d="M8.23549 7.67272L7.79297 11.2636C7.79297 11.2636 12.0577 12.478 16.8993 11.2636V7.67272C16.8993 7.67272 12.8342 5.64309 8.23549 7.67272Z" fill="#F5F5F5" stroke="#221E1F" stroke-width="1.1" stroke-miterlimit="22.9256" stroke-linejoin="round"/>
<path d="M27.5761 7.67272L28.0186 11.2636C28.0186 11.2636 23.7541 12.478 18.9124 11.2636V7.67272C18.9124 7.67272 22.9775 5.64309 27.5761 7.67272Z" fill="#F5F5F5" stroke="#221E1F" stroke-width="1.1" stroke-miterlimit="22.9256" stroke-linejoin="round"/>
<path d="M6.17973 28.36H2.79602V26.5639H6.17973V28.36Z" stroke="#221E1F" stroke-width="1.1" stroke-miterlimit="10" stroke-linecap="round" stroke-linejoin="round"/>
<path d="M29.6318 28.36H33.0155V26.5639H29.6318V28.36Z" stroke="#221E1F" stroke-width="1.1" stroke-miterlimit="10" stroke-linecap="round" stroke-linejoin="round"/>
</svg>
