<svg width="26" height="37" viewBox="0 0 26 37" fill="none" xmlns="http://www.w3.org/2000/svg">
<path d="M23.6966 33.5583H2.42334" stroke="#221E1F" stroke-width="1.1" stroke-miterlimit="10" stroke-linecap="round" stroke-linejoin="round"/>
<path d="M2.42332 33.5583C1.47685 33.5583 0.709717 32.7746 0.709717 31.8079" stroke="#221E1F" stroke-width="1.1" stroke-miterlimit="10" stroke-linecap="round" stroke-linejoin="round"/>
<path d="M0.709717 31.8078V2.68579" stroke="#221E1F" stroke-width="1.1" stroke-miterlimit="10" stroke-linecap="round" stroke-linejoin="round"/>
<path d="M0.709717 2.68573C0.709717 1.71896 1.47685 0.935181 2.42332 0.935181" stroke="#221E1F" stroke-width="1.1" stroke-miterlimit="10" stroke-linecap="round" stroke-linejoin="round"/>
<path d="M2.42334 0.935181H23.6966" stroke="#221E1F" stroke-width="1.1" stroke-miterlimit="10" stroke-linecap="round" stroke-linejoin="round"/>
<path d="M23.6965 0.935181C24.6429 0.935181 25.4101 1.71896 25.4101 2.68573" stroke="#221E1F" stroke-width="1.1" stroke-miterlimit="10" stroke-linecap="round" stroke-linejoin="round"/>
<path d="M25.4103 2.68579V31.8078" stroke="#221E1F" stroke-width="1.1" stroke-miterlimit="10" stroke-linecap="round" stroke-linejoin="round"/>
<path d="M25.4101 31.8079C25.4101 32.7746 24.6429 33.5583 23.6965 33.5583" stroke="#221E1F" stroke-width="1.1" stroke-miterlimit="10" stroke-linecap="round" stroke-linejoin="round"/>
<path d="M13.0599 0.935181V33.5582" stroke="#221E1F" stroke-width="1.1" stroke-miterlimit="10" stroke-linecap="round" stroke-linejoin="round"/>
<path d="M14.8773 14.6885V17.5869" stroke="#221E1F" stroke-width="1.1" stroke-miterlimit="10" stroke-linecap="round" stroke-linejoin="round"/>
<path d="M11.2428 14.6885V17.5869" stroke="#221E1F" stroke-width="1.1" stroke-miterlimit="10" stroke-linecap="round" stroke-linejoin="round"/>
<path d="M4.99718 35.6503H2.94934V33.5583H4.99718V35.6503Z" stroke="#221E1F" stroke-width="1.1" stroke-miterlimit="10" stroke-linecap="round" stroke-linejoin="round"/>
<path d="M21.1227 35.6503H23.1704V33.5583H21.1227V35.6503Z" stroke="#221E1F" stroke-width="1.1" stroke-miterlimit="10" stroke-linecap="round" stroke-linejoin="round"/>
</svg>
