<svg width="43" height="42" viewBox="0 0 43 42" fill="none" xmlns="http://www.w3.org/2000/svg">
<path d="M41.6025 35.6998H1V23.235H41.6025V35.6998Z" stroke="#221E1F" stroke-width="1.1" stroke-miterlimit="10" stroke-linecap="round" stroke-linejoin="round"/>
<path d="M11.3171 35.6998H1V23.235H11.3171V35.6998Z" stroke="#221E1F" stroke-width="1.1" stroke-miterlimit="10" stroke-linecap="round" stroke-linejoin="round"/>
<path d="M41.6025 35.6998H31.2855V23.235H41.6025V35.6998Z" stroke="#221E1F" stroke-width="1.1" stroke-miterlimit="10" stroke-linecap="round" stroke-linejoin="round"/>
<path d="M21.3014 0.612427C15.7872 0.612427 11.3171 5.08082 11.3171 10.593" stroke="#221E1F" stroke-width="1.1" stroke-miterlimit="10" stroke-linecap="round" stroke-linejoin="round"/>
<path d="M11.3171 10.593V23.235H31.2856V10.593" stroke="#221E1F" stroke-width="1.1" stroke-miterlimit="10" stroke-linecap="round" stroke-linejoin="round"/>
<path d="M31.2855 10.593C31.2855 5.08082 26.8154 0.612427 21.3013 0.612427" stroke="#221E1F" stroke-width="1.1" stroke-miterlimit="10" stroke-linecap="round" stroke-linejoin="round"/>
<path d="M11.3171 27.4019H31.2856" stroke="#221E1F" stroke-width="1.1" stroke-miterlimit="10" stroke-linecap="round" stroke-linejoin="round"/>
<path d="M11.3171 31.5688H31.2856" stroke="#221E1F" stroke-width="1.1" stroke-miterlimit="10" stroke-linecap="round" stroke-linejoin="round"/>
<path d="M32.7498 28.4574V30.3834" stroke="#221E1F" stroke-width="1.1" stroke-miterlimit="10" stroke-linecap="round" stroke-linejoin="round"/>
<path d="M9.85266 28.4574V30.3834" stroke="#221E1F" stroke-width="1.1" stroke-miterlimit="10" stroke-linecap="round" stroke-linejoin="round"/>
<path d="M3.46288 35.6999L1.73218 40.4684" stroke="#221E1F" stroke-width="1.1" stroke-miterlimit="10" stroke-linecap="round" stroke-linejoin="round"/>
<path d="M39.1398 35.6999L40.8703 40.4684" stroke="#221E1F" stroke-width="1.1" stroke-miterlimit="10" stroke-linecap="round" stroke-linejoin="round"/>
<path d="M23.1775 6.97351L27.5138 11.3083" stroke="#221E1F" stroke-width="1.1" stroke-miterlimit="10" stroke-linecap="round" stroke-linejoin="round"/>
<path d="M15.089 15.0591L19.4252 19.3939" stroke="#221E1F" stroke-width="1.1" stroke-miterlimit="10" stroke-linecap="round" stroke-linejoin="round"/>
<path d="M16.8279 8.18225L26.3046 17.6556" stroke="#221E1F" stroke-width="1.1" stroke-miterlimit="10" stroke-linecap="round" stroke-linejoin="round"/>
</svg>
