<svg width="30" height="37" viewBox="0 0 30 37" fill="none" xmlns="http://www.w3.org/2000/svg">
<path d="M26.578 1.16064H3.19189" stroke="#221E1F" stroke-width="1.1" stroke-miterlimit="10" stroke-linecap="round" stroke-linejoin="round"/>
<path d="M3.19188 1.16064C1.83885 1.16064 0.741943 2.25716 0.741943 3.6097" stroke="#221E1F" stroke-width="1.1" stroke-miterlimit="10" stroke-linecap="round" stroke-linejoin="round"/>
<path d="M0.741943 3.60974V31.1381" stroke="#221E1F" stroke-width="1.1" stroke-miterlimit="10" stroke-linecap="round" stroke-linejoin="round"/>
<path d="M0.741943 31.1381C0.741943 32.4907 1.83885 33.5871 3.19188 33.5871" stroke="#221E1F" stroke-width="1.1" stroke-miterlimit="10" stroke-linecap="round" stroke-linejoin="round"/>
<path d="M3.19189 33.5872H26.578" stroke="#221E1F" stroke-width="1.1" stroke-miterlimit="10" stroke-linecap="round" stroke-linejoin="round"/>
<path d="M26.578 33.5871C27.931 33.5871 29.028 32.4907 29.028 31.1381" stroke="#221E1F" stroke-width="1.1" stroke-miterlimit="10" stroke-linecap="round" stroke-linejoin="round"/>
<path d="M29.028 31.1381V3.60974" stroke="#221E1F" stroke-width="1.1" stroke-miterlimit="10" stroke-linecap="round" stroke-linejoin="round"/>
<path d="M29.028 3.6097C29.028 2.25716 27.931 1.16064 26.578 1.16064" stroke="#221E1F" stroke-width="1.1" stroke-miterlimit="10" stroke-linecap="round" stroke-linejoin="round"/>
<path d="M14.8849 1.16064V33.5872" stroke="#221E1F" stroke-width="1.1" stroke-miterlimit="10" stroke-linecap="round" stroke-linejoin="round"/>
<path d="M16.8323 15.2238V18.8268" stroke="#221E1F" stroke-width="1.1" stroke-miterlimit="10" stroke-linecap="round" stroke-linejoin="round"/>
<path d="M16.8323 18.8268C17.8276 18.8268 18.6344 18.0203 18.6344 17.0253C18.6344 16.0304 17.8276 15.2238 16.8323 15.2238" stroke="#221E1F" stroke-width="1.1" stroke-miterlimit="10" stroke-linecap="round" stroke-linejoin="round"/>
<path d="M12.8328 26.758V23.1551" stroke="#221E1F" stroke-width="1.1" stroke-miterlimit="10" stroke-linecap="round" stroke-linejoin="round"/>
<path d="M12.8328 23.1551C11.8374 23.1551 11.0306 23.9616 11.0306 24.9565C11.0306 25.9514 11.8374 26.758 12.8328 26.758" stroke="#221E1F" stroke-width="1.1" stroke-miterlimit="10" stroke-linecap="round" stroke-linejoin="round"/>
<path d="M14.8849 17.0252H0.741943" stroke="#221E1F" stroke-width="1.1" stroke-miterlimit="10" stroke-linecap="round" stroke-linejoin="round"/>
<path d="M9.18591 4.198L12.358 7.36895" stroke="#221E1F" stroke-width="1.1" stroke-miterlimit="10" stroke-linecap="round" stroke-linejoin="round"/>
<path d="M3.26892 10.1128L6.44102 13.2836" stroke="#221E1F" stroke-width="1.1" stroke-miterlimit="10" stroke-linecap="round" stroke-linejoin="round"/>
<path d="M4.54102 5.08215L11.4735 12.0121" stroke="#221E1F" stroke-width="1.1" stroke-miterlimit="10" stroke-linecap="round" stroke-linejoin="round"/>
<path d="M3.19189 33.5872V35.9117H4.61479L6.04874 33.5872" stroke="#221E1F" stroke-width="1.1" stroke-miterlimit="10" stroke-linecap="round" stroke-linejoin="round"/>
<path d="M26.5779 33.5872V35.9117H25.155L23.7211 33.5872" stroke="#221E1F" stroke-width="1.1" stroke-miterlimit="10" stroke-linecap="round" stroke-linejoin="round"/>
</svg>
