<svg width="36" height="35" viewBox="0 0 36 35" fill="none" xmlns="http://www.w3.org/2000/svg">
<path fill-rule="evenodd" clip-rule="evenodd" d="M2.81847 33.255H33.6532V33.985H2.81847V33.255ZM24.2404 29.8481H34.7081V32.3627H24.2404V29.8481ZM13.1237 22.4668H23.3478V32.3627H13.1237V22.4668ZM1.68248 13.4631H12.2311V32.3627H1.68248V13.4631ZM24.2404 18.8978H34.7081V29.037H24.2404V18.8978ZM13.1237 18.8978H23.3478V21.5745H13.1237V18.8978ZM1.68248 3.64816C1.68248 3.45288 1.97391 3.16155 2.16926 3.16155H11.6631C12.0419 3.16155 12.2311 3.35059 12.2311 3.72935V12.5708H1.68248V3.64816ZM0.870972 3.48592V32.6872C0.870972 33.3489 1.40331 33.255 1.92586 33.255C1.92586 34.102 1.77005 34.8773 2.25046 34.8773H34.2212C34.6873 34.8773 34.5458 33.8931 34.5458 33.255C34.9116 33.255 35.6006 33.3754 35.6006 32.6061V18.6543C35.6006 18.262 35.3439 18.0055 34.9515 18.0055H13.1237V3.97265C13.1237 2.70197 12.3463 2.26929 11.2574 2.26929H2.65617C1.74988 2.26929 0.870972 2.70515 0.870972 3.48592Z" fill="#221E1F"/>
<path fill-rule="evenodd" clip-rule="evenodd" d="M24.2404 8.19076H34.7081V9.32634H24.2404V8.19076ZM26.6748 4.7839H32.2737C32.5303 4.7839 32.6781 5.10885 32.8094 5.30296L34.2212 7.29847H24.7273C25.0217 6.85894 25.3293 6.46627 25.636 6.01671C25.7896 5.79157 26.3787 4.7839 26.6748 4.7839ZM26.9182 0.971497H32.0303V3.89163H26.9182V0.971497ZM0.870972 0.484885C0.870972 0.751553 0.867667 0.971497 1.35788 0.971497H26.0256V3.89163C26.0256 4.05328 24.8044 5.73587 24.6233 5.97787C23.1722 7.91711 23.3478 7.51901 23.3478 9.56963C23.3478 9.86615 23.5717 10.2186 23.8347 10.2186H35.1138C35.7735 10.2186 35.6006 8.81152 35.6006 8.19076C35.6006 7.16078 32.9229 4.435 32.9229 3.89163V0.971497C33.7078 0.971497 34.7879 1.06081 35.5195 0.890422C35.5297 0.847708 35.7813 0.1604 35.2761 0.1604H1.19557C1.00565 0.1604 0.870972 0.295032 0.870972 0.484885Z" fill="#221E1F"/>
<path fill-rule="evenodd" clip-rule="evenodd" d="M26.2691 22.7102H32.6794V26.9282H26.2691V22.7102ZM25.3765 22.3047V27.1716C25.3765 27.468 25.6005 27.8205 25.8634 27.8205H33.0852C33.2806 27.8205 33.572 27.5291 33.572 27.3338V22.4669C33.572 22.1705 33.3481 21.8181 33.0852 21.8181H25.8634C25.668 21.8181 25.3765 22.1094 25.3765 22.3047Z" fill="#221E1F"/>
<path fill-rule="evenodd" clip-rule="evenodd" d="M26.5936 24.8193C26.5936 25.0085 26.8101 25.2248 26.9993 25.2248H31.9492C32.4436 25.2248 32.3295 24.7344 32.2737 24.4948C31.4734 24.3085 28.0667 24.4138 26.9993 24.4138C26.8101 24.4138 26.5936 24.6302 26.5936 24.8193Z" fill="#221E1F"/>
<path fill-rule="evenodd" clip-rule="evenodd" d="M10.6083 8.83958V11.354C10.6083 11.82 11.5009 12.025 11.5009 11.1918C11.5009 9.32075 11.7439 8.8201 11.014 8.4339C10.8386 8.52676 10.6083 8.57527 10.6083 8.83958Z" fill="#221E1F"/>
<path fill-rule="evenodd" clip-rule="evenodd" d="M10.6083 14.761V17.2756C10.6083 17.5557 10.8638 17.6272 11.0951 17.6811C11.7167 17.2651 11.5009 16.5364 11.5009 15.0855C11.5009 14.0014 10.6083 14.3271 10.6083 14.761Z" fill="#221E1F"/>
<path fill-rule="evenodd" clip-rule="evenodd" d="M17.0187 23.7646C17.0187 24.4305 17.9623 24.2514 18.8849 24.2514C19.676 24.2514 19.4099 23.6033 19.3718 23.4403C18.748 23.2949 18.1716 23.3591 17.4244 23.3591C17.2351 23.3591 17.0187 23.5755 17.0187 23.7646Z" fill="#221E1F"/>
<path fill-rule="evenodd" clip-rule="evenodd" d="M17.0187 20.2767C17.0187 20.9573 17.325 20.7634 19.1284 20.7634C19.5749 20.7634 19.5749 19.9522 19.1284 19.9522C18.0558 19.9522 17.0187 19.761 17.0187 20.2767Z" fill="#221E1F"/>
<path fill-rule="evenodd" clip-rule="evenodd" d="M28.2166 30.9839C28.3757 31.6666 28.633 31.4705 30.3263 31.4705C30.8207 31.4705 30.7067 30.98 30.6508 30.7404C30.0233 30.5944 29.3758 30.6594 28.6222 30.6594C28.3931 30.6594 28.3092 30.8455 28.2166 30.9839Z" fill="#221E1F"/>
<path fill-rule="evenodd" clip-rule="evenodd" d="M27.8108 20.358C27.8108 20.7308 28.1912 20.7636 28.4599 20.7636C28.5441 20.6378 28.7034 20.4682 28.7034 20.2768C28.7034 19.9149 27.8108 19.7724 27.8108 20.358Z" fill="#221E1F"/>
<path fill-rule="evenodd" clip-rule="evenodd" d="M32.6793 20.358C32.775 20.5387 32.8147 20.6022 32.9228 20.7635C33.7519 20.7635 33.5615 20.3368 33.4908 20.0335L32.9228 19.9523C32.8147 20.1136 32.775 20.1771 32.6793 20.358Z" fill="#221E1F"/>
<path fill-rule="evenodd" clip-rule="evenodd" d="M25.4576 20.0335C25.3644 20.4225 25.258 20.7635 26.0256 20.7635C26.1336 20.6022 26.1732 20.5387 26.269 20.358C26.1732 20.1771 26.1336 20.1136 26.0256 19.9523L25.4576 20.0335Z" fill="#221E1F"/>
<path fill-rule="evenodd" clip-rule="evenodd" d="M30.2451 20.358C30.3408 20.5387 30.3805 20.6022 30.4886 20.7635C31.3694 20.7635 31.3694 19.9523 30.4886 19.9523C30.3805 20.1136 30.3408 20.1771 30.2451 20.358Z" fill="#221E1F"/>
</svg>
