<svg width="22" height="21" viewBox="0 0 22 21" fill="none" xmlns="http://www.w3.org/2000/svg">
<path fill-rule="evenodd" clip-rule="evenodd" d="M1.85355 8.74998C1.85355 8.25947 1.95668 7.62861 2.05684 7.19494C2.48013 5.36215 3.85636 3.52206 5.55969 2.67881C5.76359 2.57792 5.94668 2.49511 6.16842 2.38757C8.01954 1.48987 10.6571 1.5907 12.4496 2.52689C14.875 3.79354 16.4535 6.05095 16.4535 8.74998C16.4535 9.70459 16.1309 10.9634 15.7886 11.6124C14.9016 13.2941 13.9612 14.2942 12.139 15.1128C10.3755 15.905 7.93278 15.9679 6.16842 15.1124C4.79152 14.4447 3.55937 13.5678 2.82259 12.1958L2.51805 11.6128C2.16886 10.898 1.85355 9.77008 1.85355 8.74998ZM0.0285645 8.36715C0.0285645 10.5939 0.364691 11.7133 1.45047 13.4568C2.30499 14.829 3.7368 15.9363 5.23731 16.6615C7.47797 17.7444 10.2657 17.7629 12.6004 16.8677C13.9818 16.3381 14.409 15.8162 14.9707 15.5312C15.0263 15.7309 15.6617 16.221 15.8588 16.4296L17.1243 17.6224C18.1301 18.5121 19.0492 19.5081 20.0184 20.4253C20.4987 20.8799 20.5443 21 21.1301 21C21.5437 21 21.9286 20.6206 21.9286 20.0156C21.9286 19.525 19.639 17.5193 19.1768 17.0761C18.7482 16.6651 16.4598 14.5274 16.2825 14.2734L17.0061 13.2173C18.516 10.7859 18.7483 7.54735 17.4233 5.03099C17.3068 4.80976 17.1978 4.56392 17.0576 4.34257C16.9122 4.11275 16.774 3.91904 16.6252 3.71816C16.0115 2.88925 15.3147 2.19373 14.4346 1.60775C14.2891 1.5108 14.2843 1.49259 14.1339 1.40397C12.32 0.33549 11.0716 0 8.7543 0C7.53395 0 6.0884 0.426371 5.27516 0.820057C3.81433 1.5274 2.66119 2.35773 1.70515 3.6858C0.755446 5.00508 0.0285645 6.6253 0.0285645 8.36715Z" fill="#A9A9A9"/>
</svg>
