<svg width="29" height="26" viewBox="0 0 29 26" fill="none" xmlns="http://www.w3.org/2000/svg">
<path fill-rule="evenodd" clip-rule="evenodd" d="M1.81052 8.40589C1.81052 8.05428 1.8863 7.5234 1.94738 7.18124C2.38523 4.72854 4.22202 2.76698 6.64266 2.07323C7.42794 1.84817 8.21067 1.82062 9.10595 1.88342C10.072 1.95125 10.9681 2.34682 11.7298 2.77007C11.8861 2.85699 11.9955 2.93353 12.1408 3.03883C12.4199 3.24103 12.6796 3.44324 12.9145 3.68151C13.7962 4.57593 13.7532 5.00112 14.5409 5.00112C15.3264 5.00112 15.2951 4.05556 17.0298 2.90089C20.874 0.342228 26.067 2.63468 26.9751 6.94378C27.2135 8.07473 27.2154 8.78108 26.9648 9.91437C26.4836 12.0908 25.2159 13.8169 23.8686 15.4911L22.6717 16.8443C22.3892 17.1831 21.6743 17.7912 21.3446 18.1236C21.1734 18.296 21.1014 18.3759 20.9016 18.5306L19.5073 19.7424C18.1539 20.9262 15.9653 22.4489 14.4843 23.4435L10.4594 20.5573C10.1387 20.3001 9.82901 20.0732 9.51993 19.7972L6.3499 16.9047L4.36442 14.5833C3.10368 12.8935 1.81052 10.6188 1.81052 8.40589ZM0 8.06541C0 9.58093 0.145214 10.574 0.719051 11.9407C1.50246 13.8068 3.13422 16.238 4.59704 17.698C4.79792 17.8985 4.87043 17.9879 5.05226 18.2062C5.20249 18.3865 5.38927 18.5493 5.55894 18.7194L8.60742 21.4501C9.58803 22.2291 13.7274 25.4296 14.3712 25.4296C15.0512 25.4296 16.3664 24.4544 17.0065 23.987C18.4365 22.943 21.1158 20.9794 22.3633 19.7127C22.5586 19.5143 22.6501 19.4259 22.8665 19.2527C23.4034 18.8232 24.6917 17.3449 25.2218 16.7349C26.9441 14.7528 28.9686 11.4731 28.9686 8.80306C28.9686 6.57247 28.5916 5.27799 27.4529 3.57052C26.095 1.5345 23.4003 0.00744838 20.9344 0.00744838C19.2896 0.00744838 18.281 0.172593 16.9172 0.858639C16.4162 1.11065 16.048 1.31976 15.607 1.64421L14.4843 2.61779C14.0055 2.29621 13.8058 1.74113 12.0514 0.858639C9.86229 -0.242614 7.00246 -0.309101 4.80902 0.80167C3.49087 1.46922 2.39552 2.268 1.53827 3.53634C0.667929 4.82405 0 6.35894 0 8.06541Z" fill="#B1B1B1"/>
</svg>
